<?xml version="1.0" encoding="UTF-8"?>
<svg width="442px" height="384px" viewBox="0 0 442 384" version="1.1" xmlns="http://www.w3.org/2000/svg" xmlns:xlink="http://www.w3.org/1999/xlink">
    <!-- Generator: Sketch 63.1 (92452) - https://sketch.com -->
    <title>Group 19</title>
    <desc>Created with Sketch.</desc>
    <defs>
        <path d="M16,0 C7.163444,0 0,7.163444 0,16 C0,24.836556 7.163444,32 16,32 C24.836556,32 32,24.836556 32,16 C31.9900802,7.16755617 24.8324438,0.0099197691 16,0 Z M16,28 C9.372583,28 4,22.627417 4,16 C4,9.372583 9.372583,4 16,4 C22.627417,4 28,9.372583 28,16 C27.9922852,22.6242188 22.6242188,27.9922852 16,28 Z M23,16 L16,16 L16,9 C16,8.44771525 15.5522847,8 15,8 C14.4477153,8 14,8.44771525 14,9 L14,17 C14,17.5522847 14.4477153,18 15,18 L23,18 C23.5522847,18 24,17.5522847 24,17 C24,16.4477153 23.5522847,16 23,16 Z" id="path-1"></path>
    </defs>
    <g id="Page-1" stroke="none" stroke-width="1" fill="none" fill-rule="evenodd">
        <g id="Desktop" transform="translate(-836.000000, -2739.000000)">
            <g id="Group-19" transform="translate(834.000000, 2739.000000)">
                <g id="Group-16" transform="translate(332.000000, 272.000000)" stroke="#CDCAD3">
                    <circle id="Oval" stroke-width="5" stroke-linecap="square" cx="16" cy="16" r="16"></circle>
                    <g id="Group-17" transform="translate(11.000000, 7.000000)" stroke-linecap="round" stroke-width="2">
                        <line x1="5.26406926" y1="-1.5107492e-13" x2="5.26406926" y2="18.4242424" id="Path"></line>
                        <path d="M9.70562771,2.92024242 C7.57236364,1.74701299 0.853437229,0.872519481 0.853437229,4.91137662 C0.853437229,9.74642424 9.3858355,8.04020779 9.3858355,12.3060779 C9.3858355,16.5719481 3.83948052,16.2521558 -9.40200299e-14,14.8650736" id="Path"></path>
                    </g>
                </g>
                <text id="…-equals-the-percent" font-family="InterUI-Regular, Inter UI" font-size="16" font-weight="normal" fill="#FFFFFF" fill-opacity="0.6">
                    <tspan x="12.5909091" y="274">… equals the percentage of</tspan>
                    <tspan x="2.04545455" y="293">your membership distributed</tspan>
                    <tspan x="105.568182" y="312">to that partner.</tspan>
                </text>
                <g id="Group-18" transform="translate(57.000000, 0.000000)">
                    <g id="Group-13">
                        <path d="M95.9807962,0 L95.9807962,48 C122.495923,48 143.990398,69.490176 143.990398,96 C143.990398,122.509824 122.495923,144 95.9807962,144 C87.2418964,144 79.0487698,141.664512 71.9905901,137.58528 L48,179.170944 C62.1171274,187.329024 78.5029966,192 95.9807962,192 C149.010666,192 192,149.019264 192,96 C192,42.980736 149.010666,0 95.9807962,0" id="Fill-1" fill="#712290"></path>
                        <path d="M48.2155804,96 L0,96 C0,131.538116 19.4061925,162.563181 48.2445098,179.15493 L72.3380282,137.577273 C57.9184838,129.281782 48.2155804,113.768866 48.2155804,96" id="Fill-3" fill="#962BB9"></path>
                        <path d="M13.5554044,46.6478873 C4.95031562,61.0804129 0,77.9592467 0,96 L47.9830531,96 C47.9830531,86.9796234 50.4582109,78.540399 54.7605634,71.3239437 L13.5554044,46.6478873 Z" id="Fill-5" fill="#B933E1"></path>
                        <path d="M68.9577465,55.8714073 L42.1168736,16.2253521 C30.515313,24.0795209 20.7330113,34.4100845 13.5211268,46.4543685 L54.6596814,70.9859155 C58.2656237,64.9637735 63.1569661,59.7984917 68.9577465,55.8714073" id="Fill-7" fill="#D64CF1"></path>
                        <path d="M82.4788732,49.7059293 L69.2124101,3.38028169 C59.3758355,6.20952016 50.1856557,10.5711504 41.915493,16.1930041 L68.8304147,56.1126761 C72.965496,53.3015564 77.560586,51.1203558 82.4788732,49.7059293" id="Fill-9" fill="#F564FF"></path>
                        <path d="M96,48.1662543 L96,0 C86.8534401,0 78.0085704,1.30048887 69.6338028,3.72344412 L82.8169014,50.028169 C87.0042852,48.8163061 91.4265291,48.1662543 96,48.1662543" id="Fill-11" fill="#F690FF"></path>
                    </g>
                    <g id="Icons-/-History-16" transform="translate(80.000000, 80.000000)">
                        <rect id="bouding-box" x="0" y="0" width="32" height="32"></rect>
                        <mask id="mask-2" fill="white">
                            <use xlink:href="#path-1"></use>
                        </mask>
                        <g id="Shape" fill-rule="nonzero"></g>
                        <g id="Color-/-Photon-/-Primary-(on-Dark)---Grey-10-80%" mask="url(#mask-2)" fill="#F9F9FA" fill-opacity="0.8" fill-rule="evenodd">
                            <rect id="Rectangle" x="0" y="0" width="32" height="32"></rect>
                        </g>
                    </g>
                </g>
                <text id="Time-spent-on-a-part" font-family="InterUI-Regular, Inter UI" font-size="16" font-weight="normal" fill="#FFFFFF" fill-opacity="0.6">
                    <tspan x="281" y="92">Time spent on a</tspan>
                    <tspan x="281" y="111">partner site…</tspan>
                </text>
                <g id="Group-13" transform="translate(252.000000, 192.000000)">
                    <path d="M96,0 L96,48 C122.509824,48 144,69.490176 144,96 C144,122.509824 122.509824,144 96,144 C87.262848,144 79.07136,141.664512 72.014592,137.58528 L48.0288,179.170944 C62.143104,187.329024 78.525696,192 96,192 C149.019264,192 192,149.019264 192,96 C192,42.980736 149.019264,0 96,0" id="Fill-1" fill="#008787"></path>
                    <path d="M48,96 L0,96 C0,131.54496 19.319424,162.576 48.0288,179.170944 L72.014592,137.58528 C57.65952,129.288192 48,113.772288 48,96" id="Fill-3" fill="#2AC3A2"></path>
                    <path d="M13.560384,46.791936 C4.952256,61.18272 0.000192,78.011904 0.000192,96 L48.000192,96 C48.000192,87.005952 50.476224,78.59136 54.780096,71.395968 L13.560384,46.791936 Z" id="Fill-5" fill="#3FE1B0"></path>
                    <path d="M69.1063296,56.2368768 L42.2125056,16.4736768 C30.5880576,24.3510528 20.7864576,34.7121408 13.5603456,46.7920128 L54.7800576,71.3960448 C58.3931136,65.3561088 63.2941056,60.1755648 69.1063296,56.2368768" id="Fill-7" fill="#54FFBD"></path>
                    <path d="M82.743936,49.855296 L69.487872,3.710784 C59.659008,6.52896 50.476032,10.873536 42.212352,16.473408 L69.106176,56.236992 C73.238016,53.436864 77.829504,51.264192 82.743936,49.855296" id="Fill-9" fill="#88FFD1"></path>
                    <path d="M96,48 L96,0 C86.802816,0 77.908992,1.296 69.487872,3.710592 L82.743936,49.855488 C86.954496,48.647808 91.401216,48 96,48" id="Fill-11" fill="#B3FFE3"></path>
                </g>
                <path id="Path-2" d="M313.8496,151 C350.297426,151 367.446157,166.126379 364.768257,196.172023 L364.681039,197.087064 L363.343,205.068 L369.588147,197.322091 C369.908112,196.925203 370.469147,196.837112 370.891743,197.09854 L370.994288,197.171203 C371.391176,197.491167 371.479268,198.052202 371.217839,198.474798 L371.145177,198.577344 L362.503912,209.296068 L361.388132,210.680094 L360.784755,209.007841 L356.111844,196.056918 C355.924398,195.537416 356.193584,194.964321 356.713086,194.776876 C357.195481,194.60282 357.724086,194.822491 357.947219,195.270704 L357.993128,195.378119 L361.37,204.739 L362.699903,196.820859 C365.670812,167.514305 349.565718,153 313.8496,153 C299.95492,153 288.150599,157.104761 277.173985,165.029293 C268.634259,171.194522 261.814862,178.34121 250.760742,191.735733 C250.296024,192.298842 246.709038,196.659778 245.657696,197.929773 C236.194885,209.360618 230.114662,215.748487 222.97556,221.029668 C213.9011,227.742538 204.428867,231.19845 193.588452,231.19845 C159.036926,231.19845 147.037696,211.640878 157.872662,173.281905 C158.022788,172.750416 158.575346,172.44126 159.106835,172.591385 C159.638324,172.741511 159.94748,173.294069 159.797354,173.825558 C149.298986,210.992877 160.468719,229.19845 193.588452,229.19845 C203.976708,229.19845 213.040114,225.891697 221.786129,219.421795 C228.758689,214.263815 234.751759,207.967508 244.117093,196.654414 C245.165997,195.387364 248.751623,191.028081 249.218201,190.462718 C260.375341,176.943364 267.285646,169.701404 276.003297,163.407723 C287.309112,155.245525 299.518238,151 313.8496,151 Z" fill="#FFFFFF" fill-rule="nonzero"></path>
            </g>
        </g>
    </g>
</svg>