<?xml version="1.0" encoding="UTF-8"?>
<svg width="251px" height="80px" viewBox="0 0 251 80" version="1.1" xmlns="http://www.w3.org/2000/svg" xmlns:xlink="http://www.w3.org/1999/xlink">
    <!-- Generator: Sketch 63.1 (92452) - https://sketch.com -->
    <title>Group 4</title>
    <desc>Created with Sketch.</desc>
    <defs>
        <linearGradient x1="87.0576452%" y1="15.5%" x2="9.60965377%" y2="93.1%" id="linearGradient-1">
            <stop stop-color="#FFF44F" offset="5%"></stop>
            <stop stop-color="#FF980E" offset="37%"></stop>
            <stop stop-color="#FF3647" offset="53%"></stop>
            <stop stop-color="#E31587" offset="70%"></stop>
        </linearGradient>
        <radialGradient cx="87.72%" cy="0%" fx="87.72%" fy="0%" r="126.02304%" gradientTransform="translate(0.877200,0.000000),scale(0.812550,1.000000),translate(-0.877200,-0.000000)" id="radialGradient-2">
            <stop stop-color="#FFBD4F" offset="13%"></stop>
            <stop stop-color="#FF980E" offset="28%"></stop>
            <stop stop-color="#FF3750" offset="47%"></stop>
            <stop stop-color="#EB0878" offset="78%"></stop>
            <stop stop-color="#E50080" offset="86%"></stop>
        </radialGradient>
        <radialGradient cx="49%" cy="40%" fx="49%" fy="40%" r="129.173616%" gradientTransform="translate(0.490000,0.400000),scale(0.812550,1.000000),translate(-0.490000,-0.400000)" id="radialGradient-3">
            <stop stop-color="#960E18" offset="30%"></stop>
            <stop stop-color="#B11927" stop-opacity="0.74" offset="35%"></stop>
            <stop stop-color="#DB293D" stop-opacity="0.34" offset="43%"></stop>
            <stop stop-color="#F5334B" stop-opacity="0.09" offset="50%"></stop>
            <stop stop-color="#FF3750" stop-opacity="0" offset="53%"></stop>
        </radialGradient>
        <radialGradient cx="48%" cy="-12%" fx="48%" fy="-12%" r="140%" gradientTransform="translate(0.480000,-0.120000),scale(1.000000,0.596700),translate(-0.480000,0.120000)" id="radialGradient-4">
            <stop stop-color="#FFF44F" offset="13%"></stop>
            <stop stop-color="#FF980E" offset="53%"></stop>
        </radialGradient>
        <radialGradient cx="22.76%" cy="110.11%" fx="22.76%" fy="110.11%" r="100%" gradientTransform="translate(0.227600,1.101100),scale(1.000000,0.911625),translate(-0.227600,-1.101100)" id="radialGradient-5">
            <stop stop-color="#3A8EE6" offset="35%"></stop>
            <stop stop-color="#9059FF" offset="67%"></stop>
            <stop stop-color="#C139E6" offset="100%"></stop>
        </radialGradient>
        <radialGradient cx="46.8%" cy="33%" fx="46.8%" fy="33%" r="53.1%" gradientTransform="translate(0.468000,0.330000),scale(1.000000,0.911625),translate(-0.468000,-0.330000)" id="radialGradient-6">
            <stop stop-color="#9059FF" stop-opacity="0" offset="21%"></stop>
            <stop stop-color="#6E008B" stop-opacity="0.6" offset="97%"></stop>
        </radialGradient>
        <radialGradient cx="210%" cy="-100%" fx="210%" fy="-100%" r="290%" gradientTransform="translate(2.100000,-1.000000),scale(1.000000,0.994500),translate(-2.100000,1.000000)" id="radialGradient-7">
            <stop stop-color="#FFE226" offset="10%"></stop>
            <stop stop-color="#FF7139" offset="79%"></stop>
        </radialGradient>
        <radialGradient cx="84%" cy="-41%" fx="84%" fy="-41%" r="213.435%" gradientTransform="translate(0.840000,-0.410000),scale(0.843348,1.000000),translate(-0.840000,0.410000)" id="radialGradient-8">
            <stop stop-color="#FFF44F" offset="11%"></stop>
            <stop stop-color="#FF980E" offset="46%"></stop>
            <stop stop-color="#FF3647" offset="72%"></stop>
            <stop stop-color="#E31587" offset="90%"></stop>
        </radialGradient>
        <radialGradient cx="15.6126441%" cy="-18.9336061%" fx="15.6126441%" fy="-18.9336061%" r="345.179474%" gradientTransform="translate(0.156126,-0.189336),scale(1.000000,0.474985),rotate(83.936832),translate(-0.156126,0.189336)" id="radialGradient-9">
            <stop stop-color="#FFF44F" offset="0%"></stop>
            <stop stop-color="#FF980E" offset="30%"></stop>
            <stop stop-color="#FF3647" offset="57%"></stop>
            <stop stop-color="#E31587" offset="74%"></stop>
        </radialGradient>
        <radialGradient cx="18.9%" cy="-42.5%" fx="18.9%" fy="-42.5%" r="243.168%" gradientTransform="translate(0.189000,-0.425000),scale(0.980392,1.000000),translate(-0.189000,0.425000)" id="radialGradient-10">
            <stop stop-color="#FFF44F" offset="14%"></stop>
            <stop stop-color="#FF980E" offset="48%"></stop>
            <stop stop-color="#FF3647" offset="66%"></stop>
            <stop stop-color="#E31587" offset="90%"></stop>
        </radialGradient>
        <radialGradient cx="159.3%" cy="-44.72%" fx="159.3%" fy="-44.72%" r="349.120732%" gradientTransform="translate(1.593000,-0.447200),scale(0.896824,1.000000),translate(-1.593000,0.447200)" id="radialGradient-11">
            <stop stop-color="#FFF44F" offset="9%"></stop>
            <stop stop-color="#FF980E" offset="63%"></stop>
        </radialGradient>
        <linearGradient x1="79.8455808%" y1="14%" x2="18.1647138%" y2="84%" id="linearGradient-12">
            <stop stop-color="#FFF44F" stop-opacity="0.8" offset="17%"></stop>
            <stop stop-color="#FFF44F" stop-opacity="0" offset="60%"></stop>
        </linearGradient>
        <polygon id="path-13" points="0.0002 0.005 65.4892 0.005 65.4892 37.3998 0.0002 37.3998"></polygon>
        <path d="M35,17.5 L22.5,17.5 L22.5,5 C22.5,3.61928813 21.3807119,2.5 20,2.5 C18.6192881,2.5 17.5,3.61928813 17.5,5 L17.5,17.5 L5,17.5 C3.61928813,17.5 2.5,18.6192881 2.5,20 C2.5,21.3807119 3.61928813,22.5 5,22.5 L17.5,22.5 L17.5,35 C17.5,36.3807119 18.6192881,37.5 20,37.5 C21.3807119,37.5 22.5,36.3807119 22.5,35 L22.5,22.5 L35,22.5 C36.3807119,22.5 37.5,21.3807119 37.5,20 C37.5,18.6192881 36.3807119,17.5 35,17.5 Z" id="path-15"></path>
    </defs>
    <g id="Page-1" stroke="none" stroke-width="1" fill="none" fill-rule="evenodd">
        <g id="Desktop" transform="translate(-595.000000, -2087.000000)">
            <g id="Group-4" transform="translate(595.000000, 2087.000000)">
                <g id="Fx-Browser-icon-fullColor" fill-rule="nonzero">
                    <path d="M74.7154779,26.8309893 C73.0351515,22.7787205 69.631867,18.4038703 66.959432,17.0211248 C69.1344453,21.296136 70.3932825,25.5845344 70.8742951,28.7850267 C70.8742951,28.791317 70.8767082,28.8069622 70.8818561,28.849543 C66.5101116,17.9248368 59.0972094,13.519664 53.0440123,3.92802583 C52.7383521,3.44302456 52.4318876,2.95673296 52.1333059,2.44415096 C51.9812778,2.18237262 51.8392835,1.91486488 51.7076339,1.64221337 C51.4561434,1.15541336 51.2621589,0.640858392 51.1296145,0.108983536 C51.1315348,0.056795204 51.0934437,0.0117507664 51.0417774,0.00511229514 C51.0180706,-0.00170409838 50.9929302,-0.00170409838 50.9692234,0.00511229514 C50.9637537,0.00704778409 50.95571,0.0133381232 50.9499185,0.0155961937 C50.9413922,0.0189832993 50.9306137,0.0267252552 50.9216047,0.0317252683 C50.9259483,0.0259188014 50.9349573,0.012854251 50.9376921,0.00978972679 C41.225743,5.71238536 37.9310483,16.2616066 37.6282839,21.5395237 C33.7500239,21.8068316 30.0420544,23.2394114 26.9877714,25.6505023 C26.6679937,25.3796964 26.3336813,25.1266296 25.9863322,24.8924358 C25.1051181,21.8014458 25.0676721,18.5299588 25.8779033,15.4195077 C21.9062518,17.2325769 18.8171538,20.0985522 16.571356,22.629204 L16.553499,22.629204 C15.0208547,20.6829086 15.1289618,14.2625691 15.2163163,12.9220817 C15.1979767,12.839017 14.0729865,13.5075671 13.9256261,13.6083739 C12.5731846,14.5762367 11.3088259,15.6621957 10.1473449,16.8535437 C8.82564715,18.1973536 7.61801995,19.6493237 6.53701585,21.1943615 C6.53701585,21.196297 6.53588973,21.1985551 6.53524624,21.2004906 C6.53524624,21.1983938 6.53637235,21.196297 6.53701585,21.1943615 C4.05092965,24.7265351 2.2877293,28.7176826 1.34931958,32.9371343 C1.3308191,33.0211668 1.31521434,33.1082638 1.29719648,33.1929415 C1.22448154,33.5342327 0.96257905,35.241334 0.916730027,35.6123027 C0.913190804,35.6408511 0.911582067,35.6682706 0.908203717,35.696819 C0.56960285,37.4617849 0.359910168,39.2491699 0.280796038,41.0447363 C0.280796038,41.1108655 0.276774194,41.1763496 0.276774194,41.2426401 C0.276774194,62.6480189 17.5874347,80 38.9392442,80 C58.0615041,80 73.9389403,66.0825441 77.0473431,47.8015283 C77.1128188,47.3053979 77.1652636,46.8066869 77.2230173,46.3062018 C77.9915113,39.6594101 77.1377542,32.6731014 74.7154779,26.8309893 Z M30.1542497,57.168811 C30.3350718,57.2554241 30.5049545,57.3501017 30.6906028,57.4331665 C30.6983247,57.4384891 30.7089424,57.4444568 30.7168252,57.4492956 C30.5278681,57.3587159 30.3403205,57.2652098 30.1542497,57.168811 L30.1542497,57.168811 Z M70.8849127,28.8590591 L70.8797648,28.8214784 C70.8816953,28.8351881 70.8841084,28.849543 70.8861997,28.8632527 L70.8849127,28.8590591 Z" id="shape-base" fill="url(#linearGradient-1)"></path>
                    <path d="M74.7154663,27.0283523 C73.0351329,22.9911256 69.6318342,18.6325148 66.9593881,17.254902 C69.1344105,21.5140444 70.3932529,25.7865242 70.8742675,28.9751363 C70.8742675,28.9658162 70.8760371,28.9828495 70.880059,29.0114527 C70.8819894,29.0251115 70.8844026,29.0394131 70.8864939,29.053072 C74.5343217,38.9308114 72.5470398,48.9753492 69.683314,55.113303 C65.252993,64.6102023 54.5265292,74.3433189 37.7375124,73.8686347 C19.5981155,73.355545 3.61781445,59.9115672 0.63471981,42.3032552 C0.0911250963,39.5264968 0.63471981,38.1165849 0.908206348,35.8620756 C0.575035395,37.6001207 0.448105466,38.1021226 0.280796054,41.1901415 C0.280796054,41.2560252 0.276774194,41.3212662 0.276774194,41.3873106 C0.276774194,62.7124293 17.5871851,80 38.9390835,80 C58.0614231,80 73.9389254,66.1342056 77.0473413,47.9210488 C77.1128172,47.4267601 77.1652622,46.9299003 77.2230161,46.4312729 C77.9915133,39.8091541 77.1377527,32.8487785 74.7154663,27.0283523 Z" id="body-outer-ring" fill="url(#radialGradient-2)"></path>
                    <path d="M74.7154663,27.0283523 C73.0351329,22.9911256 69.6318342,18.6325148 66.9593881,17.254902 C69.1344105,21.5140444 70.3932529,25.7865242 70.8742675,28.9751363 C70.8742675,28.9658162 70.8760371,28.9828495 70.880059,29.0114527 C70.8819894,29.0251115 70.8844026,29.0394131 70.8864939,29.053072 C74.5343217,38.9308114 72.5470398,48.9753492 69.683314,55.113303 C65.252993,64.6102023 54.5265292,74.3433189 37.7375124,73.8686347 C19.5981155,73.355545 3.61781445,59.9115672 0.63471981,42.3032552 C0.0911250963,39.5264968 0.63471981,38.1165849 0.908206348,35.8620756 C0.575035395,37.6001207 0.448105466,38.1021226 0.280796054,41.1901415 C0.280796054,41.2560252 0.276774194,41.3212662 0.276774194,41.3873106 C0.276774194,62.7124293 17.5871851,80 38.9390835,80 C58.0614231,80 73.9389254,66.1342056 77.0473413,47.9210488 C77.1128172,47.4267601 77.1652622,46.9299003 77.2230161,46.4312729 C77.9915133,39.8091541 77.1377527,32.8487785 74.7154663,27.0283523 Z" id="body-outer-ring-shadow" fill="url(#radialGradient-3)"></path>
                    <path d="M56.1942375,31.1961564 C56.2793609,31.2551678 56.3566867,31.3138584 56.4367742,31.372549 C55.4569763,29.6560309 54.2368861,28.0844583 52.8125318,26.7042383 C40.6767617,14.7262176 49.6303137,0.732510422 51.1402793,0.0218085415 C51.1446655,0.0160356922 51.1537626,0.00304678153 51.1565243,0 C41.349464,5.66957935 38.0225037,16.1577239 37.7167742,21.4050834 C38.1716321,21.3739742 38.6251903,21.3362903 39.0881706,21.3362903 C46.4066711,21.3362903 52.7808542,25.3083313 56.1942375,31.1961564 L56.1942375,31.1961564 Z" id="tail-tip" fill="url(#radialGradient-4)"></path>
                    <path d="M39.5324665,33.4694529 C39.4692869,34.4313053 36.0738282,37.748232 34.8864385,37.748232 C23.9001094,37.748232 22.1167742,44.3989797 22.1167742,44.3989797 C22.6034014,49.9998634 26.4993129,54.6120246 31.217684,57.052536 C31.4329446,57.1638779 31.6507774,57.2644396 31.8687709,57.363875 C32.2425238,57.529503 32.6209534,57.6843515 33.0035914,57.8282286 C34.6214119,58.4014698 36.3159998,58.7285696 38.0307866,58.7986087 C57.2868848,59.7025376 61.0175328,35.7588805 47.1210861,28.8058042 C50.6798793,28.1863442 54.3738734,29.6188253 56.4367742,31.0691661 C53.0588385,25.1619313 46.7508507,21.1764706 39.5085129,21.1764706 C39.0503406,21.1764706 38.6016533,21.2142818 38.1513583,21.2454961 C34.2757875,21.5121542 30.5703891,22.9412519 27.5182239,25.3464821 C28.1072566,25.8452681 28.7721691,26.5120323 30.1730511,27.8931867 C32.7937967,30.4783461 39.5181587,33.1553787 39.5324665,33.4694529 L39.5324665,33.4694529 Z" id="globe-base" fill="url(#radialGradient-5)"></path>
                    <path d="M39.5324665,33.4694529 C39.4692869,34.4313053 36.0738282,37.748232 34.8864385,37.748232 C23.9001094,37.748232 22.1167742,44.3989797 22.1167742,44.3989797 C22.6034014,49.9998634 26.4993129,54.6120246 31.217684,57.052536 C31.4329446,57.1638779 31.6507774,57.2644396 31.8687709,57.363875 C32.2425238,57.529503 32.6209534,57.6843515 33.0035914,57.8282286 C34.6214119,58.4014698 36.3159998,58.7285696 38.0307866,58.7986087 C57.2868848,59.7025376 61.0175328,35.7588805 47.1210861,28.8058042 C50.6798793,28.1863442 54.3738734,29.6188253 56.4367742,31.0691661 C53.0588385,25.1619313 46.7508507,21.1764706 39.5085129,21.1764706 C39.0503406,21.1764706 38.6016533,21.2142818 38.1513583,21.2454961 C34.2757875,21.5121542 30.5703891,22.9412519 27.5182239,25.3464821 C28.1072566,25.8452681 28.7721691,26.5120323 30.1730511,27.8931867 C32.7937967,30.4783461 39.5181587,33.1553787 39.5324665,33.4694529 L39.5324665,33.4694529 Z" id="globe-shadow" fill="url(#radialGradient-6)"></path>
                    <path d="M25.220141,24.5692164 C25.4878292,24.7422268 25.7533935,24.9185143 26.0167742,25.0980392 C25.1407058,22.0270067 25.1034784,18.7766425 25.9089784,15.6862745 C21.9605183,17.4876374 18.8894582,20.3351081 16.6567742,22.8494204 C16.8414984,22.8441321 22.4166512,22.7436558 25.220141,24.5692164 L25.220141,24.5692164 Z" id="ear" fill="url(#radialGradient-7)"></path>
                    <path d="M1.24468023,41.9072116 C4.23278511,59.647221 20.2399258,73.1917502 38.4097886,73.7086774 C55.2270034,74.186912 65.9714828,64.380351 70.4092448,54.8130693 C73.2776192,48.6287224 75.2683999,38.5103538 71.6144454,28.5579265 L71.6131563,28.5537172 L71.6079997,28.5159959 C71.603971,28.4871788 71.6015539,28.4700181 71.6021985,28.4794079 C71.6021985,28.4857218 71.6046156,28.5014255 71.6097723,28.5441655 C72.9833691,37.5553417 68.42072,46.2851463 61.2882975,52.1877978 L61.2668653,52.2384706 C47.3689466,63.6071458 34.0698414,59.0975913 31.3771147,57.251677 C31.1878511,57.1601835 30.9998317,57.0661144 30.8131085,56.969496 C22.7104342,53.0793475 19.3631379,45.66315 20.0808761,39.3029863 C13.2391585,39.3029863 10.9062677,33.5057278 10.9062677,33.5057278 C10.9062677,33.5057278 17.0489399,29.1056135 25.1446849,32.9324615 C32.6427446,36.4768046 39.6844427,33.5060515 39.6852484,33.5057278 C39.6709065,33.1897109 32.9305489,30.4961202 30.3029246,27.8951328 C28.8988714,26.5054356 28.2322161,25.8353568 27.6417821,25.3326762 C27.321466,25.0608577 26.9865907,24.8068445 26.6386568,24.5717749 C26.3729822,24.3908582 26.1054135,24.212765 25.8359954,24.0375251 C23.0114523,22.1932298 17.3939505,22.2947373 17.2078285,22.2995941 L17.1899414,22.2995941 C15.6547165,20.3460204 15.7630057,13.9016719 15.8505072,12.5561718 C15.8321368,12.4727964 14.7052524,13.1438466 14.5576439,13.2450303 C13.2029252,14.2165124 11.9364377,15.3065324 10.7730011,16.5023355 C9.44903577,17.8514799 8.23937415,19.3092059 7.15659328,20.8603573 C7.15659328,20.8623001 7.15546527,20.8645666 7.15482069,20.8665093 C7.15482069,20.8644047 7.15594871,20.8623001 7.15659328,20.8603573 C4.66632121,24.4057395 2.90015212,28.4118121 1.96016239,32.6470425 C1.94163075,32.7313892 0.566261334,38.7734314 1.24468023,41.9072116 Z" id="body" fill="url(#radialGradient-8)"></path>
                    <path d="M52.5558993,26.9426093 C53.9781401,28.334684 55.1964199,29.919755 56.1747639,31.6510162 C56.3893653,31.8117801 56.5898546,31.9720587 56.760011,32.1284557 C65.5974372,40.2475141 60.9670424,51.7306444 60.6217012,52.5490196 C67.8011975,46.6521896 72.39396,37.9309947 71.0112974,28.9287057 C66.6032901,17.9741228 59.1288993,13.5568375 53.025492,3.9388263 C52.7172965,3.45249147 52.4082899,2.96486277 52.1072315,2.45087138 C51.9539423,2.18837325 51.8107702,1.92012998 51.6780286,1.64672879 C51.424452,1.15859027 51.2288585,0.642620491 51.0952146,0.109283196 C51.0971509,0.0569513676 51.0587438,0.0117830762 51.006649,0.00512635186 C50.9827455,-0.00170878395 50.9573966,-0.00170878395 50.9334931,0.00512635186 C50.927978,0.00706716262 50.9198676,0.0133747976 50.9140281,0.0156390768 C50.9054311,0.0190354957 50.8945631,0.0267987387 50.8854795,0.0318124999 C49.3784032,0.747971671 40.4381371,14.861871 52.5558993,26.9426093 Z" id="tail-flame" fill="url(#radialGradient-9)"></path>
                    <path d="M57.3736133,32.0574622 C57.2058953,31.9031759 57.0082791,31.7450602 56.796753,31.586466 C56.7185699,31.527751 56.6418257,31.4693551 56.5580466,31.4109593 C54.5064193,29.9727614 50.8326121,28.5522737 47.2932671,29.1665473 C61.1137722,36.061409 57.4035115,59.8045977 38.2526445,58.9082369 C36.5472286,58.8387842 34.8619013,58.5144231 33.252922,57.9459814 C32.8724303,57.8031683 32.4960728,57.649618 32.1243031,57.4855156 C31.9075008,57.3869127 31.6908584,57.287193 31.4767742,57.1767833 C31.4844486,57.1820485 31.4950009,57.1879519 31.5028352,57.1927384 C34.1744915,59.0116264 47.3695316,63.4562545 61.1586995,52.2520644 L61.179964,52.2021248 C61.5203564,51.3957511 66.0843959,40.0671108 57.3736133,32.0574622 L57.3736133,32.0574622 Z" id="tail-small" fill="url(#radialGradient-10)"></path>
                    <path d="M21.7703443,44.5150253 C21.7703443,44.5150253 23.5629282,37.8189926 34.606234,37.8189926 C35.8001049,37.8189926 39.2131731,34.4794809 39.2763571,33.5110792 C39.3395411,32.5426775 32.2146139,36.4839979 24.6950694,32.9374575 C16.5766503,29.1082372 10.4167742,33.5110792 10.4167742,33.5110792 C10.4167742,33.5110792 12.7561988,39.3119317 19.6170782,39.3119317 C18.8974914,45.6760382 22.2541626,53.0976432 30.3793687,56.9893934 C30.5610025,57.0763843 30.7316479,57.1714749 30.9181296,57.254902 C26.1756115,54.797611 22.2594952,50.1540455 21.7703443,44.5150253 L21.7703443,44.5150253 Z" id="cheek-tufts" fill="url(#radialGradient-11)"></path>
                    <path d="M74.7154548,26.8309893 C73.0351143,22.7787205 69.6318014,18.4038703 66.9593442,17.0211248 C69.1343756,21.296136 70.3932233,25.5845344 70.8742399,28.7850267 C70.8742399,28.791317 70.876653,28.8069622 70.881801,28.849543 C66.51002,17.9248368 59.0970561,13.519664 53.0438085,3.92802583 C52.7381458,3.44302456 52.4316788,2.95673296 52.1330946,2.44415096 C51.9810652,2.18237262 51.8390697,1.91486488 51.707419,1.64221337 C51.4559264,1.15541336 51.2619403,0.640858392 51.1293948,0.108983536 C51.1313151,0.056795204 51.0932237,0.0117507664 51.041557,0.00511229514 C51.0178499,-0.00170409838 50.9927094,-0.00170409838 50.9690023,0.00511229514 C50.9635325,0.00704778409 50.9554888,0.0133381232 50.9496973,0.0155961937 C50.9411709,0.0189832993 50.9303923,0.0267252552 50.9213833,0.0317252683 C50.9257269,0.0259188014 50.9347359,0.012854251 50.9374708,0.00978972679 C41.2254407,5.71238536 37.9307186,16.2616066 37.6279516,21.5395237 C38.0784019,21.5082333 38.5275652,21.47033 38.9860593,21.47033 C46.2339653,21.47033 52.5463827,25.4655018 55.9262078,31.3871303 C53.8618584,29.9332555 50.1652703,28.497284 46.6039781,29.1182533 C60.510183,36.0882717 56.7769153,60.0902702 37.5072953,59.1841388 C35.7913043,59.113929 34.0955264,58.7860323 32.4765699,58.2113943 C32.0937188,58.0670245 31.7150275,57.9118005 31.3409525,57.7459092 C31.1228059,57.6462316 30.9048201,57.5454248 30.6894084,57.4338116 C30.6971304,57.4391342 30.7077481,57.445102 30.715631,57.4499407 C30.5266839,57.358788 30.338979,57.2650695 30.1525681,57.168811 C30.3333917,57.2554241 30.5032759,57.3501017 30.6889257,57.4331665 C25.9672414,54.9867084 22.0685941,50.3633092 21.5816252,44.7487783 C21.5816252,44.7487783 23.3662127,38.0818253 34.3602565,38.0818253 C35.5488018,38.0818253 38.9466449,34.7568166 39.009547,33.7926205 C38.9952291,33.4777809 32.2661453,30.7942255 29.6429158,28.2029284 C28.241211,26.8184086 27.5756707,26.1508262 26.9862243,25.6500184 C26.666444,25.3792125 26.3321288,25.1261457 25.9847768,24.8919519 C25.1035554,21.8009619 25.066109,18.5294749 25.876347,15.4190238 C21.9046624,17.2320931 18.8155386,20.0980683 16.5697222,22.6287202 L16.551865,22.6287202 C15.0192079,20.6824247 15.127316,14.2620853 15.2146712,12.9215979 C15.1963314,12.8385331 14.0713318,13.5070833 13.9239702,13.60789 C12.5715174,14.5757528 11.3071482,15.6617118 10.1456575,16.8530598 C8.82431732,18.1970687 7.61705725,19.6492 6.53642452,21.1943615 C6.53642452,21.196297 6.53529839,21.1985551 6.53465489,21.2004906 C6.53465489,21.1983938 6.53578102,21.196297 6.53642452,21.1943615 C4.0503176,24.7265351 2.28710255,28.7176826 1.34868502,32.9371343 C1.33018438,33.0211668 1.31457949,33.1082638 1.29656148,33.1929415 C1.22384593,33.5342327 0.896625972,35.2660114 0.850937442,35.637464 C0.84739819,35.6660125 0.854315819,35.6090769 0.850937442,35.637464 C0.552538424,37.4270148 0.362145131,39.2329913 0.280796071,41.0455428 C0.280796071,41.111672 0.276774194,41.177156 0.276774194,41.2434465 C0.276774194,62.6480189 17.5869355,80 38.9389228,80 C58.0613422,80 73.9389106,66.0825441 77.0473394,47.8015283 C77.1128156,47.3053979 77.1652608,46.8066869 77.223015,46.3062018 C77.9915154,39.6594101 77.1377512,32.6731014 74.7154548,26.8309893 Z M70.8800314,28.8214784 C70.8819619,28.8351881 70.884375,28.849543 70.8864664,28.8632527 L70.8851794,28.8590591 L70.8800314,28.8214784 L70.8800314,28.8214784 Z" id="overlay-yellow" fill="url(#linearGradient-12)"></path>
                </g>
                <g id="Group-6-Copy-3" transform="translate(179.000000, 9.000000)">
                    <g id="Group-6-Copy-2" transform="translate(0.000000, -0.000000)">
                        <g id="Group-3" transform="translate(0.000000, 0.895200)">
                            <mask id="mask-14" fill="white">
                                <use xlink:href="#path-13"></use>
                            </mask>
                            <g id="Clip-2"></g>
                            <path d="M18.6982,0.0048 C8.3712,0.0048 0.0002,8.3758 0.0002,18.7028 C0.0002,29.0288 8.3712,37.3998 18.6982,37.3998 C23.6762,37.3998 28.2322,35.4228 31.5832,32.2508 L65.4892,0.0048 L18.6982,0.0048 Z" id="Fill-1" fill="#FFFFFF" mask="url(#mask-14)"></path>
                        </g>
                        <path d="M53.1455,61.8951 C63.4725,61.8951 71.8435,53.5241 71.8435,43.1971 C71.8435,32.8711 63.4725,24.5001 53.1455,24.5001 C48.1675,24.5001 43.6115,26.4771 40.2605,29.6491 L6.3545,61.8951 L53.1455,61.8951 Z" id="Fill-4" fill="#5FDDD5"></path>
                    </g>
                </g>
                <g id="Icons-/-New-16" transform="translate(109.000000, 20.000000)">
                    <mask id="mask-16" fill="white">
                        <use xlink:href="#path-15"></use>
                    </mask>
                    <use id="Shape" fill-opacity="0.8" fill="#F9F9FA" fill-rule="evenodd" xlink:href="#path-15"></use>
                </g>
            </g>
        </g>
    </g>
</svg>