<svg xmlns="http://www.w3.org/2000/svg" xmlns:xlink="http://www.w3.org/1999/xlink" viewBox="0 0 492.32 79.73"><defs><style>.cls-1{fill:#fff;}.cls-2{fill:#008787;}.cls-3{opacity:0.9;}.cls-4{fill:url(#linear-gradient);}.cls-5{fill:#20123a;}.cls-6{fill:url(#linear-gradient-2);}.cls-7{fill:url(#linear-gradient-3);}</style><linearGradient id="linear-gradient" x1="68.22" y1="71.29" x2="56.95" y2="60.62" gradientUnits="userSpaceOnUse"><stop offset="0" stop-color="#054096" stop-opacity="0.5"/><stop offset="0.05" stop-color="#0f3d9c" stop-opacity="0.44"/><stop offset="0.26" stop-color="#2f35b1" stop-opacity="0.25"/><stop offset="0.47" stop-color="#462fbf" stop-opacity="0.11"/><stop offset="0.67" stop-color="#542bc8" stop-opacity="0.03"/><stop offset="0.86" stop-color="#592acb" stop-opacity="0"/></linearGradient><linearGradient id="linear-gradient-2" x1="17.7" y1="56.62" x2="53.84" y2="20.48" gradientUnits="userSpaceOnUse"><stop offset="0" stop-color="#0090ed"/><stop offset="1" stop-color="#3fe1b0"/></linearGradient><linearGradient id="linear-gradient-3" x1="37.51" y1="60.81" x2="78.18" y2="78.02" gradientUnits="userSpaceOnUse"><stop offset="0" stop-color="#54ffbd"/><stop offset="1" stop-color="#0df"/></linearGradient></defs><title>fbwAsset 2</title><g id="Layer_2" data-name="Layer 2"><g id="Layer_1-2" data-name="Layer 1"><path class="cls-1" d="M94,23.74h21.42v5.79H100.17v7.85h15.28v5.74H100.17V55.76H94Zm28.7-2.24a3.45,3.45,0,0,1,3.56,3.6,3.58,3.58,0,0,1-7.16.08A3.55,3.55,0,0,1,122.73,21.5Zm-3,10.57h6.06V55.76H119.7Zm23.62,6.58a4.94,4.94,0,0,0-2.94-1c-2.46,0-3.87,1.58-3.87,5V55.76h-6V32.07h5.75v3.42a5.66,5.66,0,0,1,5.66-3.64,7.18,7.18,0,0,1,4,1.23Zm2.5,5.4A12.12,12.12,0,0,1,158,31.59c7.11,0,12.16,5,12.16,12.06v2.5H151.74c.66,3,3,5,6.54,5a6.34,6.34,0,0,0,5.88-3.51l5.05,3c-2.5,3.69-6.05,5.62-11.1,5.62C150.43,56.24,145.82,51.11,145.82,44.05Zm6-2.68H164.3c-.66-3-3.12-4.69-6.32-4.69A6.09,6.09,0,0,0,151.83,41.37Zm19.84-9.3h4.26V30.89c0-6.45,2.72-9.13,8.69-9.13h2.11V27H185c-2.81,0-3.42,1-3.42,3.91v1.18h5.14v5.44h-5V55.76h-5.79V37.51h-4.26Zm16.2,11.84a12.13,12.13,0,0,1,12.37-12.32,12.33,12.33,0,1,1,0,24.65A12,12,0,0,1,187.87,43.91Zm18.87,0a6.5,6.5,0,1,0-13,0,6.5,6.5,0,1,0,13,0Zm14-.26-8.55-11.58h7.11l5,7.28,5.18-7.28h7l-8.69,11.54L237,55.76h-7.07L224.25,48l-5.48,7.72H211.7Z"/><path class="cls-1" d="M251,24h13.84c6,0,10,3.32,10,8.49a7.37,7.37,0,0,1-4.3,6.91,7.66,7.66,0,0,1,5,7.52c0,5.6-4.12,9-10.24,9H251Zm3.68,3.32V37.8h10.42c4,0,6.08-2.27,6.08-5.33s-2.44-5.17-6.39-5.17Zm0,13.87V52.55h10.56c4,0,6.56-2.37,6.56-5.69s-2.31-5.69-6.74-5.69Z"/><path class="cls-1" d="M279.11,44.19a12.2,12.2,0,0,1,12.5-12.38c7,0,12.2,5,12.2,12v1.62H282.66c.53,4.51,4,7.7,9.09,7.7a8.57,8.57,0,0,0,8-4.55l3.11,1.79a12.35,12.35,0,0,1-11.13,6C284.07,56.4,279.11,51.1,279.11,44.19Zm3.63-1.88h17.34c-.57-4.46-3.81-7.31-8.47-7.31A8.87,8.87,0,0,0,282.74,42.31Z"/><path class="cls-1" d="M305.36,32.29H310v-5.2l3.59-2.28v7.48h7v3.2h-7V48.7c0,3,1.42,4.2,3.46,4.2a3.92,3.92,0,0,0,2.75-1.14l1.9,2.84a7.73,7.73,0,0,1-4.92,1.66c-4.39,0-6.78-2.27-6.78-7.48V35.49h-4.66Z"/><path class="cls-1" d="M323,32.29h4.65v-5.2l3.59-2.28v7.48h7v3.2h-7V48.7c0,3,1.42,4.2,3.46,4.2a3.9,3.9,0,0,0,2.75-1.14l1.91,2.84a7.77,7.77,0,0,1-4.92,1.66c-4.39,0-6.79-2.27-6.79-7.48V35.49H323Z"/><path class="cls-1" d="M340,44.19a12.2,12.2,0,0,1,12.51-12.38c7,0,12.19,5,12.19,12v1.62H343.5c.53,4.51,4,7.7,9.09,7.7a8.57,8.57,0,0,0,8-4.55l3.11,1.79a12.35,12.35,0,0,1-11.13,6C344.92,56.4,340,51.1,340,44.19Zm3.64-1.88h17.34A8,8,0,0,0,352.46,35,8.87,8.87,0,0,0,343.59,42.31Z"/><path class="cls-1" d="M369,32.29h3.5v4.46a6.63,6.63,0,0,1,6.83-4.81,7.89,7.89,0,0,1,4,.88l-1.51,3.41a5.26,5.26,0,0,0-2.92-.74c-4,0-6.3,2.27-6.3,7.48V55.91H369Z"/><path class="cls-1" d="M395.07,24h3.86l7.14,26.47L415.16,24h3.32l8.61,26.55L434.89,24h3.77L429,55.91h-3.63l-8.6-26.51-9.09,26.51h-3.73Z"/><path class="cls-1" d="M438.49,44.19A12.2,12.2,0,0,1,451,31.81c7,0,12.2,5,12.2,12v1.62H442c.54,4.51,4,7.7,9.09,7.7a8.57,8.57,0,0,0,8-4.55l3.1,1.79a12.33,12.33,0,0,1-11.13,6C443.45,56.4,438.49,51.1,438.49,44.19Zm3.63-1.88h17.34C458.89,37.85,455.65,35,451,35A8.87,8.87,0,0,0,442.12,42.31Z"/><path class="cls-1" d="M471.13,51.72v4.19h-3.55V21.4h3.59V36.45a10.92,10.92,0,0,1,9-4.64A12,12,0,0,1,492.32,44.1a12,12,0,0,1-12.19,12.3A10.79,10.79,0,0,1,471.13,51.72Zm17.47-7.66a8.76,8.76,0,0,0-8.78-9,9,9,0,0,0,0,17.94A8.68,8.68,0,0,0,488.6,44.06Z"/><path class="cls-2" d="M69.08,51.3H36.53A1.73,1.73,0,0,0,34.8,53v5.21A13.87,13.87,0,0,0,48.68,72.13h18A10.42,10.42,0,0,0,77.11,61.72V57.16C77.11,54.56,74.5,51.3,69.08,51.3Z"/><g class="cls-3"><path class="cls-4" d="M69.08,51.3H36.53A1.73,1.73,0,0,0,34.8,53v5.21A13.87,13.87,0,0,0,48.68,72.13h18A10.42,10.42,0,0,0,77.11,61.72V57.16C77.11,54.56,74.5,51.3,69.08,51.3Z"/></g><path class="cls-5" d="M66.8,16.78,38.38.85a6.73,6.73,0,0,0-6.54,0L3.42,16.78A6.71,6.71,0,0,0,0,22.62V54.48a6.68,6.68,0,0,0,3.42,5.83L31.84,76.24a6.65,6.65,0,0,0,6.54,0L66.8,60.31a6.66,6.66,0,0,0,3.42-5.83V22.62A6.69,6.69,0,0,0,66.8,16.78Z"/><path class="cls-6" d="M12.49,40.51V36.58a2.61,2.61,0,0,1,5.22,0v3.93a2.61,2.61,0,0,1-5.22,0Zm13.38,19a2.61,2.61,0,1,0,2.58-4.53L25,53a2.61,2.61,0,1,0-2.58,4.53Zm18.51.34a2.65,2.65,0,0,0,1.29-.34l3.45-2A2.61,2.61,0,0,0,46.54,53l-3.46,2a2.61,2.61,0,0,0,1.3,4.87ZM56.44,34a2.6,2.6,0,0,0-2.61,2.6v3.93a2.61,2.61,0,1,0,5.21,0V36.58A2.59,2.59,0,0,0,56.44,34Zm1.29-9.48-1.7-1a2.62,2.62,0,0,0-3.56,1,2.56,2.56,0,0,0-.29,1.76l-13.8,7.81V18.4a2.61,2.61,0,0,0,.38-4.71l-1.7-1a2.63,2.63,0,0,0-2.58,0l-1.7,1a2.62,2.62,0,0,0-1,3.56,2.65,2.65,0,0,0,1.36,1.14V34.08L19.35,26.27a2.56,2.56,0,0,0-.29-1.76,2.6,2.6,0,0,0-3.55-1l-1.7,1a2.61,2.61,0,0,0-1.32,2.27v2a2.61,2.61,0,0,0,4.22,2l13.76,7.78L16.71,46.33a2.6,2.6,0,0,0-4.22,2v2a2.58,2.58,0,0,0,1.32,2.26l1.7,1a2.58,2.58,0,0,0,3.55-1,2.56,2.56,0,0,0,.29-1.76L33.16,43V58.71a2.56,2.56,0,0,0-1.36,1.14,2.6,2.6,0,0,0,1,3.55l1.7,1a2.58,2.58,0,0,0,1.29.35,2.61,2.61,0,0,0,1.29-.35l1.7-1a2.59,2.59,0,0,0,1-3.55,2.5,2.5,0,0,0-1.35-1.14V43l13.8,7.81A2.59,2.59,0,0,0,56,53.56l1.7-1A2.59,2.59,0,0,0,59,50.33v-2a2.59,2.59,0,0,0-4.21-2L41.07,38.55l13.76-7.78a2.6,2.6,0,0,0,4.21-2v-2A2.62,2.62,0,0,0,57.73,24.5ZM43.08,22.16l3.46,2a2.61,2.61,0,0,0,2.58-4.53l-3.45-2a2.61,2.61,0,1,0-2.59,4.53ZM23.71,24.47A2.62,2.62,0,0,0,25,24.13l3.45-2a2.61,2.61,0,1,0-2.58-4.53l-3.46,2a2.61,2.61,0,0,0,1.3,4.87Z"/><path class="cls-7" d="M75.37,58.9H45.45A12.82,12.82,0,0,0,32.63,71.72V78a1.73,1.73,0,0,0,1.73,1.74H64.28A12.82,12.82,0,0,0,77.11,66.9V57.16A1.74,1.74,0,0,1,75.37,58.9Z"/><path class="cls-5" d="M46,69.19a1.89,1.89,0,0,0,1-1.74C47,65.9,45.93,65,44,65H40.46v8.62H44c1.92,0,3.1-.85,3.1-2.55A2,2,0,0,0,46,69.19ZM42.1,66.52h2c.87,0,1.28.36,1.28,1s-.38,1-1.26,1h-2Zm2,5.64h-2V70H44c1,0,1.45.39,1.45,1.06S45,72.16,44.07,72.16Z"/><polygon class="cls-5" points="48.73 73.66 54.52 73.66 54.52 72.08 50.39 72.08 50.39 70.11 54.52 70.11 54.52 68.55 50.39 68.55 50.39 66.61 54.52 66.61 54.52 65.04 48.73 65.04 48.73 73.66"/><polygon class="cls-5" points="62.36 65.04 55.95 65.04 55.95 66.58 58.35 66.58 58.35 73.66 59.99 73.66 59.99 66.58 62.36 66.58 62.36 65.04"/><path class="cls-5" d="M66.82,65H65.18l-3.26,8.62h1.71l.57-1.57h3.6l.57,1.57h1.71Zm-2.06,5.54L66,67.15l1.24,3.43Z"/><path class="cls-1" d="M93.45,64.14h3l2.81,10.67,3.19-10.67h2.86l3.17,10.69,2.88-10.69h3L110,79.47H107.1l-3.19-10.81L100.7,79.47h-3Zm22.85,0h3V79.47h-3Zm9.31,2.73h-4.26V64.14h11.4v2.73h-4.22v12.6h-2.92ZM144,73.22h-6.19v6.25h-3V64.14h3v6.18H144V64.14h3V79.47h-3Zm9.39,3.31,2.58-2.06a4.7,4.7,0,0,0,4.2,2.42c1.66,0,2.52-.8,2.52-1.91,0-1.43-1.47-1.72-3.59-2.21-2.29-.48-4.85-1.21-4.85-4.32,0-2.52,2.25-4.54,5.44-4.54a7.33,7.33,0,0,1,6,2.67l-2.41,1.89a4,4,0,0,0-3.59-1.91c-1.66,0-2.38.82-2.38,1.83,0,1.24,1.54,1.47,3.45,1.91,2.35.5,5.06,1.26,5.06,4.57,0,2.63-2.21,4.81-5.63,4.81A8,8,0,0,1,153.34,76.53Zm14-4.72a7.72,7.72,0,0,1,7.85-7.88,7.84,7.84,0,0,1,6.8,3.83l-2.6,1.63a4.55,4.55,0,0,0-4.18-2.56,5,5,0,0,0,0,9.91,4.62,4.62,0,0,0,4.35-2.83l2.7,1.45a7.86,7.86,0,0,1-14.88-3.55Zm16.93-7.67h6.22c3.52,0,5.62,2.27,5.62,5.19a5,5,0,0,1-2.68,4.54l3,5.6h-3.32l-2.45-4.83h-3.45v4.83h-3Zm3,2.73v5.06h3a2.54,2.54,0,0,0,2.85-2.58c0-1.51-1-2.48-2.85-2.48ZM198,71.81a7.85,7.85,0,1,1,7.83,7.87A7.84,7.84,0,0,1,198,71.81Zm12.72,0a4.87,4.87,0,1,0-4.89,5A4.9,4.9,0,0,0,210.68,71.81Zm5.45-7.67h3V76.6h7.07v2.87H216.13Zm12.05,0h3V76.6h7.08v2.87H228.18Z"/></g></g></svg>