<svg xmlns="http://www.w3.org/2000/svg" width="212" height="72" viewBox="0 0 212 72">
    <g fill="#100F0D" fill-rule="nonzero">
        <path d="M45.476 45.903V26.259c0-1.02.233-1.786.699-2.296.465-.51 1.068-.766 1.806-.766.761 0 1.377.253 1.849.757.47.505.707 1.273.707 2.305v19.644c0 1.031-.236 1.803-.707 2.313-.472.51-1.088.766-1.85.766-.726 0-1.325-.259-1.797-.775-.471-.516-.707-1.284-.707-2.304M182.966 28.429c-4.232 0-7.675 3.44-7.675 7.669 0 4.228 3.443 7.668 7.675 7.668 4.232 0 7.676-3.44 7.676-7.668 0-4.229-3.444-7.67-7.676-7.67m0 20.554c-7.11 0-12.896-5.78-12.896-12.884 0-7.105 5.786-12.885 12.896-12.885 7.112 0 12.896 5.78 12.896 12.885 0 7.104-5.784 12.884-12.896 12.884M125.073 28.429c-4.232 0-7.675 3.44-7.675 7.669 0 4.228 3.443 7.668 7.675 7.668 4.233 0 7.676-3.44 7.676-7.668 0-4.229-3.443-7.67-7.676-7.67m0 20.554c-7.11 0-12.896-5.78-12.896-12.884 0-7.105 5.785-12.885 12.896-12.885 7.111 0 12.897 5.78 12.897 12.885 0 7.104-5.786 12.884-12.897 12.884M153.956 43.703c-.624.04-1.296.048-2.018.048h-3.385V28.428h3.385c.722 0 1.394.008 2.018.048a7.678 7.678 0 0 1 5.405 3.268 7.62 7.62 0 0 1 1.356 4.33v.031a7.623 7.623 0 0 1-1.356 4.33 7.68 7.68 0 0 1-5.405 3.268m11.982-7.614v-.003a12.825 12.825 0 0 0-2.495-7.607 12.887 12.887 0 0 0-10.018-5.272c-.128-.004-.255-.01-.384-.01l-6.475.008c-1.106 0-1.907.252-2.402.755-.495.503-.743 1.316-.743 2.44v19.38c0 1.123.248 1.935.743 2.439.495.503 1.296.755 2.402.755l6.475.008c.13 0 .256-.007.384-.01a12.888 12.888 0 0 0 10.018-5.272 12.825 12.825 0 0 0 2.495-7.607v-.004M104.874 23.312a2.214 2.214 0 0 0-2.51.913L94.59 36.059l-7.776-11.834a2.213 2.213 0 0 0-2.509-.913 2.279 2.279 0 0 0-1.585 2.186V46.53c0 1.262 1.001 2.285 2.236 2.285 1.236 0 2.238-1.023 2.238-2.285V33.004l5.52 8.4.012.018.006.01.022.03c.034.05.07.1.109.148.017.022.035.04.052.06.031.036.061.071.094.105.03.03.061.058.092.087.023.02.046.043.07.063.043.037.088.07.134.102l.039.03.005.003c.05.033.1.064.153.093l.042.026c.039.021.079.039.12.057a2.193 2.193 0 0 0 .706.198c.048.004.095.005.142.007l.078.003.078-.003c.047-.002.095-.003.142-.007l.004-.001c.24-.025.476-.09.703-.197.04-.018.08-.036.119-.057l.043-.026c.052-.03.103-.06.152-.093l.006-.004c.013-.008.025-.02.038-.029.046-.032.091-.065.135-.102.024-.02.046-.042.07-.064.03-.028.062-.056.091-.086.033-.034.063-.07.094-.105.018-.02.036-.039.053-.06.039-.048.074-.098.109-.148l.021-.03.007-.01.011-.017 5.52-8.401V46.53c0 1.262 1.001 2.285 2.238 2.285 1.235 0 2.237-1.023 2.237-2.285V25.498a2.28 2.28 0 0 0-1.586-2.186M75.105 48.198H58.382c-.88 0-1.857-.55-2.219-1.406-.362-.854-.436-2.018.343-2.946l13.68-15.857H58.883c-1.236 0-2.238-1.07-2.238-2.388 0-1.32 1.002-2.125 2.238-2.125h15.24c.879 0 1.79.14 2.585 1.011.727.796.695 2.514-.12 3.538L63.374 43.422h11.732c1.236 0 2.135 1.07 2.135 2.388 0 1.318-.9 2.388-2.135 2.388M28.803 48.982c-3.71 0-7.076-1.47-9.476-4.14C17.212 42.491 16 39.392 16 36.341c0-9.575 7.967-13.144 12.99-13.144 4.937 0 8.562 2.42 8.713 2.522a2.471 2.471 0 0 1 .665 3.403 2.407 2.407 0 0 1-3.352.679c-.065-.041-2.637-1.698-6.027-1.698-3.148 0-7.489 2.075-7.489 8.238 0 3.506 2.61 7.641 7.397 7.641 2.692 0 4.585-.717 5.686-1.416v-3.647h-3.73c-1.338 0-2.423-1.098-2.423-2.452 0-1.355 1.085-2.453 2.424-2.453h6.153c1.339 0 2.424 1.098 2.424 2.453v7.294c0 .664-.266 1.298-.736 1.76-1.625 1.597-5.19 3.46-9.892 3.46"/>
    </g>
</svg>
