<svg xmlns="http://www.w3.org/2000/svg" xmlns:xlink="http://www.w3.org/1999/xlink" width="212" height="72" viewBox="0 0 212 72">
    <defs>
        <path id="a" d="M0 0h212v72H0z"/>
    </defs>
    <g fill="none" fill-rule="evenodd">
        <mask id="b" fill="#fff">
            <use xlink:href="#a"/>
        </mask>
        <g fill="#EE2C1D" fill-rule="nonzero" mask="url(#b)">
            <path d="M45.65 32.35c0 2.34 2.2 2.92 6.89 4.48 6.67 2.19 9.55 4.59 9.55 9.86s-4.72 8.86-11.28 8.86c-3.59 0-6.57-1-8.55-1a4.07 4.07 0 0 0-2.71 1.09l-.57-9.43h.11c3.07 5.63 7.2 8.49 11.73 8.49 2.45 0 4.33-1.09 4.33-3.39 0-2.55-2.17-3.12-5.92-4.37-6.51-2.08-10.21-4.75-10.21-10 0-4.95 5.17-8.33 10.64-8.33 3.28 0 5.37 1.2 7.24 1.2a4.49 4.49 0 0 0 3-1.25v8.39h-.1c-2.4-4.53-6.56-7.45-10.16-7.45-2.1-.01-3.99 1.03-3.99 2.85zM94.57 53.09a9.73 9.73 0 0 1-6.67 2.45c-4.58 0-6.77-1.82-7.29-4.69a8.62 8.62 0 0 1-.1-1.09c-.94 3.49-3.91 5.63-8.33 5.63-4.06 0-7.76-2.08-7.76-6.56 0-7.12 7.48-7 11-8 6.31-1.67 5.6-6.47 5.6-6.47 0-2.19-1.48-4.84-4.13-4.84-2.14 0-3.39 1.67-3.39 3.85 0 4.15 3.39 3.33 3.88 3.21a7.93 7.93 0 0 1-6.51 3.77c-2.86 0-5.56-1.79-5.56-4.3 0-5 5.06-7.47 11.83-7.47 9 0 13.49 2.6 13.49 9.17 0 2.86-.1 6-.1 9.84 0 3.54.26 5.47 2.92 5.47a4.09 4.09 0 0 0 1.09-.1v.1l.03.03zm-16.1-11.77c-2.92.63-4.06 2.66-4.06 5.94 0 2.5.83 4.27 2.71 4.27 2.24 0 3.18-2.34 3.23-4.9v-5.78l-1.88.47z"/>
            <path d="M106.97 49.33c0 3.44.1 4 2.29 5.57v.1h-15v-.1c2.19-1.56 2.29-2.14 2.29-5.57V21.78c0-3.59-.62-4.43-3.07-5.68V16h13.49v33.34-.01zM110.48 42.04c0-8.23 6.72-13.44 14.69-13.44s14.69 5.21 14.69 13.44-6.77 13.49-14.69 13.49-14.69-5.26-14.69-13.49zm18.39 0c0-8.49-.83-12.55-3.7-12.55s-3.7 4.06-3.7 12.55c0 8.49.83 12.65 3.7 12.65s3.69-4.11 3.69-12.65h.01zM154.09 29.12v6.67c1.25-4.64 4.58-7.19 9-7.19 5.83 0 8.28 4.17 8.28 9v11.72c0 3.44.1 4 2.29 5.57v.1h-15v-.1c2.19-1.56 2.29-2.14 2.29-5.57V37.15c0-2.08-1-3.7-3.07-3.7-2.24 0-3.8 1.77-3.8 6.2v9.69c0 3.44.1 4 2.29 5.57v.1h-15v-.1c2.19-1.56 2.29-2.14 2.29-5.57V34.91c0-3.65-.26-4.17-2.66-5.68v-.1h13.09v-.01z"/>
        </g>
    </g>
</svg>
