<svg xmlns="http://www.w3.org/2000/svg" width="212" height="72" viewBox="0 0 212 72">
    <g fill="none" fill-rule="nonzero">
        <path fill="#9E0B0F" d="M54 12h105v48H54z"/>
        <path fill="#FFF" d="M67.02 48.209v-4.33h3.833V26.973H67.02v5.948h-4.41V22.696h23.258v10.278H81.51v-6h-3.99v16.904h3.833v4.33H67.02v.001zm34.65-4.331v4.33H88.125v-4.33h3.255V26.974h-3.255v-4.33h13.545c3.15 0 5.565.73 7.298 2.19 1.732 1.462 2.572 3.444 2.572 5.949 0 1.408-.315 2.713-.892 3.86-.578 1.148-1.365 2.035-2.31 2.661-.945.626-1.995 1.044-3.255 1.253-1.208.208-2.73.365-4.568.365H98.1v4.956h3.57zm-3.57-9.182h.998c2.31 0 3.78-.366 4.41-1.096.682-.73.997-1.67.997-2.765 0-.94-.21-1.722-.682-2.4-.473-.678-.998-1.044-1.575-1.2-.578-.157-1.575-.209-2.888-.209H98.1v7.67zm15.173 13.513v-4.33h3.307V26.973h-3.307v-4.33h12.862l5.618 14.921 5.67-14.922h13.124v4.33h-3.307v16.905h3.307v4.33h-12.914v-4.33h3.097V26.974h-.63l-7.98 21.183h-2.782l-8.033-21.183h-.63v16.904h3.36v4.33h-10.762v.001z"/>
    </g>
</svg>
