<svg xmlns="http://www.w3.org/2000/svg" xmlns:xlink="http://www.w3.org/1999/xlink" width="212" height="72" viewBox="0 0 212 72">
    <defs>
        <path id="a" d="M0 0h212v72H0z"/>
    </defs>
    <g fill="none" fill-rule="evenodd">
        <mask id="b" fill="#fff">
            <use xlink:href="#a"/>
        </mask>
        <g fill="#EE2C24" mask="url(#b)">
            <path d="M40.16 33.2V25c-3.6 0-6.14 1.52-7.6 4.56v-4h-8.44v29.62h9V40.7c0-5.58 1.18-7.48 6.82-7.48h.22v-.02z"/>
            <path fill-rule="nonzero" d="M187.88 42.6c0-10.9-6.38-17.6-15.7-17.6-3.98 0-7.84 1.64-10.8 4.58a15.262 15.262 0 0 0-3.52 5.44V16.04h-8.9v12.78c-2-2.6-4.82-3.82-8.48-3.82-3.82 0-7.26 1.4-10.08 4.16-2.04 1.96-3.46 4.26-4.2 6.82-.76-2.5-2.16-4.84-4.16-6.74-2.94-2.78-6.6-4.26-10.86-4.26-3.98 0-7.86 1.64-10.8 4.58a15.294 15.294 0 0 0-3.54 5.48C94.28 28.52 89.12 25 82.24 25c-3.1 0-5.86.84-8.3 2.5L69.7 37.76C68.08 29.76 62.32 25 54.48 25c-3.98 0-7.84 1.64-10.8 4.58-2.9 2.88-4.48 6.64-4.48 10.72 0 4.14 1.48 7.84 4.3 10.84 3 3.16 6.6 4.68 11.06 4.68 3.34 0 6.24-.82 8.66-2.42l2.8-6.8H59.3c-1.3 1.14-2.72 1.64-4.46 1.64-3.76 0-6-1.64-6.76-4.74h19.24c.58 2.84 1.9 5.46 3.98 7.64 3 3.16 6.58 4.68 11.04 4.68 6.7 0 12.08-3.7 14.52-9.96.72 1.94 1.84 3.7 3.32 5.26 3 3.16 6.6 4.7 11.08 4.7 4.42 0 8.14-1.58 11.14-4.58 1.82-1.82 3.08-3.9 3.76-6.28.8 2.8 2.36 5.26 4.66 7.32 2.64 2.36 5.8 3.54 9.46 3.54 3.6 0 6.3-.96 8.94-3.54v2.88h8.62v-9.4c.72 1.96 1.84 3.78 3.36 5.38 3 3.16 6.6 4.68 11.06 4.68 6.54 0 11.4-3.1 14.22-9.22H177c-1.3 1.14-2.72 1.64-4.46 1.64-3.76 0-6-1.64-6.76-4.74h22.08v-.9h.02zM47.82 37.42c.6-2.78 3.16-4.64 6.76-4.64 3.44 0 5.88 1.64 6.92 4.64H47.82zm40.3 7.2c-1.42 1.9-3.32 2.88-5.66 2.88-4.14 0-6.96-2.78-6.96-7.24 0-4.02 2.82-6.96 6.7-6.96 2.82 0 4.84 1.08 6.04 3.1h8.16c-.34 1.26-.5 2.56-.5 3.92 0 1.48.2 2.92.58 4.3h-8.36zm23.22 3.22c-3.86 0-7.12-3.3-7.12-7.4 0-4.14 3.2-7.46 7.12-7.46s7.12 3.3 7.12 7.46c0 4.1-3.2 7.4-7.12 7.4zm30.94 0c-4.54 0-7.8-3.2-7.8-7.4 0-4.04 3.26-7.46 7.46-7.46 4.14 0 7.34 3.26 7.34 7.56.02 4.16-3.18 7.3-7 7.3zm23.26-10.42c.6-2.78 3.16-4.64 6.76-4.64 3.44 0 5.88 1.64 6.92 4.64h-13.68z"/>
        </g>
    </g>
</svg>
