<svg xmlns="http://www.w3.org/2000/svg" xmlns:xlink="http://www.w3.org/1999/xlink" width="212" height="72" viewBox="0 0 212 72">
    <defs>
        <path id="a" d="M0 0h212v72H0z"/>
    </defs>
    <g fill="none" fill-rule="evenodd">
        <mask id="b" fill="#fff">
            <use xlink:href="#a"/>
        </mask>
        <g fill="#000" fill-rule="nonzero" mask="url(#b)">
            <path d="M19 21.151v7.996h5.428v21.082h9.174V21.151H19zm30.092 11.05h-4.293v-3.068h2.16v-7.982h-11.32V50.23h9.16V39.234h4.293v10.995h9.187V21.151h-9.187v11.05zM60.289 50.23h16.994V42.22h-8.23v-3.385h5.236v-6.633h-5.236v-3.055h8.23V21.15H60.29V50.23zm89.25-19.238c0-6.275-4.607-9.84-11.143-9.84h-10.212v29.065h9.173V42.77l5.25 7.445h10.35l-7.437-11.147c2.68-1.473 4.02-4.156 4.02-8.078zm-12.209 3.22v-5.408c1.272 0 2.83.385 3.295 1.789.041.124.068.261.11.399 0 .014 0 .041.013.055.014.137.041.303.041.468 0 2.16-1.955 2.697-3.459 2.697zm-41.877 4.651h-.082l-.656-2.394-2.05-7.307h3.608l2.38-8.01H80.331l10.5 29.065h9.406l1.135-3.11s5.031-13.734 7.78-21.22v24.33h16.993v-8.01h-8.23v-3.385h5.223v-6.62h-5.223v-3.054h8.23v-8.01h-25.388l-5.305 17.725zM194 29.161v-7.996h-16.994V50.23H194V42.22h-8.244v-3.385h5.236v-6.606h-5.236v-3.068H194z"/>
            <path d="M175.242 44.133V32.284h-12.96v6.606h4.825v2.353c-.369.33-1.162.51-1.982.51-3.363 0-5.852-2.67-5.852-5.932 0-3.261 2.42-6.151 5.784-6.151 2.037 0 6.863.013 6.863.013V21.07h-2.201c-4.102 0-8.19-.33-11.95 1.624-2.966 1.54-5.318 4.156-6.562 7.266a15.777 15.777 0 0 0-1.094 5.78c0 8.243 6.426 15.192 14.752 15.192 4.13 0 8.162-1.555 10.364-3.495.013-2.01.013-2.312.013-3.303"/>
        </g>
    </g>
</svg>
