<svg id="Layer_1" data-name="Layer 1" xmlns="http://www.w3.org/2000/svg" width="212" height="72" viewBox="0 0 212 72"><defs><style>.cls-1{fill:#353535;}</style></defs><path class="cls-1" d="M54.1,21.8a4.22,4.22,0,0,0,2.8-3.9,4.06,4.06,0,0,0-4.1-4.1A4.15,4.15,0,0,0,49,16.4a20.57,20.57,0,0,0-6.3-3.1,19.05,19.05,0,0,0-5.4-.8,18.51,18.51,0,0,0-11.1,3.7,4.33,4.33,0,0,0-3.8-2.5,4.21,4.21,0,0,0-4.1,4.2,4.12,4.12,0,0,0,2.8,3.9A20.13,20.13,0,0,0,18,32.7c0,24,18.7,36.3,18.7,20.1V50.3a17.2,17.2,0,1,1,1.8,0v2.5c0,16.3,18.7,3.9,18.7-20.1A19.88,19.88,0,0,0,54.1,21.8Z"/><path class="cls-1" d="M44.3,35.8a2.24,2.24,0,0,0,2.2-2.3,2.31,2.31,0,0,0-2.2-2.3,2.3,2.3,0,0,0,0,4.6Z"/><path class="cls-1" d="M30.7,26.6a6.8,6.8,0,1,0,6.8,6.8A6.87,6.87,0,0,0,30.7,26.6Zm1.6,10.6a3.54,3.54,0,0,1-3.5-3.5,3.48,3.48,0,0,1,3.5-3.5,3.54,3.54,0,0,1,3.5,3.5A3.48,3.48,0,0,1,32.3,37.2Z"/><path class="cls-1" d="M34.1,34.9a1.4,1.4,0,0,1,0-2.8h.2a2.15,2.15,0,0,0-3.9,1.4,2.31,2.31,0,0,0,2.2,2.3,2.43,2.43,0,0,0,1.8-.9Z"/><path class="cls-1" d="M73.1,44.4a4.75,4.75,0,0,1-2.4-.6A4.36,4.36,0,0,1,69,42.2v2H66.3V28.3h3.1v6.5a4.36,4.36,0,0,1,1.7-1.6,4.75,4.75,0,0,1,2.4-.6,4.65,4.65,0,0,1,2.1.5,4,4,0,0,1,1.6,1.3,5.93,5.93,0,0,1,1.1,1.9,6.81,6.81,0,0,1,0,4.6,7.61,7.61,0,0,1-1.2,1.9A5.67,5.67,0,0,1,75.3,44,7.8,7.8,0,0,1,73.1,44.4Zm-.9-2.5a2.77,2.77,0,0,0,1.3-.3,2.55,2.55,0,0,0,1-.7,4.13,4.13,0,0,0,.7-1.1,2.77,2.77,0,0,0,.3-1.3,5.07,5.07,0,0,0-.2-1.3,4.13,4.13,0,0,0-.7-1.1,3.92,3.92,0,0,0-1-.8,2.77,2.77,0,0,0-1.3-.3,2.41,2.41,0,0,0-1.8.7,4,4,0,0,0-1.2,1.6V40a2.18,2.18,0,0,0,.5.8,4.35,4.35,0,0,0,.7.6,3,3,0,0,0,.8.4C71.7,41.8,72,41.9,72.2,41.9Z"/><path class="cls-1" d="M86.3,44.4a7.08,7.08,0,0,1-2.6-.5,5.33,5.33,0,0,1-2-1.3,7.61,7.61,0,0,1-1.2-1.9,5.7,5.7,0,0,1-.4-2.2,5.87,5.87,0,0,1,.4-2.3,7.61,7.61,0,0,1,1.2-1.9,4.64,4.64,0,0,1,2-1.3,6.69,6.69,0,0,1,2.6-.5,7.08,7.08,0,0,1,2.6.5,6.9,6.9,0,0,1,2,1.3,6.41,6.41,0,0,1,1.3,1.9,5.87,5.87,0,0,1,.4,2.3,5.38,5.38,0,0,1-.4,2.2A7.61,7.61,0,0,1,91,42.6a5.78,5.78,0,0,1-2,1.3A8.57,8.57,0,0,1,86.3,44.4Zm-3.2-5.9a5.9,5.9,0,0,0,.2,1.4A4.13,4.13,0,0,0,84,41a3.59,3.59,0,0,0,1,.7,2.54,2.54,0,0,0,1.2.2,4.3,4.3,0,0,0,1.2-.2,3.59,3.59,0,0,0,1-.7,4.13,4.13,0,0,0,.7-1.1,3.42,3.42,0,0,0,0-2.8,4.13,4.13,0,0,0-.7-1.1,3.59,3.59,0,0,0-1-.7,2.66,2.66,0,0,0-1.2-.3,2.38,2.38,0,0,0-1.2.3,3.59,3.59,0,0,0-1,.7,4.13,4.13,0,0,0-.7,1.1A5.9,5.9,0,0,0,83.1,38.5Z"/><path class="cls-1" d="M101.7,35.3a6.55,6.55,0,0,0-2.5.5,2.94,2.94,0,0,0-1.6,1.5v6.9H94.5V32.7h2.8v2.4a3.92,3.92,0,0,1,.8-1,6.47,6.47,0,0,1,.9-.8,4.67,4.67,0,0,1,1-.5,3.55,3.55,0,0,1,1-.2h.7v2.7Z"/><path class="cls-1" d="M108.3,44.4a7.08,7.08,0,0,1-2.6-.5,5.33,5.33,0,0,1-2-1.3,6.41,6.41,0,0,1-1.3-1.9,5.7,5.7,0,0,1-.4-2.2,5.87,5.87,0,0,1,.4-2.3,5,5,0,0,1,1.3-1.9,4.64,4.64,0,0,1,2-1.3,7,7,0,0,1,5.2,0,5.33,5.33,0,0,1,2,1.3,4.74,4.74,0,0,1,1.2,1.9,5.7,5.7,0,0,1,.4,2.2v.9h-9.2a4.22,4.22,0,0,0,.3,1.2c.1.4.4.6.7.9a8.79,8.79,0,0,0,1,.6,4.25,4.25,0,0,0,1.1.2,3.29,3.29,0,0,0,1.7-.4,2.89,2.89,0,0,0,1.1-1.1l2.6.7a4.92,4.92,0,0,1-2.1,2.2A7.12,7.12,0,0,1,108.3,44.4Zm3.1-6.9a2.77,2.77,0,0,0-1-2,3.23,3.23,0,0,0-2.1-.8,5,5,0,0,0-1.2.2,1.8,1.8,0,0,0-.9.6,2.18,2.18,0,0,0-.7.9,2.13,2.13,0,0,0-.3,1.2h6.2Z"/><path class="cls-1" d="M121.3,44.4a5.93,5.93,0,0,1-2.3-.5,4.63,4.63,0,0,1-1.8-1.3,6.15,6.15,0,0,1-1.2-1.9,6.81,6.81,0,0,1,0-4.6,7.24,7.24,0,0,1,1.1-1.9,5.5,5.5,0,0,1,1.7-1.3,5.37,5.37,0,0,1,2.1-.5,4.75,4.75,0,0,1,2.4.6,4.36,4.36,0,0,1,1.7,1.6V28.1h3.1V40.6a1.45,1.45,0,0,0,.2.7.76.76,0,0,0,.5.2V44a8.32,8.32,0,0,1-1.3.2,1.84,1.84,0,0,1-1.3-.4,2.07,2.07,0,0,1-.6-1l-.1-.7a4.24,4.24,0,0,1-1.8,1.7A5,5,0,0,1,121.3,44.4Zm.8-2.5a2.77,2.77,0,0,0,.9-.1,2,2,0,0,0,.8-.4,4.35,4.35,0,0,0,.7-.6,2.18,2.18,0,0,0,.5-.8V37.3a4.05,4.05,0,0,0-.5-.9,2.7,2.7,0,0,0-.8-.7,4.05,4.05,0,0,0-.9-.5,2.92,2.92,0,0,0-.9-.2,2.77,2.77,0,0,0-1.3.3,3.92,3.92,0,0,0-1,.8,2.38,2.38,0,0,0-.6,1.1,3,3,0,0,0-.2,1.3,2.77,2.77,0,0,0,.3,1.3,4.13,4.13,0,0,0,.7,1.1,3.59,3.59,0,0,0,1,.7A3.08,3.08,0,0,0,122.1,41.9Z"/><path class="cls-1" d="M138.2,44.4a5.14,5.14,0,0,1-2.5-.6,4.89,4.89,0,0,1-1.6-1.6v6.6H131V32.7h2.7v2a4.36,4.36,0,0,1,1.7-1.6,4.75,4.75,0,0,1,2.4-.6,5.45,5.45,0,0,1,2.2.5,4.63,4.63,0,0,1,1.8,1.3,5.16,5.16,0,0,1,1.2,1.9,6.81,6.81,0,0,1,0,4.6,5.93,5.93,0,0,1-1.1,1.9,6.53,6.53,0,0,1-1.6,1.3A6.54,6.54,0,0,1,138.2,44.4Zm-1-2.5a2.77,2.77,0,0,0,1.3-.3,2.54,2.54,0,0,0,1-.8,2.38,2.38,0,0,0,.6-1.1,3,3,0,0,0,.2-1.3,2.77,2.77,0,0,0-.3-1.3,4.13,4.13,0,0,0-.7-1.1,3.59,3.59,0,0,0-1-.7A2.77,2.77,0,0,0,137,35a2.92,2.92,0,0,0-.9.2,2,2,0,0,0-.8.4,4.35,4.35,0,0,0-.7.6,5.58,5.58,0,0,0-.5.8v2.7a3.44,3.44,0,0,0,1.3,1.6A3,3,0,0,0,137.2,41.9Z"/><path class="cls-1" d="M148.8,44.4a4.15,4.15,0,0,1-1.6-.3,3.53,3.53,0,0,1-1.3-.8,2.73,2.73,0,0,1-.9-1.2,3.19,3.19,0,0,1-.3-1.4,2.82,2.82,0,0,1,.4-1.5,4,4,0,0,1,1-1.2,4.59,4.59,0,0,1,1.6-.7,6.65,6.65,0,0,1,2.1-.3,7.57,7.57,0,0,1,1.5.1,5.73,5.73,0,0,1,1.4.4v-.7a1.94,1.94,0,0,0-.7-1.7,2.81,2.81,0,0,0-2-.6,6.28,6.28,0,0,0-1.9.3,7,7,0,0,0-1.9,1l-.9-1.9a8.9,8.9,0,0,1,5-1.5,6.16,6.16,0,0,1,4,1.2,4.2,4.2,0,0,1,1.4,3.5v3.5a1.45,1.45,0,0,0,.2.7.85.85,0,0,0,.6.2V44a8.32,8.32,0,0,1-1.3.2,1.77,1.77,0,0,1-1.9-1.4l-.1-.6a4.54,4.54,0,0,1-1.9,1.5A5,5,0,0,1,148.8,44.4Zm.8-2.2a4,4,0,0,0,1.5-.3,3,3,0,0,0,1.1-.7,1,1,0,0,0,.5-.8V39.1l-1.2-.3a4.87,4.87,0,0,0-1.2-.1,3.56,3.56,0,0,0-1.9.5,1.56,1.56,0,0,0-.8,1.3,1.43,1.43,0,0,0,.6,1.2A1.87,1.87,0,0,0,149.6,42.2Z"/><path class="cls-1" d="M169.7,44.2h-3.1V37.8a3.44,3.44,0,0,0-.5-2,1.68,1.68,0,0,0-1.4-.6,2.92,2.92,0,0,0-.9.2,4.05,4.05,0,0,0-.9.5c-.3.2-.5.5-.8.7a3.13,3.13,0,0,0-.5,1v6.7h-3.1V32.7h2.8v2.1a4.51,4.51,0,0,1,1.9-1.7,6.39,6.39,0,0,1,2.8-.6,3.21,3.21,0,0,1,1.8.4,3.57,3.57,0,0,1,1.1,1,3.36,3.36,0,0,1,.5,1.4,8.75,8.75,0,0,1,.2,1.6l.1,7.3Z"/><path class="cls-1" d="M177.3,44.4a5.93,5.93,0,0,1-2.3-.5,4.63,4.63,0,0,1-1.8-1.3,6.15,6.15,0,0,1-1.2-1.9,6.81,6.81,0,0,1,0-4.6,7.24,7.24,0,0,1,1.1-1.9,5.5,5.5,0,0,1,1.7-1.3,5.37,5.37,0,0,1,2.1-.5,4.75,4.75,0,0,1,2.4.6,4.36,4.36,0,0,1,1.7,1.6V28.1h3.1V40.6a1.45,1.45,0,0,0,.2.7.76.76,0,0,0,.5.2V44a8.32,8.32,0,0,1-1.3.2,1.84,1.84,0,0,1-1.3-.4,2.07,2.07,0,0,1-.6-1l-.1-.7a4.24,4.24,0,0,1-1.8,1.7A5.33,5.33,0,0,1,177.3,44.4Zm.8-2.5a2.77,2.77,0,0,0,.9-.1,2,2,0,0,0,.8-.4,4.35,4.35,0,0,0,.7-.6,2.18,2.18,0,0,0,.5-.8V37.3a4.05,4.05,0,0,0-.5-.9,2.7,2.7,0,0,0-.8-.7,4.05,4.05,0,0,0-.9-.5,2.92,2.92,0,0,0-.9-.2,2.77,2.77,0,0,0-1.3.3,3.92,3.92,0,0,0-1,.8,2.38,2.38,0,0,0-.6,1.1,3,3,0,0,0-.2,1.3,2.77,2.77,0,0,0,.3,1.3,4.13,4.13,0,0,0,.7,1.1,3.59,3.59,0,0,0,1,.7A2.5,2.5,0,0,0,178.1,41.9Z"/><path class="cls-1" d="M190.3,44.4a4.15,4.15,0,0,1-1.6-.3,3.53,3.53,0,0,1-1.3-.8,2.73,2.73,0,0,1-.9-1.2,3.19,3.19,0,0,1-.3-1.4,2.82,2.82,0,0,1,.4-1.5,4,4,0,0,1,1-1.2,4.59,4.59,0,0,1,1.6-.7,6.65,6.65,0,0,1,2.1-.3,7.57,7.57,0,0,1,1.5.1,5.73,5.73,0,0,1,1.4.4v-.7a1.94,1.94,0,0,0-.7-1.7,2.81,2.81,0,0,0-2-.6,6.28,6.28,0,0,0-1.9.3,7,7,0,0,0-1.9,1l-.9-1.9a8.9,8.9,0,0,1,5-1.5,6.16,6.16,0,0,1,4,1.2,4.2,4.2,0,0,1,1.4,3.5v3.5a1.45,1.45,0,0,0,.2.7.85.85,0,0,0,.6.2V44a8.32,8.32,0,0,1-1.3.2,1.77,1.77,0,0,1-1.9-1.4l-.1-.6a4.54,4.54,0,0,1-1.9,1.5A4.75,4.75,0,0,1,190.3,44.4Zm.8-2.2a4,4,0,0,0,1.5-.3,3,3,0,0,0,1.1-.7,1,1,0,0,0,.5-.8V39.1l-1.2-.3a4.87,4.87,0,0,0-1.2-.1,3.56,3.56,0,0,0-1.9.5,1.56,1.56,0,0,0-.8,1.3,1.43,1.43,0,0,0,.6,1.2A1.87,1.87,0,0,0,191.1,42.2Z"/></svg>