<svg xmlns="http://www.w3.org/2000/svg" xmlns:xlink="http://www.w3.org/1999/xlink" width="212" height="72" viewBox="0 0 212 72">
    <defs>
        <path id="a" d="M0 0h212v72H0z"/>
    </defs>
    <g fill="none" fill-rule="evenodd">
        <mask id="b" fill="#fff">
            <use xlink:href="#a"/>
        </mask>
        <g mask="url(#b)">
            <path fill="#000" fill-rule="nonzero" d="M62.192 35.843c1.978 0 3.577-1.582 3.629-3.582v-2.209C65.838 26.417 63.516 24 60.196 24h-16.34v23.948h16.392c2.804 0 5.59-2.174 5.59-5.861v-2.574a3.654 3.654 0 0 0-3.646-3.67zm-5.04 5.305a.51.51 0 0 1-.516.522h-4.094v-2.61h4.06c.31 0 .55.262.55.557v1.53zm0-9.113a.576.576 0 0 1-.568.574h-4.042v-2.33h4.042c.327 0 .585.26.585.59l-.017 1.166z"/>
            <path fill="#000" d="M41.964 31.443v-1.582c0-1.148-.31-2.261-.877-3.252l.017-.035A5.587 5.587 0 0 0 36.667 24H25.556C22.494 24 20 26.522 20 29.617V34.4c0 2.591 2.064 4.678 4.627 4.678h8.067c.326 0 .584.261.584.609v1.391c0 .33-.275.609-.602.609h-3.99v-1.148H20v1.774c0 1.078.31 2.14.877 3.044l-.017.034a5.513 5.513 0 0 0 4.42 2.574h11.112c3.061 0 5.555-2.504 5.555-5.617v-5.061c0-2.591-2.064-4.678-4.627-4.678h-8.05c-.326 0-.584-.261-.584-.609v-1.13c0-.33.275-.61.602-.61h4.025v1.166h8.651v.017z"/>
            <path fill="#0020FF" d="M135.945 24h8.686v23.948h-8.686zM134.277 24h-19.815v6.313h5.573v17.635h8.669V30.313h5.573z"/>
            <path fill="#0020FF" fill-rule="nonzero" d="M162.846 24h-10.802c-3.061 0-5.555 2.522-5.555 5.617V42.33c0 3.096 2.494 5.618 5.555 5.618h10.802c3.062 0 5.556-2.522 5.556-5.618V29.617c0-3.095-2.477-5.617-5.556-5.617zm-3.113 17.113a.557.557 0 0 1-.55.557h-3.44c-.31 0-.551-.261-.551-.557v-10.26c0-.314.258-.557.55-.557h3.44c.31 0 .55.26.55.556v10.261z"/>
            <path fill="#0020FF" d="M183.572 24v8.643l-6.054-6.99A4.613 4.613 0 0 0 173.992 24h-3.698v23.948h8.428V39.27l6.054 7.008a4.613 4.613 0 0 0 3.526 1.652H192V24h-8.428zM81.008 24v8.643l-6.071-6.99A4.613 4.613 0 0 0 71.41 24h-3.698v23.948h8.428V39.27l6.054 7.008a4.613 4.613 0 0 0 3.526 1.652h3.698V24h-8.41z"/>
            <path fill="#0020FF" fill-rule="nonzero" d="M111.435 27.113c-.653-1.86-2.39-3.113-4.351-3.113h-12.04v6.313h1.806L90.795 47.93h8.703l1.239-3.617h8.015l1.238 3.635h8.6l-7.155-20.835zm-6.708 5.513l1.858 5.391h-3.681l1.823-5.39z"/>
        </g>
    </g>
</svg>
