<svg xmlns="http://www.w3.org/2000/svg" width="212" height="72" viewBox="0 0 212 72">
    <defs>
        <path id="a" d="M0 0h212v72H0z"/>
    </defs>
    <g fill="none" fill-rule="evenodd">
        <path fill="#FFF" d="M39.577 28.76c-.669-1.69-2.303-3.504-5.359-3.255-3.894.427-5.108 4.18-4.52 6.423-1.551-1.05-4.189-1.513-6.492.462-2.971 2.99-1.383 7.046.253 8.024-1.802-.178-4.648 1.05-5.279 4.252-.669 3.968 2.344 6.28 5.279 6.28H55.99c3.393 0 5.275-2.935 5.065-5.728-.333-3.63-3.639-5.017-5.443-4.715 1.508-.854 3.52-4.821.459-7.935-2.427-2.33-5.523-1.477-6.613-.48.587-1.94-.374-5.943-4.315-6.583-.271-.018-.532-.036-.783-.036-3.006 0-4.358 2.206-4.784 3.292"/>
        <path fill="#F37021" d="M23.75 33.03c-1.719 1.549-2.344 5.089.752 7.17l12.352 8.523-5.99-13.806c-1.253-3.256-4.687-3.95-7.115-1.886"/>
        <path fill="#CC004C" d="M34.381 26.323c-2.007.036-5.022 2.438-3.681 6.103l6.196 14.695L39.07 31.68c.504-3.843-2.385-5.623-4.69-5.356"/>
        <path fill="#6460AA" d="M40.038 31.074h1.171s.625 0 .711.302c-.46.374-1.714.427-1.55 2.455l1.97 13.29 6.153-14.73c1.259-3.292-1.384-6.032-3.727-6.121-.109 0-.219-.018-.333-.018-2.103 0-4.513 1.548-4.395 4.822"/>
        <path fill="#0089D0" d="M48.246 35.041l-5.82 13.628 12.348-8.557c2.848-2.029 2.39-5.267.795-6.886-.669-.747-1.894-1.334-3.194-1.334-1.536 0-3.178.818-4.13 3.15"/>
        <path fill="#0DB14B" d="M53.393 42.05L41.796 50.2h14.28c2.928 0 4.81-3.043 3.975-5.836-.56-1.744-2.22-3.114-4.145-3.114-.81 0-1.67.232-2.513.8"/>
        <path fill="#FCB711" d="M23.415 50.2h14.07l-11.6-8.15c-2.68-1.725-5.694-.71-6.782 2.154-.923 3.291 1.38 5.995 4.312 5.995"/>
        <path fill="#000" fill-rule="nonzero" d="M193.947 45.787l-3.812-3.914c-1.065.996-2.135 1.78-3.212 2.366-1.077.587-2.394.872-3.95.872-1.169 0-2.239-.231-3.212-.694a7.427 7.427 0 0 1-2.49-1.886c-.689-.783-1.228-1.708-1.617-2.757a9.604 9.604 0 0 1-.583-3.363v-.071c0-1.192.194-2.313.583-3.345a8.744 8.744 0 0 1 1.636-2.758 7.562 7.562 0 0 1 2.51-1.85 7.551 7.551 0 0 1 3.172-.676c1.375 0 2.615.285 3.717.836 1.103.552 2.187 1.317 3.25 2.295l3.816-4.483a16.44 16.44 0 0 0-2.025-1.726 12.283 12.283 0 0 0-2.374-1.352c-.857-.374-1.811-.658-2.862-.872-1.05-.213-2.212-.32-3.483-.32-2.102 0-4.023.374-5.76 1.139a13.532 13.532 0 0 0-4.476 3.078c-1.247 1.298-2.219 2.828-2.92 4.554-.7 1.726-1.05 3.576-1.05 5.551v.071c0 1.993.35 3.843 1.05 5.587a13.72 13.72 0 0 0 2.92 4.519 13.495 13.495 0 0 0 4.436 3.024c1.713.748 3.569 1.121 5.565 1.121 1.324 0 2.519-.124 3.583-.338 1.063-.231 2.044-.551 2.939-.996.895-.427 1.718-.961 2.47-1.566a19.523 19.523 0 0 0 2.18-2.046zm-26.014-3.131v-.071c0-1.85-.454-3.292-1.363-4.341-.907-1.032-2.152-1.869-3.735-2.473a6.765 6.765 0 0 0 2.51-2.224 6.69 6.69 0 0 0 .779-1.637c.194-.623.292-1.317.292-2.1v-.089c0-2.188-.798-3.914-2.394-5.212-1.597-1.3-3.795-1.94-6.598-1.94h-12.65v27.684h12.961c1.533 0 2.927-.16 4.186-.48 1.257-.32 2.334-.783 3.229-1.424a6.375 6.375 0 0 0 2.063-2.366c.48-.96.72-2.064.72-3.327zm-7.473-11.814c0 1.014-.389 1.762-1.168 2.224-.777.463-1.828.694-3.152.694h-5.527v-5.853h5.916c1.271 0 2.245.249 2.919.73.674.497 1.012 1.191 1.012 2.116v.09zm1.519 11.067c0 1.031-.377 1.779-1.13 2.277-.753.48-1.79.73-3.114.73h-7.122V38.83h6.928c1.557 0 2.685.267 3.387.8.7.534 1.05 1.281 1.05 2.189v.089zm-20.858 8.344V22.569h-5.917v17.044L122.439 22.57h-5.527v27.684h5.914V32.657l13.197 17.596h5.098zm-26.612-8.184v-.09c0-1.21-.187-2.241-.564-3.113a6.287 6.287 0 0 0-1.674-2.277c-.739-.64-1.648-1.192-2.725-1.655a25.54 25.54 0 0 0-3.677-1.245c-1.168-.32-2.135-.605-2.9-.836a9.025 9.025 0 0 1-1.81-.747c-.44-.267-.745-.57-.915-.89a2.604 2.604 0 0 1-.253-1.174v-.071c0-.694.293-1.264.876-1.726.583-.463 1.459-.694 2.627-.694 1.168 0 2.334.249 3.502.73a20.78 20.78 0 0 1 3.584 1.992l3.111-4.572a15.771 15.771 0 0 0-4.61-2.616c-1.675-.605-3.512-.907-5.51-.907-1.401 0-2.685.196-3.853.587-1.166.391-2.173.96-3.015 1.708a7.55 7.55 0 0 0-1.967 2.633c-.468 1.014-.7 2.153-.7 3.416v.071c0 1.37.213 2.527.642 3.452a6.453 6.453 0 0 0 1.81 2.313c.779.605 1.726 1.138 2.842 1.548 1.115.427 2.36.818 3.735 1.156 1.142.285 2.07.57 2.784.836.713.25 1.272.516 1.673.783.403.267.676.552.818.854.143.302.215.64.215 1.05v.07c0 .82-.345 1.46-1.031 1.922-.689.463-1.655.694-2.9.694-1.557 0-2.992-.302-4.302-.907-1.311-.605-2.588-1.424-3.833-2.455l-3.543 4.305a16.059 16.059 0 0 0 5.448 3.345 17.69 17.69 0 0 0 6.112 1.085c1.48 0 2.828-.196 4.05-.57 1.218-.39 2.269-.942 3.151-1.672.883-.711 1.57-1.619 2.063-2.686.492-1.068.74-2.277.74-3.647zm-23.438 8.184V22.569h-6.46l-7.163 11.707-7.161-11.707h-6.462v27.684h5.877V32.3l7.59 11.707h.156l7.668-11.831v18.076h5.955z"/>
    </g>
</svg>
