<svg xmlns="http://www.w3.org/2000/svg" width="212" height="72" viewBox="0 0 212 72">
    <path fill="#111" fill-rule="evenodd" d="M53.66 55.72h2.9V40.232h-2.9V55.72zm10.628-.232h2.597v-9.772l10.93 10.004V40.464h-2.59v9.605l-10.937-9.837v15.256zm19.454-3.751c1.414 1.1 3.11 1.737 4.929 1.737 1.771 0 3.014-.61 3.014-1.956 0-1.174-.793-1.634-2.18-2.148l-2.247-.78c-2.072-.736-3.647-1.81-3.647-4.28 0-2.642 2.384-4.078 5.236-4.078 1.748 0 3.34.44 4.584 1.217v2.62c-1.294-.956-2.71-1.614-4.528-1.614-1.566 0-2.736.584-2.736 1.803 0 1.1.735 1.541 2.028 1.984l2.504.879c2.426.853 3.539 2.175 3.539 4.35 0 2.738-2.408 4.249-5.567 4.249-2.077 0-3.842-.58-4.929-1.314v-2.67zm17.26 3.983h2.898V40.232h-2.898V55.72zm16.493-2.344c3.267 0 5.013-2.095 5.013-5.404 0-3.332-1.747-5.42-5.013-5.42h-3.23v10.824h3.23zm-5.868-13.144h5.965c4.592 0 7.561 3.025 7.561 7.74 0 4.72-2.969 7.748-7.56 7.748h-5.966V40.232zm28.02 0v2.32h-7.014v3.726h6.29v2.293h-6.292v4.805h7.016v2.344h-9.662V40.232h9.662zm10.287 7.013h2.876c1.703 0 2.662-.934 2.662-2.37s-.96-2.372-2.662-2.372h-2.876v4.743zm0 2.19v6.285h-2.559V40.232h5.484c3.127 0 5.15 1.61 5.15 4.643 0 2.593-1.123 4.082-3.515 4.465l5.44 6.38h-2.91l-5.269-6.284h-1.82zM52.648 24.974c1.134-.415 2.017-1.66 2.017-3.372 0-2.854-2.017-4.332-5.244-4.332H44v15.927h5.924c3.227 0 5.244-1.583 5.244-4.565 0-1.687-1.058-3.166-2.52-3.658zm-6.102-1.012v-4.357h2.85c1.791 0 2.749.649 2.749 2.153s-.959 2.204-2.748 2.204h-2.851zm0 2.232h3.327c1.767 0 2.724.88 2.724 2.334 0 1.426-.958 2.335-2.722 2.335h-3.328v-4.67h-.001zm20.45 7.262c3.706 0 6.203-2.231 6.203-6.588V17.27h-2.623v9.285c0 3.062-1.26 4.49-3.58 4.49-2.32 0-3.58-1.428-3.58-4.49V17.27h-2.621v9.57c0 4.385 2.52 6.616 6.201 6.616zm12.376-1.401c1.084.78 2.85 1.401 4.916 1.401 3.152 0 5.547-1.61 5.547-4.513 0-2.309-1.109-3.71-3.53-4.618l-2.495-.934c-1.286-.466-2.017-.933-2.017-2.1 0-1.297 1.16-1.92 2.723-1.92 1.815 0 3.227.7 4.513 1.713v-2.777c-1.235-.829-2.824-1.296-4.564-1.296-2.849 0-5.219 1.53-5.219 4.332 0 2.62 1.563 3.76 3.63 4.538l2.245.83c1.386.545 2.168 1.039 2.168 2.284 0 1.426-1.235 2.075-3 2.075-1.816 0-3.505-.675-4.917-1.842v2.827zM99.204 17.27h-2.621v15.926h2.62V17.27zm7.48 15.906h2.527v-10.36l10.633 10.607V17.246h-2.52V27.43L106.685 17v16.176zm29.545-15.903v2.385h-6.808v3.834h6.105v2.358h-6.105v4.94h6.808v2.41h-9.378V17.274h9.378zm6.104 14.77c1.084.78 2.848 1.402 4.916 1.402 3.151 0 5.547-1.608 5.547-4.513 0-2.309-1.11-3.709-3.53-4.618l-2.496-.932c-1.286-.468-2.017-.935-2.017-2.102 0-1.297 1.16-1.92 2.723-1.92 1.815 0 3.227.701 4.513 1.713v-2.776c-1.236-.83-2.824-1.297-4.564-1.297-2.849 0-5.219 1.53-5.219 4.332 0 2.62 1.563 3.76 3.63 4.539l2.245.83c1.386.544 2.168 1.038 2.168 2.283 0 1.426-1.234 2.075-3 2.075-1.816 0-3.505-.674-4.916-1.842v2.827zm15.834 0c1.084.78 2.85 1.402 4.916 1.402 3.152 0 5.547-1.608 5.547-4.513 0-2.309-1.11-3.709-3.53-4.618l-2.496-.932c-1.285-.468-2.017-.935-2.017-2.102 0-1.297 1.16-1.92 2.723-1.92 1.815 0 3.228.701 4.513 1.713v-2.776C166.589 17.467 165 17 163.26 17c-2.85 0-5.219 1.53-5.219 4.332 0 2.62 1.564 3.76 3.63 4.539l2.245.83c1.387.544 2.168 1.038 2.168 2.283 0 1.426-1.235 2.075-3 2.075-1.816 0-3.505-.674-4.917-1.842v2.827z"/>
</svg>
