<svg xmlns="http://www.w3.org/2000/svg" width="212" height="72" viewBox="0 0 212 72">
    <g fill="#509B22" fill-rule="nonzero">
        <path d="M85.755 32.51c2.557-.762 4.45-2.084 4.45-5.615 0-4.524-3.812-6.533-7.621-6.533h-5.806v27.955h3.479v1.727H67.546v-.913c0-.205.077-.281.103-.307.103-.104.281-.127.333-.127 3.273-.185 4.858-1.168 4.858-4.197V23.77c0-4.857-5.344-4.525-5.344-4.525V18h15.88c.077 0 6.367-.102 9.794 3.203 1.434 1.397 2.175 3.226 2.175 5.438 0 3.075-1.595 5.133-5.024 6.505l-.332.127-.413.15.206.382.172.3c1.4 2.59 5.184 8.684 8.132 12.985 2.868 4.441 7.524 6.754 13.557 6.754h.688V55h-1.273c-8.567 0-13.166-1.018-17.49-7.222-2.454-3.532-6.904-10.14-8.234-12.707l-.08-.176-.104-.203h-4.495v-1.677h1.02c2.867-.127 4.072-.509 4.072-.509"/>
        <path d="M114.265 24.852c-7.56 0-13.468 5.704-13.468 13.02 0 7.287 5.932 13.016 13.468 13.016 7.537 0 13.037-5.472 13.037-13.019.025-7.416-5.602-13.017-13.037-13.017zm.408 23.249c-5.423 0-9.675-4.706-9.675-10.691 0-5.677 3.743-9.796 8.885-9.796 5.425 0 9.675 4.68 9.675 10.64 0 5.73-3.742 9.847-8.885 9.847zm30.176-23.25c-7.563 0-13.47 5.705-13.47 13.02 0 7.288 5.932 13.017 13.47 13.017 7.562 0 13.036-5.472 13.036-13.019 0-7.416-5.597-13.017-13.028-13.017h-.008zm.42 23.25c-5.424 0-9.668-4.706-9.668-10.691 0-5.677 3.75-9.796 8.889-9.796 5.424 0 9.679 4.68 9.679 10.64-.023 5.73-3.739 9.847-8.888 9.847h-.012zm22.259 1.36c1.896-.053 3.95-.365 3.95-3.274v-18.39h-6.01c-3.385 0-4.105 1.715-4.105 3.168 0 .339-.152.339-.178.339h-1.236v-5.765h27.18v5.765h-1.1c-.03 0-.207 0-.285-.079-.08-.052-.103-.155-.103-.312 0-1.168-.54-3.09-4.083-3.09h-6.055v18.364c0 2.91 2.053 3.221 4.002 3.272.207 0 .207.13.207.208v1.223H167.28v-1.168c0-.053 0-.158.05-.208.023-.054.126-.054.184-.054l.014.002zM26.569 39.877c1.02-.025 2.016-.175 2.016-1.683v-9.447h-1.571c-1.835 0-2.228.879-2.228 1.634 0 .173-.078.173-.104.173H24v-2.96h11.553v2.965h-.6s-.107 0-.159-.046c-.026-.023-.053-.07-.053-.15 0-.602-.286-1.608-2.202-1.608h-1.777v9.458c0 1.48.994 1.665 2.041 1.689.106 0 .106.08.106.104v.636h-6.474v-.604c0-.023 0-.072.026-.097.027-.026.053-.026.106-.026l.002-.038zM51.06 27.632h-5.866v.629c0 .023 0 .104.097.104.996.023 1.766.173 1.766 1.676v3.504H41.04v-3.52c0-1.503.745-1.653 1.74-1.68.024 0 .075 0 .1-.025.024-.024.024-.076.024-.1v-.601h-5.99v.624c0 .023 0 .093.098.093.995.023 1.938.173 1.938 1.676V38.2c0 1.503-.917 1.653-1.913 1.676-.025 0-.074 0-.1.023-.022.023-.022.07-.022.104v.602h5.998v-.635c0-.023 0-.1-.092-.1-.986-.023-1.766-.173-1.766-1.676v-3.504h5.998v3.504c0 1.503-.746 1.653-1.743 1.676-.023 0-.07 0-.092.023v.68h5.998v-.625c0-.023 0-.093-.099-.093-.994-.023-1.938-.173-1.938-1.676V29.99c0-1.503.918-1.653 1.913-1.676.029 0 .078 0 .103-.023.027-.023.027-.073.027-.104v-.591h-.126v.026l-.036.009zM64.776 37.69h-.6s-.104 0-.15.05a.248.248 0 0 0-.046.151c0 .608-.286 1.607-2.19 1.607h-2.615c-1.273 0-1.56-.277-1.56-1.306v-3.457h1.44c1.387 0 1.938.578 1.938 1.33 0 .08.023.126.052.15.053.055.16.055.16.055h.6v-4.278h-.6s-.103 0-.155.049a.228.228 0 0 0-.05.15c0 .751-.55 1.33-1.938 1.33h-1.46v-4.776h4.054c1.908 0 2.196 1.006 2.196 1.607 0 .076.023.125.046.15.048.05.152.05.152.05h.608v-2.96H53.245v.63c0 .023 0 .103.103.103 1.044.024 2.041.174 2.041 1.689v8.197c0 1.48-.995 1.665-2.041 1.689-.106 0-.106.08-.106.104v.63h11.526l.026-2.936-.018-.008z"/>
    </g>
</svg>
