<svg xmlns="http://www.w3.org/2000/svg" width="212" height="72" viewBox="0 0 212 72">
    <g fill="none" fill-rule="nonzero">
        <path fill="#1C263C" d="M47.098 21.346c8.414-11.193 24.283-13.428 35.448-4.991 11.165 8.435 13.396 24.347 4.984 35.539-8.414 11.192-24.283 13.428-35.448 4.995-11.165-8.437-13.398-24.348-4.986-35.543"/>
        <path fill="#FFF" d="M84.697 25.571l-9.886 20.947-10.1-20.947h4.81l5.19 11.667 5.371-11.667h4.615zM57.994 40.33l2.448-4.886 2.256 4.886h-4.704zm2.647-14.759L50.176 46.518h4.55l1.256-2.743h8.594l1.062 2.743h4.524l-9.52-20.947z"/>
        <path fill="#1C263C" d="M114.676 44.227c-2.182 2.136-4.817 3.202-7.903 3.202-3.085 0-5.718-1.066-7.901-3.202-2.183-2.133-3.273-4.71-3.273-7.727 0-3.017 1.09-5.592 3.273-7.727 2.183-2.134 4.816-3.202 7.9-3.202 3.087 0 5.722 1.068 7.904 3.202l-3.025 2.958c-1.354-1.31-2.98-1.965-4.878-1.965-1.895 0-3.518.659-4.864 1.976-1.348 1.317-2.022 2.904-2.022 4.758s.682 3.44 2.026 4.758c1.345 1.317 2.97 1.976 4.868 1.976 1.898 0 3.524-.656 4.878-1.965l3.017 2.958zm17.26 2.29h-14.535V25.572h4.316v16.801h10.22v4.146zm19.078-8.505c0 2.602-.932 4.821-2.793 6.659-1.863 1.84-4.111 2.758-6.746 2.758-2.634 0-4.883-.92-6.745-2.758s-2.793-4.057-2.793-6.657V25.57h4.315v12.44c0 1.422.51 2.636 1.533 3.645 1.021 1.009 2.251 1.512 3.69 1.512 1.438 0 2.668-.503 3.69-1.512 1.022-1.009 1.534-2.222 1.534-3.642V25.57h4.315v12.44zm15.52 2.615c0-.662-.232-1.236-.691-1.725-.464-.49-1.012-.734-1.652-.734h-5.239v4.804h5.24c.653 0 1.207-.227 1.662-.687.452-.458.68-1.011.68-1.658zm-.782-8.683c0-.527-.185-.982-.557-1.366a1.8 1.8 0 0 0-1.338-.574h-4.906v3.88h4.906c.52 0 .966-.192 1.338-.576.372-.383.557-.838.557-1.364zm5.018 8.683c0 1.85-.645 3.436-1.93 4.759-1.285 1.323-2.836 1.985-4.649 1.985h-9.475V25.717h9.14c1.696 0 3.141.61 4.338 1.829 1.199 1.217 1.799 2.683 1.799 4.399a6.198 6.198 0 0 1-1.245 3.788c1.352 1.308 2.03 2.94 2.03 4.894h-.008z"/>
    </g>
</svg>
