<?xml version="1.0" encoding="UTF-8"?>
<svg width="444px" height="374px" viewBox="0 0 444 374" version="1.1" xmlns="http://www.w3.org/2000/svg" xmlns:xlink="http://www.w3.org/1999/xlink">
    <!-- Generator: Sketch 63.1 (92452) - https://sketch.com -->
    <title>Group 61 Copy</title>
    <desc>Created with Sketch.</desc>
    <g id="Page-1" stroke="none" stroke-width="1" fill="none" fill-rule="evenodd">
        <g id="Desktop" transform="translate(-840.000000, -2749.000000)">
            <g id="Group-61-Copy" transform="translate(840.000000, 2749.000000)">
                <g id="Group-42" transform="translate(51.784615, 22.193407)">
                    <g id="Group-11">
                        <path d="M175.903297,0 L175.903297,87.9516484 C224.477937,87.9516484 263.854945,127.328657 263.854945,175.903297 C263.854945,224.477937 224.477937,263.854945 175.903297,263.854945 C159.893986,263.854945 144.884509,259.57557 131.95421,252.101087 L88.0044193,328.29958 C113.866426,343.247843 143.884675,351.806593 175.903297,351.806593 C273.051873,351.806593 351.806593,273.051873 351.806593,175.903297 C351.806593,78.7547204 273.051873,0 175.903297,0" id="Fill-1" fill="#712290"></path>
                        <path d="M87.9516484,175.903297 L0,175.903297 C0,241.033251 35.399483,297.892233 88.0044193,328.29958 L131.95421,252.101087 C105.651038,236.898117 87.9516484,208.467922 87.9516484,175.903297" id="Fill-3" fill="#962BB9"></path>
                        <path d="M24.8470443,85.7380813 C9.07414746,112.105985 0.000351806593,142.943241 0.000351806593,175.903297 L87.9520002,175.903297 C87.9520002,159.423269 92.488898,144.004993 100.374995,130.820689 L24.8470443,85.7380813 Z" id="Fill-5" fill="#B933E1"></path>
                        <path d="M126.625325,103.044292 L77.3470718,30.1851464 C56.0472935,44.6190674 38.0875669,63.6039584 24.8469739,85.738222 L100.374924,130.82083 C106.995221,119.753698 115.975436,110.261252 126.625325,103.044292" id="Fill-7" fill="#D64CF1"></path>
                        <path d="M127.324083,6.79908459 C109.315104,11.9629018 92.488898,19.9235814 77.3471422,30.1850761 L126.625395,103.044222 C134.196273,97.9134742 142.609376,93.9331344 151.613514,91.350874 C159.328633,89.1387142 167.477177,87.9517187 175.902945,87.9517187 L175.902945,7.03613187e-05 C159.050705,7.03613187e-05 142.75432,2.37406125 127.324083,6.79908459" id="Fill-9" fill="#F564FF"></path>
                    </g>
                </g>
                <g id="Group-57" transform="translate(363.314286, 229.331868)">
                    <rect id="Rectangle" fill="#FFFFFF" x="0" y="0" width="80.5538462" height="39.4549451" rx="8"></rect>
                    <path d="M11.0934154,16.4395604 L11.0934154,8.54857143 L13.7368967,8.54857143 L13.7368967,6.83885714 L6.59555165,6.83885714 L6.59555165,8.54857143 L9.26533626,8.54857143 L9.26533626,16.4395604 L11.0934154,16.4395604 Z M16.8406857,16.4395604 L16.8406857,12.5203692 C16.8406857,11.4156308 17.4982681,10.7843516 18.3531253,10.7843516 C19.3131956,10.7843516 19.7998066,11.4156308 19.7998066,12.4283077 L19.7998066,16.4395604 L21.6673407,16.4395604 L21.6673407,12.1521231 C21.6673407,10.2977407 20.5889055,9.1930022 18.9054945,9.1930022 C18.0374857,9.1930022 17.3141451,9.5744 16.8406857,10.2056791 L16.8406857,6.07606154 L15.0389099,6.07606154 L15.0389099,16.4395604 L16.8406857,16.4395604 Z M26.5992088,16.5842286 C28.1642549,16.5842286 29.1637802,15.9397978 29.8739692,14.9402725 L28.387833,14.0722637 C28.0327385,14.6509363 27.4672176,15.0191824 26.6255121,15.0191824 C25.5733802,15.0191824 24.8237363,14.4405099 24.5870066,13.5198945 L30.2290637,13.5198945 L30.2290637,12.8360088 C30.2290637,10.7317451 28.6903209,9.1930022 26.5597538,9.1930022 C24.4423385,9.1930022 22.8378374,10.8369582 22.8378374,12.901767 C22.8378374,14.9665758 24.310822,16.5842286 26.5992088,16.5842286 Z M28.4272879,12.0995165 L24.6396132,12.0995165 C24.9289495,11.2709626 25.6391385,10.7317451 26.5597538,10.7317451 C27.5066725,10.7317451 28.1905582,11.218356 28.4272879,12.0995165 Z M39.4483692,16.4395604 L43.0782242,6.83885714 L41.1317802,6.83885714 L38.5277538,13.9670505 L35.9500308,6.83885714 L33.9904352,6.83885714 L37.6202901,16.4395604 L39.4483692,16.4395604 Z M47.5234813,16.5842286 C49.0885275,16.5842286 50.0880527,15.9397978 50.7982418,14.9402725 L49.3121055,14.0722637 C48.957011,14.6509363 48.3914901,15.0191824 47.5497846,15.0191824 C46.4976527,15.0191824 45.7480088,14.4405099 45.5112791,13.5198945 L51.1533363,13.5198945 L51.1533363,12.8360088 C51.1533363,10.7317451 49.6145934,9.1930022 47.4840264,9.1930022 C45.366611,9.1930022 43.7621099,10.8369582 43.7621099,12.901767 C43.7621099,14.9665758 45.2350945,16.5842286 47.5234813,16.5842286 Z M49.3515604,12.0995165 L45.5638857,12.0995165 C45.853222,11.2709626 46.563411,10.7317451 47.4840264,10.7317451 C48.4309451,10.7317451 49.1148308,11.218356 49.3515604,12.0995165 Z M54.1519121,16.4395604 L54.1519121,12.6913407 C54.1519121,11.4945407 54.7568879,11.0210813 55.6906549,11.0210813 C56.098356,11.0210813 56.4402989,11.1262945 56.6375736,11.2709626 L57.295156,9.48233846 C56.9926681,9.32451868 56.5718154,9.20615385 56.098356,9.20615385 C55.1908923,9.20615385 54.4807033,9.58755165 54.1387604,10.4292571 L54.1387604,9.33767033 L52.3501363,9.33767033 L52.3501363,16.4395604 L54.1519121,16.4395604 Z M61.7535648,19.4775912 C63.9367385,19.4775912 65.4754813,17.9783033 65.4754813,15.9134945 L65.4754813,9.33767033 L63.6605538,9.33767033 L63.6605538,10.2714374 C63.1870945,9.61385495 62.3979956,9.1930022 61.4510769,9.1930022 C59.6361495,9.1930022 58.0053451,10.6265319 58.0053451,12.8754637 C58.0053451,15.1243956 59.6756044,16.5447736 61.4247736,16.5447736 C62.345389,16.5447736 63.1607912,16.1239209 63.6605538,15.4268835 L63.6605538,15.9661011 C63.6605538,17.0839912 62.8451516,17.8599385 61.7009582,17.8599385 C60.7671912,17.8599385 60.2411253,17.5179956 59.7676659,16.8998681 L58.268378,18.0703648 C59.0706286,19.0041319 60.1359121,19.4775912 61.7535648,19.4775912 Z M61.7798681,14.8613626 C60.6882813,14.8613626 59.8071209,13.9802022 59.8071209,12.8623121 C59.8071209,11.7312703 60.6882813,10.8632615 61.7798681,10.8632615 C62.8977582,10.8632615 63.7526154,11.744422 63.7526154,12.8623121 C63.7526154,13.9802022 62.8977582,14.8613626 61.7798681,14.8613626 Z M70.4336527,16.5842286 C71.9986989,16.5842286 72.9982242,15.9397978 73.7084132,14.9402725 L72.2222769,14.0722637 C71.8671824,14.6509363 71.3016615,15.0191824 70.459956,15.0191824 C69.4078242,15.0191824 68.6581802,14.4405099 68.4214505,13.5198945 L74.0635077,13.5198945 L74.0635077,12.8360088 C74.0635077,10.7317451 72.5247648,9.1930022 70.3941978,9.1930022 C68.2767824,9.1930022 66.6722813,10.8369582 66.6722813,12.901767 C66.6722813,14.9665758 68.1452659,16.5842286 70.4336527,16.5842286 Z M72.2617319,12.0995165 L68.4740571,12.0995165 C68.7633934,11.2709626 69.4735824,10.7317451 70.3941978,10.7317451 C71.3411165,10.7317451 72.0250022,11.218356 72.2617319,12.0995165 Z" id="TheVerge" fill="#000000" fill-rule="nonzero"></path>
                    <path d="M10.8445012,34.0747241 L10.8445012,33.0379119 C12.8387301,32.9211538 13.9642784,31.7535725 13.9642784,30.2824201 C13.9642784,28.4890152 12.26428,27.9098948 11.2741711,27.6483566 L10.8445012,27.5315985 L10.8445012,24.2203379 C11.8626321,24.3044038 12.6098841,24.8414912 12.7126313,25.7055013 L13.8335093,25.7055013 C13.7821357,24.3277554 12.5678512,23.2816026 10.8445012,23.1881961 L10.8445012,22.1186916 L10.2466996,22.1186916 L10.2466996,23.1975367 C8.5887341,23.3236355 7.33241662,24.3557774 7.33241662,25.8549518 C7.33241662,27.1439615 8.26648166,27.9098948 9.76098573,28.3395648 L10.2466996,28.4796745 L10.2466996,31.9917591 C9.21922801,31.9217042 8.35054752,31.4126388 8.26648166,30.4131892 L7.07087841,30.4131892 C7.17829589,31.9170339 8.34587719,32.9538461 10.2466996,33.0425823 L10.2466996,34.0747241 L10.8445012,34.0747241 Z M10.2466996,27.3728074 C9.53681012,27.1813241 8.45329467,26.7983574 8.45329467,25.7989079 C8.45329467,24.9629196 9.15384345,24.3277554 10.2466996,24.2250083 L10.2466996,27.3728074 Z M10.8445012,31.9870888 L10.8445012,28.6478062 L10.9379077,28.6758282 C11.9466979,28.9560477 12.8434004,29.3109924 12.8434004,30.2637388 C12.8434004,31.2211554 12.0027418,31.8796713 10.8445012,31.9870888 Z M18.7093368,32.8791209 L18.7093368,23.3142948 L17.7379092,23.3142948 C17.677195,23.4123717 16.9906572,24.7340737 15.5148344,24.7340737 L15.5148344,25.7055013 C16.6123608,25.7055013 17.3969755,25.2571501 17.5324149,24.9956119 L17.6071401,24.9956119 L17.6071401,32.8791209 L18.7093368,32.8791209 Z M22.2774708,32.9538461 C22.7445033,32.9538461 23.1181293,32.5802201 23.1181293,32.1131875 C23.1181293,31.6648363 22.7445033,31.2912103 22.2774708,31.2912103 C21.8291196,31.2912103 21.4368123,31.646155 21.4368123,32.1131875 C21.4368123,32.5802201 21.8104383,32.9538461 22.2774708,32.9538461 Z M26.5928548,32.8791209 L30.8521914,24.3978103 L30.8521914,23.3142948 L24.7247247,23.3142948 L24.7247247,24.3417664 L29.6565881,24.3417664 L29.6565881,24.4164916 L25.3785702,32.8791209 L26.5928548,32.8791209 Z M35.6532928,33.00989 C37.5634559,33.00989 38.8944985,31.8936823 38.9038392,30.338464 C38.8944985,29.1288497 38.0865323,28.1013782 37.0543904,27.9098948 L37.0543904,27.8538509 C37.9510928,27.6203347 38.5395538,26.7423135 38.5488945,25.7241826 C38.5395538,24.2670412 37.3159286,23.1835257 35.6532928,23.1835257 C33.9719758,23.1835257 32.7483506,24.2670412 32.7576912,25.7241826 C32.7483506,26.7423135 33.3368115,27.6203347 34.2521953,27.8538509 L34.2521953,27.9098948 C33.2013721,28.1013782 32.3934058,29.1288497 32.4027465,30.338464 C32.3934058,31.8936823 33.7244485,33.00989 35.6532928,33.00989 Z M35.6532928,27.4428623 C34.60714,27.4428623 33.8692286,26.7890168 33.8785693,25.7989079 C33.8692286,24.8274802 34.579118,24.192316 35.6532928,24.192316 C36.7087863,24.192316 37.4186758,24.8274802 37.4280164,25.7989079 C37.4186758,26.7890168 36.6807644,27.4428623 35.6532928,27.4428623 Z M35.6532928,31.9824184 C34.3409315,31.9824184 33.5329652,31.3098916 33.5423058,30.2824201 C33.5329652,29.2035749 34.4249973,28.4329713 35.6532928,28.4329713 C36.8629071,28.4329713 37.7549392,29.2035749 37.7642798,30.2824201 C37.7549392,31.3098916 36.9469729,31.9824184 35.6532928,31.9824184 Z" id="$1.78" fill="#000000" fill-rule="nonzero"></path>
                </g>
                <g id="Group-58" transform="translate(41.098901, 261.389011)">
                    <rect id="Rectangle" fill="#FFFFFF" x="0" y="0" width="48.4967033" height="39.4549451" rx="8"></rect>
                    <path d="M20.4508132,16.4395604 L24.0806681,6.83885714 L22.1342242,6.83885714 L19.5301978,13.9670505 L16.9524747,6.83885714 L14.9928791,6.83885714 L18.6227341,16.4395604 L20.4508132,16.4395604 Z M28.5127736,16.5842286 C30.6564923,16.5842286 32.2741451,14.9271209 32.2741451,12.8886154 C32.2741451,10.8369582 30.630189,9.1930022 28.5127736,9.1930022 C26.3822066,9.1930022 24.7645538,10.8369582 24.7645538,12.8886154 C24.7645538,14.9271209 26.3822066,16.5842286 28.5127736,16.5842286 Z M28.5259253,14.8613626 C27.4343385,14.8613626 26.5794813,13.9802022 26.5794813,12.8754637 C26.5794813,11.7707253 27.4343385,10.8895648 28.5259253,10.8895648 C29.6043604,10.8895648 30.4723692,11.7707253 30.4723692,12.8754637 C30.4723692,13.9802022 29.6043604,14.8613626 28.5259253,14.8613626 Z M35.1149011,16.4395604 L36.7062505,14.2169319 L38.3370549,16.4395604 L40.5333802,16.4395604 L37.8241407,12.8097055 L40.3492571,9.33767033 L38.2186901,9.33767033 L36.7194022,11.4419341 L35.2332659,9.33767033 L33.0763956,9.33767033 L35.5883604,12.7965538 L32.9317275,16.4395604 L35.1149011,16.4395604 Z" id="Vox" fill="#000000" fill-rule="nonzero"></path>
                    <path d="M10.274721,34.0747241 L10.274721,33.0379119 C12.2689498,32.9211538 13.3944982,31.7535725 13.3944982,30.2824201 C13.3944982,28.4890152 11.6944998,27.9098948 10.7043909,27.6483566 L10.274721,27.5315985 L10.274721,24.2203379 C11.2928519,24.3044038 12.0401039,24.8414912 12.142851,25.7055013 L13.2637291,25.7055013 C13.2123555,24.3277554 11.998071,23.2816026 10.274721,23.1881961 L10.274721,22.1186916 L9.67691934,22.1186916 L9.67691934,23.1975367 C8.01895388,23.3236355 6.7626364,24.3557774 6.7626364,25.8549518 C6.7626364,27.1439615 7.69670144,27.9098948 9.19120551,28.3395648 L9.67691934,28.4796745 L9.67691934,31.9917591 C8.64944779,31.9217042 7.7807673,31.4126388 7.69670144,30.4131892 L6.50109819,30.4131892 C6.60851567,31.9170339 7.77609697,32.9538461 9.67691934,33.0425823 L9.67691934,34.0747241 L10.274721,34.0747241 Z M9.67691934,27.3728074 C8.9670299,27.1813241 7.88351445,26.7983574 7.88351445,25.7989079 C7.88351445,24.9629196 8.58406323,24.3277554 9.67691934,24.2250083 L9.67691934,27.3728074 Z M10.274721,31.9870888 L10.274721,28.6478062 L10.3681275,28.6758282 C11.3769177,28.9560477 12.2736202,29.3109924 12.2736202,30.2637388 C12.2736202,31.2211554 11.4329616,31.8796713 10.274721,31.9870888 Z M18.2516444,33.00989 C20.3626314,33.00989 21.576916,31.2211554 21.576916,28.0967079 C21.576916,24.9956119 20.3439501,23.1835257 18.2516444,23.1835257 C16.1593387,23.1835257 14.9263729,24.9956119 14.9263729,28.0967079 C14.9263729,31.2211554 16.1406574,33.00989 18.2516444,33.00989 Z M18.2516444,31.9824184 C16.8598875,31.9824184 16.0472509,30.5859912 16.0472509,28.0967079 C16.0472509,25.6120948 16.8692282,24.192316 18.2516444,24.192316 C19.6340607,24.192316 20.4560379,25.6120948 20.4560379,28.0967079 C20.4560379,30.5859912 19.6434013,31.9824184 18.2516444,31.9824184 Z M24.1736246,32.9538461 C24.6406572,32.9538461 25.0142832,32.5802201 25.0142832,32.1131875 C25.0142832,31.6648363 24.6406572,31.2912103 24.1736246,31.2912103 C23.7252734,31.2912103 23.3329661,31.646155 23.3329661,32.1131875 C23.3329661,32.5802201 23.7065921,32.9538461 24.1736246,32.9538461 Z M32.3560379,32.8791209 L32.3560379,30.9175843 L33.6637289,30.9175843 L33.6637289,29.8901127 L32.3560379,29.8901127 L32.3560379,23.3142948 L30.9549403,23.3142948 L26.7516476,29.9648379 L26.7516476,30.9175843 L31.2538411,30.9175843 L31.2538411,32.8791209 L32.3560379,32.8791209 Z M31.2538411,29.8901127 L28.0032948,29.8901127 L28.0032948,29.8153875 L31.1791159,24.7901176 L31.2538411,24.7901176 L31.2538411,29.8901127 Z M38.4087874,33.00989 C40.2302142,33.00989 41.5659273,31.6648363 41.5659273,29.8340688 C41.5659273,27.9799497 40.2769175,26.6208851 38.5208752,26.6208851 C37.8763703,26.6208851 37.2505468,26.849731 36.8582394,27.1626428 L36.8021955,27.1626428 L37.138459,24.3417664 L41.1362573,24.3417664 L41.1362573,23.3142948 L36.1670313,23.3142948 L35.587911,28.0219827 L36.6714264,28.1527518 C37.0684041,27.8678619 37.7456012,27.6623676 38.3340622,27.6670379 C39.5530171,27.6763786 40.4450492,28.601103 40.4450492,29.8527501 C40.4450492,31.0810457 39.5857094,31.9824184 38.4087874,31.9824184 C37.4280191,31.9824184 36.6480748,31.3519245 36.5593386,30.4879144 L35.4384606,30.4879144 C35.5085155,31.9450558 36.7648329,33.00989 38.4087874,33.00989 Z" id="$0.45" fill="#000000" fill-rule="nonzero"></path>
                </g>
                <g id="Group-59" transform="translate(0.000000, 133.982418)">
                    <rect id="Rectangle" fill="#FFFFFF" x="0" y="0" width="71.5120879" height="39.4549451" rx="8"></rect>
                    <path d="M11.9811516,16.5710769 C14.8613626,16.5710769 16.6894418,14.3352967 16.6894418,11.7707253 L16.6894418,10.9684747 L11.6392088,10.9684747 L11.6392088,12.7044923 L14.6903912,12.7044923 C14.3747516,13.9670505 13.4146813,14.7824527 11.9548484,14.7824527 C10.1267692,14.7824527 8.82475604,13.427833 8.82475604,11.6392088 C8.82475604,9.87688791 10.1530725,8.46966154 11.9285451,8.46966154 C13.0464352,8.46966154 13.914444,8.95627253 14.4668132,9.79797802 L16.0318593,8.70639121 C15.1243956,7.48328791 13.7434725,6.70734066 11.9285451,6.70734066 C9.03518242,6.70734066 6.97037363,8.87736264 6.97037363,11.6392088 C6.97037363,14.3089934 8.96942418,16.5710769 11.9811516,16.5710769 Z M18.9120703,8.49596484 C19.6091077,8.49596484 20.082567,8.00935385 20.082567,7.33861978 C20.082567,6.65473407 19.6091077,6.15497143 18.9120703,6.15497143 C18.2413363,6.15497143 17.7547253,6.65473407 17.7547253,7.33861978 C17.7547253,8.00935385 18.2281846,8.49596484 18.9120703,8.49596484 Z M19.8458374,16.4395604 L19.8458374,9.33767033 L17.9914549,9.33767033 L17.9914549,16.4395604 L19.8458374,16.4395604 Z M27.3422769,16.4395604 L27.3422769,14.848211 L23.3441758,14.848211 L27.2896703,10.9553231 L27.2896703,9.33767033 L21.1741538,9.33767033 L21.1741538,10.9158681 L25.0538901,10.9158681 L21.095244,14.8219077 L21.095244,16.4395604 L27.3422769,16.4395604 Z M30.4197626,16.4395604 L30.4197626,12.4940659 C30.4197626,11.3498725 30.9589802,10.7843516 31.8138374,10.7843516 C32.6949978,10.7843516 33.0895473,11.3367209 33.0895473,12.2836396 L33.0895473,16.4395604 L34.9439297,16.4395604 L34.9439297,12.454611 C34.9439297,11.3367209 35.4831473,10.7843516 36.2985495,10.7843516 C37.2191648,10.7843516 37.6137143,11.3761758 37.6137143,12.3362462 L37.6137143,16.4395604 L39.4812484,16.4395604 L39.4812484,12.0732132 C39.4812484,10.2977407 38.5737846,9.1930022 36.7720088,9.1930022 C35.7987868,9.1930022 34.9965363,9.65330989 34.5493802,10.3898022 C34.1679824,9.62700659 33.4446418,9.1930022 32.3793582,9.1930022 C31.5245011,9.1930022 30.8406154,9.56124835 30.406611,10.1793758 L30.406611,9.33767033 L28.5916835,9.33767033 L28.5916835,16.4395604 L30.4197626,16.4395604 Z M44.3999648,16.5842286 C46.5436835,16.5842286 48.1613363,14.9271209 48.1613363,12.8886154 C48.1613363,10.8369582 46.5173802,9.1930022 44.3999648,9.1930022 C42.2693978,9.1930022 40.6517451,10.8369582 40.6517451,12.8886154 C40.6517451,14.9271209 42.2693978,16.5842286 44.3999648,16.5842286 Z M44.4131165,14.8613626 C43.3215297,14.8613626 42.4666725,13.9802022 42.4666725,12.8754637 C42.4666725,11.7707253 43.3215297,10.8895648 44.4131165,10.8895648 C45.4915516,10.8895648 46.3595604,11.7707253 46.3595604,12.8754637 C46.3595604,13.9802022 45.4915516,14.8613626 44.4131165,14.8613626 Z M52.5539868,16.5842286 C53.4746022,16.5842286 54.2768527,16.1633758 54.7766154,15.4663385 L54.7766154,16.4395604 L56.5652396,16.4395604 L56.5652396,6.06290989 L54.7766154,6.06290989 L54.7766154,10.2451341 C54.2900044,9.58755165 53.5140571,9.1930022 52.5802901,9.1930022 C50.7653626,9.1930022 49.1345582,10.6265319 49.1345582,12.8886154 C49.1345582,15.1506989 50.8048176,16.5842286 52.5539868,16.5842286 Z M52.9090813,14.8745143 C51.8174945,14.8745143 50.9363341,13.9933538 50.9363341,12.8754637 C50.9363341,11.7575736 51.8174945,10.8764132 52.9090813,10.8764132 C54.0269714,10.8764132 54.8818286,11.7707253 54.8818286,12.8754637 C54.8818286,13.9802022 54.0269714,14.8745143 52.9090813,14.8745143 Z M61.5102593,16.5842286 C63.653978,16.5842286 65.2716308,14.9271209 65.2716308,12.8886154 C65.2716308,10.8369582 63.6276747,9.1930022 61.5102593,9.1930022 C59.3796923,9.1930022 57.7620396,10.8369582 57.7620396,12.8886154 C57.7620396,14.9271209 59.3796923,16.5842286 61.5102593,16.5842286 Z M61.523411,14.8613626 C60.4318242,14.8613626 59.576967,13.9802022 59.576967,12.8754637 C59.576967,11.7707253 60.4318242,10.8895648 61.523411,10.8895648 C62.6018462,10.8895648 63.4698549,11.7707253 63.4698549,12.8754637 C63.4698549,13.9802022 62.6018462,14.8613626 61.523411,14.8613626 Z" id="Gizmodo" fill="#000000" fill-rule="nonzero"></path>
                    <path d="M36.0923034,34.0747241 L36.0923034,33.0379119 C38.0865322,32.9211538 39.2120806,31.7535725 39.2120806,30.2824201 C39.2120806,28.4890152 37.5120822,27.9098948 36.5219733,27.6483566 L36.0923034,27.5315985 L36.0923034,24.2203379 C37.1104343,24.3044038 37.8576863,24.8414912 37.9604335,25.7055013 L39.0813115,25.7055013 C39.0299379,24.3277554 37.8156534,23.2816026 36.0923034,23.1881961 L36.0923034,22.1186916 L35.4945018,22.1186916 L35.4945018,23.1975367 C33.8365363,23.3236355 32.5802188,24.3557774 32.5802188,25.8549518 C32.5802188,27.1439615 33.5142839,27.9098948 35.0087879,28.3395648 L35.4945018,28.4796745 L35.4945018,31.9917591 C34.4670302,31.9217042 33.5983497,31.4126388 33.5142839,30.4131892 L32.3186806,30.4131892 C32.4260981,31.9170339 33.5936794,32.9538461 35.4945018,33.0425823 L35.4945018,34.0747241 L36.0923034,34.0747241 Z M35.4945018,27.3728074 C34.7846123,27.1813241 33.7010969,26.7983574 33.7010969,25.7989079 C33.7010969,24.9629196 34.4016457,24.3277554 35.4945018,24.2250083 L35.4945018,27.3728074 Z M36.0923034,31.9870888 L36.0923034,28.6478062 L36.1857099,28.6758282 C37.1945001,28.9560477 38.0912026,29.3109924 38.0912026,30.2637388 C38.0912026,31.2211554 37.250544,31.8796713 36.0923034,31.9870888 Z M44.0692268,33.00989 C46.1802138,33.00989 47.3944984,31.2211554 47.3944984,28.0967079 C47.3944984,24.9956119 46.1615325,23.1835257 44.0692268,23.1835257 C41.9769212,23.1835257 40.7439553,24.9956119 40.7439553,28.0967079 C40.7439553,31.2211554 41.9582399,33.00989 44.0692268,33.00989 Z M44.0692268,31.9824184 C42.6774699,31.9824184 41.8648333,30.5859912 41.8648333,28.0967079 C41.8648333,25.6120948 42.6868106,24.192316 44.0692268,24.192316 C45.4516431,24.192316 46.2736204,25.6120948 46.2736204,28.0967079 C46.2736204,30.5859912 45.4609838,31.9824184 44.0692268,31.9824184 Z M49.9912071,32.9538461 C50.4582396,32.9538461 50.8318656,32.5802201 50.8318656,32.1131875 C50.8318656,31.6648363 50.4582396,31.2912103 49.9912071,31.2912103 C49.5428558,31.2912103 49.1505485,31.646155 49.1505485,32.1131875 C49.1505485,32.5802201 49.5241745,32.9538461 49.9912071,32.9538461 Z M55.8010951,32.8791209 L55.8010951,23.3142948 L54.8296674,23.3142948 C54.7689532,23.4123717 54.0824154,24.7340737 52.6065926,24.7340737 L52.6065926,25.7055013 C53.7041191,25.7055013 54.4887337,25.2571501 54.6241731,24.9956119 L54.6988983,24.9956119 L54.6988983,32.8791209 L55.8010951,32.8791209 Z M61.4428534,33.00989 C63.591203,33.00989 64.9175754,31.1043973 64.9175754,27.7044005 C64.9175754,24.1736347 63.1615331,23.1835257 61.5923038,23.1648444 C59.6494486,23.1461631 58.3978014,24.6033046 58.3978014,26.3780282 C58.3978014,28.227477 59.7615364,29.5538493 61.4054908,29.5538493 C62.3955998,29.5538493 63.2362583,29.0681355 63.7593347,28.2835209 L63.8340599,28.2835209 C63.8340599,30.6373648 62.9186762,31.9824184 61.4428534,31.9824184 C60.4340632,31.9824184 59.8175803,31.3472542 59.612086,30.4692331 L58.4725266,30.4692331 C58.6967022,31.9824184 59.8362616,33.00989 61.4428534,33.00989 Z M61.5549412,28.5263778 C60.3780193,28.5263778 59.5186794,27.5736314 59.5186794,26.3780282 C59.5186794,25.1637436 60.4153819,24.192316 61.5923038,24.192316 C62.7879071,24.192316 63.6659282,25.2197875 63.6659282,26.3593469 C63.6659282,27.4989062 62.7318632,28.5263778 61.5549412,28.5263778 Z" id="$0.19" fill="#000000" fill-rule="nonzero"></path>
                </g>
                <g id="Group-60" transform="translate(65.758242, 49.318681)">
                    <rect id="Rectangle" fill="#FFFFFF" x="0" y="0" width="46.0307692" height="39.4549451" rx="8"></rect>
                    <path d="M10.8961407,16.5710769 C13.0398593,16.5710769 14.4207824,15.2033055 14.4207824,13.5593495 C14.4207824,11.481389 12.7242198,11.0079297 11.2512352,10.6922901 C10.0544352,10.4161055 9.09436484,10.2714374 9.09436484,9.49549011 C9.09436484,8.86421099 9.54152088,8.3512967 10.5805011,8.3512967 C11.6852396,8.3512967 12.3296703,8.8116044 12.829433,9.5480967 L14.3418725,8.36444835 C13.3686505,7.28601319 12.303367,6.69418901 10.6068044,6.69418901 C8.60775385,6.69418901 7.20052747,7.95674725 7.20052747,9.53494505 C7.20052747,11.481389 8.80502857,11.9416967 10.2385582,12.2441846 C11.5668747,12.5466725 12.4874901,12.7307956 12.4874901,13.6251077 C12.4874901,14.3221451 11.9482725,14.8219077 10.9092923,14.8219077 C9.7650989,14.8219077 8.91024176,14.3089934 8.27896264,13.3094681 L6.66130989,14.5983297 C7.56877363,15.7556747 8.83133187,16.5710769 10.8961407,16.5710769 Z M17.4588132,16.4395604 L17.4588132,6.07606154 L15.6438857,6.07606154 L15.6438857,16.4395604 L17.4588132,16.4395604 Z M21.1018198,16.5842286 C22.2197099,16.5842286 23.1929319,16.0844659 23.7058462,15.3479736 L23.7058462,16.4395604 L25.4550154,16.4395604 L25.4550154,12.0732132 C25.4550154,10.284589 24.2582154,9.1930022 22.1671033,9.1930022 C20.5757538,9.1930022 19.5367736,9.86373626 18.813433,10.8106549 L20.4836923,11.6392088 C20.8124835,11.0473846 21.3517011,10.7054418 22.1539516,10.7054418 C23.1797802,10.7054418 23.6926945,11.2315077 23.6926945,11.9943033 L23.6926945,12.0863648 L21.8251604,12.0863648 C19.8524132,12.0863648 18.6293099,12.9938286 18.6293099,14.4668132 C18.6293099,15.7162198 19.5499253,16.5842286 21.1018198,16.5842286 Z M21.6278857,15.0849407 C20.8782418,15.0849407 20.5231473,14.8219077 20.5231473,14.3089934 C20.5231473,13.7566242 20.9571516,13.4146813 22.0355868,13.4146813 L23.7058462,13.4146813 L23.7058462,13.7960791 C23.3507516,14.5588747 22.4958945,15.0849407 21.6278857,15.0849407 Z M30.1238505,16.5710769 C30.781433,16.5710769 31.3601055,16.3738022 31.8204132,16.0318593 L30.9918593,14.6114813 C30.781433,14.7956044 30.5841582,14.8745143 30.3342769,14.8745143 C29.8739692,14.8745143 29.5583297,14.6114813 29.5583297,13.8618374 L29.5583297,10.9421714 L31.4258637,10.9421714 L31.4258637,9.33767033 L29.5583297,9.33767033 L29.5583297,6.7467956 L27.7697055,7.79892747 L27.7697055,9.33767033 L26.4545407,9.33767033 L26.4545407,10.9421714 L27.7697055,10.9421714 L27.7697055,13.9275956 C27.7697055,15.8608879 28.6377143,16.5710769 30.1238505,16.5710769 Z M36.1604571,16.5842286 C37.7255033,16.5842286 38.7250286,15.9397978 39.4352176,14.9402725 L37.9490813,14.0722637 C37.5939868,14.6509363 37.0284659,15.0191824 36.1867604,15.0191824 C35.1346286,15.0191824 34.3849846,14.4405099 34.1482549,13.5198945 L39.7903121,13.5198945 L39.7903121,12.8360088 C39.7903121,10.7317451 38.2515692,9.1930022 36.1210022,9.1930022 C34.0035868,9.1930022 32.3990857,10.8369582 32.3990857,12.901767 C32.3990857,14.9665758 33.8720703,16.5842286 36.1604571,16.5842286 Z M37.9885363,12.0995165 L34.2008615,12.0995165 C34.4901978,11.2709626 35.2003868,10.7317451 36.1210022,10.7317451 C37.0679209,10.7317451 37.7518066,11.218356 37.9885363,12.0995165 Z" id="Slate" fill="#000000" fill-rule="nonzero"></path>
                    <path d="M10.6109847,34.0747241 L10.6109847,33.0379119 C12.6052136,32.9211538 13.7307619,31.7535725 13.7307619,30.2824201 C13.7307619,28.4890152 12.0307636,27.9098948 11.0406546,27.6483566 L10.6109847,27.5315985 L10.6109847,24.2203379 C11.6291156,24.3044038 12.3763676,24.8414912 12.4791148,25.7055013 L13.5999928,25.7055013 C13.5486193,24.3277554 12.3343347,23.2816026 10.6109847,23.1881961 L10.6109847,22.1186916 L10.0131831,22.1186916 L10.0131831,23.1975367 C8.35521762,23.3236355 7.09890014,24.3557774 7.09890014,25.8549518 C7.09890014,27.1439615 8.03296518,27.9098948 9.52746925,28.3395648 L10.0131831,28.4796745 L10.0131831,31.9917591 C8.98571152,31.9217042 8.11703103,31.4126388 8.03296518,30.4131892 L6.83736192,30.4131892 C6.9447794,31.9170339 8.11236071,32.9538461 10.0131831,33.0425823 L10.0131831,34.0747241 L10.6109847,34.0747241 Z M10.0131831,27.3728074 C9.30329364,27.1813241 8.21977819,26.7983574 8.21977819,25.7989079 C8.21977819,24.9629196 8.92032697,24.3277554 10.0131831,24.2250083 L10.0131831,27.3728074 Z M10.6109847,31.9870888 L10.6109847,28.6478062 L10.7043912,28.6758282 C11.7131815,28.9560477 12.6098839,29.3109924 12.6098839,30.2637388 C12.6098839,31.2211554 11.7692254,31.8796713 10.6109847,31.9870888 Z M18.5879082,33.00989 C20.6988952,33.00989 21.9131797,31.2211554 21.9131797,28.0967079 C21.9131797,24.9956119 20.6802139,23.1835257 18.5879082,23.1835257 C16.4956025,23.1835257 15.2626366,24.9956119 15.2626366,28.0967079 C15.2626366,31.2211554 16.4769212,33.00989 18.5879082,33.00989 Z M18.5879082,31.9824184 C17.1961513,31.9824184 16.3835147,30.5859912 16.3835147,28.0967079 C16.3835147,25.6120948 17.2054919,24.192316 18.5879082,24.192316 C19.9703244,24.192316 20.7923017,25.6120948 20.7923017,28.0967079 C20.7923017,30.5859912 19.9796651,31.9824184 18.5879082,31.9824184 Z M24.5098884,32.9538461 C24.9769209,32.9538461 25.3505469,32.5802201 25.3505469,32.1131875 C25.3505469,31.6648363 24.9769209,31.2912103 24.5098884,31.2912103 C24.0615372,31.2912103 23.6692298,31.646155 23.6692298,32.1131875 C23.6692298,32.5802201 24.0428559,32.9538461 24.5098884,32.9538461 Z M30.3197764,32.8791209 L30.3197764,23.3142948 L29.3483488,23.3142948 C29.2876345,23.4123717 28.6010967,24.7340737 27.125274,24.7340737 L27.125274,25.7055013 C28.2228004,25.7055013 29.007415,25.2571501 29.1428545,24.9956119 L29.2175797,24.9956119 L29.2175797,32.8791209 L30.3197764,32.8791209 Z M36.2417543,33.00989 C38.1752689,33.0332416 39.4362567,31.5761001 39.4362567,29.7967062 C39.4362567,27.9472575 38.0678514,26.6208851 36.4285673,26.6208851 C35.4431287,26.6208851 34.5977998,27.1019286 34.0747234,27.8912135 L33.9999982,27.8912135 C34.0046685,25.54204 34.9107116,24.192316 36.3912047,24.192316 C37.3999949,24.192316 38.0071372,24.8274802 38.2219722,25.7055013 L39.3615315,25.7055013 C39.1280153,24.2016566 37.9977966,23.1648444 36.3912047,23.1648444 C34.2381848,23.1648444 32.9164827,25.0703371 32.9164827,28.4703339 C32.9164827,32.0057701 34.672525,32.9912087 36.2417543,33.00989 Z M36.2417543,31.9824184 C35.0414807,31.9824184 34.1634595,30.9596172 34.1681113,29.8153875 C34.1728002,28.6711579 35.0928543,27.6483566 36.2791169,27.6483566 C37.4513685,27.6483566 38.3153787,28.6104436 38.3153787,29.7967062 C38.3153787,31.0109908 37.4140059,31.9824184 36.2417543,31.9824184 Z" id="$0.16" fill="#000000" fill-rule="nonzero"></path>
                </g>
                <g id="Group-56" transform="translate(133.982418, 0.000000)">
                    <rect id="Rectangle" fill="#FFFFFF" x="0" y="0" width="83.0197802" height="39.4549451" rx="8"></rect>
                    <path d="M10.508167,16.5710769 C12.7834022,16.5710769 14.3089934,15.1375473 14.3089934,12.7439473 L14.3089934,6.83885714 L12.415156,6.83885714 L12.415156,12.7834022 C12.415156,13.9670505 11.6392088,14.7824527 10.508167,14.7824527 C9.37712527,14.7824527 8.61432967,13.9670505 8.61432967,12.7834022 L8.61432967,6.83885714 L6.72049231,6.83885714 L6.72049231,12.7439473 C6.72049231,15.1375473 8.23293187,16.5710769 10.508167,16.5710769 Z M19.4644396,16.5710769 C21.6081582,16.5710769 22.9890813,15.2033055 22.9890813,13.5593495 C22.9890813,11.481389 21.2925187,11.0079297 19.8195341,10.6922901 C18.6227341,10.4161055 17.6626637,10.2714374 17.6626637,9.49549011 C17.6626637,8.86421099 18.1098198,8.3512967 19.1488,8.3512967 C20.2535385,8.3512967 20.8979692,8.8116044 21.3977319,9.5480967 L22.9101714,8.36444835 C21.9369495,7.28601319 20.8716659,6.69418901 19.1751033,6.69418901 C17.1760527,6.69418901 15.7688264,7.95674725 15.7688264,9.53494505 C15.7688264,11.481389 17.3733275,11.9416967 18.8068571,12.2441846 C20.1351736,12.5466725 21.055789,12.7307956 21.055789,13.6251077 C21.055789,14.3221451 20.5165714,14.8219077 19.4775912,14.8219077 C18.3333978,14.8219077 17.4785407,14.3089934 16.8472615,13.3094681 L15.2296088,14.5983297 C16.1370725,15.7556747 17.3996308,16.5710769 19.4644396,16.5710769 Z M25.6062593,16.4395604 L26.2375385,14.6903912 L30.2487912,14.6903912 L30.8800703,16.4395604 L32.7870593,16.4395604 L29.1572044,6.83885714 L27.3291253,6.83885714 L23.6992703,16.4395604 L25.6062593,16.4395604 Z M29.6306637,13.0069802 L26.8556659,13.0069802 L28.2497407,9.1930022 L29.6306637,13.0069802 Z M41.1515077,16.4395604 L41.1515077,8.54857143 L43.794989,8.54857143 L43.794989,6.83885714 L36.653644,6.83885714 L36.653644,8.54857143 L39.3234286,8.54857143 L39.3234286,16.4395604 L41.1515077,16.4395604 Z M48.621644,16.5842286 C50.7653626,16.5842286 52.3830154,14.9271209 52.3830154,12.8886154 C52.3830154,10.8369582 50.7390593,9.1930022 48.621644,9.1930022 C46.4910769,9.1930022 44.8734242,10.8369582 44.8734242,12.8886154 C44.8734242,14.9271209 46.4910769,16.5842286 48.621644,16.5842286 Z M48.6347956,14.8613626 C47.5432088,14.8613626 46.6883516,13.9802022 46.6883516,12.8754637 C46.6883516,11.7707253 47.5432088,10.8895648 48.6347956,10.8895648 C49.7132308,10.8895648 50.5812396,11.7707253 50.5812396,12.8754637 C50.5812396,13.9802022 49.7132308,14.8613626 48.6347956,14.8613626 Z M56.7756659,16.5842286 C57.6962813,16.5842286 58.4985319,16.1633758 58.9982945,15.4663385 L58.9982945,16.4395604 L60.7869187,16.4395604 L60.7869187,6.06290989 L58.9982945,6.06290989 L58.9982945,10.2451341 C58.5116835,9.58755165 57.7357363,9.1930022 56.8019692,9.1930022 C54.9870418,9.1930022 53.3562374,10.6265319 53.3562374,12.8886154 C53.3562374,15.1506989 55.0264967,16.5842286 56.7756659,16.5842286 Z M57.1307604,14.8745143 C56.0391736,14.8745143 55.1580132,13.9933538 55.1580132,12.8754637 C55.1580132,11.7575736 56.0391736,10.8764132 57.1307604,10.8764132 C58.2486505,10.8764132 59.1035077,11.7707253 59.1035077,12.8754637 C59.1035077,13.9802022 58.2486505,14.8745143 57.1307604,14.8745143 Z M64.4299253,16.5842286 C65.5478154,16.5842286 66.5210374,16.0844659 67.0339516,15.3479736 L67.0339516,16.4395604 L68.7831209,16.4395604 L68.7831209,12.0732132 C68.7831209,10.284589 67.5863209,9.1930022 65.4952088,9.1930022 C63.9038593,9.1930022 62.8648791,9.86373626 62.1415385,10.8106549 L63.8117978,11.6392088 C64.140589,11.0473846 64.6798066,10.7054418 65.4820571,10.7054418 C66.5078857,10.7054418 67.0208,11.2315077 67.0208,11.9943033 L67.0208,12.0863648 L65.1532659,12.0863648 C63.1805187,12.0863648 61.9574154,12.9938286 61.9574154,14.4668132 C61.9574154,15.7162198 62.8780308,16.5842286 64.4299253,16.5842286 Z M64.9559912,15.0849407 C64.2063473,15.0849407 63.8512527,14.8219077 63.8512527,14.3089934 C63.8512527,13.7566242 64.2852571,13.4146813 65.3636923,13.4146813 L67.0339516,13.4146813 L67.0339516,13.7960791 C66.6788571,14.5588747 65.824,15.0849407 64.9559912,15.0849407 Z M71.0320527,19.2540132 C72.5313407,19.2540132 73.2941363,18.6358857 74.0306286,16.8209582 L77.0949626,9.33767033 L75.2011253,9.33767033 L73.451956,13.914444 L71.6107253,9.33767033 L69.677433,9.33767033 L72.5313407,16.1370725 L72.4129758,16.4264088 C72.0578813,17.2681143 71.6633319,17.5574505 71.0189011,17.5574505 C70.6112,17.5574505 70.3087121,17.3864791 70.0588308,17.1234462 L69.0066989,18.5964308 C69.5327648,18.9778286 70.2824088,19.2540132 71.0320527,19.2540132 Z" id="USAToday" fill="#000000" fill-rule="nonzero"></path>
                    <path d="M47.5999957,34.0747241 L47.5999957,33.0379119 C49.5942246,32.9211538 50.7197729,31.7535725 50.7197729,30.2824201 C50.7197729,28.4890152 49.0197746,27.9098948 48.0296656,27.6483566 L47.5999957,27.5315985 L47.5999957,24.2203379 C48.6181266,24.3044038 49.3653786,24.8414912 49.4681258,25.7055013 L50.5890038,25.7055013 C50.5376302,24.3277554 49.3233457,23.2816026 47.5999957,23.1881961 L47.5999957,22.1186916 L47.0021941,22.1186916 L47.0021941,23.1975367 C45.3442286,23.3236355 44.0879111,24.3557774 44.0879111,25.8549518 C44.0879111,27.1439615 45.0219762,27.9098948 46.5164802,28.3395648 L47.0021941,28.4796745 L47.0021941,31.9917591 C45.9747225,31.9217042 45.106042,31.4126388 45.0219762,30.4131892 L43.8263729,30.4131892 C43.9337904,31.9170339 45.1013717,32.9538461 47.0021941,33.0425823 L47.0021941,34.0747241 L47.5999957,34.0747241 Z M47.0021941,27.3728074 C46.2923046,27.1813241 45.2087892,26.7983574 45.2087892,25.7989079 C45.2087892,24.9629196 45.909338,24.3277554 47.0021941,24.2250083 L47.0021941,27.3728074 Z M47.5999957,31.9870888 L47.5999957,28.6478062 L47.6934022,28.6758282 C48.7021924,28.9560477 49.5988949,29.3109924 49.5988949,30.2637388 C49.5988949,31.2211554 48.7582363,31.8796713 47.5999957,31.9870888 Z M55.5769192,33.00989 C57.6879062,33.00989 58.9021907,31.2211554 58.9021907,28.0967079 C58.9021907,24.9956119 57.6692249,23.1835257 55.5769192,23.1835257 C53.4846135,23.1835257 52.2516476,24.9956119 52.2516476,28.0967079 C52.2516476,31.2211554 53.4659322,33.00989 55.5769192,33.00989 Z M55.5769192,31.9824184 C54.1851622,31.9824184 53.3725257,30.5859912 53.3725257,28.0967079 C53.3725257,25.6120948 54.1945029,24.192316 55.5769192,24.192316 C56.9593354,24.192316 57.7813127,25.6120948 57.7813127,28.0967079 C57.7813127,30.5859912 56.9686761,31.9824184 55.5769192,31.9824184 Z M61.4988994,32.9538461 C61.9659319,32.9538461 62.3395579,32.5802201 62.3395579,32.1131875 C62.3395579,31.6648363 61.9659319,31.2912103 61.4988994,31.2912103 C61.0505481,31.2912103 60.6582408,31.646155 60.6582408,32.1131875 C60.6582408,32.5802201 61.0318668,32.9538461 61.4988994,32.9538461 Z M67.3087874,32.8791209 L67.3087874,23.3142948 L66.3373598,23.3142948 C66.2766455,23.4123717 65.5901077,24.7340737 64.1142849,24.7340737 L64.1142849,25.7055013 C65.2118114,25.7055013 65.996426,25.2571501 66.1318654,24.9956119 L66.2065906,24.9956119 L66.2065906,32.8791209 L67.3087874,32.8791209 Z M72.9505457,33.00989 C75.0988953,33.00989 76.4252677,31.1043973 76.4252677,27.7044005 C76.4252677,24.1736347 74.6692254,23.1835257 73.0999962,23.1648444 C71.1571409,23.1461631 69.9054937,24.6033046 69.9054937,26.3780282 C69.9054937,28.227477 71.2692287,29.5538493 72.9131831,29.5538493 C73.9032921,29.5538493 74.7439506,29.0681355 75.2670271,28.2835209 L75.3417523,28.2835209 C75.3417523,30.6373648 74.4263685,31.9824184 72.9505457,31.9824184 C71.9417555,31.9824184 71.3252726,31.3472542 71.1197783,30.4692331 L69.9802189,30.4692331 C70.2043945,31.9824184 71.3439539,33.00989 72.9505457,33.00989 Z M73.0626336,28.5263778 C71.8857116,28.5263778 71.0263718,27.5736314 71.0263718,26.3780282 C71.0263718,25.1637436 71.9230742,24.192316 73.0999962,24.192316 C74.2955994,24.192316 75.1736205,25.2197875 75.1736205,26.3593469 C75.1736205,27.4989062 74.2395555,28.5263778 73.0626336,28.5263778 Z" id="$0.19" fill="#000000" fill-rule="nonzero"></path>
                </g>
                <g id="Group-49" transform="translate(161.929670, 175.081319)" fill="#FFFFFF" fill-rule="nonzero">
                    <g id="Group-48" transform="translate(85.348718, 0.000000)">
                        <g id="Group-17" transform="translate(15.617582, 11.014505)">
                            <g id="Group-45" transform="translate(0.410653, 0.410989)">
                                <path d="M7.29103172,6.86259352e-14 C7.9319248,6.86259352e-14 8.45860932,0.48898493 8.51835458,1.11422408 L8.52399876,1.23296703 L8.52399876,22.4350183 C8.52399876,23.1159672 7.97198061,23.6679853 7.29103172,23.6679853 C6.65013865,23.6679853 6.12345413,23.1790004 6.06370887,22.5537613 L6.05806469,22.4350183 L6.05806469,1.23296703 C6.05806469,0.552018144 6.61008283,6.86259352e-14 7.29103172,6.86259352e-14 Z" id="Path"></path>
                                <path d="M6.30004838,2.26013548 C8.61013817,2.09447361 11.4310537,2.65223788 12.9964049,3.51313276 C13.5930709,3.84128067 13.8107478,4.59099049 13.4825999,5.18765651 C13.154452,5.78432253 12.4047422,6.00199947 11.8080762,5.67385156 C10.6756118,5.05103106 8.32845459,4.58694045 6.47643324,4.71975317 C4.44658401,4.86531834 3.44837912,5.56915894 3.44837912,6.88482813 C3.44837912,8.38730404 4.30546218,9.09932674 7.01681016,10.0458756 L8.38521639,10.5072656 C9.82099971,10.9979851 10.5648688,11.3225885 11.321489,11.8419516 C12.5713273,12.699872 13.2672005,13.8714306 13.2672005,15.3944229 C13.2672005,18.3327995 11.4139225,20.0846892 8.47350062,20.5256294 C6.24521535,20.8597789 3.40779598,20.435772 0.814371206,19.4988501 C0.173934219,19.2674806 -0.157680481,18.5607417 0.0736890425,17.9203048 C0.305058566,17.2798678 1.01179738,16.9482531 1.65223437,17.1796226 C3.89045167,17.9882193 6.33263122,18.353164 8.10780268,18.0869626 C9.93236006,17.8133553 10.8012664,16.9919847 10.8012664,15.3944229 C10.8012664,14.2678903 10.0744226,13.7026998 7.56264768,12.8333308 L6.73491085,12.5549382 C2.68094545,11.2035643 0.982445058,9.95794931 0.982445058,6.88482813 C0.982445058,4.00530061 3.13565058,2.48706174 6.30004838,2.26013548 Z" id="Path"></path>
                            </g>
                        </g>
                        <path d="M23.0153846,0 C10.3043387,0 0,10.3043387 0,23.0153846 C0,35.7264305 10.3043387,46.0307692 23.0153846,46.0307692 C35.7264305,46.0307692 46.0307692,35.7264305 46.0307692,23.0153846 C46.0165,10.3102539 35.7205154,0.0142692063 23.0153846,0 Z M23.0153846,40.2769231 C13.4821002,40.2769231 5.75384615,32.5486691 5.75384615,23.0153846 C5.75384615,13.4821002 13.4821002,5.75384615 23.0153846,5.75384615 C32.5486691,5.75384615 40.2769231,13.4821002 40.2769231,23.0153846 C40.2658257,32.5440686 32.5440686,40.2658257 23.0153846,40.2769231 Z" id="Shape-Copy"></path>
                    </g>
                    <path d="M73.9454684,20.3378522 L73.9454684,17.2615385 L57.5384615,17.2615385 L57.5384615,20.3378522 L73.9454684,20.3378522 Z M73.9454684,28.7692308 L73.9454684,25.692917 L57.5384615,25.692917 L57.5384615,28.7692308 L73.9454684,28.7692308 Z" id="="></path>
                    <path d="M23.0153846,0 C10.3043387,0 0,10.3043387 0,23.0153846 C0,35.7264305 10.3043387,46.0307692 23.0153846,46.0307692 C35.7264305,46.0307692 46.0307692,35.7264305 46.0307692,23.0153846 C46.0165,10.3102539 35.7205154,0.0142692063 23.0153846,0 Z M23.0153846,40.2769231 C13.4821002,40.2769231 5.75384615,32.5486691 5.75384615,23.0153846 C5.75384615,13.4821002 13.4821002,5.75384615 23.0153846,5.75384615 C32.5486691,5.75384615 40.2769231,13.4821002 40.2769231,23.0153846 C40.2658257,32.5440686 32.5440686,40.2658257 23.0153846,40.2769231 Z M33.0846154,23.0153846 L23.0153846,23.0153846 L23.0153846,12.9461538 C23.0153846,12.1517135 22.3713634,11.5076923 21.5769231,11.5076923 C20.7824827,11.5076923 20.1384615,12.1517135 20.1384615,12.9461538 L20.1384615,24.4538462 C20.1384615,25.2482865 20.7824827,25.8923077 21.5769231,25.8923077 L33.0846154,25.8923077 C33.8790558,25.8923077 34.5230769,25.2482865 34.5230769,24.4538462 C34.5230769,23.6594058 33.8790558,23.0153846 33.0846154,23.0153846 Z" id="Shape"></path>
                </g>
            </g>
        </g>
    </g>
</svg>