<?xml version="1.0" encoding="UTF-8"?>
<svg width="39px" height="40px" viewBox="0 0 39 40" version="1.1" xmlns="http://www.w3.org/2000/svg" xmlns:xlink="http://www.w3.org/1999/xlink">
    <!-- Generator: Sketch 64 (93537) - https://sketch.com -->
    <title>fbwAsset 1</title>
    <desc>Created with Sketch.</desc>
    <defs>
        <linearGradient x1="78.9884636%" y1="61.1414096%" x2="52.3517916%" y2="48.7258618%" id="linearGradient-1">
            <stop stop-color="#054096" stop-opacity="0.5" offset="0%"></stop>
            <stop stop-color="#0F3D9C" stop-opacity="0.44" offset="5%"></stop>
            <stop stop-color="#2F35B1" stop-opacity="0.25" offset="26%"></stop>
            <stop stop-color="#462FBF" stop-opacity="0.11" offset="47%"></stop>
            <stop stop-color="#542BC8" stop-opacity="0.03" offset="67%"></stop>
            <stop stop-color="#592ACB" stop-opacity="0" offset="86%"></stop>
        </linearGradient>
        <linearGradient x1="0%" y1="49.9988965%" x2="99.9999864%" y2="49.9988965%" id="linearGradient-2">
            <stop stop-color="#0090ED" offset="0%"></stop>
            <stop stop-color="#3FE1B0" offset="100%"></stop>
        </linearGradient>
        <linearGradient x1="10.9712771%" y1="41.2805909%" x2="102.405538%" y2="60.922082%" id="linearGradient-3">
            <stop stop-color="#54FFBD" offset="0%"></stop>
            <stop stop-color="#00DDFF" offset="100%"></stop>
        </linearGradient>
    </defs>
    <g id="Page-1" stroke="none" stroke-width="1" fill="none" fill-rule="evenodd">
        <g id="Mobile" transform="translate(-25.000000, -20.000000)" fill-rule="nonzero">
            <g id="fbwAsset-1" transform="translate(25.000000, 20.000000)">
                <path d="M34.54,25.65 L18.265,25.65 C17.7930708,25.65 17.4081837,26.0281417 17.3999549,26.5 L17.3999549,29.105 C17.3933503,30.9494709 18.1217503,32.7206049 19.4241187,34.0267265 C20.7264871,35.3328481 22.4955176,36.0663418 24.34,36.0650024 L33.34,36.0650024 C34.7217781,36.0663267 36.0474891,35.5186896 37.0254915,34.5425626 C38.0034938,33.5664356 38.5536746,32.2417781 38.555,30.86 L38.555,28.58 C38.555,27.28 37.25,25.65 34.54,25.65 Z" id="Path" fill="#008787"></path>
                <g id="Group" opacity="0.9" transform="translate(17.000000, 25.500000)" fill="url(#linearGradient-1)">
                    <path d="M17.54,0.15 L1.265,0.15 C0.793070772,0.15 0.408183739,0.528141729 0.399954868,1 L0.399954868,3.605 C0.393350331,5.4494709 1.12175029,7.22060487 2.42411868,8.52672649 C3.72648708,9.8328481 5.4955176,10.5663418 7.34,10.5650024 L16.34,10.5650024 C17.7217781,10.5663267 19.0474891,10.0186896 20.0254915,9.04256257 C21.0034938,8.06643558 21.5536746,6.74177811 21.555,5.36 L21.555,3.08 C21.555,1.78 20.25,0.15 17.54,0.15 Z" id="Path"></path>
                </g>
                <path d="M33.4,8.39 L19.19,0.425 C18.1732727,-0.140215688 16.9367273,-0.140215688 15.92,0.425 L1.71,8.39 C0.654943361,8.98355064 0.00145760074,10.0994444 0,11.31 L0,27.24 C0,28.4496283 0.654199826,29.5646724 1.71,30.155 L15.92,38.12 C16.9346908,38.6930167 18.1753092,38.6930167 19.19,38.12 L33.4,30.155 C34.4573457,29.5662517 35.112041,28.4502067 35.1100048,27.24 L35.1100048,11.31 C35.1106573,10.0988704 34.456592,8.98198703 33.4,8.39 L33.4,8.39 Z" id="Path" fill="url(#linearGradient-2)"></path>
                <path d="M6.245,20.255 L6.245,18.29 C6.245,17.5692684 6.8292684,16.985 7.55,16.985 C8.2707316,16.985 8.855,17.5692684 8.855,18.29 L8.855,20.255 C8.855,20.9757316 8.2707316,21.56 7.55,21.56 C6.8292684,21.56 6.245,20.9757316 6.245,20.255 L6.245,20.255 Z M12.935,29.755 C13.3412307,30.0147067 13.8575596,30.0292654 14.2777789,29.7928616 C14.6979982,29.5564579 14.9536304,29.1076153 14.9425829,28.6255895 C14.9315354,28.1435636 14.6556086,27.7069038 14.225,27.49 L12.5,26.5 C12.0937693,26.2402933 11.5774404,26.2257346 11.1572211,26.4621384 C10.7370018,26.6985421 10.4813696,27.1473847 10.4924171,27.6294105 C10.5034646,28.1114364 10.7793914,28.5480962 11.21,28.765 L12.935,29.755 Z M22.19,29.925 C22.4159791,29.9242632 22.6380146,29.8657422 22.835,29.755 L24.56,28.755 C25.1086208,28.3667032 25.2725844,27.6252157 24.9388358,27.0418024 C24.6050871,26.4583891 23.8827998,26.2238921 23.27,26.5 L21.54,27.5 C21.0290528,27.7951628 20.7797408,28.3964631 20.9319268,28.966575 C21.0841127,29.5366869 21.5999266,29.9337442 22.19,29.935 L22.19,29.925 Z M28.22,16.9999903 C27.8743531,16.9986706 27.542407,17.1350474 27.2975272,17.3789889 C27.0526475,17.6229304 26.9149974,17.9543505 26.915,18.3 L26.915,20.265 C26.884961,20.7495979 27.1264377,21.2108084 27.5418184,21.4621972 C27.9571992,21.713586 28.4778008,21.713586 28.8931816,21.4621972 C29.3085623,21.2108084 29.550039,20.7495979 29.52,20.265 L29.52,18.29 C29.5186765,17.9465439 29.3809684,17.6176808 29.1371706,17.3757583 C28.8933727,17.1338359 28.5634561,16.9986714 28.22,16.9999903 Z M28.865,12.26 L28.015,11.76 C27.38521,11.408097 26.5894324,11.63163 26.235,12.26 C26.082732,12.5264646 26.0312728,12.8387691 26.09,13.14 L19.19,17.045 L19.19,9.2 C19.6638206,9.02253436 19.9923595,8.58717778 20.0330482,8.08285208 C20.0737369,7.57852639 19.8192416,7.09613096 19.38,6.845 L18.53,6.345 C18.1295381,6.11959918 17.6404619,6.11959918 17.24,6.345 L16.39,6.845 C15.76163,7.19943242 15.538097,7.99520998 15.89,8.625 C16.0444222,8.88750376 16.2845612,9.08879675 16.57,9.195 L16.57,17.04 L9.675,13.135 C9.73372725,12.8337691 9.68226799,12.5214646 9.53,12.255 C9.36168804,11.9525184 9.07968972,11.7296544 8.74650049,11.6357983 C8.41331126,11.5419421 8.05644891,11.5848454 7.755,11.755 L6.905,12.255 C6.4968428,12.4870587 6.24499281,12.9204859 6.24499281,13.39 L6.24499281,14.39 C6.2551987,14.8844012 6.54396853,15.3305673 6.99082951,15.5423497 C7.4376905,15.7541322 7.96586921,15.6951455 8.355,15.39 L15.235,19.28 L8.355,23.165 C7.96688666,22.8557579 7.43657619,22.7944486 6.98814087,23.0069772 C6.53970555,23.2195058 6.25138368,23.6687925 6.24499281,24.165 L6.24499281,25.165 C6.24343943,25.6335809 6.49609594,26.0661595 6.905,26.295 L7.755,26.795 C8.05583554,26.9679284 8.41365283,27.0123683 8.74765054,26.9182844 C9.08164826,26.8242006 9.36365905,26.5995274 9.53,26.295 C9.68226799,26.0285354 9.73372725,25.7162309 9.675,25.415 L16.58,21.5 L16.58,29.355 C16.2926227,29.457847 16.0514561,29.6600014 15.9,29.925 C15.7298454,30.2264489 15.6869421,30.5833113 15.7807983,30.9165005 C15.8746544,31.2496897 16.0975184,31.531688 16.4,31.7 L17.25,32.2 C17.4458941,32.3139807 17.6683601,32.3743397 17.895,32.375 C18.1215454,32.3736419 18.3438348,32.3133308 18.54,32.2 L19.39,31.7 C19.6934988,31.5326657 19.9172605,31.2506615 20.0112295,30.9170717 C20.1051984,30.5834819 20.0615326,30.2261459 19.89,29.925 C19.7418833,29.6591708 19.5018815,29.4565026 19.215,29.355 L19.215,21.5 L26.115,25.405 C26.025405,25.8941808 26.2238608,26.3914563 26.6256445,26.6845346 C27.0274283,26.9776129 27.5615547,27.0147144 28,26.78 L28.85,26.28 C29.2496317,26.0504696 29.4971684,25.6258488 29.5,25.165 L29.5,24.165 C29.4960248,23.6688383 29.2089026,23.2185677 28.7607268,23.0056576 C28.312551,22.7927474 27.7821239,22.8546336 27.395,23.165 L20.535,19.275 L27.415,15.385 C27.8031618,15.6912128 28.3314204,15.7507405 28.7779947,15.5385912 C29.2245689,15.326442 29.5121494,14.8793422 29.5200001,14.385 L29.5200001,13.385 C29.5200001,12.9168011 29.2704722,12.4840995 28.865,12.25 L28.865,12.26 Z M21.54,11.08 L23.27,12.08 C23.8905439,12.3925769 24.6471877,12.1641193 24.9910549,11.5603525 C25.3349221,10.9565856 25.1454133,10.1892596 24.56,9.815 L22.835,8.815 C22.4294746,8.56855797 21.922134,8.56167007 21.5100677,8.79701209 C21.0980014,9.03235411 20.8461621,9.47282987 20.8523832,9.94732518 C20.8586043,10.4218205 21.1219053,10.8555422 21.54,11.08 Z M11.855,12.235 C12.0810669,12.2349365 12.30327,12.1763713 12.5,12.065 L14.225,11.065 C14.6556086,10.8480962 14.9315354,10.4114364 14.9425829,9.92941053 C14.9536304,9.44738466 14.6979982,8.99854212 14.2777789,8.76213838 C13.8575596,8.52573464 13.3412307,8.54029329 12.935,8.8 L11.205,9.8 C10.6940528,10.0951628 10.4447408,10.6964631 10.5969268,11.266575 C10.7491127,11.8366869 11.2649266,12.2337442 11.855,12.235 L11.855,12.235 Z" id="Shape" fill="#20123A"></path>
                <path d="M37.685,29.45 L22.725,29.45 C19.1848548,29.45 16.3149855,32.3198548 16.3149855,35.86 L16.3149855,39 C16.3136689,39.2302774 16.4042146,39.4515802 16.5665781,39.6148822 C16.7289415,39.7781841 16.9497188,39.870002 17.18,39.870002 L32.14,39.870002 C33.8426379,39.8713302 35.4758495,39.1952065 36.6793276,37.9907904 C37.8828057,36.7863743 38.5576567,35.1526364 38.5550078,33.45 L38.5550078,28.58 C38.5550078,29.0604877 38.1654877,29.45 37.685,29.45 L37.685,29.45 Z" id="Path" fill="url(#linearGradient-3)"></path>
                <path d="M23,34.595 C23.3195855,34.4247467 23.5137824,34.086844 23.5,33.725 C23.5,32.95 22.965,32.5 22,32.5 L20.23,32.5 L20.23,36.81 L22,36.81 C22.96,36.81 23.55,36.385 23.55,35.535 C23.5683332,35.1405592 23.3528414,34.7722642 23,34.595 Z M21.05,33.26 L22.05,33.26 C22.485,33.26 22.69,33.44 22.69,33.76 C22.69,34.08 22.5,34.26 22.06,34.26 L21.06,34.26 L21.05,33.26 Z M22.05,36.08 L21.05,36.08 L21.05,35 L22,35 C22.5,35 22.725,35.195 22.725,35.53 C22.725,35.865 22.5,36.08 22.035,36.08 L22.05,36.08 Z" id="Shape" fill="#20123A"></path>
                <polygon id="Path" fill="#20123A" points="24.365 36.83 27.26 36.83 27.26 36.04 25.195 36.04 25.195 35.055 27.26 35.055 27.26 34.275 25.195 34.275 25.195 33.305 27.26 33.305 27.26 32.52 24.365 32.52"></polygon>
                <polygon id="Path" fill="#20123A" points="31.18 32.52 27.975 32.52 27.975 33.29 29.175 33.29 29.175 36.83 29.995 36.83 29.995 33.29 31.18 33.29"></polygon>
                <path d="M33.41,32.5 L32.59,32.5 L30.96,36.81 L31.815,36.81 L32.1,36.025 L33.9,36.025 L34.185,36.81 L35.04,36.81 L33.41,32.5 Z M32.38,35.27 L33,33.575 L33.62,35.29 L32.38,35.27 Z" id="Shape" fill="#20123A"></path>
            </g>
        </g>
    </g>
</svg>