<?xml version="1.0" encoding="UTF-8"?>
<svg width="394px" height="64px" viewBox="0 0 394 64" version="1.1" xmlns="http://www.w3.org/2000/svg" xmlns:xlink="http://www.w3.org/1999/xlink">
    <!-- Generator: Sketch 64 (93537) - https://sketch.com -->
    <title>fbwAsset 1</title>
    <desc>Created with Sketch.</desc>
    <defs>
        <linearGradient x1="78.9884636%" y1="61.1414096%" x2="52.3517916%" y2="48.7258618%" id="linearGradient-1">
            <stop stop-color="#054096" stop-opacity="0.5" offset="0%"></stop>
            <stop stop-color="#0F3D9C" stop-opacity="0.44" offset="5%"></stop>
            <stop stop-color="#2F35B1" stop-opacity="0.25" offset="26%"></stop>
            <stop stop-color="#462FBF" stop-opacity="0.11" offset="47%"></stop>
            <stop stop-color="#542BC8" stop-opacity="0.03" offset="67%"></stop>
            <stop stop-color="#592ACB" stop-opacity="0" offset="86%"></stop>
        </linearGradient>
        <linearGradient x1="0%" y1="49.9988965%" x2="99.9999864%" y2="49.9988965%" id="linearGradient-2">
            <stop stop-color="#0090ED" offset="0%"></stop>
            <stop stop-color="#3FE1B0" offset="100%"></stop>
        </linearGradient>
        <linearGradient x1="10.9712771%" y1="41.2805909%" x2="102.405538%" y2="60.922082%" id="linearGradient-3">
            <stop stop-color="#54FFBD" offset="0%"></stop>
            <stop stop-color="#00DDFF" offset="100%"></stop>
        </linearGradient>
    </defs>
    <g id="Page-1" stroke="none" stroke-width="1" fill="none" fill-rule="evenodd">
        <g id="Desktop" transform="translate(-32.000000, -24.000000)" fill-rule="nonzero">
            <g id="fbwAsset-1" transform="translate(32.000000, 24.000000)">
                <path d="M75.2,18.992 L92.336,18.992 L92.336,23.624 L80.136,23.624 L80.136,29.904 L92.36,29.904 L92.36,34.496 L80.136,34.496 L80.136,44.608 L75.2,44.608 L75.2,18.992 Z M98.16,17.2 C98.9284236,17.1747411 99.6725567,17.4711489 100.213162,18.0178286 C100.753768,18.5645082 101.041843,19.3119066 101.008,20.08 C101.019432,21.1032086 100.484121,22.0547916 99.6037128,22.5762968 C98.7233044,23.0978019 97.6315537,23.1100002 96.7397128,22.6082968 C95.8478719,22.1065933 95.2914325,21.1672086 95.28,20.144 C95.2511216,19.3616926 95.5464427,18.6021587 96.0961952,18.0448338 C96.6459477,17.487509 97.4013708,17.1818257 98.184,17.2 L98.16,17.2 Z M95.76,25.656 L100.608,25.656 L100.608,44.608 L95.76,44.608 L95.76,25.656 Z M114.656,30.92 C113.978379,30.4074381 113.153613,30.1269052 112.304,30.12 C110.336,30.12 109.208,31.384 109.208,34.12 L109.208,44.608 L104.408,44.608 L104.408,25.656 L109.008,25.656 L109.008,28.392 C109.713769,26.5320468 111.550858,25.3505976 113.536,25.48 C114.676711,25.4829757 115.790704,25.8255287 116.736,26.464 L114.656,30.92 Z M116.656,35.24 C116.582248,32.6133135 117.577764,30.0691751 119.41461,28.1901021 C121.251457,26.311029 123.772316,25.2579563 126.4,25.2718613 C132.088,25.2718613 136.128,29.272 136.128,34.92 L136.128,36.92 L121.392,36.92 C121.92,39.32 123.792,40.92 126.624,40.92 C128.606124,40.984129 130.443809,39.8871438 131.328,38.112 L135.368,40.512 C133.368,43.464 130.528,45.008 126.488,45.008 C120.344,44.992 116.656,40.888 116.656,35.24 Z M121.456,33.096 L131.44,33.096 C130.912,30.696 128.944,29.344 126.384,29.344 C124.058386,29.259111 121.997431,30.8307984 121.464,33.096 L121.456,33.096 Z M137.328,25.656 L140.736,25.656 L140.736,24.712 C140.736,19.552 142.912,17.408 147.688,17.408 L149.376,17.408 L149.376,21.6 L148,21.6 C145.752,21.6 145.264,22.4 145.264,24.728 L145.264,25.672 L149.376,25.672 L149.376,30.024 L145.376,30.024 L145.376,44.608 L140.744,44.608 L140.744,30.008 L137.336,30.008 L137.328,25.656 Z M150.288,35.128 C150.246222,32.4944666 151.276733,29.9570784 153.142925,28.0984302 C155.009116,26.239782 157.550657,25.2195559 160.184,25.272 C163.773607,25.169742 167.135181,27.0263618 168.960154,30.1191282 C170.785128,33.2118945 170.785128,37.0521055 168.960154,40.1448718 C167.135181,43.2376382 163.773607,45.094258 160.184,44.992 C157.541927,45.0723324 154.983635,44.0597211 153.112274,42.1929026 C151.240914,40.3260841 150.222088,37.7702601 150.296,35.128 L150.288,35.128 Z M165.384,35.128 C165.384,32.2561193 163.055881,29.928 160.184,29.928 C157.312119,29.928 154.984,32.2561193 154.984,35.128 C154.984,37.9998807 157.312119,40.328 160.184,40.328 C163.055881,40.328 165.384,37.9998807 165.384,35.128 L165.384,35.128 Z M176.584,34.92 L169.744,25.656 L175.432,25.656 L179.432,31.48 L183.576,25.656 L189.176,25.656 L182.224,34.888 L189.6,44.608 L183.944,44.608 L179.4,38.4 L175.016,44.576 L169.36,44.576 L176.584,34.92 Z" id="Shape" fill="#FFFFFF"></path>
                <path d="M200.8,19.2 L211.872,19.2 C216.672,19.2 219.872,21.856 219.872,25.992 C219.938966,28.3581364 218.584376,30.5349301 216.432,31.52 C218.931314,32.442622 220.548164,34.8743635 220.432,37.536 C220.432,42.016 217.136,44.736 212.24,44.736 L200.8,44.736 L200.8,19.2 Z M203.744,21.856 L203.744,30.24 L212.08,30.24 C215.28,30.24 216.944,28.424 216.944,25.976 C216.944,23.528 214.992,21.84 211.832,21.84 L203.744,21.856 Z M203.744,32.952 L203.744,42.04 L212.192,42.04 C215.392,42.04 217.44,40.144 217.44,37.488 C217.44,34.832 215.592,32.936 212.048,32.936 L203.744,32.952 Z" id="Shape" fill="#FFFFFF"></path>
                <path d="M223.288,35.352 C223.245726,32.6957961 224.288903,30.1373066 226.176399,28.2679308 C228.063894,26.398555 230.632327,25.380106 233.288,25.448 C238.888,25.448 243.048,29.448 243.048,35.048 L243.048,36.344 L226.128,36.344 C226.552,39.952 229.328,42.504 233.4,42.504 C236.059138,42.6362629 238.554402,41.2170819 239.8,38.864 L242.28,40.296 C240.422114,43.4092707 237.006116,45.2524353 233.384,45.096 C227.256,45.12 223.288,40.88 223.288,35.352 Z M226.192,33.848 L240.064,33.848 C239.608,30.28 237.016,28 233.288,28 C229.808762,27.9458369 226.803559,30.4225033 226.192,33.848 L226.192,33.848 Z" id="Shape" fill="#FFFFFF"></path>
                <path d="M244.288,25.832 L248,25.832 L248,21.672 L250.872,19.848 L250.872,25.832 L256.472,25.832 L256.472,28.384 L250.872,28.384 L250.872,38.96 C250.872,41.36 252.008,42.32 253.64,42.32 C254.464726,42.317114 255.255119,41.9894603 255.84,41.408 L257.36,43.68 C256.240372,44.5632633 254.849877,45.0324138 253.424,45.008 C249.912,45.008 248,43.192 248,39.024 L248,28.384 L244.272,28.384 L244.288,25.832 Z" id="Path" fill="#FFFFFF"></path>
                <path d="M258.4,25.832 L262.12,25.832 L262.12,21.672 L264.992,19.848 L264.992,25.832 L270.592,25.832 L270.592,28.384 L264.992,28.384 L264.992,38.96 C264.992,41.36 266.128,42.32 267.76,42.32 C268.585074,42.3188502 269.376102,41.9909334 269.96,41.408 L271.488,43.68 C270.367107,44.5609283 268.977468,45.0297903 267.552,45.008 C264.04,45.008 262.12,43.192 262.12,39.024 L262.12,28.384 L258.4,28.384 L258.4,25.832 Z" id="Path" fill="#FFFFFF"></path>
                <path d="M272,35.352 C271.959929,32.6950521 273.00492,30.1366274 274.893667,28.2675072 C276.782415,26.3983869 279.351616,25.3801776 282.008,25.448 C287.608,25.448 291.76,29.448 291.76,35.048 L291.76,36.344 L274.8,36.344 C275.224,39.952 278,42.504 282.072,42.504 C284.731138,42.6362629 287.226402,41.2170819 288.472,38.864 L290.96,40.296 C289.098216,43.4092421 285.680116,45.2518838 282.056,45.096 C275.936,45.12 272,40.88 272,35.352 Z M274.912,33.848 L288.776,33.848 C288.32,30.28 285.728,28 282.008,28 C278.51257,27.9225573 275.482795,30.405478 274.872,33.848 L274.912,33.848 Z" id="Shape" fill="#FFFFFF"></path>
                <path d="M295.2,25.832 L298,25.832 L298,29.4 C298.679957,26.9850208 300.961128,25.3785151 303.464,25.552 C304.57404,25.5008987 305.677898,25.7437475 306.664,26.256 L305.456,28.984 C304.752738,28.5599208 303.94058,28.3513185 303.12,28.384 C299.92,28.384 298.08,30.208 298.08,34.376 L298.08,44.728 L295.2,44.728 L295.2,25.832 Z" id="Path" fill="#FFFFFF"></path>
                <polygon id="Path" fill="#FFFFFF" points="316.056 19.2 319.144 19.2 324.856 40.376 332.128 19.2 334.784 19.2 341.672 40.44 347.912 19.2 350.928 19.2 343.2 44.728 340.296 44.728 333.4 23.52 326.128 44.728 323.152 44.728"></polygon>
                <path d="M350.792,35.352 C350.749647,32.694371 351.793909,30.1346039 353.683166,28.2649798 C355.572423,26.3953556 358.142958,25.3778882 360.8,25.448 C366.4,25.448 370.56,29.448 370.56,35.048 L370.56,36.344 L353.6,36.344 C354.032,39.952 356.8,42.504 360.872,42.504 C363.531138,42.6362629 366.026402,41.2170819 367.272,38.864 L369.752,40.296 C367.892732,43.411871 364.472929,45.2554303 360.848,45.096 C354.76,45.12 350.792,40.88 350.792,35.352 Z M353.696,33.848 L367.568,33.848 C367.104,30.28 364.52,28 360.8,28 C357.317756,27.941874 354.308035,30.4194709 353.696,33.848 L353.696,33.848 Z" id="Shape" fill="#FFFFFF"></path>
                <path d="M376.896,41.376 L376.896,44.728 L374.064,44.728 L374.064,17.12 L376.936,17.12 L376.936,29.16 C378.582638,26.8174842 381.272699,25.4306085 384.136,25.448 C386.74354,25.4146363 389.252454,26.4434927 391.085821,28.297985 C392.919188,30.1524773 393.919234,32.6730136 393.856,35.28 C393.921711,37.8939898 392.918309,40.4216787 391.077678,42.2789186 C389.237048,44.1361585 386.718475,45.1622271 384.104,45.12 C381.228602,45.1467186 378.527641,43.7437778 376.896,41.376 L376.896,41.376 Z M390.88,35.248 C390.931929,33.3535443 390.21437,31.5188243 388.890967,30.162261 C387.567564,28.8056977 385.751161,28.0429616 383.856,28.0479752 C380.119795,28.3538249 377.243387,31.4752995 377.243387,35.224 C377.243387,38.9727005 380.119795,42.0941751 383.856,42.4 C385.748115,42.4226533 387.567526,41.6721627 388.893414,40.3221133 C390.219301,38.9720639 390.936816,37.1393971 390.88,35.248 Z" id="Shape" fill="#FFFFFF"></path>
                <path d="M55.264,41.04 L29.224,41.04 C28.4689132,41.04 27.853094,41.6450268 27.8399278,42.4 L27.8399278,46.568 C27.8293605,49.5191534 28.9948005,52.3529678 31.0785899,54.4427624 C33.1623793,56.532557 35.9928282,57.7061469 38.944,57.7040038 L53.344,57.7040038 C55.554845,57.7061228 57.6759826,56.8299033 59.2407864,55.2681001 C60.8055902,53.7062969 61.6858793,51.586845 61.688,49.376 L61.688,45.728 C61.688,43.648 59.6,41.04 55.264,41.04 Z" id="Path" fill="#008787"></path>
                <g id="Group" opacity="0.9" transform="translate(27.200000, 40.800000)" fill="url(#linearGradient-1)">
                    <path d="M28.064,0.24 L2.024,0.24 C1.26891324,0.24 0.653093982,0.845026767 0.639927788,1.6 L0.639927788,5.768 C0.629360529,8.71915344 1.79480046,11.5529678 3.87858989,13.6427624 C5.96237932,15.732557 8.79282816,16.9061469 11.744,16.9040038 L26.144,16.9040038 C28.354845,16.9061228 30.4759826,16.0299033 32.0407864,14.4681001 C33.6055902,12.9062969 34.4858793,10.786845 34.488,8.576 L34.488,4.928 C34.488,2.848 32.4,0.24 28.064,0.24 Z" id="Path"></path>
                </g>
                <path d="M53.44,13.424 L30.704,0.68 C29.0772362,-0.224345101 27.0987638,-0.224345101 25.472,0.68 L2.736,13.424 C1.04790938,14.373681 0.00233216119,16.1591111 0,18.096 L0,43.584 C0,45.5194053 1.04671972,47.3034759 2.736,48.248 L25.472,60.992 C27.0955053,61.9088267 29.0804947,61.9088267 30.704,60.992 L53.44,48.248 C55.1317531,47.3060026 56.1792656,45.5203308 56.1760076,43.584 L56.1760076,18.096 C56.1770517,16.1581926 55.1305473,14.3711792 53.44,13.424 L53.44,13.424 Z" id="Path" fill="url(#linearGradient-2)"></path>
                <path d="M9.992,32.408 L9.992,29.264 C9.992,28.1108294 10.9268294,27.176 12.08,27.176 C13.2331706,27.176 14.168,28.1108294 14.168,29.264 L14.168,32.408 C14.168,33.5611706 13.2331706,34.496 12.08,34.496 C10.9268294,34.496 9.992,33.5611706 9.992,32.408 L9.992,32.408 Z M20.696,47.608 C21.3459692,48.0235307 22.1720953,48.0468246 22.8444462,47.6685786 C23.5167971,47.2903326 23.9258086,46.5721845 23.9081326,45.8009431 C23.8904567,45.0297017 23.4489737,44.331046 22.76,43.984 L20,42.4 C19.3500308,41.9844693 18.5239047,41.9611754 17.8515538,42.3394214 C17.1792029,42.7176674 16.7701914,43.4358155 16.7878674,44.2070569 C16.8055433,44.9782983 17.2470263,45.676954 17.936,46.024 L20.696,47.608 Z M35.504,47.88 C35.8655665,47.8788212 36.2208234,47.7851876 36.536,47.608 L39.296,46.008 C40.1737933,45.3867251 40.436135,44.2003451 39.9021372,43.2668838 C39.3681394,42.3334225 38.2124797,41.9582273 37.232,42.4 L34.464,44 C33.6464844,44.4722604 33.2475854,45.4343409 33.4910828,46.34652 C33.7345803,47.258699 34.5598826,47.8939907 35.504,47.896 L35.504,47.88 Z M45.152,27.1999845 C44.5989649,27.1978729 44.0678512,27.4160758 43.6760436,27.8063822 C43.284236,28.1966887 43.0639959,28.7269608 43.064,29.28 L43.064,32.424 C43.0159375,33.1993567 43.4023003,33.9372935 44.0669095,34.3395155 C44.7315186,34.7417376 45.5644814,34.7417376 46.2290905,34.3395155 C46.8936997,33.9372935 47.2800625,33.1993567 47.232,32.424 L47.232,29.264 C47.2298824,28.7144702 47.0095495,28.1882893 46.6194729,27.8012134 C46.2293963,27.4141374 45.7015298,27.1978742 45.152,27.1999845 Z M46.184,19.616 L44.824,18.816 C43.816336,18.2529551 42.5430919,18.610608 41.976,19.616 C41.7323712,20.0423434 41.6500364,20.5420306 41.744,21.024 L30.704,27.272 L30.704,14.72 C31.4621129,14.436055 31.9877752,13.7394844 32.0528771,12.9325633 C32.117979,12.1256422 31.7107866,11.3538095 31.008,10.952 L29.648,10.152 C29.007261,9.79135869 28.224739,9.79135869 27.584,10.152 L26.224,10.952 C25.218608,11.5190919 24.8609551,12.792336 25.424,13.8 C25.6710755,14.220006 26.0552979,14.5420748 26.512,14.712 L26.512,27.264 L15.48,21.016 C15.5739636,20.5340306 15.4916288,20.0343434 15.248,19.608 C14.9787009,19.1240294 14.5275035,18.767447 13.9944008,18.6172772 C13.461298,18.4671074 12.8903183,18.5357527 12.408,18.808 L11.048,19.608 C10.3949485,19.9792939 9.9919885,20.6727774 9.9919885,21.424 L9.9919885,23.024 C10.0083179,23.8150419 10.4703496,24.5289076 11.1853272,24.8677596 C11.9003048,25.2066115 12.7453907,25.1122328 13.368,24.624 L24.376,30.848 L13.368,37.064 C12.7470186,36.5692127 11.8985219,36.4711178 11.1810254,36.8111636 C10.4635289,37.1512093 10.0022139,37.870068 9.9919885,38.664 L9.9919885,40.264 C9.98950309,41.0137295 10.3937535,41.7058552 11.048,42.072 L12.408,42.872 C12.8893369,43.1486854 13.4618445,43.2197893 13.9962409,43.0692551 C14.5306372,42.9187209 14.9818545,42.5592438 15.248,42.072 C15.4916288,41.6456566 15.5739636,41.1459694 15.48,40.664 L26.528,34.4 L26.528,46.968 C26.0681963,47.1325553 25.6823298,47.4560022 25.44,47.88 C25.1677527,48.3623183 25.0991074,48.933298 25.2492772,49.4664008 C25.399447,49.9995035 25.7560294,50.4507009 26.24,50.72 L27.6,51.52 C27.9134305,51.7023692 28.2693761,51.7989435 28.632,51.8 C28.9944726,51.797827 29.3501357,51.7013293 29.664,51.52 L31.024,50.72 C31.5095981,50.4522652 31.8676168,50.0010583 32.0179672,49.4673147 C32.1683175,48.933571 32.0984521,48.3618335 31.824,47.88 C31.5870132,47.4546732 31.2030103,47.1304041 30.744,46.968 L30.744,34.4 L41.784,40.648 C41.640648,41.4306893 41.9581772,42.22633 42.6010312,42.6952553 C43.2438853,43.1641807 44.0984876,43.223543 44.8,42.848 L46.16,42.048 C46.7994106,41.6807514 47.1954695,41.0013581 47.2,40.264 L47.2,38.664 C47.1936397,37.8701412 46.7342442,37.1497083 46.0171629,36.8090521 C45.3000816,36.4683959 44.4513983,36.5674137 43.832,37.064 L32.856,30.84 L43.864,24.616 C44.4850588,25.1059406 45.3302727,25.2011848 46.0447914,24.861746 C46.7593102,24.5223071 47.2194391,23.8069476 47.2320002,23.016 L47.2320002,21.416 C47.2320002,20.6668817 46.8327556,19.9745591 46.184,19.6 L46.184,19.616 Z M34.464,17.728 L37.232,19.328 C38.2248702,19.8281231 39.4355003,19.4625909 39.9856879,18.496564 C40.5358754,17.530537 40.2326613,16.3028154 39.296,15.704 L36.536,14.104 C35.8871594,13.7096928 35.0754144,13.6986721 34.4161083,14.0752193 C33.7568023,14.4517666 33.3538593,15.1565278 33.3638131,15.9157203 C33.3737669,16.6749128 33.7950484,17.3688676 34.464,17.728 Z M18.968,19.576 C19.329707,19.5758983 19.6852321,19.4821941 20,19.304 L22.76,17.704 C23.4489737,17.356954 23.8904567,16.6582983 23.9081326,15.8870569 C23.9258086,15.1158155 23.5167971,14.3976674 22.8444462,14.0194214 C22.1720953,13.6411754 21.3459692,13.6644693 20.696,14.08 L17.928,15.68 C17.1104844,16.1522604 16.7115854,17.1143409 16.9550828,18.02652 C17.1985803,18.938699 18.0238826,19.5739907 18.968,19.576 L18.968,19.576 Z" id="Shape" fill="#20123A"></path>
                <path d="M60.296,47.12 L36.36,47.12 C30.6957676,47.12 26.1039768,51.7117676 26.1039768,57.376 L26.1039768,62.4 C26.1018702,62.7684438 26.2467433,63.1225283 26.5065249,63.3838115 C26.7663064,63.6450946 27.1195501,63.7920031 27.488,63.7920031 L51.424,63.7920031 C54.1482207,63.7941283 56.7613592,62.7123304 58.6869242,60.7852646 C60.6124892,58.8581988 61.6922508,56.2442182 61.6880125,53.52 L61.6880125,45.728 C61.6880125,46.4967804 61.0647804,47.12 60.296,47.12 L60.296,47.12 Z" id="Path" fill="url(#linearGradient-3)"></path>
                <path d="M36.8,55.352 C37.3113367,55.0795947 37.6220518,54.5389505 37.6,53.96 C37.6,52.72 36.744,52 35.2,52 L32.368,52 L32.368,58.896 L35.2,58.896 C36.736,58.896 37.68,58.216 37.68,56.856 C37.7093331,56.2248947 37.3645463,55.6356227 36.8,55.352 Z M33.68,53.216 L35.28,53.216 C35.976,53.216 36.304,53.504 36.304,54.016 C36.304,54.528 36,54.816 35.296,54.816 L33.696,54.816 L33.68,53.216 Z M35.28,57.728 L33.68,57.728 L33.68,56 L35.2,56 C36,56 36.36,56.312 36.36,56.848 C36.36,57.384 36,57.728 35.256,57.728 L35.28,57.728 Z" id="Shape" fill="#20123A"></path>
                <polygon id="Path" fill="#20123A" points="38.984 58.928 43.616 58.928 43.616 57.664 40.312 57.664 40.312 56.088 43.616 56.088 43.616 54.84 40.312 54.84 40.312 53.288 43.616 53.288 43.616 52.032 38.984 52.032"></polygon>
                <polygon id="Path" fill="#20123A" points="49.888 52.032 44.76 52.032 44.76 53.264 46.68 53.264 46.68 58.928 47.992 58.928 47.992 53.264 49.888 53.264"></polygon>
                <path d="M53.456,52 L52.144,52 L49.536,58.896 L50.904,58.896 L51.36,57.64 L54.24,57.64 L54.696,58.896 L56.064,58.896 L53.456,52 Z M51.808,56.432 L52.8,53.72 L53.792,56.464 L51.808,56.432 Z" id="Shape" fill="#20123A"></path>
                <path d="M74.76,51.312 L77.16,51.312 L79.408,59.848 L81.96,51.312 L84.248,51.312 L86.784,59.864 L89.088,51.312 L91.488,51.312 L88,63.576 L85.68,63.576 L83.128,54.928 L80.56,63.576 L78.16,63.576 L74.76,51.312 Z M93.04,51.312 L95.44,51.312 L95.44,63.576 L93.04,63.576 L93.04,51.312 Z M100.488,53.496 L97.08,53.496 L97.08,51.312 L106.2,51.312 L106.2,53.496 L102.824,53.496 L102.824,63.576 L100.488,63.576 L100.488,53.496 Z M115.2,58.576 L110.248,58.576 L110.248,63.576 L107.848,63.576 L107.848,51.312 L110.248,51.312 L110.248,56.256 L115.2,56.256 L115.2,51.312 L117.6,51.312 L117.6,63.576 L115.2,63.576 L115.2,58.576 Z M122.712,61.224 L124.776,59.576 C125.451168,60.793657 126.743938,61.5385391 128.136,61.512 C129.464,61.512 130.152,60.872 130.152,59.984 C130.152,58.84 128.976,58.608 127.28,58.216 C125.448,57.832 123.4,57.248 123.4,54.76 C123.4,52.744 125.2,51.128 127.752,51.128 C129.599295,51.0433221 131.378301,51.8349799 132.552,53.264 L130.624,54.776 C130.016284,53.7817395 128.916136,53.1964237 127.752,53.248 C126.424,53.248 125.848,53.904 125.848,54.712 C125.848,55.704 127.08,55.888 128.608,56.24 C130.488,56.64 132.656,57.248 132.656,59.896 C132.656,62 130.888,63.744 128.152,63.744 C126.019207,63.8713898 123.963509,62.9260686 122.672,61.224 L122.712,61.224 Z M133.912,57.448 C133.876966,55.7697622 134.526556,54.1495603 135.711242,52.9603468 C136.895928,51.7711333 138.513641,51.1153677 140.192,51.144 C142.420967,51.1260957 144.491964,52.2925543 145.632,54.208 L143.552,55.512 C142.931731,54.2359584 141.626544,53.4366092 140.208,53.464 C138.223816,53.7320187 136.743447,55.4257964 136.743447,57.428 C136.743447,59.4302036 138.223816,61.1239813 140.208,61.392 C141.722312,61.4216641 143.101464,60.5244231 143.688,59.128 L145.848,60.288 C144.536836,62.8914983 141.608226,64.2524953 138.772781,63.5760282 C135.937336,62.8995612 133.938583,60.3630173 133.944,57.448 L133.912,57.448 Z M147.456,51.312 L152.432,51.312 C155.248,51.312 156.928,53.128 156.928,55.464 C156.961499,56.9836998 156.130724,58.3910571 154.784,59.096 L157.184,63.576 L154.528,63.576 L152.568,59.712 L149.808,59.712 L149.808,63.576 L147.408,63.576 L147.456,51.312 Z M149.856,53.496 L149.856,57.544 L152.256,57.544 C152.84204,57.6162254 153.430513,57.4299604 153.868261,57.0336833 C154.306009,56.6374061 154.549733,56.0703137 154.536,55.48 C154.536,54.272 153.736,53.496 152.256,53.496 L149.856,53.496 Z M158.399954,57.448 C158.408848,53.9796684 161.227655,51.1752005 164.695986,51.1840199 C168.164318,51.192881 170.968792,54.0116818 170.95998,57.4800135 C170.951126,60.9483452 168.132332,63.7528253 164.664,63.7440208 C162.997782,63.7418869 161.400885,63.0768578 160.225695,61.8956651 C159.050506,60.7144724 158.393623,59.1142068 158.399954,57.448 L158.399954,57.448 Z M168.576,57.448 C168.518963,55.3128519 166.753447,53.6217074 164.617821,53.6565574 C162.482196,53.6914075 160.772799,55.4392571 160.785388,57.5751294 C160.798117,59.7110018 162.528111,61.4384666 164.664,61.448 C165.710706,61.4375379 166.70975,61.008881 167.438564,60.2575269 C168.167377,59.5061728 168.565415,58.4945388 168.544,57.448 L168.576,57.448 Z M172.936,51.312 L175.336,51.312 L175.336,61.28 L180.992,61.28 L180.992,63.576 L172.904,63.576 L172.936,51.312 Z M182.576,51.312 L184.976,51.312 L184.976,61.28 L190.64,61.28 L190.64,63.576 L182.544,63.576 L182.576,51.312 Z" id="Shape" fill="#FFFFFF"></path>
            </g>
        </g>
    </g>
</svg>