<?xml version="1.0" encoding="UTF-8"?>
<svg width="24px" height="24px" viewBox="0 0 24 24" version="1.1" xmlns="http://www.w3.org/2000/svg" xmlns:xlink="http://www.w3.org/1999/xlink">
    <!-- Generator: Sketch 63.1 (92452) - https://sketch.com -->
    <title>Shape 2</title>
    <desc>Created with Sketch.</desc>
    <g id="Page-1" stroke="none" stroke-width="1" fill="none" fill-rule="evenodd">
        <g id="Desktop" transform="translate(-1335.000000, -32.000000)" fill="#FFFFFF" fill-rule="nonzero">
            <g id="Shape-2" transform="translate(1335.000000, 32.000000)">
                <path d="M12,0 C5.372583,0 0,5.372583 0,12 C0,18.627417 5.372583,24 12,24 C18.627417,24 24,18.627417 24,12 C23.9924423,5.37571601 18.624284,0.00755766167 12,0 L12,0 Z M12,22.2857143 C6.31935686,22.2857143 1.71428571,17.6806431 1.71428571,12 C1.71428571,6.31935686 6.31935686,1.71428571 12,1.71428571 C17.6806431,1.71428571 22.2857143,6.31935686 22.2857143,12 C22.2791016,17.6779018 17.6779018,22.2791016 12,22.2857143 Z M12,3.64285714 C10.6674144,3.55328389 9.36109128,4.04370655 8.41668463,4.9881132 C7.47227798,5.93251985 6.98185532,7.23884294 7.07142857,8.57142857 C7.07142857,9.3998557 7.74300145,10.0714286 8.57142857,10.0714286 C9.3998557,10.0714286 10.0714286,9.3998557 10.0714286,8.57142857 C10.0714286,6.85714286 11.1,6.64285714 12,6.64285714 C12.860933,6.57681287 13.6575819,7.10133216 13.9371429,7.91828571 C14.0951042,8.64215216 13.7126184,9.37537022 13.0285714,9.66 C11.5094383,10.4491962 10.5404481,12.0028653 10.5,13.7142857 L10.5,14.292 C10.5,15.1204271 11.1715729,15.792 12,15.792 C12.8284271,15.792 13.5,15.1204271 13.5,14.292 L13.5,13.6577143 C13.5761449,13.0363326 13.9723234,12.5002881 14.544,12.2451429 C16.399144,11.2762641 17.3466654,9.16065321 16.8342857,7.13142857 C16.2074786,5.00183713 14.2186106,3.56660794 12,3.64285714 Z M12,16.7142857 C10.8165327,16.7142857 9.85714286,17.6736755 9.85714286,18.8571429 C9.85714286,20.0406102 10.8165327,21 12,21 C13.1834673,21 14.1428571,20.0406102 14.1428571,18.8571429 C14.1428571,17.6736755 13.1834673,16.7142857 12,16.7142857 L12,16.7142857 Z" id="Shape"></path>
            </g>
        </g>
    </g>
</svg>