<?xml version="1.0" encoding="UTF-8"?>
<svg width="273px" height="264px" viewBox="0 0 273 264" version="1.1" xmlns="http://www.w3.org/2000/svg" xmlns:xlink="http://www.w3.org/1999/xlink">
    <!-- Generator: Sketch 63.1 (92452) - https://sketch.com -->
    <title>Group 6</title>
    <desc>Created with Sketch.</desc>
    <g id="Page-1" stroke="none" stroke-width="1" fill="none" fill-rule="evenodd">
        <g id="Mobile" transform="translate(-16.000000, -3027.000000)">
            <g id="Group-6" transform="translate(16.000000, 3027.000000)">
                <g id="Group-53-Copy" transform="translate(20.000000, 16.000000)">
                    <g id="Group-11">
                        <path d="M124,0 L124,62 C158.241856,62 186,89.758144 186,124 C186,158.241856 158.241856,186 124,186 C112.714512,186 102.13384,182.983328 93.018848,177.71432 L62.0372,231.429136 C80.268176,241.966656 101.429024,248 124,248 C192.483216,248 248,192.483216 248,124 C248,55.516784 192.483216,0 124,0" id="Fill-1" fill="#712290"></path>
                        <path d="M62,124 L0,124 C0,169.91224 24.954256,209.994 62.0372,231.429136 L93.018848,177.71432 C74.47688,166.997248 62,146.955872 62,124" id="Fill-3" fill="#962BB9"></path>
                        <path d="M17.515496,60.439584 C6.396664,79.027184 0.000248,100.765376 0.000248,124 L62.000248,124 C62.000248,112.382688 65.198456,101.51384 70.757624,92.219792 L17.515496,60.439584 Z" id="Fill-5" fill="#B933E1"></path>
                        <path d="M89.2623424,72.6392992 L54.5244864,21.2784992 C39.5095744,31.4534432 26.8491744,44.8365152 17.5154464,60.4396832 L70.7575744,92.2198912 C75.4244384,84.4183072 81.7548864,77.7267712 89.2623424,72.6392992" id="Fill-7" fill="#D64CF1"></path>
                        <path d="M89.75492,4.7928976 C77.0598,8.4330416 65.198456,14.0447856 54.524536,21.2784496 L89.262392,72.6392496 C94.599352,69.0224176 100.530024,66.2165456 106.877336,64.3962256 C112.315976,62.8368016 118.060152,62.0000496 123.999752,62.0000496 L123.999752,4.96e-05 C112.120056,4.96e-05 100.6322,1.6735536 89.75492,4.7928976" id="Fill-9" fill="#F564FF"></path>
                    </g>
                    <g id="Group-48" transform="translate(137.809969, 107.775701)" fill="#FFFFFF" fill-rule="nonzero">
                        <g id="Group-17" transform="translate(11.009346, 7.764486)">
                            <g id="Group-54" transform="translate(0.289483, 0.289720)">
                                <path d="M5.13968726,4.83766713e-14 C5.5914738,4.83766713e-14 5.96275098,0.344701506 6.00486738,0.785453078 L6.00884614,0.869158879 L6.00884614,15.8151798 C6.00884614,16.295203 5.61971046,16.6843387 5.13968726,16.6843387 C4.68790073,16.6843387 4.31662354,16.3396372 4.27450715,15.8988856 L4.27052839,15.8151798 L4.27052839,0.869158879 C4.27052839,0.389135685 4.65966407,4.83766713e-14 5.13968726,4.83766713e-14 Z" id="Path"></path>
                                <path d="M4.44111062,1.59324358 C6.06956864,1.47646311 8.05812443,1.86964942 9.16159181,2.47652244 C9.58220125,2.70784466 9.73564886,3.23633969 9.50432664,3.65694912 C9.27300443,4.07755856 8.7445094,4.23100617 8.32389996,3.99968396 C7.52558867,3.56063737 5.87100065,3.23348468 4.56545009,3.32710872 C3.13454283,3.42972238 2.43087548,3.92588269 2.43087548,4.85334104 C2.43087548,5.91248556 3.03506143,6.4144137 4.9463795,7.081667 L5.9110139,7.40691597 C6.92314463,7.75284019 7.44752231,7.98166381 7.98088869,8.34777986 C8.86194074,8.95255607 9.35248455,9.77842615 9.35248455,10.8520333 C9.35248455,12.9233913 8.04604809,14.1583558 5.97324835,14.469189 C4.40245702,14.7047419 2.40226709,14.4058456 0.574076958,13.7453786 C0.122611933,13.5822786 -0.11115414,13.0840753 0.0519458216,12.6326103 C0.215045783,12.1811452 0.71324914,11.9473792 1.16471417,12.1104791 C2.74250691,12.6804855 4.46407933,12.9377469 5.71545589,12.7500928 C7.00164619,12.5572181 7.61416679,11.978207 7.61416679,10.8520333 C7.61416679,10.0579036 7.10179072,9.65948227 5.33115826,9.04663556 L4.74765943,8.85038749 C1.88988633,7.89775972 0.692557726,7.01968489 0.692557726,4.85334104 C0.692557726,2.82346769 2.21042288,1.75321135 4.44111062,1.59324358 Z" id="Path"></path>
                            </g>
                        </g>
                        <path d="M16.2242991,0 C7.26386611,0 0,7.26386611 0,16.2242991 C0,25.184732 7.26386611,32.4485981 16.2242991,32.4485981 C25.184732,32.4485981 32.4485981,25.184732 32.4485981,16.2242991 C32.4385393,7.26803593 25.1805622,0.0100588313 16.2242991,0 Z M16.2242991,28.3925234 C9.50397435,28.3925234 4.05607477,22.9446238 4.05607477,16.2242991 C4.05607477,9.50397435 9.50397435,4.05607477 16.2242991,4.05607477 C22.9446238,4.05607477 28.3925234,9.50397435 28.3925234,16.2242991 C28.3847005,22.9413808 22.9413808,28.3847005 16.2242991,28.3925234 Z" id="Shape-Copy"></path>
                    </g>
                    <path d="M129.771444,122.11252 L129.771444,119.943925 L118.205607,119.943925 L118.205607,122.11252 L129.771444,122.11252 Z M129.771444,128.056075 L129.771444,125.88748 L118.205607,125.88748 L118.205607,128.056075 L129.771444,128.056075 Z" id="=" fill="#FFFFFF" fill-rule="nonzero"></path>
                    <path d="M93.8691589,107.775701 C84.9087259,107.775701 77.6448598,115.039567 77.6448598,124 C77.6448598,132.960433 84.9087259,140.224299 93.8691589,140.224299 C102.829592,140.224299 110.093458,132.960433 110.093458,124 C110.083399,115.043737 102.825422,107.78576 93.8691589,107.775701 Z M93.8691589,136.168224 C87.1488342,136.168224 81.7009346,130.720325 81.7009346,124 C81.7009346,117.279675 87.1488342,111.831776 93.8691589,111.831776 C100.589484,111.831776 106.037383,117.279675 106.037383,124 C106.02956,130.717082 100.586241,136.160401 93.8691589,136.168224 Z M100.96729,124 L93.8691589,124 L93.8691589,116.901869 C93.8691589,116.341842 93.4151672,115.88785 92.8551402,115.88785 C92.2951131,115.88785 91.8411215,116.341842 91.8411215,116.901869 L91.8411215,125.014019 C91.8411215,125.574046 92.2951131,126.028037 92.8551402,126.028037 L100.96729,126.028037 C101.527317,126.028037 101.981308,125.574046 101.981308,125.014019 C101.981308,124.453992 101.527317,124 100.96729,124 Z" id="Shape" fill="#FFFFFF" fill-rule="nonzero"></path>
                </g>
                <g id="Group-56" transform="translate(66.000000, 0.000000)">
                    <rect id="Rectangle" fill="#FFFFFF" x="0" y="0" width="67.3333333" height="32" rx="8"></rect>
                    <path d="M8.52266667,13.44 C10.368,13.44 11.6053333,12.2773333 11.6053333,10.336 L11.6053333,5.54666667 L10.0693333,5.54666667 L10.0693333,10.368 C10.0693333,11.328 9.44,11.9893333 8.52266667,11.9893333 C7.60533333,11.9893333 6.98666667,11.328 6.98666667,10.368 L6.98666667,5.54666667 L5.45066667,5.54666667 L5.45066667,10.336 C5.45066667,12.2773333 6.67733333,13.44 8.52266667,13.44 Z M15.7866667,13.44 C17.5253333,13.44 18.6453333,12.3306667 18.6453333,10.9973333 C18.6453333,9.312 17.2693333,8.928 16.0746667,8.672 C15.104,8.448 14.3253333,8.33066667 14.3253333,7.70133333 C14.3253333,7.18933333 14.688,6.77333333 15.5306667,6.77333333 C16.4266667,6.77333333 16.9493333,7.14666667 17.3546667,7.744 L18.5813333,6.784 C17.792,5.90933333 16.928,5.42933333 15.552,5.42933333 C13.9306667,5.42933333 12.7893333,6.45333333 12.7893333,7.73333333 C12.7893333,9.312 14.0906667,9.68533333 15.2533333,9.93066667 C16.3306667,10.176 17.0773333,10.3253333 17.0773333,11.0506667 C17.0773333,11.616 16.64,12.0213333 15.7973333,12.0213333 C14.8693333,12.0213333 14.176,11.6053333 13.664,10.7946667 L12.352,11.84 C13.088,12.7786667 14.112,13.44 15.7866667,13.44 Z M20.768,13.3333333 L21.28,11.9146667 L24.5333333,11.9146667 L25.0453333,13.3333333 L26.592,13.3333333 L23.648,5.54666667 L22.1653333,5.54666667 L19.2213333,13.3333333 L20.768,13.3333333 Z M24.032,10.5493333 L21.7813333,10.5493333 L22.912,7.456 L24.032,10.5493333 Z M33.376,13.3333333 L33.376,6.93333333 L35.52,6.93333333 L35.52,5.54666667 L29.728,5.54666667 L29.728,6.93333333 L31.8933333,6.93333333 L31.8933333,13.3333333 L33.376,13.3333333 Z M39.4346667,13.4506667 C41.1733333,13.4506667 42.4853333,12.1066667 42.4853333,10.4533333 C42.4853333,8.78933333 41.152,7.456 39.4346667,7.456 C37.7066667,7.456 36.3946667,8.78933333 36.3946667,10.4533333 C36.3946667,12.1066667 37.7066667,13.4506667 39.4346667,13.4506667 Z M39.4453333,12.0533333 C38.56,12.0533333 37.8666667,11.3386667 37.8666667,10.4426667 C37.8666667,9.54666667 38.56,8.832 39.4453333,8.832 C40.32,8.832 41.024,9.54666667 41.024,10.4426667 C41.024,11.3386667 40.32,12.0533333 39.4453333,12.0533333 Z M46.048,13.4506667 C46.7946667,13.4506667 47.4453333,13.1093333 47.8506667,12.544 L47.8506667,13.3333333 L49.3013333,13.3333333 L49.3013333,4.91733333 L47.8506667,4.91733333 L47.8506667,8.30933333 C47.456,7.776 46.8266667,7.456 46.0693333,7.456 C44.5973333,7.456 43.2746667,8.61866667 43.2746667,10.4533333 C43.2746667,12.288 44.6293333,13.4506667 46.048,13.4506667 Z M46.336,12.064 C45.4506667,12.064 44.736,11.3493333 44.736,10.4426667 C44.736,9.536 45.4506667,8.82133333 46.336,8.82133333 C47.2426667,8.82133333 47.936,9.54666667 47.936,10.4426667 C47.936,11.3386667 47.2426667,12.064 46.336,12.064 Z M52.256,13.4506667 C53.1626667,13.4506667 53.952,13.0453333 54.368,12.448 L54.368,13.3333333 L55.7866667,13.3333333 L55.7866667,9.792 C55.7866667,8.34133333 54.816,7.456 53.12,7.456 C51.8293333,7.456 50.9866667,8 50.4,8.768 L51.7546667,9.44 C52.0213333,8.96 52.4586667,8.68266667 53.1093333,8.68266667 C53.9413333,8.68266667 54.3573333,9.10933333 54.3573333,9.728 L54.3573333,9.80266667 L52.8426667,9.80266667 C51.2426667,9.80266667 50.2506667,10.5386667 50.2506667,11.7333333 C50.2506667,12.7466667 50.9973333,13.4506667 52.256,13.4506667 Z M52.6826667,12.2346667 C52.0746667,12.2346667 51.7866667,12.0213333 51.7866667,11.6053333 C51.7866667,11.1573333 52.1386667,10.88 53.0133333,10.88 L54.368,10.88 L54.368,11.1893333 C54.08,11.808 53.3866667,12.2346667 52.6826667,12.2346667 Z M57.6106667,15.616 C58.8266667,15.616 59.4453333,15.1146667 60.0426667,13.6426667 L62.528,7.57333333 L60.992,7.57333333 L59.5733333,11.2853333 L58.08,7.57333333 L56.512,7.57333333 L58.8266667,13.088 L58.7306667,13.3226667 C58.4426667,14.0053333 58.1226667,14.24 57.6,14.24 C57.2693333,14.24 57.024,14.1013333 56.8213333,13.888 L55.968,15.0826667 C56.3946667,15.392 57.0026667,15.616 57.6106667,15.616 Z" id="USAToday" fill="#000000" fill-rule="nonzero"></path>
                    <path d="M38.6060571,27.6363627 L38.6060571,26.7954544 C40.2234798,26.7007575 41.1363577,25.7537887 41.1363577,24.5606081 C41.1363577,23.106064 39.7575712,22.6363675 38.9545416,22.4242465 L38.6060571,22.3295496 L38.6060571,19.6439461 C39.4318139,19.7121278 40.0378739,20.1477335 40.1212072,20.8484904 L41.0302972,20.8484904 C40.9886306,19.7310672 40.003783,18.8825832 38.6060571,18.8068257 L38.6060571,17.9394023 L38.1212091,17.9394023 L38.1212091,18.8144014 C36.7765134,18.9166741 35.757575,19.7537945 35.757575,20.9697024 C35.757575,22.015156 36.51515,22.6363675 37.7272701,22.984852 L38.1212091,23.0984883 L38.1212091,25.9469704 C37.2878765,25.8901523 36.5833318,25.4772739 36.51515,24.6666686 L35.545454,24.6666686 C35.6325751,25.8863644 36.5795439,26.7272727 38.1212091,26.7992423 L38.1212091,27.6363627 L38.6060571,27.6363627 Z M38.1212091,22.2007618 C37.5454521,22.045459 36.666665,21.7348532 36.666665,20.9242479 C36.666665,20.2462182 37.2348463,19.7310672 38.1212091,19.647734 L38.1212091,22.2007618 Z M38.6060571,25.9431825 L38.6060571,23.2348518 L38.6818146,23.257579 C39.4999957,23.4848515 40.2272677,23.77273 40.2272677,24.5454566 C40.2272677,25.321971 39.5454502,25.8560614 38.6060571,25.9431825 Z M45.0757544,26.7727272 C46.787874,26.7727272 47.7727215,25.321971 47.7727215,22.7878825 C47.7727215,20.2727334 46.7727225,18.8030378 45.0757544,18.8030378 C43.3787873,18.8030378 42.3787873,20.2727334 42.3787873,22.7878825 C42.3787873,25.321971 43.3636348,26.7727272 45.0757544,26.7727272 Z M45.0757544,25.9393946 C43.9469676,25.9393946 43.2878773,24.80682 43.2878773,22.7878825 C43.2878773,20.7727329 43.9545433,19.6212188 45.0757544,19.6212188 C46.1969654,19.6212188 46.8636315,20.7727329 46.8636315,22.7878825 C46.8636315,24.80682 46.2045412,25.9393946 45.0757544,25.9393946 Z M49.8787865,26.7272727 C50.257574,26.7272727 50.560604,26.4242427 50.560604,26.0454551 C50.560604,25.6818191 50.257574,25.3787891 49.8787865,25.3787891 C49.5151505,25.3787891 49.1969689,25.6666676 49.1969689,26.0454551 C49.1969689,26.4242427 49.499999,26.7272727 49.8787865,26.7272727 Z M54.590906,26.6666667 L54.590906,18.9090983 L53.803028,18.9090983 C53.7537856,18.9886437 53.1969679,20.0606124 51.9999994,20.0606124 L51.9999994,20.8484904 C52.89015,20.8484904 53.5265131,20.4848544 53.6363615,20.2727334 L53.6969675,20.2727334 L53.6969675,26.6666667 L54.590906,26.6666667 Z M59.1666637,26.7727272 C60.9090862,26.7727272 61.9848428,25.2272741 61.9848428,22.469701 C61.9848428,19.6060673 60.5606017,18.8030378 59.2878757,18.7878863 C57.7121196,18.7727348 56.696969,19.9545519 56.696969,21.3939444 C56.696969,22.893943 57.8030286,23.9696995 59.1363607,23.9696995 C59.9393902,23.9696995 60.6212077,23.5757605 61.0454497,22.9393975 L61.1060558,22.9393975 C61.1060558,24.8484866 60.3636322,25.9393946 59.1666637,25.9393946 C58.3484826,25.9393946 57.8484831,25.4242436 57.6818166,24.7121231 L56.757575,24.7121231 C56.9393931,25.9393946 57.8636346,26.7727272 59.1666637,26.7727272 Z M59.2575727,23.136367 C58.3030281,23.136367 57.6060591,22.3636405 57.6060591,21.3939444 C57.6060591,20.4090969 58.3333311,19.6212188 59.2878757,19.6212188 C60.2575717,19.6212188 60.9696922,20.4545514 60.9696922,21.3787929 C60.9696922,22.3030345 60.2121172,23.136367 59.2575727,23.136367 Z" id="$0.19" fill="#000000" fill-rule="nonzero"></path>
                </g>
                <g id="Group-60" transform="translate(29.000000, 38.000000)">
                    <rect id="Rectangle" fill="#FFFFFF" x="0" y="0" width="37.3333333" height="32" rx="8"></rect>
                    <path d="M8.83733333,13.44 C10.576,13.44 11.696,12.3306667 11.696,10.9973333 C11.696,9.312 10.32,8.928 9.12533333,8.672 C8.15466667,8.448 7.376,8.33066667 7.376,7.70133333 C7.376,7.18933333 7.73866667,6.77333333 8.58133333,6.77333333 C9.47733333,6.77333333 10,7.14666667 10.4053333,7.744 L11.632,6.784 C10.8426667,5.90933333 9.97866667,5.42933333 8.60266667,5.42933333 C6.98133333,5.42933333 5.84,6.45333333 5.84,7.73333333 C5.84,9.312 7.14133333,9.68533333 8.304,9.93066667 C9.38133333,10.176 10.128,10.3253333 10.128,11.0506667 C10.128,11.616 9.69066667,12.0213333 8.848,12.0213333 C7.92,12.0213333 7.22666667,11.6053333 6.71466667,10.7946667 L5.40266667,11.84 C6.13866667,12.7786667 7.16266667,13.44 8.83733333,13.44 Z M14.16,13.3333333 L14.16,4.928 L12.688,4.928 L12.688,13.3333333 L14.16,13.3333333 Z M17.1146667,13.4506667 C18.0213333,13.4506667 18.8106667,13.0453333 19.2266667,12.448 L19.2266667,13.3333333 L20.6453333,13.3333333 L20.6453333,9.792 C20.6453333,8.34133333 19.6746667,7.456 17.9786667,7.456 C16.688,7.456 15.8453333,8 15.2586667,8.768 L16.6133333,9.44 C16.88,8.96 17.3173333,8.68266667 17.968,8.68266667 C18.8,8.68266667 19.216,9.10933333 19.216,9.728 L19.216,9.80266667 L17.7013333,9.80266667 C16.1013333,9.80266667 15.1093333,10.5386667 15.1093333,11.7333333 C15.1093333,12.7466667 15.856,13.4506667 17.1146667,13.4506667 Z M17.5413333,12.2346667 C16.9333333,12.2346667 16.6453333,12.0213333 16.6453333,11.6053333 C16.6453333,11.1573333 16.9973333,10.88 17.872,10.88 L19.2266667,10.88 L19.2266667,11.1893333 C18.9386667,11.808 18.2453333,12.2346667 17.5413333,12.2346667 Z M24.432,13.44 C24.9653333,13.44 25.4346667,13.28 25.808,13.0026667 L25.136,11.8506667 C24.9653333,12 24.8053333,12.064 24.6026667,12.064 C24.2293333,12.064 23.9733333,11.8506667 23.9733333,11.2426667 L23.9733333,8.87466667 L25.488,8.87466667 L25.488,7.57333333 L23.9733333,7.57333333 L23.9733333,5.472 L22.5226667,6.32533333 L22.5226667,7.57333333 L21.456,7.57333333 L21.456,8.87466667 L22.5226667,8.87466667 L22.5226667,11.296 C22.5226667,12.864 23.2266667,13.44 24.432,13.44 Z M29.328,13.4506667 C30.5973333,13.4506667 31.408,12.928 31.984,12.1173333 L30.7786667,11.4133333 C30.4906667,11.8826667 30.032,12.1813333 29.3493333,12.1813333 C28.496,12.1813333 27.888,11.712 27.696,10.9653333 L32.272,10.9653333 L32.272,10.4106667 C32.272,8.704 31.024,7.456 29.296,7.456 C27.5786667,7.456 26.2773333,8.78933333 26.2773333,10.464 C26.2773333,12.1386667 27.472,13.4506667 29.328,13.4506667 Z M30.8106667,9.81333333 L27.7386667,9.81333333 C27.9733333,9.14133333 28.5493333,8.704 29.296,8.704 C30.064,8.704 30.6186667,9.09866667 30.8106667,9.81333333 Z" id="Slate" fill="#000000" fill-rule="nonzero"></path>
                    <path d="M8.60605711,27.6363627 L8.60605711,26.7954544 C10.2234798,26.7007575 11.1363577,25.7537887 11.1363577,24.5606081 C11.1363577,23.106064 9.75757116,22.6363675 8.95454163,22.4242465 L8.60605711,22.3295496 L8.60605711,19.6439461 C9.4318139,19.7121278 10.0378739,20.1477335 10.1212072,20.8484904 L11.0302972,20.8484904 C10.9886306,19.7310672 10.003783,18.8825832 8.60605711,18.8068257 L8.60605711,17.9394023 L8.12120909,17.9394023 L8.12120909,18.8144014 C6.7765134,18.9166741 5.75757498,19.7537945 5.75757498,20.9697024 C5.75757498,22.015156 6.51515001,22.6363675 7.72727007,22.984852 L8.12120909,23.0984883 L8.12120909,25.9469704 C7.28787655,25.8901523 6.58333177,25.4772739 6.51515001,24.6666686 L5.54545397,24.6666686 C5.6325751,25.8863644 6.57954389,26.7272727 8.12120909,26.7992423 L8.12120909,27.6363627 L8.60605711,27.6363627 Z M8.12120909,22.2007618 C7.54545206,22.045459 6.66666502,21.7348532 6.66666502,20.9242479 C6.66666502,20.2462182 7.2348463,19.7310672 8.12120909,19.647734 L8.12120909,22.2007618 Z M8.60605711,25.9431825 L8.60605711,23.2348518 L8.68181461,23.257579 C9.49999565,23.4848515 10.2272677,23.77273 10.2272677,24.5454566 C10.2272677,25.321971 9.54545015,25.8560614 8.60605711,25.9431825 Z M15.0757544,26.7727272 C16.787874,26.7727272 17.7727215,25.321971 17.7727215,22.7878825 C17.7727215,20.2727334 16.7727225,18.8030378 15.0757544,18.8030378 C13.3787873,18.8030378 12.3787873,20.2727334 12.3787873,22.7878825 C12.3787873,25.321971 13.3636348,26.7727272 15.0757544,26.7727272 Z M15.0757544,25.9393946 C13.9469676,25.9393946 13.2878773,24.80682 13.2878773,22.7878825 C13.2878773,20.7727329 13.9545433,19.6212188 15.0757544,19.6212188 C16.1969654,19.6212188 16.8636315,20.7727329 16.8636315,22.7878825 C16.8636315,24.80682 16.2045412,25.9393946 15.0757544,25.9393946 Z M19.8787865,26.7272727 C20.257574,26.7272727 20.560604,26.4242427 20.560604,26.0454551 C20.560604,25.6818191 20.257574,25.3787891 19.8787865,25.3787891 C19.5151505,25.3787891 19.1969689,25.6666676 19.1969689,26.0454551 C19.1969689,26.4242427 19.499999,26.7272727 19.8787865,26.7272727 Z M24.590906,26.6666667 L24.590906,18.9090983 L23.803028,18.9090983 C23.7537856,18.9886437 23.1969679,20.0606124 21.9999994,20.0606124 L21.9999994,20.8484904 C22.89015,20.8484904 23.5265131,20.4848544 23.6363615,20.2727334 L23.6969675,20.2727334 L23.6969675,26.6666667 L24.590906,26.6666667 Z M29.3939362,26.7727272 C30.9621165,26.7916665 31.9848428,25.6098495 31.9848428,24.1666691 C31.9848428,22.6666705 30.8749954,21.5909139 29.5454512,21.5909139 C28.7462095,21.5909139 28.0606041,21.9810651 27.6363621,22.621216 L27.5757561,22.621216 C27.579544,20.7159148 28.3143917,19.6212188 29.5151482,19.6212188 C30.3333292,19.6212188 30.825753,20.1363699 30.9999952,20.8484904 L31.9242368,20.8484904 C31.734843,19.6287946 30.8181772,18.7878863 29.5151482,18.7878863 C27.7689377,18.7878863 26.696969,20.3333394 26.696969,23.0909125 C26.696969,25.958334 28.1212101,26.7575757 29.3939362,26.7727272 Z M29.3939362,25.9393946 C28.4204523,25.9393946 27.7083317,25.10985 27.7121046,24.1818206 C27.7159075,23.2537911 28.4621189,22.4242465 29.4242392,22.4242465 C30.3749958,22.4242465 31.0757527,23.2045488 31.0757527,24.1666691 C31.0757527,25.1515166 30.3446928,25.9393946 29.3939362,25.9393946 Z" id="$0.16" fill="#000000" fill-rule="nonzero"></path>
                </g>
                <g id="Group-59" transform="translate(0.000000, 94.000000)">
                    <rect id="Rectangle" fill="#FFFFFF" x="0" y="0" width="58" height="32" rx="8"></rect>
                    <path d="M9.71733333,13.44 C12.0533333,13.44 13.536,11.6266667 13.536,9.54666667 L13.536,8.896 L9.44,8.896 L9.44,10.304 L11.9146667,10.304 C11.6586667,11.328 10.88,11.9893333 9.696,11.9893333 C8.21333333,11.9893333 7.15733333,10.8906667 7.15733333,9.44 C7.15733333,8.01066667 8.23466667,6.86933333 9.67466667,6.86933333 C10.5813333,6.86933333 11.2853333,7.264 11.7333333,7.94666667 L13.0026667,7.06133333 C12.2666667,6.06933333 11.1466667,5.44 9.67466667,5.44 C7.328,5.44 5.65333333,7.2 5.65333333,9.44 C5.65333333,11.6053333 7.27466667,13.44 9.71733333,13.44 Z M15.3386667,6.89066667 C15.904,6.89066667 16.288,6.496 16.288,5.952 C16.288,5.39733333 15.904,4.992 15.3386667,4.992 C14.7946667,4.992 14.4,5.39733333 14.4,5.952 C14.4,6.496 14.784,6.89066667 15.3386667,6.89066667 Z M16.096,13.3333333 L16.096,7.57333333 L14.592,7.57333333 L14.592,13.3333333 L16.096,13.3333333 Z M22.176,13.3333333 L22.176,12.0426667 L18.9333333,12.0426667 L22.1333333,8.88533333 L22.1333333,7.57333333 L17.1733333,7.57333333 L17.1733333,8.85333333 L20.32,8.85333333 L17.1093333,12.0213333 L17.1093333,13.3333333 L22.176,13.3333333 Z M24.672,13.3333333 L24.672,10.1333333 C24.672,9.20533333 25.1093333,8.74666667 25.8026667,8.74666667 C26.5173333,8.74666667 26.8373333,9.19466667 26.8373333,9.96266667 L26.8373333,13.3333333 L28.3413333,13.3333333 L28.3413333,10.1013333 C28.3413333,9.19466667 28.7786667,8.74666667 29.44,8.74666667 C30.1866667,8.74666667 30.5066667,9.22666667 30.5066667,10.0053333 L30.5066667,13.3333333 L32.0213333,13.3333333 L32.0213333,9.792 C32.0213333,8.352 31.2853333,7.456 29.824,7.456 C29.0346667,7.456 28.384,7.82933333 28.0213333,8.42666667 C27.712,7.808 27.1253333,7.456 26.2613333,7.456 C25.568,7.456 25.0133333,7.75466667 24.6613333,8.256 L24.6613333,7.57333333 L23.1893333,7.57333333 L23.1893333,13.3333333 L24.672,13.3333333 Z M36.0106667,13.4506667 C37.7493333,13.4506667 39.0613333,12.1066667 39.0613333,10.4533333 C39.0613333,8.78933333 37.728,7.456 36.0106667,7.456 C34.2826667,7.456 32.9706667,8.78933333 32.9706667,10.4533333 C32.9706667,12.1066667 34.2826667,13.4506667 36.0106667,13.4506667 Z M36.0213333,12.0533333 C35.136,12.0533333 34.4426667,11.3386667 34.4426667,10.4426667 C34.4426667,9.54666667 35.136,8.832 36.0213333,8.832 C36.896,8.832 37.6,9.54666667 37.6,10.4426667 C37.6,11.3386667 36.896,12.0533333 36.0213333,12.0533333 Z M42.624,13.4506667 C43.3706667,13.4506667 44.0213333,13.1093333 44.4266667,12.544 L44.4266667,13.3333333 L45.8773333,13.3333333 L45.8773333,4.91733333 L44.4266667,4.91733333 L44.4266667,8.30933333 C44.032,7.776 43.4026667,7.456 42.6453333,7.456 C41.1733333,7.456 39.8506667,8.61866667 39.8506667,10.4533333 C39.8506667,12.288 41.2053333,13.4506667 42.624,13.4506667 Z M42.912,12.064 C42.0266667,12.064 41.312,11.3493333 41.312,10.4426667 C41.312,9.536 42.0266667,8.82133333 42.912,8.82133333 C43.8186667,8.82133333 44.512,9.54666667 44.512,10.4426667 C44.512,11.3386667 43.8186667,12.064 42.912,12.064 Z M49.888,13.4506667 C51.6266667,13.4506667 52.9386667,12.1066667 52.9386667,10.4533333 C52.9386667,8.78933333 51.6053333,7.456 49.888,7.456 C48.16,7.456 46.848,8.78933333 46.848,10.4533333 C46.848,12.1066667 48.16,13.4506667 49.888,13.4506667 Z M49.8986667,12.0533333 C49.0133333,12.0533333 48.32,11.3386667 48.32,10.4426667 C48.32,9.54666667 49.0133333,8.832 49.8986667,8.832 C50.7733333,8.832 51.4773333,9.54666667 51.4773333,10.4426667 C51.4773333,11.3386667 50.7733333,12.0533333 49.8986667,12.0533333 Z" id="Gizmodo" fill="#000000" fill-rule="nonzero"></path>
                    <path d="M29.2727238,27.6363627 L29.2727238,26.7954544 C30.8901465,26.7007575 31.8030244,25.7537887 31.8030244,24.5606081 C31.8030244,23.106064 30.4242378,22.6363675 29.6212083,22.4242465 L29.2727238,22.3295496 L29.2727238,19.6439461 C30.0984806,19.7121278 30.7045406,20.1477335 30.7878738,20.8484904 L31.6969639,20.8484904 C31.6552973,19.7310672 30.6704497,18.8825832 29.2727238,18.8068257 L29.2727238,17.9394023 L28.7878758,17.9394023 L28.7878758,18.8144014 C27.4431801,18.9166741 26.4242416,19.7537945 26.4242416,20.9697024 C26.4242416,22.015156 27.1818167,22.6363675 28.3939367,22.984852 L28.7878758,23.0984883 L28.7878758,25.9469704 C27.9545432,25.8901523 27.2499984,25.4772739 27.1818167,24.6666686 L26.2121206,24.6666686 C26.2992418,25.8863644 27.2462106,26.7272727 28.7878758,26.7992423 L28.7878758,27.6363627 L29.2727238,27.6363627 Z M28.7878758,22.2007618 C28.2121187,22.045459 27.3333317,21.7348532 27.3333317,20.9242479 C27.3333317,20.2462182 27.901513,19.7310672 28.7878758,19.647734 L28.7878758,22.2007618 Z M29.2727238,25.9431825 L29.2727238,23.2348518 L29.3484813,23.257579 C30.1666623,23.4848515 30.8939344,23.77273 30.8939344,24.5454566 C30.8939344,25.321971 30.2121168,25.8560614 29.2727238,25.9431825 Z M35.7424211,26.7727272 C37.4545406,26.7727272 38.4393882,25.321971 38.4393882,22.7878825 C38.4393882,20.2727334 37.4393891,18.8030378 35.7424211,18.8030378 C34.0454539,18.8030378 33.0454539,20.2727334 33.0454539,22.7878825 C33.0454539,25.321971 34.0303015,26.7727272 35.7424211,26.7727272 Z M35.7424211,25.9393946 C34.6136343,25.9393946 33.954544,24.80682 33.954544,22.7878825 C33.954544,20.7727329 34.62121,19.6212188 35.7424211,19.6212188 C36.8636321,19.6212188 37.5302981,20.7727329 37.5302981,22.7878825 C37.5302981,24.80682 36.8712079,25.9393946 35.7424211,25.9393946 Z M40.5454531,26.7272727 C40.9242407,26.7272727 41.2272707,26.4242427 41.2272707,26.0454551 C41.2272707,25.6818191 40.9242407,25.3787891 40.5454531,25.3787891 C40.1818171,25.3787891 39.8636356,25.6666676 39.8636356,26.0454551 C39.8636356,26.4242427 40.1666656,26.7272727 40.5454531,26.7272727 Z M45.2575727,26.6666667 L45.2575727,18.9090983 L44.4696946,18.9090983 C44.4204523,18.9886437 43.8636346,20.0606124 42.666666,20.0606124 L42.666666,20.8484904 C43.5568167,20.8484904 44.1931797,20.4848544 44.3030281,20.2727334 L44.3636341,20.2727334 L44.3636341,26.6666667 L45.2575727,26.6666667 Z M49.8333303,26.7727272 C51.5757529,26.7727272 52.6515095,25.2272741 52.6515095,22.469701 C52.6515095,19.6060673 51.2272684,18.8030378 49.9545423,18.7878863 C48.3787863,18.7727348 47.3636357,19.9545519 47.3636357,21.3939444 C47.3636357,22.893943 48.4696953,23.9696995 49.8030273,23.9696995 C50.6060569,23.9696995 51.2878744,23.5757605 51.7121164,22.9393975 L51.7727224,22.9393975 C51.7727224,24.8484866 51.0302989,25.9393946 49.8333303,25.9393946 C49.0151493,25.9393946 48.5151498,25.4242436 48.3484833,24.7121231 L47.4242417,24.7121231 C47.6060597,25.9393946 48.5303013,26.7727272 49.8333303,26.7727272 Z M49.9242393,23.136367 C48.9696948,23.136367 48.2727258,22.3636405 48.2727258,21.3939444 C48.2727258,20.4090969 48.9999978,19.6212188 49.9545423,19.6212188 C50.9242384,19.6212188 51.6363589,20.4545514 51.6363589,21.3787929 C51.6363589,22.3030345 50.8787839,23.136367 49.9242393,23.136367 Z" id="$0.19" fill="#000000" fill-rule="nonzero"></path>
                </g>
                <g id="Group-58" transform="translate(19.000000, 185.000000)">
                    <rect id="Rectangle" fill="#FFFFFF" x="0" y="0" width="39.3333333" height="32" rx="8"></rect>
                    <path d="M16.5866667,13.3333333 L19.5306667,5.54666667 L17.952,5.54666667 L15.84,11.328 L13.7493333,5.54666667 L12.16,5.54666667 L15.104,13.3333333 L16.5866667,13.3333333 Z M23.1253333,13.4506667 C24.864,13.4506667 26.176,12.1066667 26.176,10.4533333 C26.176,8.78933333 24.8426667,7.456 23.1253333,7.456 C21.3973333,7.456 20.0853333,8.78933333 20.0853333,10.4533333 C20.0853333,12.1066667 21.3973333,13.4506667 23.1253333,13.4506667 Z M23.136,12.0533333 C22.2506667,12.0533333 21.5573333,11.3386667 21.5573333,10.4426667 C21.5573333,9.54666667 22.2506667,8.832 23.136,8.832 C24.0106667,8.832 24.7146667,9.54666667 24.7146667,10.4426667 C24.7146667,11.3386667 24.0106667,12.0533333 23.136,12.0533333 Z M28.48,13.3333333 L29.7706667,11.5306667 L31.0933333,13.3333333 L32.8746667,13.3333333 L30.6773333,10.3893333 L32.7253333,7.57333333 L30.9973333,7.57333333 L29.7813333,9.28 L28.576,7.57333333 L26.8266667,7.57333333 L28.864,10.3786667 L26.7093333,13.3333333 L28.48,13.3333333 Z" id="Vox" fill="#000000" fill-rule="nonzero"></path>
                    <path d="M8.33332984,27.6363627 L8.33332984,26.7954544 C9.95075254,26.7007575 10.8636305,25.7537887 10.8636305,24.5606081 C10.8636305,23.106064 9.48484389,22.6363675 8.68181435,22.4242465 L8.33332984,22.3295496 L8.33332984,19.6439461 C9.15908662,19.7121278 9.76514665,20.1477335 9.84847991,20.8484904 L10.7575699,20.8484904 C10.7159033,19.7310672 9.73105578,18.8825832 8.33332984,18.8068257 L8.33332984,17.9394023 L7.84848181,17.9394023 L7.84848181,18.8144014 C6.50378613,18.9166741 5.4848477,19.7537945 5.4848477,20.9697024 C5.4848477,22.015156 6.24242274,22.6363675 7.4545428,22.984852 L7.84848181,23.0984883 L7.84848181,25.9469704 C7.01514928,25.8901523 6.31060449,25.4772739 6.24242274,24.6666686 L5.27272669,24.6666686 C5.35984782,25.8863644 6.30681662,26.7272727 7.84848181,26.7992423 L7.84848181,27.6363627 L8.33332984,27.6363627 Z M7.84848181,22.2007618 C7.27272479,22.045459 6.39393775,21.7348532 6.39393775,20.9242479 C6.39393775,20.2462182 6.96211902,19.7310672 7.84848181,19.647734 L7.84848181,22.2007618 Z M8.33332984,25.9431825 L8.33332984,23.2348518 L8.40908734,23.257579 C9.22726838,23.4848515 9.95454041,23.77273 9.95454041,24.5454566 C9.95454041,25.321971 9.27272288,25.8560614 8.33332984,25.9431825 Z M14.8030271,26.7727272 C16.5151467,26.7727272 17.4999942,25.321971 17.4999942,22.7878825 C17.4999942,20.2727334 16.4999952,18.8030378 14.8030271,18.8030378 C13.10606,18.8030378 12.10606,20.2727334 12.10606,22.7878825 C12.10606,25.321971 13.0909075,26.7727272 14.8030271,26.7727272 Z M14.8030271,25.9393946 C13.6742403,25.9393946 13.01515,24.80682 13.01515,22.7878825 C13.01515,20.7727329 13.6818161,19.6212188 14.8030271,19.6212188 C15.9242382,19.6212188 16.5909042,20.7727329 16.5909042,22.7878825 C16.5909042,24.80682 15.9318139,25.9393946 14.8030271,25.9393946 Z M19.6060592,26.7272727 C19.9848467,26.7272727 20.2878767,26.4242427 20.2878767,26.0454551 C20.2878767,25.6818191 19.9848467,25.3787891 19.6060592,25.3787891 C19.2424232,25.3787891 18.9242417,25.6666676 18.9242417,26.0454551 C18.9242417,26.4242427 19.2272717,26.7272727 19.6060592,26.7272727 Z M26.2424193,26.6666667 L26.2424193,25.0757591 L27.3030244,25.0757591 L27.3030244,24.2424266 L26.2424193,24.2424266 L26.2424193,18.9090983 L25.1060568,18.9090983 L21.6969691,24.3030326 L21.6969691,25.0757591 L25.3484808,25.0757591 L25.3484808,26.6666667 L26.2424193,26.6666667 Z M25.3484808,24.2424266 L22.7121197,24.2424266 L22.7121197,24.1818206 L25.2878748,20.1060669 L25.3484808,20.1060669 L25.3484808,24.2424266 Z M31.1515121,26.7727272 C32.6287834,26.7727272 33.7121157,25.6818191 33.7121157,24.1969721 C33.7121157,22.6931856 32.6666621,21.5909139 31.2424235,21.5909139 C30.7196943,21.5909139 30.212119,21.7765198 29.8939375,22.0303075 L29.848483,22.0303075 L30.12121,19.7424308 L33.3636312,19.7424308 L33.3636312,18.9090983 L29.333332,18.9090983 L28.8636355,22.7272765 L29.7424235,22.833337 C30.0643919,22.6022766 30.6136338,22.4356101 31.0909061,22.439398 C32.0795415,22.4469737 32.8030257,23.196973 32.8030257,24.2121236 C32.8030257,25.2083347 32.1060566,25.9393946 31.1515121,25.9393946 C30.3560583,25.9393946 29.7234831,25.4280315 29.6515135,24.7272746 L28.7424235,24.7272746 C28.7992416,25.9090983 29.81818,26.7727272 31.1515121,26.7727272 Z" id="$0.45" fill="#000000" fill-rule="nonzero"></path>
                </g>
                <g id="Group-57" transform="translate(207.000000, 192.000000)">
                    <rect id="Rectangle" fill="#FFFFFF" x="0" y="0" width="65.3333333" height="32" rx="8"></rect>
                    <path d="M8.99733333,13.3333333 L8.99733333,6.93333333 L11.1413333,6.93333333 L11.1413333,5.54666667 L5.34933333,5.54666667 L5.34933333,6.93333333 L7.51466667,6.93333333 L7.51466667,13.3333333 L8.99733333,13.3333333 Z M13.6586667,13.3333333 L13.6586667,10.1546667 C13.6586667,9.25866667 14.192,8.74666667 14.8853333,8.74666667 C15.664,8.74666667 16.0586667,9.25866667 16.0586667,10.08 L16.0586667,13.3333333 L17.5733333,13.3333333 L17.5733333,9.856 C17.5733333,8.352 16.6986667,7.456 15.3333333,7.456 C14.6293333,7.456 14.0426667,7.76533333 13.6586667,8.27733333 L13.6586667,4.928 L12.1973333,4.928 L12.1973333,13.3333333 L13.6586667,13.3333333 Z M21.5733333,13.4506667 C22.8426667,13.4506667 23.6533333,12.928 24.2293333,12.1173333 L23.024,11.4133333 C22.736,11.8826667 22.2773333,12.1813333 21.5946667,12.1813333 C20.7413333,12.1813333 20.1333333,11.712 19.9413333,10.9653333 L24.5173333,10.9653333 L24.5173333,10.4106667 C24.5173333,8.704 23.2693333,7.456 21.5413333,7.456 C19.824,7.456 18.5226667,8.78933333 18.5226667,10.464 C18.5226667,12.1386667 19.7173333,13.4506667 21.5733333,13.4506667 Z M23.056,9.81333333 L19.984,9.81333333 C20.2186667,9.14133333 20.7946667,8.704 21.5413333,8.704 C22.3093333,8.704 22.864,9.09866667 23.056,9.81333333 Z M31.9946667,13.3333333 L34.9386667,5.54666667 L33.36,5.54666667 L31.248,11.328 L29.1573333,5.54666667 L27.568,5.54666667 L30.512,13.3333333 L31.9946667,13.3333333 Z M38.544,13.4506667 C39.8133333,13.4506667 40.624,12.928 41.2,12.1173333 L39.9946667,11.4133333 C39.7066667,11.8826667 39.248,12.1813333 38.5653333,12.1813333 C37.712,12.1813333 37.104,11.712 36.912,10.9653333 L41.488,10.9653333 L41.488,10.4106667 C41.488,8.704 40.24,7.456 38.512,7.456 C36.7946667,7.456 35.4933333,8.78933333 35.4933333,10.464 C35.4933333,12.1386667 36.688,13.4506667 38.544,13.4506667 Z M40.0266667,9.81333333 L36.9546667,9.81333333 C37.1893333,9.14133333 37.7653333,8.704 38.512,8.704 C39.28,8.704 39.8346667,9.09866667 40.0266667,9.81333333 Z M43.92,13.3333333 L43.92,10.2933333 C43.92,9.32266667 44.4106667,8.93866667 45.168,8.93866667 C45.4986667,8.93866667 45.776,9.024 45.936,9.14133333 L46.4693333,7.69066667 C46.224,7.56266667 45.8826667,7.46666667 45.4986667,7.46666667 C44.7626667,7.46666667 44.1866667,7.776 43.9093333,8.45866667 L43.9093333,7.57333333 L42.4586667,7.57333333 L42.4586667,13.3333333 L43.92,13.3333333 Z M50.0853333,15.7973333 C51.856,15.7973333 53.104,14.5813333 53.104,12.9066667 L53.104,7.57333333 L51.632,7.57333333 L51.632,8.33066667 C51.248,7.79733333 50.608,7.456 49.84,7.456 C48.368,7.456 47.0453333,8.61866667 47.0453333,10.4426667 C47.0453333,12.2666667 48.4,13.4186667 49.8186667,13.4186667 C50.5653333,13.4186667 51.2266667,13.0773333 51.632,12.512 L51.632,12.9493333 C51.632,13.856 50.9706667,14.4853333 50.0426667,14.4853333 C49.2853333,14.4853333 48.8586667,14.208 48.4746667,13.7066667 L47.2586667,14.656 C47.9093333,15.4133333 48.7733333,15.7973333 50.0853333,15.7973333 Z M50.1066667,12.0533333 C49.2213333,12.0533333 48.5066667,11.3386667 48.5066667,10.432 C48.5066667,9.51466667 49.2213333,8.81066667 50.1066667,8.81066667 C51.0133333,8.81066667 51.7066667,9.52533333 51.7066667,10.432 C51.7066667,11.3386667 51.0133333,12.0533333 50.1066667,12.0533333 Z M57.1253333,13.4506667 C58.3946667,13.4506667 59.2053333,12.928 59.7813333,12.1173333 L58.576,11.4133333 C58.288,11.8826667 57.8293333,12.1813333 57.1466667,12.1813333 C56.2933333,12.1813333 55.6853333,11.712 55.4933333,10.9653333 L60.0693333,10.9653333 L60.0693333,10.4106667 C60.0693333,8.704 58.8213333,7.456 57.0933333,7.456 C55.376,7.456 54.0746667,8.78933333 54.0746667,10.464 C54.0746667,12.1386667 55.2693333,13.4506667 57.1253333,13.4506667 Z M58.608,9.81333333 L55.536,9.81333333 C55.7706667,9.14133333 56.3466667,8.704 57.0933333,8.704 C57.8613333,8.704 58.416,9.09866667 58.608,9.81333333 Z" id="TheVerge" fill="#000000" fill-rule="nonzero"></path>
                    <path d="M8.79545105,27.6363627 L8.79545105,26.7954544 C10.4128737,26.7007575 11.3257517,25.7537887 11.3257517,24.5606081 C11.3257517,23.106064 9.9469651,22.6363675 9.14393556,22.4242465 L8.79545105,22.3295496 L8.79545105,19.6439461 C9.62120784,19.7121278 10.2272679,20.1477335 10.3106011,20.8484904 L11.2196912,20.8484904 C11.1780245,19.7310672 10.193177,18.8825832 8.79545105,18.8068257 L8.79545105,17.9394023 L8.31060303,17.9394023 L8.31060303,18.8144014 C6.96590734,18.9166741 5.94696892,19.7537945 5.94696892,20.9697024 C5.94696892,22.015156 6.70454395,22.6363675 7.91666401,22.984852 L8.31060303,23.0984883 L8.31060303,25.9469704 C7.47727049,25.8901523 6.7727257,25.4772739 6.70454395,24.6666686 L5.73484791,24.6666686 C5.82196904,25.8863644 6.76893783,26.7272727 8.31060303,26.7992423 L8.31060303,27.6363627 L8.79545105,27.6363627 Z M8.31060303,22.2007618 C7.734846,22.045459 6.85605896,21.7348532 6.85605896,20.9242479 C6.85605896,20.2462182 7.42424024,19.7310672 8.31060303,19.647734 L8.31060303,22.2007618 Z M8.79545105,25.9431825 L8.79545105,23.2348518 L8.87120855,23.257579 C9.68938959,23.4848515 10.4166616,23.77273 10.4166616,24.5454566 C10.4166616,25.321971 9.73484409,25.8560614 8.79545105,25.9431825 Z M15.1742393,26.6666667 L15.1742393,18.9090983 L14.3863613,18.9090983 C14.3371189,18.9886437 13.7803013,20.0606124 12.5833327,20.0606124 L12.5833327,20.8484904 C13.4734834,20.8484904 14.1098464,20.4848544 14.2196948,20.2727334 L14.2803008,20.2727334 L14.2803008,26.6666667 L15.1742393,26.6666667 Z M18.0681804,26.7272727 C18.4469679,26.7272727 18.7499979,26.4242427 18.7499979,26.0454551 C18.7499979,25.6818191 18.4469679,25.3787891 18.0681804,25.3787891 C17.7045444,25.3787891 17.3863629,25.6666676 17.3863629,26.0454551 C17.3863629,26.4242427 17.6893929,26.7272727 18.0681804,26.7272727 Z M21.5681799,26.6666667 L25.022722,19.7878853 L25.022722,18.9090983 L20.0530298,18.9090983 L20.0530298,19.7424308 L24.0530298,19.7424308 L24.0530298,19.8030368 L20.5833323,26.6666667 L21.5681799,26.6666667 Z M28.9166635,26.7727272 C30.4659045,26.7727272 31.5454489,25.867425 31.5530247,24.6060626 C31.5454489,23.6250029 30.8901465,22.7916704 30.0530261,22.6363675 L30.0530261,22.590913 C30.7802981,22.4015192 31.2575704,21.6893987 31.2651461,20.8636419 C31.2575704,19.6818248 30.2651471,18.8030378 28.9166635,18.8030378 C27.5530285,18.8030378 26.5606052,19.6818248 26.5681809,20.8636419 C26.5606052,21.6893987 27.0378774,22.4015192 27.780301,22.590913 L27.780301,22.6363675 C26.9280291,22.7916704 26.2727267,23.6250029 26.2803024,24.6060626 C26.2727267,25.867425 27.3522711,26.7727272 28.9166635,26.7727272 Z M28.9166635,22.25758 C28.0681795,22.25758 27.4696952,21.7272774 27.477271,20.9242479 C27.4696952,20.1363699 28.0454522,19.6212188 28.9166635,19.6212188 C29.7727233,19.6212188 30.3484803,20.1363699 30.3560561,20.9242479 C30.3484803,21.7272774 29.7499961,22.25758 28.9166635,22.25758 Z M28.9166635,25.9393946 C27.8522706,25.9393946 27.1969682,25.3939406 27.204544,24.5606095 C27.1969682,23.6856089 27.9204524,23.0606095 28.9166635,23.0606095 C29.8977232,23.0606095 30.6212074,23.6856089 30.6287831,24.5606095 C30.6212074,25.3939406 29.965905,25.9393946 28.9166635,25.9393946 Z" id="$1.78" fill="#000000" fill-rule="nonzero"></path>
                </g>
            </g>
        </g>
    </g>
</svg>