<?xml version="1.0" encoding="UTF-8"?>
<svg width="352px" height="352px" viewBox="0 0 352 352" version="1.1" xmlns="http://www.w3.org/2000/svg" xmlns:xlink="http://www.w3.org/1999/xlink">
    <!-- Generator: Sketch 63.1 (92452) - https://sketch.com -->
    <title>Group 39</title>
    <desc>Created with Sketch.</desc>
    <g id="Page-1" stroke="none" stroke-width="1" fill="none" fill-rule="evenodd">
        <g id="Group-39">
            <circle id="Oval" fill-opacity="0.12" fill="#FFFFFF" cx="176" cy="176" r="176"></circle>
            <circle id="Oval-Copy-3" fill="#FFFFFF" cx="159" cy="123" r="32"></circle>
            <path d="M141.374996,129.727261 L141.374996,128.593739 C143.691755,128.509222 145.048998,127.340899 145.05397,125.546157 C145.048998,123.850846 143.7713,122.950989 142.001416,122.553262 L141.374996,122.404114 L141.374996,119.943179 C142.249995,120.017753 142.776983,120.470167 142.851557,121.20099 L144.914765,121.20099 C144.884936,119.455964 143.502835,118.227982 141.374996,118.138493 L141.374996,117 L140.738633,117 L140.738633,118.148436 C138.705254,118.282669 137.258522,119.47585 137.268466,121.215905 C137.263494,122.717324 138.322442,123.577409 140.042611,123.99005 L140.738633,124.164056 L140.738633,126.77911 C139.799003,126.679678 139.147725,126.172576 139.083095,125.257805 L137,125.257805 C137.049716,127.350842 138.476561,128.484364 140.738633,128.588767 L140.738633,129.727261 L141.374996,129.727261 Z M140.738633,122.245023 C140.017753,122.036217 139.460935,121.703121 139.47585,121.071729 C139.47585,120.495025 139.923293,120.057525 140.738633,119.953122 L140.738633,122.245023 Z M141.374996,126.77911 L141.374996,124.323146 C142.344455,124.581669 142.876415,124.904822 142.881386,125.541185 C142.876415,126.217321 142.294739,126.694593 141.374996,126.77911 Z M150.428263,128.678256 C152.98863,128.678256 154.534793,126.729394 154.539777,123.373573 C154.544736,120.042611 152.978687,118.133522 150.428263,118.133522 C147.872868,118.133522 146.321733,120.037639 146.316714,123.373573 C146.306818,126.719451 147.862925,128.673284 150.428263,128.678256 Z M150.428263,126.893456 C149.25994,126.893456 148.504259,125.720162 148.509206,123.373573 C148.514202,121.061786 149.264912,119.898435 150.428263,119.898435 C151.586643,119.898435 152.342348,121.061786 152.342348,123.373573 C152.347295,125.720162 151.591614,126.893456 150.428263,126.893456 Z M157.328834,128.583796 C157.97514,128.583796 158.526986,128.051836 158.536929,127.390615 C158.526986,126.744309 157.97514,126.217321 157.328834,126.217321 C156.677556,126.217321 156.130682,126.734366 156.135653,127.390615 C156.130682,128.051836 156.672584,128.583796 157.328834,128.583796 Z M164.244314,128.678256 C166.804681,128.678256 168.350844,126.729394 168.355828,123.373573 C168.360787,120.042611 166.794738,118.133522 164.244314,118.133522 C161.688919,118.133522 160.137784,120.037639 160.132765,123.373573 C160.122869,126.719451 161.678976,128.673284 164.244314,128.678256 Z M164.244314,126.893456 C163.075991,126.893456 162.32031,125.720162 162.325257,123.373573 C162.330253,121.061786 163.080963,119.898435 164.244314,119.898435 C165.402694,119.898435 166.158399,121.061786 166.158399,123.373573 C166.163346,125.720162 165.407665,126.893456 164.244314,126.893456 Z M174.068178,128.454535 L174.068178,118.272726 L171.995026,118.272726 C171.970168,118.894174 171.095169,119.953122 169.787642,119.953122 L169.787642,121.663348 C170.91122,121.663348 171.642044,121.245735 171.860793,120.907667 L171.955253,120.907667 L171.955253,128.454535 L174.068178,128.454535 Z M180.67045,128.454535 L180.67045,118.272726 L178.597299,118.272726 C178.572441,118.894174 177.697442,119.953122 176.389915,119.953122 L176.389915,121.663348 C177.513493,121.663348 178.244316,121.245735 178.463066,120.907667 L178.557526,120.907667 L178.557526,128.454535 L180.67045,128.454535 Z" id="$0.011" fill="#000000" fill-rule="nonzero"></path>
            <path d="M133.53,176 L135.366,169.82 L137.19,176 L138.858,176 L141.354,167.24 L139.65,167.24 L138.006,173.348 L136.194,167.24 L134.562,167.24 L132.738,173.336 L131.13,167.24 L129.39,167.24 L131.826,176 L133.53,176 Z M144.21,176 L144.21,167.24 L142.494,167.24 L142.494,176 L144.21,176 Z M149.682,176 L149.682,168.8 L152.094,168.8 L152.094,167.24 L145.578,167.24 L145.578,168.8 L148.014,168.8 L148.014,176 L149.682,176 Z M155.106,176 L155.106,172.424 L158.646,172.424 L158.646,176 L160.338,176 L160.338,167.24 L158.646,167.24 L158.646,170.768 L155.106,170.768 L155.106,167.24 L153.402,167.24 L153.402,176 L155.106,176 Z M165.834,176 L166.41,174.404 L170.07,174.404 L170.646,176 L172.386,176 L169.074,167.24 L167.406,167.24 L164.094,176 L165.834,176 Z M169.506,172.868 L166.974,172.868 L168.246,169.388 L169.506,172.868 Z M176.202,176 C178.818,176 180.738,174.116 180.738,171.62 C180.738,169.136 178.95,167.24 176.166,167.24 L173.334,167.24 L173.334,176 L176.202,176 Z M176.094,174.416 L175.038,174.416 L175.038,168.812 L176.046,168.812 C177.966,168.812 179.022,170.012 179.022,171.62 C179.022,173.192 177.87,174.416 176.094,174.416 Z M185.25,176.12 C187.206,176.12 188.466,174.872 188.466,173.372 C188.466,171.476 186.918,171.044 185.574,170.756 C184.482,170.504 183.606,170.372 183.606,169.664 C183.606,169.088 184.014,168.62 184.962,168.62 C185.97,168.62 186.558,169.04 187.014,169.712 L188.394,168.632 C187.506,167.648 186.534,167.108 184.986,167.108 C183.162,167.108 181.878,168.26 181.878,169.7 C181.878,171.476 183.342,171.896 184.65,172.172 C185.862,172.448 186.702,172.616 186.702,173.432 C186.702,174.068 186.21,174.524 185.262,174.524 C184.218,174.524 183.438,174.056 182.862,173.144 L181.386,174.32 C182.214,175.376 183.366,176.12 185.25,176.12 Z" id="WITHADS" fill="#FFFFFF" fill-rule="nonzero"></path>
            <circle id="Oval-Copy-5" fill="#D64CF1" cx="263" cy="115" r="40"></circle>
            <path d="M243.374996,121.727261 L243.374996,120.593739 C245.691755,120.509222 247.048998,119.340899 247.05397,117.546157 C247.048998,115.850846 245.7713,114.950989 244.001416,114.553262 L243.374996,114.404114 L243.374996,111.943179 C244.249995,112.017753 244.776983,112.470167 244.851557,113.20099 L246.914765,113.20099 C246.884936,111.455964 245.502835,110.227982 243.374996,110.138493 L243.374996,109 L242.738633,109 L242.738633,110.148436 C240.705254,110.282669 239.258522,111.47585 239.268466,113.215905 C239.263494,114.717324 240.322442,115.577409 242.042611,115.99005 L242.738633,116.164056 L242.738633,118.77911 C241.799003,118.679678 241.147725,118.172576 241.083095,117.257805 L239,117.257805 C239.049716,119.350842 240.476561,120.484364 242.738633,120.588767 L242.738633,121.727261 L243.374996,121.727261 Z M242.738633,114.245023 C242.017753,114.036217 241.460935,113.703121 241.47585,113.071729 C241.47585,112.495025 241.923293,112.057525 242.738633,111.953122 L242.738633,114.245023 Z M243.374996,118.77911 L243.374996,116.323146 C244.344455,116.581669 244.876415,116.904822 244.881386,117.541185 C244.876415,118.217321 244.294739,118.694593 243.374996,118.77911 Z M252.428263,120.678256 C254.98863,120.678256 256.534793,118.729394 256.539777,115.373573 C256.544736,112.042611 254.978687,110.133522 252.428263,110.133522 C249.872868,110.133522 248.321733,112.037639 248.316714,115.373573 C248.306818,118.719451 249.862925,120.673284 252.428263,120.678256 Z M252.428263,118.893456 C251.25994,118.893456 250.504259,117.720162 250.509206,115.373573 C250.514202,113.061786 251.264912,111.898435 252.428263,111.898435 C253.586643,111.898435 254.342348,113.061786 254.342348,115.373573 C254.347295,117.720162 253.591614,118.893456 252.428263,118.893456 Z M259.328834,120.583796 C259.97514,120.583796 260.526986,120.051836 260.536929,119.390615 C260.526986,118.744309 259.97514,118.217321 259.328834,118.217321 C258.677556,118.217321 258.130682,118.734366 258.135653,119.390615 C258.130682,120.051836 258.672584,120.583796 259.328834,120.583796 Z M266.244314,120.678256 C268.804681,120.678256 270.350844,118.729394 270.355828,115.373573 C270.360787,112.042611 268.794738,110.133522 266.244314,110.133522 C263.688919,110.133522 262.137784,112.037639 262.132765,115.373573 C262.122869,118.719451 263.678976,120.673284 266.244314,120.678256 Z M266.244314,118.893456 C265.075991,118.893456 264.32031,117.720162 264.325257,115.373573 C264.330253,113.061786 265.080963,111.898435 266.244314,111.898435 C267.402694,111.898435 268.158399,113.061786 268.158399,115.373573 C268.163346,117.720162 267.407665,118.893456 266.244314,118.893456 Z M276.068178,120.454535 L276.068178,110.272726 L273.995026,110.272726 C273.970168,110.894174 273.095169,111.953122 271.787642,111.953122 L271.787642,113.663348 C272.91122,113.663348 273.642044,113.245735 273.860793,112.907667 L273.955253,112.907667 L273.955253,120.454535 L276.068178,120.454535 Z M282.397013,120.593789 C284.664056,120.603682 286.21022,119.117178 286.205262,117.044026 C286.21022,115.134937 284.877835,113.757808 283.073149,113.757808 C281.954542,113.757808 280.965196,114.294739 280.50781,115.194596 L280.438208,115.194596 C280.448151,113.181104 281.144173,111.948151 282.471587,111.948151 C283.252126,111.948151 283.813915,112.370735 283.977977,113.116473 L286.100845,113.116473 C285.89701,111.406248 284.504966,110.103692 282.471587,110.103692 C279.955964,110.103692 278.340199,112.142042 278.330256,115.592323 C278.340199,119.321013 280.303975,120.583796 282.397013,120.593789 Z M282.38707,118.9034 C281.392753,118.9034 280.656958,118.102974 280.656958,117.108657 C280.661929,116.119311 281.412639,115.313914 282.401985,115.313914 C283.396302,115.313914 284.122153,116.094453 284.117207,117.103685 C284.122153,118.122861 283.381387,118.9034 282.38707,118.9034 Z" id="$0.016" fill="#000000" fill-rule="nonzero"></path>
            <path d="M224.916,176 L226.752,169.82 L228.576,176 L230.244,176 L232.74,167.24 L231.036,167.24 L229.392,173.348 L227.58,167.24 L225.948,167.24 L224.124,173.336 L222.516,167.24 L220.776,167.24 L223.212,176 L224.916,176 Z M235.596,176 L235.596,167.24 L233.88,167.24 L233.88,176 L235.596,176 Z M241.068,176 L241.068,168.8 L243.48,168.8 L243.48,167.24 L236.964,167.24 L236.964,168.8 L239.4,168.8 L239.4,176 L241.068,176 Z M246.492,176 L246.492,172.424 L250.032,172.424 L250.032,176 L251.724,176 L251.724,167.24 L250.032,167.24 L250.032,170.768 L246.492,170.768 L246.492,167.24 L244.788,167.24 L244.788,176 L246.492,176 Z M259.26,176.12 C261.216,176.12 262.476,174.872 262.476,173.372 C262.476,171.476 260.928,171.044 259.584,170.756 C258.492,170.504 257.616,170.372 257.616,169.664 C257.616,169.088 258.024,168.62 258.972,168.62 C259.98,168.62 260.568,169.04 261.024,169.712 L262.404,168.632 C261.516,167.648 260.544,167.108 258.996,167.108 C257.172,167.108 255.888,168.26 255.888,169.7 C255.888,171.476 257.352,171.896 258.66,172.172 C259.872,172.448 260.712,172.616 260.712,173.432 C260.712,174.068 260.22,174.524 259.272,174.524 C258.228,174.524 257.448,174.056 256.872,173.144 L255.396,174.32 C256.224,175.376 257.376,176.12 259.26,176.12 Z M267.984,176.12 C269.82,176.12 271.26,175.112 272.004,173.648 L270.456,172.82 C270.024,173.768 269.172,174.44 267.972,174.44 C266.376,174.44 265.212,173.168 265.212,171.62 C265.212,170.036 266.388,168.776 267.996,168.776 C269.088,168.776 269.916,169.34 270.384,170.24 L271.872,169.304 C271.092,167.996 269.664,167.12 267.984,167.12 C265.44,167.12 263.496,169.064 263.496,171.62 C263.496,174.104 265.344,176.12 267.984,176.12 Z M274.812,176 L274.812,173.24 L276.78,173.24 L278.184,176 L280.08,176 L278.352,172.796 C279.324,172.304 279.888,171.308 279.888,170.204 C279.888,168.536 278.688,167.24 276.672,167.24 L273.12,167.24 L273.12,176 L274.812,176 Z M276.54,171.692 L274.812,171.692 L274.812,168.8 L276.54,168.8 C277.62,168.8 278.172,169.352 278.172,170.216 C278.172,170.996 277.656,171.692 276.54,171.692 Z M285.444,176.12 C287.952,176.12 289.944,174.104 289.944,171.62 C289.944,169.136 287.94,167.12 285.444,167.12 C282.96,167.12 280.968,169.136 280.968,171.62 C280.968,174.104 282.96,176.12 285.444,176.12 Z M285.444,174.452 C283.872,174.452 282.672,173.168 282.672,171.62 C282.672,170.06 283.872,168.776 285.444,168.776 C287.028,168.776 288.24,170.06 288.24,171.62 C288.24,173.168 287.04,174.452 285.444,174.452 Z M297,176 L297,174.356 L292.956,174.356 L292.956,167.24 L291.252,167.24 L291.252,176 L297,176 Z M304.032,176 L304.032,174.356 L299.988,174.356 L299.988,167.24 L298.284,167.24 L298.284,176 L304.032,176 Z" id="WITHSCROLL" fill="#FFFFFF" fill-rule="nonzero"></path>
            <circle id="Oval-Copy-4" fill-opacity="0.5" fill="#FFFFFF" cx="74" cy="134" r="21"></circle>
            <path d="M69.3749958,140.727261 L69.3749958,139.593739 C71.691755,139.509222 73.048998,138.340899 73.0539696,136.546157 C73.048998,134.850846 71.7713004,133.950989 70.0014157,133.553262 L69.3749958,133.404114 L69.3749958,130.943179 C70.249995,131.017753 70.7769831,131.470167 70.8515569,132.20099 L72.9147652,132.20099 C72.8849357,130.455964 71.5028347,129.227982 69.3749958,129.138493 L69.3749958,128 L68.7386328,128 L68.7386328,129.148436 C66.7052541,129.282669 65.2585225,130.47585 65.2684657,132.215905 C65.2634941,133.717324 66.3224419,134.577409 68.0426107,134.99005 L68.7386328,135.164056 L68.7386328,137.77911 C67.799003,137.679678 67.1477252,137.172576 67.0830946,136.257805 L65,136.257805 C65.0497159,138.350842 66.4765611,139.484364 68.7386328,139.588767 L68.7386328,140.727261 L69.3749958,140.727261 Z M68.7386328,133.245023 C68.0177528,133.036217 67.4609352,132.703121 67.4758499,132.071729 C67.4758499,131.495025 67.9232927,131.057525 68.7386328,130.953122 L68.7386328,133.245023 Z M69.3749958,137.77911 L69.3749958,135.323146 C70.3444551,135.581669 70.8764149,135.904822 70.8813864,136.541185 C70.8764149,137.217321 70.2947393,137.694593 69.3749958,137.77911 Z M78.428263,139.678256 C80.9886299,139.678256 82.5347932,137.729394 82.5397765,134.373573 C82.5447363,131.042611 80.9786867,129.133522 78.428263,129.133522 C75.8728677,129.133522 74.3217328,131.037639 74.3167139,134.373573 C74.306818,137.719451 75.8629245,139.673284 78.428263,139.678256 Z M78.428263,137.893456 C77.2599402,137.893456 76.5042591,136.720162 76.5092063,134.373573 C76.5142023,132.061786 77.2649118,130.898435 78.428263,130.898435 C79.5866426,130.898435 80.342348,132.061786 80.342348,134.373573 C80.3472952,136.720162 79.5916141,137.893456 78.428263,137.893456 Z" id="$0" fill="#000000" fill-rule="nonzero"></path>
            <path d="M36.3,176 L36.876,174.404 L40.536,174.404 L41.112,176 L42.852,176 L39.54,167.24 L37.872,167.24 L34.56,176 L36.3,176 Z M39.972,172.868 L37.44,172.868 L38.712,169.388 L39.972,172.868 Z M46.668,176 C49.284,176 51.204,174.116 51.204,171.62 C51.204,169.136 49.416,167.24 46.632,167.24 L43.8,167.24 L43.8,176 L46.668,176 Z M46.56,174.416 L45.504,174.416 L45.504,168.812 L46.512,168.812 C48.432,168.812 49.488,170.012 49.488,171.62 C49.488,173.192 48.336,174.416 46.56,174.416 Z M58.98,176 C60.924,176 62.124,175.136 62.124,173.408 C62.124,172.496 61.716,171.836 60.984,171.464 C61.632,171.092 61.992,170.492 61.992,169.688 C61.992,168.116 60.9,167.24 58.956,167.24 L55.332,167.24 L55.332,176 L58.98,176 Z M59.016,170.768 L57,170.768 L57,168.74 L58.992,168.74 C59.88,168.74 60.3,169.112 60.3,169.724 C60.3,170.324 59.916,170.768 59.016,170.768 Z M59.004,174.476 L57,174.476 L57,172.292 L58.932,172.292 C60,172.292 60.408,172.688 60.408,173.372 C60.408,174.056 59.928,174.476 59.004,174.476 Z M69.192,176 L69.192,174.356 L65.148,174.356 L65.148,167.24 L63.444,167.24 L63.444,176 L69.192,176 Z M74.736,176.12 C77.244,176.12 79.236,174.104 79.236,171.62 C79.236,169.136 77.232,167.12 74.736,167.12 C72.252,167.12 70.26,169.136 70.26,171.62 C70.26,174.104 72.252,176.12 74.736,176.12 Z M74.736,174.452 C73.164,174.452 71.964,173.168 71.964,171.62 C71.964,170.06 73.164,168.776 74.736,168.776 C76.32,168.776 77.532,170.06 77.532,171.62 C77.532,173.168 76.332,174.452 74.736,174.452 Z M84.816,176.12 C86.652,176.12 88.092,175.112 88.836,173.648 L87.288,172.82 C86.856,173.768 86.004,174.44 84.804,174.44 C83.208,174.44 82.044,173.168 82.044,171.62 C82.044,170.036 83.22,168.776 84.828,168.776 C85.92,168.776 86.748,169.34 87.216,170.24 L88.704,169.304 C87.924,167.996 86.496,167.12 84.816,167.12 C82.272,167.12 80.328,169.064 80.328,171.62 C80.328,174.104 82.176,176.12 84.816,176.12 Z M91.656,176 L91.656,173.372 L93.048,171.668 L95.184,176 L97.056,176 L94.284,170.504 L96.96,167.24 L94.944,167.24 L91.656,171.308 L91.656,167.24 L89.952,167.24 L89.952,176 L91.656,176 Z M103.884,176 L103.884,174.392 L99.684,174.392 L99.684,172.4 L103.884,172.4 L103.884,170.804 L99.684,170.804 L99.684,168.836 L103.884,168.836 L103.884,167.24 L97.992,167.24 L97.992,176 L103.884,176 Z M107.016,176 L107.016,173.24 L108.984,173.24 L110.388,176 L112.284,176 L110.556,172.796 C111.528,172.304 112.092,171.308 112.092,170.204 C112.092,168.536 110.892,167.24 108.876,167.24 L105.324,167.24 L105.324,176 L107.016,176 Z M108.744,171.692 L107.016,171.692 L107.016,168.8 L108.744,168.8 C109.824,168.8 110.376,169.352 110.376,170.216 C110.376,170.996 109.86,171.692 108.744,171.692 Z" id="ADBLOCKER" fill="#FFFFFF" fill-rule="nonzero"></path>
            <path d="M91.332381,229 L94.2215828,218.568192 L94.3238554,218.568192 L97.2130572,229 L98.8494193,229 L102.428961,215.909103 L100.818167,215.909103 L98.0823746,226.571025 L97.9545338,226.571025 L95.1676046,215.909103 L93.3778336,215.909103 L90.5909045,226.571025 L90.4630637,226.571025 L87.7272708,215.909103 L86.1164769,215.909103 L89.6960189,229 L91.332381,229 Z M108.309654,229.204545 C110.30397,229.204545 111.761355,228.207387 112.221582,226.724434 L110.764197,226.315343 C110.380675,227.33807 109.492181,227.849433 108.309654,227.849433 C106.539059,227.849433 105.318179,226.705258 105.247867,224.602277 L112.374991,224.602277 L112.374991,223.963073 C112.374991,220.306826 110.201697,219.053987 108.156245,219.053987 C105.497157,219.053987 103.732954,221.150576 103.732954,224.167618 C103.732954,227.184661 105.471588,229.204545 108.309654,229.204545 Z M110.840901,223.298301 L105.247867,223.298301 C105.35014,221.770603 106.430394,220.409099 108.156245,220.409099 C109.792607,220.409099 110.840901,221.636371 110.840901,223.298301 Z M123.446018,229.204545 C125.338062,229.204545 125.977265,228.02841 126.309652,227.491479 L126.488629,227.491479 L126.488629,229 L127.946014,229 L127.946014,215.909103 L126.437492,215.909103 L126.437492,220.741485 L126.309652,220.741485 C125.977265,220.230122 125.389198,219.053987 123.471586,219.053987 C120.991475,219.053987 119.278408,221.022735 119.278408,224.116482 C119.278408,227.235797 120.991475,229.204545 123.446018,229.204545 Z M123.650563,227.849433 C121.758519,227.849433 120.78693,226.187503 120.78693,224.090914 C120.78693,222.019893 121.732951,220.409099 123.650563,220.409099 C125.49147,220.409099 126.46306,221.892052 126.46306,224.090914 C126.46306,226.315343 125.465902,227.849433 123.650563,227.849433 Z M131.47443,217.571034 C132.062497,217.571034 132.548292,217.110807 132.548292,216.548307 C132.548292,215.985808 132.062497,215.525581 131.47443,215.525581 C130.886362,215.525581 130.400567,215.985808 130.400567,216.548307 C130.400567,217.110807 130.886362,217.571034 131.47443,217.571034 Z M132.215906,229 L132.215906,219.181828 L130.707385,219.181828 L130.707385,229 L132.215906,229 Z M138.275564,229.204545 C140.557522,229.204545 142.110787,227.958098 142.110787,226.264207 C142.110787,224.896311 141.254254,224.033385 139.502835,223.605119 L138.04545,223.247165 C136.882099,222.959523 136.357952,222.569608 136.357952,221.815348 C136.357952,220.971599 137.252837,220.357963 138.454541,220.357963 C139.771301,220.357963 140.314624,221.086655 140.576698,221.764211 L141.93181,221.380689 C141.458799,219.987225 140.397721,219.053987 138.454541,219.053987 C136.38352,219.053987 134.849431,220.230122 134.849431,221.892052 C134.849431,223.247165 135.654828,224.154834 137.457383,224.576709 L139.093745,224.960231 C140.084511,225.190345 140.55113,225.663355 140.55113,226.340912 C140.55113,227.184661 139.656244,227.875001 138.249996,227.875001 C137.016332,227.875001 136.242895,227.344462 135.97443,226.289775 L134.542613,226.64773 C134.894175,228.316052 136.268463,229.204545 138.275564,229.204545 Z M147.710223,229.127841 C148.272722,229.127841 148.630676,229.025568 148.835222,228.948864 L148.528404,227.593751 C148.400563,227.619319 148.196018,227.670456 147.863632,227.670456 C147.19886,227.670456 146.559656,227.465911 146.559656,226.187503 L146.559656,220.460235 L148.656245,220.460235 L148.656245,219.181828 L146.559656,219.181828 L146.559656,216.829557 L145.051134,216.829557 L145.051134,219.181828 L143.568181,219.181828 L143.568181,220.460235 L145.051134,220.460235 L145.051134,226.596593 C145.051134,228.30966 146.431815,229.127841 147.710223,229.127841 Z M152.542611,229 L152.542611,222.786938 C152.542611,221.463786 153.590905,220.485804 155.022722,220.485804 C155.399852,220.485804 155.681102,220.556116 155.89204,220.664781 L156.403403,219.386373 C156.096585,219.169043 155.693886,219.028419 155.150563,219.028419 C153.961644,219.028419 152.945309,219.693191 152.593747,220.664781 L152.491475,220.664781 L152.491475,219.181828 L151.03409,219.181828 L151.03409,229 L152.542611,229 Z M158.704543,217.571034 C159.292611,217.571034 159.778406,217.110807 159.778406,216.548307 C159.778406,215.985808 159.292611,215.525581 158.704543,215.525581 C158.116476,215.525581 157.630681,215.985808 157.630681,216.548307 C157.630681,217.110807 158.116476,217.571034 158.704543,217.571034 Z M159.44602,229 L159.44602,219.181828 L157.937499,219.181828 L157.937499,229 L159.44602,229 Z M166.707385,229.204545 C169.161924,229.204545 170.87499,227.235797 170.87499,224.116482 C170.87499,221.022735 169.161924,219.053987 166.681813,219.053987 C164.764201,219.053987 164.176133,220.230122 163.843747,220.741485 L163.715906,220.741485 L163.715906,215.909103 L162.207385,215.909103 L162.207385,229 L163.66477,229 L163.66477,227.491479 L163.843747,227.491479 C164.176133,228.02841 164.815337,229.204545 166.707385,229.204545 Z M166.502835,227.849433 C164.687496,227.849433 163.690338,226.315343 163.690338,224.090914 C163.690338,221.892052 164.661928,220.409099 166.502835,220.409099 C168.420447,220.409099 169.366469,222.019893 169.366469,224.090914 C169.366469,226.187503 168.394879,227.849433 166.502835,227.849433 Z M176.346587,229.127841 C177.82954,229.127841 178.80113,228.335228 179.261357,227.33807 L179.363629,227.33807 L179.363629,229 L180.87215,229 L180.87215,219.181828 L179.363629,219.181828 L179.363629,224.985799 C179.363629,226.826707 177.95738,227.670456 176.832382,227.670456 C175.579542,227.670456 174.684656,226.750002 174.684656,225.318185 L174.684656,219.181828 L173.176135,219.181828 L173.176135,225.420458 C173.176135,227.926137 174.505679,229.127841 176.346587,229.127841 Z M186.957382,229.127841 C187.519881,229.127841 187.877836,229.025568 188.082381,228.948864 L187.775563,227.593751 C187.647722,227.619319 187.443177,227.670456 187.110791,227.670456 C186.446019,227.670456 185.806815,227.465911 185.806815,226.187503 L185.806815,220.460235 L187.903404,220.460235 L187.903404,219.181828 L185.806815,219.181828 L185.806815,216.829557 L184.298294,216.829557 L184.298294,219.181828 L182.81534,219.181828 L182.81534,220.460235 L184.298294,220.460235 L184.298294,226.596593 C184.298294,228.30966 185.678974,229.127841 186.957382,229.127841 Z M194.397722,229.204545 C196.392038,229.204545 197.849423,228.207387 198.30965,226.724434 L196.852265,226.315343 C196.468743,227.33807 195.580249,227.849433 194.397722,227.849433 C192.627127,227.849433 191.406248,226.705258 191.335935,224.602277 L198.463059,224.602277 L198.463059,223.963073 C198.463059,220.306826 196.289766,219.053987 194.244313,219.053987 C191.585225,219.053987 189.821022,221.150576 189.821022,224.167618 C189.821022,227.184661 191.559657,229.204545 194.397722,229.204545 Z M196.92897,223.298301 L191.335935,223.298301 C191.438208,221.770603 192.518462,220.409099 194.244313,220.409099 C195.880675,220.409099 196.92897,221.636371 196.92897,223.298301 Z M208.715905,229.230113 C210.428972,229.230113 211.323857,228.30966 211.630675,227.670456 L211.707379,227.670456 L211.707379,229 L213.215901,229 L213.215901,222.531256 C213.215901,219.411941 210.838062,219.053987 209.585222,219.053987 C208.102269,219.053987 206.414771,219.56535 205.647726,221.355121 L207.079543,221.866484 C207.411929,221.150576 208.19815,220.383531 209.636359,220.383531 C211.036215,220.383531 211.707379,221.1314 211.707379,222.403415 C211.707379,223.132108 210.965903,223.093756 209.176132,223.323869 C207.354401,223.560375 205.366476,223.963073 205.366476,226.213071 C205.366476,228.130683 206.84943,229.230113 208.715905,229.230113 Z M208.946018,227.875001 C207.744315,227.875001 206.874998,227.33807 206.874998,226.289775 C206.874998,225.139208 207.923292,224.781254 209.099427,224.627845 C209.738631,224.551141 211.451698,224.372164 211.707379,224.065346 L211.707379,225.446026 C211.707379,226.673298 210.735789,227.875001 208.946018,227.875001 Z M219.301132,229.127841 C219.863631,229.127841 220.221586,229.025568 220.426131,228.948864 L220.119313,227.593751 C219.991472,227.619319 219.786927,227.670456 219.454541,227.670456 C218.789769,227.670456 218.150565,227.465911 218.150565,226.187503 L218.150565,220.460235 L220.247154,220.460235 L220.247154,219.181828 L218.150565,219.181828 L218.150565,216.829557 L216.642044,216.829557 L216.642044,219.181828 L215.15909,219.181828 L215.15909,220.460235 L216.642044,220.460235 L216.642044,226.596593 C216.642044,228.30966 218.022724,229.127841 219.301132,229.127841 Z M229.19602,229 L229.19602,215.909103 L227.687499,215.909103 L227.687499,229 L229.19602,229 Z M236.073858,229.204545 C238.068175,229.204545 239.52556,228.207387 239.985786,226.724434 L238.528402,226.315343 C238.144879,227.33807 237.256386,227.849433 236.073858,227.849433 C234.303263,227.849433 233.082384,226.705258 233.012072,224.602277 L240.139195,224.602277 L240.139195,223.963073 C240.139195,220.306826 237.965902,219.053987 235.920449,219.053987 C233.261361,219.053987 231.497158,221.150576 231.497158,224.167618 C231.497158,227.184661 233.235793,229.204545 236.073858,229.204545 Z M238.605106,223.298301 L233.012072,223.298301 C233.114344,221.770603 234.194599,220.409099 235.920449,220.409099 C237.556812,220.409099 238.605106,221.636371 238.605106,223.298301 Z M245.329541,229.230113 C247.042608,229.230113 247.937493,228.30966 248.244311,227.670456 L248.321016,227.670456 L248.321016,229 L249.829537,229 L249.829537,222.531256 C249.829537,219.411941 247.451698,219.053987 246.198859,219.053987 C244.715906,219.053987 243.028407,219.56535 242.261362,221.355121 L243.693179,221.866484 C244.025565,221.150576 244.811786,220.383531 246.249995,220.383531 C247.649852,220.383531 248.321016,221.1314 248.321016,222.403415 C248.321016,223.132108 247.579539,223.093756 245.789768,223.323869 C243.968037,223.560375 241.980113,223.963073 241.980113,226.213071 C241.980113,228.130683 243.463066,229.230113 245.329541,229.230113 Z M245.559655,227.875001 C244.357951,227.875001 243.488634,227.33807 243.488634,226.289775 C243.488634,225.139208 244.536929,224.781254 245.713064,224.627845 C246.352268,224.551141 248.065334,224.372164 248.321016,224.065346 L248.321016,225.446026 C248.321016,226.673298 247.349426,227.875001 245.559655,227.875001 Z M255.8892,229.204545 C258.171158,229.204545 259.724424,227.958098 259.724424,226.264207 C259.724424,224.896311 258.86789,224.033385 257.116472,223.605119 L255.659087,223.247165 C254.495736,222.959523 253.971588,222.569608 253.971588,221.815348 C253.971588,220.971599 254.866474,220.357963 256.068177,220.357963 C257.384937,220.357963 257.928261,221.086655 258.190334,221.764211 L259.545447,221.380689 C259.072436,219.987225 258.011357,219.053987 256.068177,219.053987 C253.997156,219.053987 252.463067,220.230122 252.463067,221.892052 C252.463067,223.247165 253.268464,224.154834 255.071019,224.576709 L256.707381,224.960231 C257.698147,225.190345 258.164766,225.663355 258.164766,226.340912 C258.164766,227.184661 257.269881,227.875001 255.863632,227.875001 C254.629968,227.875001 253.856532,227.344462 253.588066,226.289775 L252.156249,226.64773 C252.507811,228.316052 253.8821,229.204545 255.8892,229.204545 Z M265.323859,229.127841 C265.886359,229.127841 266.244313,229.025568 266.448858,228.948864 L266.14204,227.593751 C266.014199,227.619319 265.809654,227.670456 265.477268,227.670456 C264.812496,227.670456 264.173292,227.465911 264.173292,226.187503 L264.173292,220.460235 L266.269881,220.460235 L266.269881,219.181828 L264.173292,219.181828 L264.173292,216.829557 L262.664771,216.829557 L262.664771,219.181828 L261.181818,219.181828 L261.181818,220.460235 L262.664771,220.460235 L262.664771,226.596593 C262.664771,228.30966 264.045451,229.127841 265.323859,229.127841 Z M98.7407577,263 L98.7407577,260.698866 L100.364336,260.698866 L100.364336,258.480828 L98.7407577,258.480828 L98.7407577,249.909103 L95.2762724,249.909103 L89.8110787,258.51918 L89.8110787,260.698866 L96.0944534,260.698866 L96.0944534,263 L98.7407577,263 Z M96.1455897,258.480828 L92.5980079,258.480828 L92.5980079,258.378556 L96.0433171,252.926146 L96.1455897,252.926146 L96.1455897,258.480828 Z M107.344454,263.287642 C110.636355,263.287642 112.624279,260.781962 112.630686,256.467336 C112.637063,252.184669 110.623571,249.730126 107.344454,249.730126 C104.058946,249.730126 102.06463,252.178277 102.058177,256.467336 C102.045454,260.769178 104.046162,263.28125 107.344454,263.287642 Z M107.344454,260.9929 C105.842325,260.9929 104.870735,259.484378 104.877096,256.467336 C104.883519,253.495037 105.848717,251.9993 107.344454,251.9993 C108.833799,251.9993 109.805421,253.495037 109.805421,256.467336 C109.811782,259.484378 108.840192,260.9929 107.344454,260.9929 Z M117.923291,255.949581 C119.783375,255.949581 120.818885,254.639213 120.812523,253.053987 L120.812523,252.363647 C120.818885,250.778421 119.808943,249.455269 117.923291,249.455269 C116.095168,249.455269 115.053266,250.778421 115.046874,252.363647 L115.046874,253.053987 C115.053266,254.626428 116.056816,255.949581 117.923291,255.949581 Z M117.341616,263 L126.341607,249.909103 L124.673293,249.909103 L115.673293,263 L117.341616,263 Z M117.923291,254.313219 C117.169031,254.313219 116.926133,253.680407 116.919741,253.053987 L116.919741,252.363647 C116.926133,251.756403 117.162639,251.091631 117.923291,251.091631 C118.728688,251.091631 118.946018,251.737227 118.939626,252.363647 L118.939626,253.053987 C118.946018,253.680407 118.70312,254.313219 117.923291,254.313219 Z M124.647717,263.453835 C126.501408,263.453835 127.536918,262.117899 127.530557,260.545457 L127.530557,259.855117 C127.536918,258.269891 126.526976,256.946739 124.647717,256.946739 C122.800417,256.946739 121.771299,258.282675 121.764907,259.855117 L121.764907,260.545457 C121.771299,262.117899 122.774849,263.453835 124.647717,263.453835 Z M124.647717,261.804689 C123.867888,261.804689 123.631382,261.152701 123.62499,260.545457 L123.62499,259.855117 C123.631382,259.228697 123.880672,258.583101 124.647717,258.583101 C125.453114,258.583101 125.664051,259.228697 125.657659,259.855117 L125.657659,260.545457 C125.664051,261.171877 125.427545,261.804689 124.647717,261.804689 Z M136.990763,263 L136.990763,257.10654 C136.990763,256.019893 137.681104,255.297593 138.588773,255.297593 C139.483659,255.297593 140.08451,255.911228 140.08451,256.876426 L140.08451,263 L142.724423,263 L142.724423,257.004267 C142.724423,255.987933 143.306098,255.297593 144.296864,255.297593 C145.166182,255.297593 145.81817,255.840916 145.81817,256.933955 L145.81817,263 L148.534786,263 L148.534786,256.397023 C148.534786,254.268474 147.269163,253.053987 145.441039,253.053987 C144.002831,253.053987 142.884224,253.789071 142.481525,254.91407 L142.379253,254.91407 C142.066043,253.776287 141.062492,253.053987 139.713772,253.053987 C138.39062,253.053987 137.38707,253.757111 136.977979,254.91407 L136.862923,254.91407 L136.862923,253.181828 L134.267755,253.181828 L134.267755,263 L136.990763,263 Z M155.118603,263.191761 C158.097293,263.191761 159.950984,261.152701 159.950984,258.129266 C159.950984,255.086655 158.097293,253.053987 155.118603,253.053987 C152.139912,253.053987 150.286221,255.086655 150.286221,258.129266 C150.286221,261.152701 152.139912,263.191761 155.118603,263.191761 Z M155.131387,261.082388 C153.757098,261.082388 153.053974,259.823156 153.053974,258.11009 C153.053974,256.397023 153.757098,255.1314 155.131387,255.1314 C156.480107,255.1314 157.183231,256.397023 157.183231,258.11009 C157.183231,259.823156 156.480107,261.082388 155.131387,261.082388 Z M164.450991,263 L164.450991,257.445318 C164.457383,256.243614 165.3267,255.419041 166.426131,255.419041 C166.796869,255.419041 167.097295,255.521314 167.352977,255.649155 L168.171158,253.399157 C167.813203,253.181828 167.352977,253.041203 166.828829,253.041203 C165.723007,253.041203 164.828121,253.680407 164.470167,254.894894 L164.367894,254.894894 L164.367894,253.181828 L161.727982,253.181828 L161.727982,263 L164.450991,263 Z M173.917608,263.191761 C176.346583,263.191761 177.982945,262.009234 178.366468,260.187503 L175.848004,260.02131 C175.573147,260.769178 174.870022,261.159093 173.962353,261.159093 C172.600848,261.159093 171.737923,260.257815 171.737923,258.794038 L171.737923,258.787646 L178.423996,258.787646 L178.423996,258.039777 C178.423996,254.703133 176.404112,253.053987 173.808944,253.053987 C170.919742,253.053987 169.046874,255.105831 169.046874,258.135658 C169.046874,261.248581 170.894174,263.191761 173.917608,263.191761 Z M175.860788,257.100148 L171.737923,257.100148 C171.795451,255.981541 172.645593,255.086655 173.853688,255.086655 C175.036215,255.086655 175.854396,255.930404 175.860788,257.100148 Z M187.066048,263 L187.066048,256.863642 C187.066048,255.425433 188.114343,254.409099 189.290478,254.409099 C190.434653,254.409099 191.233658,255.156968 191.233658,256.275575 L191.233658,263 L192.767747,263 L192.767747,256.607961 C192.767747,255.342337 193.56036,254.409099 194.941041,254.409099 C196.014903,254.409099 196.935357,254.977991 196.935357,256.428984 L196.935357,263 L198.443878,263 L198.443878,256.428984 C198.443878,254.121457 197.203823,253.053987 195.452404,253.053987 C194.046155,253.053987 193.017037,253.699583 192.512066,254.715917 L192.409793,254.715917 C191.923998,253.667623 191.067465,253.053987 189.776273,253.053987 C188.497865,253.053987 187.551843,253.667623 187.142753,254.715917 L187.014912,254.715917 L187.014912,253.181828 L185.557527,253.181828 L185.557527,263 L187.066048,263 Z M205.193887,263.204545 C207.852975,263.204545 209.642746,261.184661 209.642746,258.14205 C209.642746,255.073871 207.852975,253.053987 205.193887,253.053987 C202.534799,253.053987 200.745028,255.073871 200.745028,258.14205 C200.745028,261.184661 202.534799,263.204545 205.193887,263.204545 Z M205.193887,261.849433 C203.174002,261.849433 202.253549,260.110798 202.253549,258.14205 C202.253549,256.173302 203.174002,254.409099 205.193887,254.409099 C207.213771,254.409099 208.134225,256.173302 208.134225,258.14205 C208.134225,260.110798 207.213771,261.849433 205.193887,261.849433 Z M213.452412,263 L213.452412,257.093756 C213.452412,255.380689 214.513491,254.409099 215.958091,254.409099 C217.357948,254.409099 218.208089,255.323161 218.208089,256.863642 L218.208089,263 L219.716611,263 L219.716611,256.76137 C219.716611,254.25569 218.380674,253.053987 216.39275,253.053987 C214.909797,253.053987 213.989343,253.718759 213.529116,254.715917 L213.401276,254.715917 L213.401276,253.181828 L211.943891,253.181828 L211.943891,263 L213.452412,263 Z M226.594455,263.204545 C228.588771,263.204545 230.046156,262.207387 230.506383,260.724434 L229.048998,260.315343 C228.665476,261.33807 227.776982,261.849433 226.594455,261.849433 C224.82386,261.849433 223.602981,260.705258 223.532668,258.602277 L230.659792,258.602277 L230.659792,257.963073 C230.659792,254.306826 228.486499,253.053987 226.441046,253.053987 C223.781958,253.053987 222.017755,255.150576 222.017755,258.167618 C222.017755,261.184661 223.75639,263.204545 226.594455,263.204545 Z M229.125703,257.298301 L223.532668,257.298301 C223.634941,255.770603 224.715195,254.409099 226.441046,254.409099 C228.077408,254.409099 229.125703,255.636371 229.125703,257.298301 Z M233.88139,266.809655 C235.26207,266.809655 236.208092,266.093747 236.770592,264.585226 L240.989338,253.181828 L239.352976,253.181828 L236.642751,261.005684 L236.540478,261.005684 L233.830254,253.181828 L232.193891,253.181828 L235.850138,263.076704 L235.492184,263.97159 C234.929684,265.428975 234.264912,265.582384 233.165481,265.301134 L232.781959,266.630678 C232.935368,266.707383 233.370027,266.809655 233.88139,266.809655 Z M251.370024,263.127841 C251.932523,263.127841 252.290478,263.025568 252.495023,262.948864 L252.188205,261.593751 C252.060364,261.619319 251.855819,261.670456 251.523433,261.670456 C250.858661,261.670456 250.219457,261.465911 250.219457,260.187503 L250.219457,254.460235 L252.316046,254.460235 L252.316046,253.181828 L250.219457,253.181828 L250.219457,250.829557 L248.710936,250.829557 L248.710936,253.181828 L247.227982,253.181828 L247.227982,254.460235 L248.710936,254.460235 L248.710936,260.596593 C248.710936,262.30966 250.091616,263.127841 251.370024,263.127841 Z M258.682523,263.204545 C261.341612,263.204545 263.131383,261.184661 263.131383,258.14205 C263.131383,255.073871 261.341612,253.053987 258.682523,253.053987 C256.023435,253.053987 254.233664,255.073871 254.233664,258.14205 C254.233664,261.184661 256.023435,263.204545 258.682523,263.204545 Z M258.682523,261.849433 C256.662639,261.849433 255.742185,260.110798 255.742185,258.14205 C255.742185,256.173302 256.662639,254.409099 258.682523,254.409099 C260.702408,254.409099 261.622861,256.173302 261.622861,258.14205 C261.622861,260.110798 260.702408,261.849433 258.682523,261.849433 Z M108.373575,297.204545 C110.655533,297.204545 112.208799,295.958098 112.208799,294.264207 C112.208799,292.896311 111.352265,292.033385 109.600847,291.605119 L108.143462,291.247165 C106.980111,290.959523 106.455963,290.569608 106.455963,289.815348 C106.455963,288.971599 107.350849,288.357963 108.552552,288.357963 C109.869312,288.357963 110.412636,289.086655 110.674709,289.764211 L112.029822,289.380689 C111.556811,287.987225 110.495732,287.053987 108.552552,287.053987 C106.481531,287.053987 104.947442,288.230122 104.947442,289.892052 C104.947442,291.247165 105.752839,292.154834 107.555394,292.576709 L109.191756,292.960231 C110.182522,293.190345 110.649141,293.663355 110.649141,294.340912 C110.649141,295.184661 109.754256,295.875001 108.348007,295.875001 C107.114343,295.875001 106.340907,295.344462 106.072441,294.289775 L104.640624,294.64773 C104.992186,296.316052 106.366475,297.204545 108.373575,297.204545 Z M115.251418,285.571034 C115.839486,285.571034 116.325281,285.110807 116.325281,284.548307 C116.325281,283.985808 115.839486,283.525581 115.251418,283.525581 C114.663351,283.525581 114.177556,283.985808 114.177556,284.548307 C114.177556,285.110807 114.663351,285.571034 115.251418,285.571034 Z M115.992895,297 L115.992895,287.181828 L114.484374,287.181828 L114.484374,297 L115.992895,297 Z M122.078121,297.127841 C122.64062,297.127841 122.998574,297.025568 123.203119,296.948864 L122.896302,295.593751 C122.768461,295.619319 122.563916,295.670456 122.231529,295.670456 C121.566757,295.670456 120.927553,295.465911 120.927553,294.187503 L120.927553,288.460235 L123.024142,288.460235 L123.024142,287.181828 L120.927553,287.181828 L120.927553,284.829557 L119.419032,284.829557 L119.419032,287.181828 L117.936079,287.181828 L117.936079,288.460235 L119.419032,288.460235 L119.419032,294.596593 C119.419032,296.30966 120.799713,297.127841 122.078121,297.127841 Z M129.518461,297.204545 C131.512777,297.204545 132.970162,296.207387 133.430389,294.724434 L131.973004,294.315343 C131.589481,295.33807 130.700988,295.849433 129.518461,295.849433 C127.747866,295.849433 126.526986,294.705258 126.456674,292.602277 L133.583798,292.602277 L133.583798,291.963073 C133.583798,288.306826 131.410504,287.053987 129.365052,287.053987 C126.705963,287.053987 124.94176,289.150576 124.94176,292.167618 C124.94176,295.184661 126.680395,297.204545 129.518461,297.204545 Z M132.049708,291.298301 L126.456674,291.298301 C126.558946,289.770603 127.639201,288.409099 129.365052,288.409099 C131.001414,288.409099 132.049708,289.636371 132.049708,291.298301 Z M139.183234,297.204545 C141.465192,297.204545 143.018458,295.958098 143.018458,294.264207 C143.018458,292.896311 142.161925,292.033385 140.410506,291.605119 L138.953121,291.247165 C137.78977,290.959523 137.265622,290.569608 137.265622,289.815348 C137.265622,288.971599 138.160508,288.357963 139.362211,288.357963 C140.678971,288.357963 141.222295,289.086655 141.484368,289.764211 L142.839481,289.380689 C142.36647,287.987225 141.305391,287.053987 139.362211,287.053987 C137.291191,287.053987 135.757101,288.230122 135.757101,289.892052 C135.757101,291.247165 136.562498,292.154834 138.365053,292.576709 L140.001415,292.960231 C140.992181,293.190345 141.4588,293.663355 141.4588,294.340912 C141.4588,295.184661 140.563915,295.875001 139.157666,295.875001 C137.924002,295.875001 137.150566,295.344462 136.8821,294.289775 L135.450283,294.64773 C135.801845,296.316052 137.176134,297.204545 139.183234,297.204545 Z M153.680393,297.127841 C154.242893,297.127841 154.600847,297.025568 154.805392,296.948864 L154.498574,295.593751 C154.370733,295.619319 154.166188,295.670456 153.833802,295.670456 C153.16903,295.670456 152.529826,295.465911 152.529826,294.187503 L152.529826,288.460235 L154.626415,288.460235 L154.626415,287.181828 L152.529826,287.181828 L152.529826,284.829557 L151.021305,284.829557 L151.021305,287.181828 L149.538352,287.181828 L149.538352,288.460235 L151.021305,288.460235 L151.021305,294.596593 C151.021305,296.30966 152.401985,297.127841 153.680393,297.127841 Z M158.512781,297 L158.512781,291.093756 C158.512781,289.380689 159.60582,288.409103 161.095165,288.409103 C162.514198,288.409103 163.370731,289.303985 163.370731,290.863642 L163.370731,297 L164.879253,297 L164.879253,290.76137 C164.879253,288.236514 163.536924,287.053987 161.529824,287.053987 C159.98295,287.053987 159.100849,287.699583 158.640622,288.715917 L158.512781,288.715917 L158.512781,283.909103 L157.00426,283.909103 L157.00426,297 L158.512781,297 Z M170.529825,297.230113 C172.242892,297.230113 173.137778,296.30966 173.444595,295.670456 L173.5213,295.670456 L173.5213,297 L175.029821,297 L175.029821,290.531256 C175.029821,287.411941 172.651983,287.053987 171.399143,287.053987 C169.91619,287.053987 168.228691,287.56535 167.461647,289.355121 L168.893463,289.866484 C169.225849,289.150576 170.01207,288.383531 171.450279,288.383531 C172.850136,288.383531 173.5213,289.1314 173.5213,290.403415 C173.5213,291.132108 172.779823,291.093756 170.990052,291.323869 C169.168321,291.560375 167.180397,291.963073 167.180397,294.213071 C167.180397,296.130683 168.66335,297.230113 170.529825,297.230113 Z M170.759939,295.875001 C169.558235,295.875001 168.688918,295.33807 168.688918,294.289775 C168.688918,293.139208 169.737213,292.781254 170.913348,292.627845 C171.552552,292.551141 173.265618,292.372164 173.5213,292.065346 L173.5213,293.446026 C173.5213,294.673298 172.54971,295.875001 170.759939,295.875001 Z M179.299713,297 L179.299713,291.093756 C179.299713,289.380689 180.360792,288.409099 181.805393,288.409099 C183.205249,288.409099 184.05539,289.323161 184.05539,290.863642 L184.05539,297 L185.563912,297 L185.563912,290.76137 C185.563912,288.25569 184.227975,287.053987 182.240051,287.053987 C180.757098,287.053987 179.836644,287.718759 179.376418,288.715917 L179.248577,288.715917 L179.248577,287.181828 L177.791192,287.181828 L177.791192,297 L179.299713,297 Z M196.276985,297.230113 C197.990051,297.230113 198.884937,296.30966 199.191755,295.670456 L199.268459,295.670456 L199.268459,297 L200.77698,297 L200.77698,290.531256 C200.77698,287.411941 198.399142,287.053987 197.146302,287.053987 C195.663349,287.053987 193.97585,287.56535 193.208806,289.355121 L194.640622,289.866484 C194.973009,289.150576 195.759229,288.383531 197.197438,288.383531 C198.597295,288.383531 199.268459,289.1314 199.268459,290.403415 C199.268459,291.132108 198.526982,291.093756 196.737211,291.323869 C194.91548,291.560375 192.927556,291.963073 192.927556,294.213071 C192.927556,296.130683 194.410509,297.230113 196.276985,297.230113 Z M196.507098,295.875001 C195.305395,295.875001 194.436077,295.33807 194.436077,294.289775 C194.436077,293.139208 195.484372,292.781254 196.660507,292.627845 C197.299711,292.551141 199.012777,292.372164 199.268459,292.065346 L199.268459,293.446026 C199.268459,294.673298 198.296869,295.875001 196.507098,295.875001 Z M207.245734,297.204545 C209.137777,297.204545 209.776981,296.02841 210.109367,295.491479 L210.288345,295.491479 L210.288345,297 L211.745729,297 L211.745729,283.909103 L210.237208,283.909103 L210.237208,288.741485 L210.109367,288.741485 C209.776981,288.230122 209.188914,287.053987 207.271302,287.053987 C204.791191,287.053987 203.078124,289.022735 203.078124,292.116482 C203.078124,295.235797 204.791191,297.204545 207.245734,297.204545 Z M207.450279,295.849433 C205.558235,295.849433 204.586645,294.187503 204.586645,292.090914 C204.586645,290.019893 205.532667,288.409099 207.450279,288.409099 C209.291186,288.409099 210.262776,289.892052 210.262776,292.090914 C210.262776,294.315343 209.265618,295.849433 207.450279,295.849433 Z M217.805393,297.204545 C220.087351,297.204545 221.640617,295.958098 221.640617,294.264207 C221.640617,292.896311 220.784084,292.033385 219.032665,291.605119 L217.57528,291.247165 C216.411929,290.959523 215.887781,290.569608 215.887781,289.815348 C215.887781,288.971599 216.782667,288.357963 217.98437,288.357963 C219.30113,288.357963 219.844454,289.086655 220.106527,289.764211 L221.46164,289.380689 C220.988629,287.987225 219.92755,287.053987 217.98437,287.053987 C215.91335,287.053987 214.37926,288.230122 214.37926,289.892052 C214.37926,291.247165 215.184657,292.154834 216.987212,292.576709 L218.623574,292.960231 C219.61434,293.190345 220.080959,293.663355 220.080959,294.340912 C220.080959,295.184661 219.186074,295.875001 217.779825,295.875001 C216.546162,295.875001 215.772725,295.344462 215.504259,294.289775 L214.072442,294.64773 C214.424004,296.316052 215.798293,297.204545 217.805393,297.204545 Z M232.686075,297.204545 C234.578118,297.204545 235.217322,296.02841 235.549708,295.491479 L235.728685,295.491479 L235.728685,297 L237.18607,297 L237.18607,283.909103 L235.677549,283.909103 L235.677549,288.741485 L235.549708,288.741485 C235.217322,288.230122 234.629255,287.053987 232.711643,287.053987 C230.231532,287.053987 228.518465,289.022735 228.518465,292.116482 C228.518465,295.235797 230.231532,297.204545 232.686075,297.204545 Z M232.89062,295.849433 C230.998576,295.849433 230.026986,294.187503 230.026986,292.090914 C230.026986,290.019893 230.973008,288.409099 232.89062,288.409099 C234.731527,288.409099 235.703117,289.892052 235.703117,292.090914 C235.703117,294.315343 234.705959,295.849433 232.89062,295.849433 Z M243.936074,297.204545 C246.595163,297.204545 248.384934,295.184661 248.384934,292.14205 C248.384934,289.073871 246.595163,287.053987 243.936074,287.053987 C241.276986,287.053987 239.487215,289.073871 239.487215,292.14205 C239.487215,295.184661 241.276986,297.204545 243.936074,297.204545 Z M243.936074,295.849433 C241.91619,295.849433 240.995736,294.110798 240.995736,292.14205 C240.995736,290.173302 241.91619,288.409099 243.936074,288.409099 C245.955959,288.409099 246.876413,290.173302 246.876413,292.14205 C246.876413,294.110798 245.955959,295.849433 243.936074,295.849433 Z" id="Wedistributeatleast40%moremoneytositesthanadsdo" fill-opacity="0.8" fill="#FFFFFF" fill-rule="nonzero"></path>
        </g>
    </g>
</svg>