<?xml version="1.0" encoding="UTF-8"?>
<svg width="288px" height="288px" viewBox="0 0 288 288" version="1.1" xmlns="http://www.w3.org/2000/svg" xmlns:xlink="http://www.w3.org/1999/xlink">
    <!-- Generator: Sketch 63.1 (92452) - https://sketch.com -->
    <title>Group 10</title>
    <desc>Created with Sketch.</desc>
    <g id="Page-1" stroke="none" stroke-width="1" fill="none" fill-rule="evenodd">
        <g id="Mobile" transform="translate(-16.000000, -3456.000000)">
            <g id="Group-10" transform="translate(16.000000, 3456.000000)">
                <circle id="Oval" fill-opacity="0.12" fill="#FFFFFF" cx="144" cy="144" r="144"></circle>
                <g id="Group-7" transform="translate(17.000000, 58.000000)">
                    <g id="Group-18" transform="translate(83.000000, 14.000000)">
                        <circle id="Oval-Copy-3" fill="#FFFFFF" cx="29" cy="29" r="29"></circle>
                        <path d="M13.02734,35.0965799 L13.02734,34.0693259 C15.126903,33.9927324 16.3569044,32.9339399 16.3614099,31.3074544 C16.3569044,29.771079 15.198991,28.9555835 13.595033,28.5951435 L13.02734,28.4599785 L13.02734,26.229756 C13.820308,26.2973385 14.297891,26.707339 14.3654735,27.3696475 L16.2352559,27.3696475 C16.2082229,25.788217 14.955694,24.6753585 13.02734,24.5942595 L13.02734,23.5625 L12.450636,23.5625 L12.450636,24.6032705 C10.6078865,24.724919 9.296786,25.806239 9.305797,27.383164 C9.3012915,28.743825 10.260963,29.5232765 11.819866,29.897233 L12.450636,30.0549254 L12.450636,32.4248184 C11.5990965,32.3347084 11.008876,31.8751474 10.9503045,31.0461354 L9.0625,31.0461354 C9.107555,32.9429509 10.4006335,33.9702049 12.450636,34.0648204 L12.450636,35.0965799 L13.02734,35.0965799 Z M12.450636,28.3158025 C11.7973385,28.1265715 11.2927225,27.824703 11.306239,27.2525045 C11.306239,26.7298665 11.711734,26.3333825 12.450636,26.238767 L12.450636,28.3158025 Z M13.02734,32.4248184 L13.02734,30.1991014 C13.9059125,30.4333874 14.388001,30.7262449 14.3925065,31.3029489 C14.388001,31.9156969 13.8608575,32.3482249 13.02734,32.4248184 Z M21.2318633,34.1459194 C23.5521958,34.1459194 24.9534063,32.3797634 24.9579225,29.338551 C24.9624173,26.319866 23.5431848,24.589754 21.2318633,24.589754 C18.9160363,24.589754 17.5103204,26.3153605 17.5057719,29.338551 C17.4968039,32.3707524 18.9070253,34.1414139 21.2318633,34.1459194 Z M21.2318633,32.5284449 C20.1730708,32.5284449 19.4882348,31.4651469 19.4927182,29.338551 C19.4972458,27.2434935 20.1775763,26.1892065 21.2318633,26.1892065 C22.2816448,26.1892065 22.9665029,27.2434935 22.9665029,29.338551 C22.9709863,31.4651469 22.2861503,32.5284449 21.2318633,32.5284449 Z M27.4855056,34.0603149 C28.0712206,34.0603149 28.5713311,33.5782264 28.5803421,32.9789949 C28.5713311,32.3932799 28.0712206,31.9156969 27.4855056,31.9156969 C26.8952851,31.9156969 26.3996801,32.3842689 26.4041856,32.9789949 C26.3996801,33.5782264 26.8907796,34.0603149 27.4855056,34.0603149 Z M33.7526597,34.1459194 C36.0729922,34.1459194 37.4742026,32.3797634 37.4787188,29.338551 C37.4832136,26.319866 36.0639812,24.589754 33.7526597,24.589754 C31.4368327,24.589754 30.0311167,26.3153605 30.0265683,29.338551 C30.0176002,32.3707524 31.4278217,34.1414139 33.7526597,34.1459194 Z M33.7526597,32.5284449 C32.6938672,32.5284449 32.0090312,31.4651469 32.0135146,29.338551 C32.0180422,27.2434935 32.6983727,26.1892065 33.7526597,26.1892065 C34.8024412,26.1892065 35.4872993,27.2434935 35.4872993,29.338551 C35.4917827,31.4651469 34.8069467,32.5284449 33.7526597,32.5284449 Z M42.6555359,33.9431719 L42.6555359,24.715908 L40.7767424,24.715908 C40.7542149,25.2790955 39.9612469,26.238767 38.7763005,26.238767 L38.7763005,27.788659 C39.7945434,27.788659 40.4568519,27.410197 40.6550939,27.103823 L40.7406984,27.103823 L40.7406984,33.9431719 L42.6555359,33.9431719 Z M48.6388456,33.9431719 L48.6388456,24.715908 L46.7600521,24.715908 C46.7375246,25.2790955 45.9445566,26.238767 44.7596101,26.238767 L44.7596101,27.788659 C45.7778531,27.788659 46.4401616,27.410197 46.6384036,27.103823 L46.7240081,27.103823 L46.7240081,33.9431719 L48.6388456,33.9431719 Z" id="$0.011" fill="#000000" fill-rule="nonzero"></path>
                    </g>
                    <path d="M89.7141987,90.8934754 L91.361365,85.4074567 L92.9977656,90.8934754 L94.4942108,90.8934754 L96.7334958,83.1171771 L95.2047532,83.1171771 L93.7298395,88.539281 L92.1042048,83.1171771 L90.6400569,83.1171771 L89.0036563,88.5286285 L87.56104,83.1171771 L86,83.1171771 L88.185456,90.8934754 L89.7141987,90.8934754 Z M99.2957546,90.8934754 L99.2957546,83.1171771 L97.7562462,83.1171771 L97.7562462,90.8934754 L99.2957546,90.8934754 Z M104.204956,90.8934754 L104.204956,84.5019973 L106.368881,84.5019973 L106.368881,83.1171771 L100.523055,83.1171771 L100.523055,84.5019973 L102.708511,84.5019973 L102.708511,90.8934754 L104.204956,90.8934754 Z M109.071095,90.8934754 L109.071095,87.7190413 L112.247004,87.7190413 L112.247004,90.8934754 L113.764981,90.8934754 L113.764981,83.1171771 L112.247004,83.1171771 L112.247004,86.2490013 L109.071095,86.2490013 L109.071095,83.1171771 L107.542352,83.1171771 L107.542352,90.8934754 L109.071095,90.8934754 Z M118.695714,90.8934754 L119.212472,89.4766977 L122.496039,89.4766977 L123.012797,90.8934754 L124.573837,90.8934754 L121.602478,83.1171771 L120.106033,83.1171771 L117.134674,90.8934754 L118.695714,90.8934754 Z M121.990047,88.1131824 L119.718464,88.1131824 L120.859638,85.023968 L121.990047,88.1131824 Z M127.997359,90.8934754 C130.344302,90.8934754 132.066829,89.2210386 132.066829,87.0053262 C132.066829,84.8002663 130.462726,83.1171771 127.965062,83.1171771 L125.424335,83.1171771 L125.424335,90.8934754 L127.997359,90.8934754 Z M127.900467,89.4873502 L126.953077,89.4873502 L126.953077,84.5126498 L127.857404,84.5126498 C129.579931,84.5126498 130.527321,85.5778961 130.527321,87.0053262 C130.527321,88.4007989 129.493805,89.4873502 127.900467,89.4873502 Z M136.114767,91 C137.869592,91 139,89.8921438 139,88.5605859 C139,86.8774967 137.611213,86.494008 136.405444,86.2383489 C135.425757,86.0146471 134.639854,85.89747 134.639854,85.2689747 C134.639854,84.7576565 135.005891,84.3422104 135.856388,84.3422104 C136.760715,84.3422104 137.288239,84.7150466 137.697339,85.3115846 L138.935405,84.3528628 C138.138737,83.4793609 137.266707,83 135.87792,83 C134.241519,83 133.08958,84.0226365 133.08958,85.3009321 C133.08958,86.8774967 134.403006,87.2503329 135.576478,87.4953395 C136.663823,87.7403462 137.417428,87.8894807 137.417428,88.6138482 C137.417428,89.1784288 136.976031,89.5832224 136.125533,89.5832224 C135.188909,89.5832224 134.489133,89.1677763 133.972375,88.3581891 L132.648182,89.4021305 C133.391022,90.3395473 134.424538,91 136.114767,91 Z" id="WITHADS" fill="#FFFFFF" fill-rule="nonzero"></path>
                    <g id="Group-19" transform="translate(170.000000, 0.000000)">
                        <circle id="Oval-Copy-5" fill="#D64CF1" cx="36" cy="36" r="36"></circle>
                        <path d="M18.3374962,42.0545345 L18.3374962,41.034365 C20.4225795,40.9582998 21.6440982,39.9068093 21.6485726,38.291541 C21.6440982,36.7657612 20.4941703,35.9558898 18.9012741,35.5979356 L18.3374962,35.4637027 L18.3374962,33.2488611 C19.1249955,33.3159775 19.5992848,33.7231504 19.6664012,34.3808913 L21.5232887,34.3808913 C21.4964421,32.8103672 20.2525512,31.7051836 18.3374962,31.6246439 L18.3374962,30.6 L17.7647695,30.6 L17.7647695,31.6335928 C15.9347287,31.7544023 14.6326702,32.8282649 14.6416191,34.3943146 C14.6371447,35.7455917 15.5901977,36.5196677 17.1383497,36.8910451 L17.7647695,37.0476501 L17.7647695,39.401199 C16.9191027,39.3117104 16.3329527,38.8553188 16.2747851,38.0320242 L14.4,38.0320242 C14.4447443,39.9157582 15.728905,40.9359276 17.7647695,41.0298906 L17.7647695,42.0545345 L18.3374962,42.0545345 Z M17.7647695,35.3205211 C17.1159775,35.1325951 16.6148416,34.8328085 16.6282649,34.2645562 C16.6282649,33.7455226 17.0309634,33.3517729 17.7647695,33.25781 L17.7647695,35.3205211 Z M18.3374962,39.401199 L18.3374962,37.1908318 C19.2100096,37.423502 19.6887734,37.7143398 19.6932478,38.2870665 C19.6887734,38.8955887 19.1652653,39.3251337 18.3374962,39.401199 Z M26.4854367,41.1104303 C28.7897669,41.1104303 30.1813138,39.3564547 30.1857989,36.3362161 C30.1902627,33.3383497 28.780818,31.6201695 26.4854367,31.6201695 C24.1855809,31.6201695 22.7895595,33.3338752 22.7850425,36.3362161 C22.7761362,39.3475059 24.1766321,41.1059559 26.4854367,41.1104303 Z M26.4854367,39.5041108 C25.4339462,39.5041108 24.7538332,38.4481459 24.7582857,36.3362161 C24.7627821,34.2556073 25.4384206,33.2085913 26.4854367,33.2085913 C27.5279783,33.2085913 28.2081132,34.2556073 28.2081132,36.3362161 C28.2125657,38.4481459 27.5324527,39.5041108 26.4854367,39.5041108 Z M32.6959504,41.0254162 C33.277626,41.0254162 33.7742874,40.5466524 33.7832363,39.9515536 C33.7742874,39.369878 33.277626,38.8955887 32.6959504,38.8955887 C32.1098004,38.8955887 31.6176134,39.3609291 31.6220878,39.9515536 C31.6176134,40.5466524 32.105326,41.0254162 32.6959504,41.0254162 Z M38.9198827,41.1104303 C41.2242129,41.1104303 42.6157599,39.3564547 42.6202449,36.3362161 C42.6247087,33.3383497 41.215264,31.6201695 38.9198827,31.6201695 C36.6200269,31.6201695 35.2240055,33.3338752 35.2194885,36.3362161 C35.2105823,39.3475059 36.6110781,41.1059559 38.9198827,41.1104303 Z M38.9198827,39.5041108 C37.8683922,39.5041108 37.1882792,38.4481459 37.1927317,36.3362161 C37.1972281,34.2556073 37.8728667,33.2085913 38.9198827,33.2085913 C39.9624243,33.2085913 40.6425593,34.2556073 40.6425593,36.3362161 C40.6470117,38.4481459 39.9668988,39.5041108 38.9198827,39.5041108 Z M47.7613598,40.9090811 L47.7613598,31.7454535 L45.8955235,31.7454535 C45.8731514,32.3047569 45.0856521,33.25781 43.9088777,33.25781 L43.9088777,34.797013 C44.9200983,34.797013 45.5778392,34.4211611 45.774714,34.1169001 L45.8597281,34.1169001 L45.8597281,40.9090811 L47.7613598,40.9090811 Z M53.4573118,41.0344097 C55.4976507,41.0433139 56.8891977,39.7054601 56.8847357,37.8396238 C56.8891977,36.1214436 55.6900511,34.8820272 54.0658339,34.8820272 C53.0590877,34.8820272 52.1686766,35.3652653 51.7570293,36.1751367 L51.6943873,36.1751367 C51.7033362,34.3629936 52.329756,33.2533355 53.5244282,33.2533355 C54.2269133,33.2533355 54.7325236,33.6336619 54.8801797,34.304826 L56.7907603,34.304826 C56.6073088,32.7656229 55.354469,31.5933229 53.5244282,31.5933229 C51.2603678,31.5933229 49.8061789,33.4278382 49.79723,36.5330909 C49.8061789,39.8889116 51.5735778,41.0254162 53.4573118,41.0344097 Z M53.4483629,39.5130597 C52.5534774,39.5130597 51.8912621,38.7926768 51.8912621,37.8977913 C51.8957365,37.0073803 52.5713751,36.282523 53.4617862,36.282523 C54.3566717,36.282523 55.0099381,36.9850081 55.0054865,37.8933169 C55.0099381,38.8105746 54.3432484,39.5130597 53.4483629,39.5130597 Z" id="$0.016" fill="#000000" fill-rule="nonzero"></path>
                    </g>
                    <path d="M171.729461,90.8934754 L173.383396,85.4074567 L175.026521,90.8934754 L176.529115,90.8934754 L178.777602,83.1171771 L177.242577,83.1171771 L175.761603,88.539281 L174.129288,83.1171771 L172.659124,83.1171771 L171.015999,88.5286285 L169.567455,83.1171771 L168,83.1171771 L170.194436,90.8934754 L171.729461,90.8934754 Z M181.350389,90.8934754 L181.350389,83.1171771 L179.804555,83.1171771 L179.804555,90.8934754 L181.350389,90.8934754 Z M186.279764,90.8934754 L186.279764,84.5019973 L188.45258,84.5019973 L188.45258,83.1171771 L182.582733,83.1171771 L182.582733,84.5019973 L184.777169,84.5019973 L184.777169,90.8934754 L186.279764,90.8934754 Z M191.165898,90.8934754 L191.165898,87.7190413 L194.354857,87.7190413 L194.354857,90.8934754 L195.879072,90.8934754 L195.879072,83.1171771 L194.354857,83.1171771 L194.354857,86.2490013 L191.165898,86.2490013 L191.165898,83.1171771 L189.630873,83.1171771 L189.630873,90.8934754 L191.165898,90.8934754 Z M202.667772,91 C204.429807,91 205.56486,89.8921438 205.56486,88.5605859 C205.56486,86.8774967 204.170366,86.494008 202.959643,86.2383489 C201.97593,86.0146471 201.186797,85.89747 201.186797,85.2689747 C201.186797,84.7576565 201.554338,84.3422104 202.408331,84.3422104 C203.316374,84.3422104 203.846065,84.7150466 204.256846,85.3115846 L205.5,84.3528628 C204.700058,83.4793609 203.824445,83 202.429951,83 C200.786826,83 199.630153,84.0226365 199.630153,85.3009321 C199.630153,86.8774967 200.948977,87.2503329 202.12727,87.4953395 C203.219083,87.7403462 203.975786,87.8894807 203.975786,88.6138482 C203.975786,89.1784288 203.532574,89.5832224 202.678582,89.5832224 C201.738109,89.5832224 201.035457,89.1677763 200.516575,88.3581891 L199.186941,89.4021305 C199.932834,90.3395473 200.970597,91 202.667772,91 Z M210.526665,91 C212.1806,91 213.477803,90.1051931 214.148025,88.8055925 L212.753531,88.0705726 C212.36437,88.9121172 211.596858,89.5086551 210.515855,89.5086551 C209.07812,89.5086551 208.029547,88.379494 208.029547,87.0053262 C208.029547,85.5992011 209.088931,84.4806924 210.537475,84.4806924 C211.521188,84.4806924 212.26708,84.9813582 212.688671,85.7802929 L214.029115,84.9494008 C213.326463,83.7882823 212.040069,83.0106525 210.526665,83.0106525 C208.234938,83.0106525 206.483713,84.7363515 206.483713,87.0053262 C206.483713,89.2103862 208.148458,91 210.526665,91 Z M216.677573,90.8934754 L216.677573,88.4434088 L218.450418,88.4434088 L219.715192,90.8934754 L221.423177,90.8934754 L219.866532,88.0492676 C220.742145,87.6125166 221.250216,86.7283622 221.250216,85.7483356 C221.250216,84.2676431 220.169213,83.1171771 218.353128,83.1171771 L215.153358,83.1171771 L215.153358,90.8934754 L216.677573,90.8934754 Z M218.234217,87.069241 L216.677573,87.069241 L216.677573,84.5019973 L218.234217,84.5019973 C219.20712,84.5019973 219.704382,84.9920107 219.704382,85.758988 C219.704382,86.4513981 219.23955,87.069241 218.234217,87.069241 Z M226.255261,91 C228.514558,91 230.309023,89.2103862 230.309023,87.0053262 C230.309023,84.8002663 228.503747,83.0106525 226.255261,83.0106525 C224.017584,83.0106525 222.223119,84.8002663 222.223119,87.0053262 C222.223119,89.2103862 224.017584,91 226.255261,91 Z M226.255261,89.5193076 C224.839147,89.5193076 223.758144,88.379494 223.758144,87.0053262 C223.758144,85.620506 224.839147,84.4806924 226.255261,84.4806924 C227.682185,84.4806924 228.773998,85.620506 228.773998,87.0053262 C228.773998,88.379494 227.692995,89.5193076 226.255261,89.5193076 Z M236.665321,90.8934754 L236.665321,89.4340879 L233.022341,89.4340879 L233.022341,83.1171771 L231.487316,83.1171771 L231.487316,90.8934754 L236.665321,90.8934754 Z M243,90.8934754 L243,89.4340879 L239.357019,89.4340879 L239.357019,83.1171771 L237.821995,83.1171771 L237.821995,90.8934754 L243,90.8934754 Z" id="WITHSCROLL" fill="#FFFFFF" fill-rule="nonzero"></path>
                    <g id="Group-16" transform="translate(17.000000, 34.000000)">
                        <circle id="Oval-Copy-4" fill-opacity="0.5" fill="#FFFFFF" cx="19" cy="19" r="19"></circle>
                        <path d="M14.8154724,25.0865691 L14.8154724,24.0610019 C16.9115878,23.9845342 18.1395696,22.9274803 18.1440677,21.3036655 C18.1395696,19.7698128 16.9835575,18.9556564 15.3822332,18.5958082 L14.8154724,18.4608652 L14.8154724,16.2343048 C15.6071383,16.3017763 16.0839371,16.7111036 16.1514086,17.3723246 L18.0181209,17.3723246 C17.9911323,15.7934908 16.74066,14.6824597 14.8154724,14.6014939 L14.8154724,13.5714286 L14.2397154,13.5714286 L14.2397154,14.6104901 C12.3999918,14.7319388 11.0910441,15.8114833 11.1000404,17.3858189 C11.0955423,18.7442456 12.0536379,19.5224172 13.6099811,19.8957597 L14.2397154,20.0531932 L14.2397154,22.4191948 C13.3895742,22.3292327 12.8003228,21.8704263 12.7418475,21.0427756 L10.8571429,21.0427756 C10.9021239,22.9364765 12.1930791,23.9620437 14.2397154,24.0565038 L14.2397154,25.0865691 L14.8154724,25.0865691 Z M14.2397154,18.3169259 C13.5874906,18.1280057 13.0837032,17.8266328 13.0971975,17.2553739 C13.0971975,16.7335941 13.5020267,16.3377612 14.2397154,16.243301 L14.2397154,18.3169259 Z M14.8154724,22.4191948 L14.8154724,20.1971325 C15.6926023,20.4310338 16.1738992,20.7234104 16.1783973,21.2991674 C16.1738992,21.9109093 15.6476212,22.342727 14.8154724,22.4191948 Z M23.0065237,24.1374696 C25.3230461,24.1374696 26.7219557,22.3742137 26.7264645,19.337995 C26.7309519,16.3242669 25.3140499,14.5969958 23.0065237,14.5969958 C20.6944993,14.5969958 19.2910916,16.3197688 19.2865506,19.337995 C19.2775973,22.3652175 20.6855031,24.1329715 23.0065237,24.1374696 Z M23.0065237,22.5226511 C21.9494697,22.5226511 21.2657583,21.4610991 21.2702343,19.337995 C21.2747545,17.2463777 21.9539678,16.1938219 23.0065237,16.1938219 C24.0545814,16.1938219 24.7383149,17.2463777 24.7383149,19.337995 C24.7427909,21.4610991 24.0590795,22.5226511 23.0065237,22.5226511 Z" id="$0" fill="#000000" fill-rule="nonzero"></path>
                    </g>
                    <path d="M1.56708353,90.8933333 L2.08584221,89.4746667 L5.38212135,89.4746667 L5.90088004,90.8933333 L7.46796356,90.8933333 L4.48510113,83.1066667 L2.98286244,83.1066667 L0,90.8933333 L1.56708353,90.8933333 Z M4.87417014,88.1093333 L2.59379342,88.1093333 L3.73938552,85.016 L4.87417014,88.1093333 Z M10.9047398,90.8933333 C13.2607689,90.8933333 14.9899645,89.2186667 14.9899645,87 C14.9899645,84.792 13.3796511,83.1066667 10.8723174,83.1066667 L8.3217539,83.1066667 L8.3217539,90.8933333 L10.9047398,90.8933333 Z M10.8074726,89.4853333 L9.85641501,89.4853333 L9.85641501,84.504 L10.7642427,84.504 C12.4934383,84.504 13.4444959,85.5706667 13.4444959,87 C13.4444959,88.3973333 12.4069785,89.4853333 10.8074726,89.4853333 Z M21.9932067,90.8933333 C23.7440173,90.8933333 24.8247646,90.1253333 24.8247646,88.5893333 C24.8247646,87.7786667 24.4573105,87.192 23.7980547,86.8613333 C24.3816582,86.5306667 24.7058824,85.9973333 24.7058824,85.2826667 C24.7058824,83.8853333 23.7224023,83.1066667 21.9715918,83.1066667 L18.7077351,83.1066667 L18.7077351,90.8933333 L21.9932067,90.8933333 Z M22.0256291,86.2426667 L20.2099738,86.2426667 L20.2099738,84.44 L22.0040142,84.44 C22.8037672,84.44 23.1820287,84.7706667 23.1820287,85.3146667 C23.1820287,85.848 22.8361896,86.2426667 22.0256291,86.2426667 Z M22.0148217,89.5386667 L20.2099738,89.5386667 L20.2099738,87.5973333 L21.9499768,87.5973333 C22.9118419,87.5973333 23.279296,87.9493333 23.279296,88.5573333 C23.279296,89.1653333 22.8469971,89.5386667 22.0148217,89.5386667 Z M31.1903659,90.8933333 L31.1903659,89.432 L27.5482476,89.432 L27.5482476,83.1066667 L26.0135865,83.1066667 L26.0135865,90.8933333 L31.1903659,90.8933333 Z M36.1834182,91 C38.44218,91 40.2362205,89.208 40.2362205,87 C40.2362205,84.792 38.4313725,83 36.1834182,83 C33.9462714,83 32.152231,84.792 32.152231,87 C32.152231,89.208 33.9462714,91 36.1834182,91 Z M36.1834182,89.5173333 C34.7676393,89.5173333 33.6868921,88.376 33.6868921,87 C33.6868921,85.6133333 34.7676393,84.472 36.1834182,84.472 C37.6100046,84.472 38.7015594,85.6133333 38.7015594,87 C38.7015594,88.376 37.6208121,89.5173333 36.1834182,89.5173333 Z M45.2616952,91 C46.9152385,91 48.2121352,90.104 48.8821985,88.8026667 L47.4880346,88.0666667 C47.0989656,88.9093333 46.331635,89.5066667 45.2508878,89.5066667 C43.8134939,89.5066667 42.7651691,88.376 42.7651691,87 C42.7651691,85.592 43.8243014,84.472 45.2725027,84.472 C46.2559827,84.472 47.0016983,84.9733333 47.4231897,85.7733333 L48.7633164,84.9413333 C48.0608306,83.7786667 46.7747414,83 45.2616952,83 C42.970511,83 41.2197005,84.728 41.2197005,87 C41.2197005,89.208 42.8840513,91 45.2616952,91 Z M51.4219546,90.8933333 L51.4219546,88.5573333 L52.6756214,87.0426667 L54.5993516,90.8933333 L56.2853173,90.8933333 L53.7887911,86.008 L56.1988575,83.1066667 L54.3832021,83.1066667 L51.4219546,86.7226667 L51.4219546,83.1066667 L49.8872935,83.1066667 L49.8872935,90.8933333 L51.4219546,90.8933333 Z M62.4347692,90.8933333 L62.4347692,89.464 L58.6521538,89.464 L58.6521538,87.6933333 L62.4347692,87.6933333 L62.4347692,86.2746667 L58.6521538,86.2746667 L58.6521538,84.5253333 L62.4347692,84.5253333 L62.4347692,83.1066667 L57.1283001,83.1066667 L57.1283001,90.8933333 L62.4347692,90.8933333 Z M65.2555195,90.8933333 L65.2555195,88.44 L67.027945,88.44 L68.2924193,90.8933333 L70,90.8933333 L68.4437239,88.0453333 C69.3191292,87.608 69.8270804,86.7226667 69.8270804,85.7413333 C69.8270804,84.2586667 68.7463332,83.1066667 66.9306778,83.1066667 L63.7316659,83.1066667 L63.7316659,90.8933333 L65.2555195,90.8933333 Z M66.8117956,87.064 L65.2555195,87.064 L65.2555195,84.4933333 L66.8117956,84.4933333 C67.7844681,84.4933333 68.2816119,84.984 68.2816119,85.752 C68.2816119,86.4453333 67.8168905,87.064 66.8117956,87.064 Z" id="ADBLOCKER" fill="#FFFFFF" fill-rule="nonzero"></path>
                </g>
                <text id="We-distribute-at-lea" font-family="InterUI-Regular, Inter UI" font-size="16" font-weight="normal" line-spacing="24" fill="#FFFFFF" fill-opacity="0.8">
                    <tspan x="63.3181818" y="190">We distribute at least</tspan>
                    <tspan x="66.1761364" y="214" font-family="InterUI-Bold, Inter UI" font-weight="bold">40% more</tspan>
                    <tspan x="146.323864" y="214"> money to</tspan>
                    <tspan x="91.1818182" y="238">sites than ads</tspan>
                </text>
            </g>
        </g>
    </g>
</svg>