<?xml version="1.0" encoding="UTF-8"?>
<svg width="288px" height="288px" viewBox="0 0 288 288" version="1.1" xmlns="http://www.w3.org/2000/svg" xmlns:xlink="http://www.w3.org/1999/xlink">
    <!-- Generator: Sketch 63.1 (92452) - https://sketch.com -->
    <title>Group 41</title>
    <desc>Created with Sketch.</desc>
    <g id="Page-1" stroke="none" stroke-width="1" fill="none" fill-rule="evenodd">
        <g id="Group-41">
            <circle id="Oval" fill-opacity="0.12" fill="#FFFFFF" cx="144" cy="144" r="144"></circle>
            <circle id="Oval-Copy-3" fill="#FFFFFF" cx="129" cy="101" r="29"></circle>
            <path d="M113.02734,107.09658 L113.02734,106.069326 C115.126903,105.992732 116.356904,104.93394 116.36141,103.307454 C116.356904,101.771079 115.198991,100.955583 113.595033,100.595143 L113.02734,100.459978 L113.02734,98.229756 C113.820308,98.2973385 114.297891,98.707339 114.365473,99.3696475 L116.235256,99.3696475 C116.208223,97.788217 114.955694,96.6753585 113.02734,96.5942595 L113.02734,95.5625 L112.450636,95.5625 L112.450636,96.6032705 C110.607886,96.724919 109.296786,97.806239 109.305797,99.383164 C109.301291,100.743825 110.260963,101.523276 111.819866,101.897233 L112.450636,102.054925 L112.450636,104.424818 C111.599096,104.334708 111.008876,103.875147 110.950304,103.046135 L109.0625,103.046135 C109.107555,104.942951 110.400633,105.970205 112.450636,106.06482 L112.450636,107.09658 L113.02734,107.09658 Z M112.450636,100.315802 C111.797338,100.126571 111.292722,99.824703 111.306239,99.2525045 C111.306239,98.7298665 111.711734,98.3333825 112.450636,98.238767 L112.450636,100.315802 Z M113.02734,104.424818 L113.02734,102.199101 C113.905912,102.433387 114.388001,102.726245 114.392506,103.302949 C114.388001,103.915697 113.860857,104.348225 113.02734,104.424818 Z M121.231863,106.145919 C123.552196,106.145919 124.953406,104.379763 124.957922,101.338551 C124.962417,98.319866 123.543185,96.589754 121.231863,96.589754 C118.916036,96.589754 117.51032,98.3153605 117.505772,101.338551 C117.496804,104.370752 118.907025,106.141414 121.231863,106.145919 Z M121.231863,104.528445 C120.173071,104.528445 119.488235,103.465147 119.492718,101.338551 C119.497246,99.2434935 120.177576,98.1892065 121.231863,98.1892065 C122.281645,98.1892065 122.966503,99.2434935 122.966503,101.338551 C122.970986,103.465147 122.28615,104.528445 121.231863,104.528445 Z M127.485506,106.060315 C128.071221,106.060315 128.571331,105.578226 128.580342,104.978995 C128.571331,104.39328 128.071221,103.915697 127.485506,103.915697 C126.895285,103.915697 126.39968,104.384269 126.404186,104.978995 C126.39968,105.578226 126.89078,106.060315 127.485506,106.060315 Z M133.75266,106.145919 C136.072992,106.145919 137.474203,104.379763 137.478719,101.338551 C137.483214,98.319866 136.063981,96.589754 133.75266,96.589754 C131.436833,96.589754 130.031117,98.3153605 130.026568,101.338551 C130.0176,104.370752 131.427822,106.141414 133.75266,106.145919 Z M133.75266,104.528445 C132.693867,104.528445 132.009031,103.465147 132.013515,101.338551 C132.018042,99.2434935 132.698373,98.1892065 133.75266,98.1892065 C134.802441,98.1892065 135.487299,99.2434935 135.487299,101.338551 C135.491783,103.465147 134.806947,104.528445 133.75266,104.528445 Z M142.655536,105.943172 L142.655536,96.715908 L140.776742,96.715908 C140.754215,97.2790955 139.961247,98.238767 138.7763,98.238767 L138.7763,99.788659 C139.794543,99.788659 140.456852,99.410197 140.655094,99.103823 L140.740698,99.103823 L140.740698,105.943172 L142.655536,105.943172 Z M148.638846,105.943172 L148.638846,96.715908 L146.760052,96.715908 C146.737525,97.2790955 145.944557,98.238767 144.75961,98.238767 L144.75961,99.788659 C145.777853,99.788659 146.440162,99.410197 146.638404,99.103823 L146.724008,99.103823 L146.724008,105.943172 L148.638846,105.943172 Z" id="$0.011" fill="#000000" fill-rule="nonzero"></path>
            <path d="M106.714199,148.893475 L108.361365,143.407457 L109.997766,148.893475 L111.494211,148.893475 L113.733496,141.117177 L112.204753,141.117177 L110.72984,146.539281 L109.104205,141.117177 L107.640057,141.117177 L106.003656,146.528628 L104.56104,141.117177 L103,141.117177 L105.185456,148.893475 L106.714199,148.893475 Z M116.295755,148.893475 L116.295755,141.117177 L114.756246,141.117177 L114.756246,148.893475 L116.295755,148.893475 Z M121.204956,148.893475 L121.204956,142.501997 L123.368881,142.501997 L123.368881,141.117177 L117.523055,141.117177 L117.523055,142.501997 L119.708511,142.501997 L119.708511,148.893475 L121.204956,148.893475 Z M126.071095,148.893475 L126.071095,145.719041 L129.247004,145.719041 L129.247004,148.893475 L130.764981,148.893475 L130.764981,141.117177 L129.247004,141.117177 L129.247004,144.249001 L126.071095,144.249001 L126.071095,141.117177 L124.542352,141.117177 L124.542352,148.893475 L126.071095,148.893475 Z M135.695714,148.893475 L136.212472,147.476698 L139.496039,147.476698 L140.012797,148.893475 L141.573837,148.893475 L138.602478,141.117177 L137.106033,141.117177 L134.134674,148.893475 L135.695714,148.893475 Z M138.990047,146.113182 L136.718464,146.113182 L137.859638,143.023968 L138.990047,146.113182 Z M144.997359,148.893475 C147.344302,148.893475 149.066829,147.221039 149.066829,145.005326 C149.066829,142.800266 147.462726,141.117177 144.965062,141.117177 L142.424335,141.117177 L142.424335,148.893475 L144.997359,148.893475 Z M144.900467,147.48735 L143.953077,147.48735 L143.953077,142.51265 L144.857404,142.51265 C146.579931,142.51265 147.527321,143.577896 147.527321,145.005326 C147.527321,146.400799 146.493805,147.48735 144.900467,147.48735 Z M153.114767,149 C154.869592,149 156,147.892144 156,146.560586 C156,144.877497 154.611213,144.494008 153.405444,144.238349 C152.425757,144.014647 151.639854,143.89747 151.639854,143.268975 C151.639854,142.757656 152.005891,142.34221 152.856388,142.34221 C153.760715,142.34221 154.288239,142.715047 154.697339,143.311585 L155.935405,142.352863 C155.138737,141.479361 154.266707,141 152.87792,141 C151.241519,141 150.08958,142.022636 150.08958,143.300932 C150.08958,144.877497 151.403006,145.250333 152.576478,145.49534 C153.663823,145.740346 154.417428,145.889481 154.417428,146.613848 C154.417428,147.178429 153.976031,147.583222 153.125533,147.583222 C152.188909,147.583222 151.489133,147.167776 150.972375,146.358189 L149.648182,147.40213 C150.391022,148.339547 151.424538,149 153.114767,149 Z" id="WITHADS" fill="#FFFFFF" fill-rule="nonzero"></path>
            <circle id="Oval-Copy-5" fill="#D64CF1" cx="223" cy="94" r="36"></circle>
            <path d="M205.337496,100.054535 L205.337496,99.034365 C207.422579,98.9582998 208.644098,97.9068093 208.648573,96.291541 C208.644098,94.7657612 207.49417,93.9558898 205.901274,93.5979356 L205.337496,93.4637027 L205.337496,91.2488611 C206.124995,91.3159775 206.599285,91.7231504 206.666401,92.3808913 L208.523289,92.3808913 C208.496442,90.8103672 207.252551,89.7051836 205.337496,89.6246439 L205.337496,88.6 L204.76477,88.6 L204.76477,89.6335928 C202.934729,89.7544023 201.63267,90.8282649 201.641619,92.3943146 C201.637145,93.7455917 202.590198,94.5196677 204.13835,94.8910451 L204.76477,95.0476501 L204.76477,97.401199 C203.919103,97.3117104 203.332953,96.8553188 203.274785,96.0320242 L201.4,96.0320242 C201.444744,97.9157582 202.728905,98.9359276 204.76477,99.0298906 L204.76477,100.054535 L205.337496,100.054535 Z M204.76477,93.3205211 C204.115978,93.1325951 203.614842,92.8328085 203.628265,92.2645562 C203.628265,91.7455226 204.030963,91.3517729 204.76477,91.25781 L204.76477,93.3205211 Z M205.337496,97.401199 L205.337496,95.1908318 C206.21001,95.423502 206.688773,95.7143398 206.693248,96.2870665 C206.688773,96.8955887 206.165265,97.3251337 205.337496,97.401199 Z M213.485437,99.1104303 C215.789767,99.1104303 217.181314,97.3564547 217.185799,94.3362161 C217.190263,91.3383497 215.780818,89.6201695 213.485437,89.6201695 C211.185581,89.6201695 209.78956,91.3338752 209.785042,94.3362161 C209.776136,97.3475059 211.176632,99.1059559 213.485437,99.1104303 Z M213.485437,97.5041108 C212.433946,97.5041108 211.753833,96.4481459 211.758286,94.3362161 C211.762782,92.2556073 212.438421,91.2085913 213.485437,91.2085913 C214.527978,91.2085913 215.208113,92.2556073 215.208113,94.3362161 C215.212566,96.4481459 214.532453,97.5041108 213.485437,97.5041108 Z M219.69595,99.0254162 C220.277626,99.0254162 220.774287,98.5466524 220.783236,97.9515536 C220.774287,97.369878 220.277626,96.8955887 219.69595,96.8955887 C219.1098,96.8955887 218.617613,97.3609291 218.622088,97.9515536 C218.617613,98.5466524 219.105326,99.0254162 219.69595,99.0254162 Z M225.919883,99.1104303 C228.224213,99.1104303 229.61576,97.3564547 229.620245,94.3362161 C229.624709,91.3383497 228.215264,89.6201695 225.919883,89.6201695 C223.620027,89.6201695 222.224006,91.3338752 222.219488,94.3362161 C222.210582,97.3475059 223.611078,99.1059559 225.919883,99.1104303 Z M225.919883,97.5041108 C224.868392,97.5041108 224.188279,96.4481459 224.192732,94.3362161 C224.197228,92.2556073 224.872867,91.2085913 225.919883,91.2085913 C226.962424,91.2085913 227.642559,92.2556073 227.642559,94.3362161 C227.647012,96.4481459 226.966899,97.5041108 225.919883,97.5041108 Z M234.76136,98.9090811 L234.76136,89.7454535 L232.895524,89.7454535 C232.873151,90.3047569 232.085652,91.25781 230.908878,91.25781 L230.908878,92.797013 C231.920098,92.797013 232.577839,92.4211611 232.774714,92.1169001 L232.859728,92.1169001 L232.859728,98.9090811 L234.76136,98.9090811 Z M240.457312,99.0344097 C242.497651,99.0433139 243.889198,97.7054601 243.884736,95.8396238 C243.889198,94.1214436 242.690051,92.8820272 241.065834,92.8820272 C240.059088,92.8820272 239.168677,93.3652653 238.757029,94.1751367 L238.694387,94.1751367 C238.703336,92.3629936 239.329756,91.2533355 240.524428,91.2533355 C241.226913,91.2533355 241.732524,91.6336619 241.88018,92.304826 L243.79076,92.304826 C243.607309,90.7656229 242.354469,89.5933229 240.524428,89.5933229 C238.260368,89.5933229 236.806179,91.4278382 236.79723,94.5330909 C236.806179,97.8889116 238.573578,99.0254162 240.457312,99.0344097 Z M240.448363,97.5130597 C239.553477,97.5130597 238.891262,96.7926768 238.891262,95.8977913 C238.895737,95.0073803 239.571375,94.282523 240.461786,94.282523 C241.356672,94.282523 242.009938,94.9850081 242.005487,95.8933169 C242.009938,96.8105746 241.343248,97.5130597 240.448363,97.5130597 Z" id="$0.016" fill="#000000" fill-rule="nonzero"></path>
            <path d="M188.729461,148.893475 L190.383396,143.407457 L192.026521,148.893475 L193.529115,148.893475 L195.777602,141.117177 L194.242577,141.117177 L192.761603,146.539281 L191.129288,141.117177 L189.659124,141.117177 L188.015999,146.528628 L186.567455,141.117177 L185,141.117177 L187.194436,148.893475 L188.729461,148.893475 Z M198.350389,148.893475 L198.350389,141.117177 L196.804555,141.117177 L196.804555,148.893475 L198.350389,148.893475 Z M203.279764,148.893475 L203.279764,142.501997 L205.45258,142.501997 L205.45258,141.117177 L199.582733,141.117177 L199.582733,142.501997 L201.777169,142.501997 L201.777169,148.893475 L203.279764,148.893475 Z M208.165898,148.893475 L208.165898,145.719041 L211.354857,145.719041 L211.354857,148.893475 L212.879072,148.893475 L212.879072,141.117177 L211.354857,141.117177 L211.354857,144.249001 L208.165898,144.249001 L208.165898,141.117177 L206.630873,141.117177 L206.630873,148.893475 L208.165898,148.893475 Z M219.667772,149 C221.429807,149 222.56486,147.892144 222.56486,146.560586 C222.56486,144.877497 221.170366,144.494008 219.959643,144.238349 C218.97593,144.014647 218.186797,143.89747 218.186797,143.268975 C218.186797,142.757656 218.554338,142.34221 219.408331,142.34221 C220.316374,142.34221 220.846065,142.715047 221.256846,143.311585 L222.5,142.352863 C221.700058,141.479361 220.824445,141 219.429951,141 C217.786826,141 216.630153,142.022636 216.630153,143.300932 C216.630153,144.877497 217.948977,145.250333 219.12727,145.49534 C220.219083,145.740346 220.975786,145.889481 220.975786,146.613848 C220.975786,147.178429 220.532574,147.583222 219.678582,147.583222 C218.738109,147.583222 218.035457,147.167776 217.516575,146.358189 L216.186941,147.40213 C216.932834,148.339547 217.970597,149 219.667772,149 Z M227.526665,149 C229.1806,149 230.477803,148.105193 231.148025,146.805593 L229.753531,146.070573 C229.36437,146.912117 228.596858,147.508655 227.515855,147.508655 C226.07812,147.508655 225.029547,146.379494 225.029547,145.005326 C225.029547,143.599201 226.088931,142.480692 227.537475,142.480692 C228.521188,142.480692 229.26708,142.981358 229.688671,143.780293 L231.029115,142.949401 C230.326463,141.788282 229.040069,141.010652 227.526665,141.010652 C225.234938,141.010652 223.483713,142.736352 223.483713,145.005326 C223.483713,147.210386 225.148458,149 227.526665,149 Z M233.677573,148.893475 L233.677573,146.443409 L235.450418,146.443409 L236.715192,148.893475 L238.423177,148.893475 L236.866532,146.049268 C237.742145,145.612517 238.250216,144.728362 238.250216,143.748336 C238.250216,142.267643 237.169213,141.117177 235.353128,141.117177 L232.153358,141.117177 L232.153358,148.893475 L233.677573,148.893475 Z M235.234217,145.069241 L233.677573,145.069241 L233.677573,142.501997 L235.234217,142.501997 C236.20712,142.501997 236.704382,142.992011 236.704382,143.758988 C236.704382,144.451398 236.23955,145.069241 235.234217,145.069241 Z M243.255261,149 C245.514558,149 247.309023,147.210386 247.309023,145.005326 C247.309023,142.800266 245.503747,141.010652 243.255261,141.010652 C241.017584,141.010652 239.223119,142.800266 239.223119,145.005326 C239.223119,147.210386 241.017584,149 243.255261,149 Z M243.255261,147.519308 C241.839147,147.519308 240.758144,146.379494 240.758144,145.005326 C240.758144,143.620506 241.839147,142.480692 243.255261,142.480692 C244.682185,142.480692 245.773998,143.620506 245.773998,145.005326 C245.773998,146.379494 244.692995,147.519308 243.255261,147.519308 Z M253.665321,148.893475 L253.665321,147.434088 L250.022341,147.434088 L250.022341,141.117177 L248.487316,141.117177 L248.487316,148.893475 L253.665321,148.893475 Z M260,148.893475 L260,147.434088 L256.357019,147.434088 L256.357019,141.117177 L254.821995,141.117177 L254.821995,148.893475 L260,148.893475 Z" id="WITHSCROLL" fill="#FFFFFF" fill-rule="nonzero"></path>
            <circle id="Oval-Copy-4" fill-opacity="0.5" fill="#FFFFFF" cx="53" cy="111" r="19"></circle>
            <path d="M48.8154724,117.086569 L48.8154724,116.061002 C50.9115878,115.984534 52.1395696,114.92748 52.1440677,113.303666 C52.1395696,111.769813 50.9835575,110.955656 49.3822332,110.595808 L48.8154724,110.460865 L48.8154724,108.234305 C49.6071383,108.301776 50.0839371,108.711104 50.1514086,109.372325 L52.0181209,109.372325 C51.9911323,107.793491 50.74066,106.68246 48.8154724,106.601494 L48.8154724,105.571429 L48.2397154,105.571429 L48.2397154,106.61049 C46.3999918,106.731939 45.0910441,107.811483 45.1000404,109.385819 C45.0955423,110.744246 46.0536379,111.522417 47.6099811,111.89576 L48.2397154,112.053193 L48.2397154,114.419195 C47.3895742,114.329233 46.8003228,113.870426 46.7418475,113.042776 L44.8571429,113.042776 C44.9021239,114.936476 46.1930791,115.962044 48.2397154,116.056504 L48.2397154,117.086569 L48.8154724,117.086569 Z M48.2397154,110.316926 C47.5874906,110.128006 47.0837032,109.826633 47.0971975,109.255374 C47.0971975,108.733594 47.5020267,108.337761 48.2397154,108.243301 L48.2397154,110.316926 Z M48.8154724,114.419195 L48.8154724,112.197132 C49.6926023,112.431034 50.1738992,112.72341 50.1783973,113.299167 C50.1738992,113.910909 49.6476212,114.342727 48.8154724,114.419195 Z M57.0065237,116.13747 C59.3230461,116.13747 60.7219557,114.374214 60.7264645,111.337995 C60.7309519,108.324267 59.3140499,106.596996 57.0065237,106.596996 C54.6944993,106.596996 53.2910916,108.319769 53.2865506,111.337995 C53.2775973,114.365218 54.6855031,116.132972 57.0065237,116.13747 Z M57.0065237,114.522651 C55.9494697,114.522651 55.2657583,113.461099 55.2702343,111.337995 C55.2747545,109.246378 55.9539678,108.193822 57.0065237,108.193822 C58.0545814,108.193822 58.7383149,109.246378 58.7383149,111.337995 C58.7427909,113.461099 58.0590795,114.522651 57.0065237,114.522651 Z" id="$0" fill="#000000" fill-rule="nonzero"></path>
            <path d="M18.5670835,148.893333 L19.0858422,147.474667 L22.3821214,147.474667 L22.90088,148.893333 L24.4679636,148.893333 L21.4851011,141.106667 L19.9828624,141.106667 L17,148.893333 L18.5670835,148.893333 Z M21.8741701,146.109333 L19.5937934,146.109333 L20.7393855,143.016 L21.8741701,146.109333 Z M27.9047398,148.893333 C30.2607689,148.893333 31.9899645,147.218667 31.9899645,145 C31.9899645,142.792 30.3796511,141.106667 27.8723174,141.106667 L25.3217539,141.106667 L25.3217539,148.893333 L27.9047398,148.893333 Z M27.8074726,147.485333 L26.856415,147.485333 L26.856415,142.504 L27.7642427,142.504 C29.4934383,142.504 30.4444959,143.570667 30.4444959,145 C30.4444959,146.397333 29.4069785,147.485333 27.8074726,147.485333 Z M38.9932067,148.893333 C40.7440173,148.893333 41.8247646,148.125333 41.8247646,146.589333 C41.8247646,145.778667 41.4573105,145.192 40.7980547,144.861333 C41.3816582,144.530667 41.7058824,143.997333 41.7058824,143.282667 C41.7058824,141.885333 40.7224023,141.106667 38.9715918,141.106667 L35.7077351,141.106667 L35.7077351,148.893333 L38.9932067,148.893333 Z M39.0256291,144.242667 L37.2099738,144.242667 L37.2099738,142.44 L39.0040142,142.44 C39.8037672,142.44 40.1820287,142.770667 40.1820287,143.314667 C40.1820287,143.848 39.8361896,144.242667 39.0256291,144.242667 Z M39.0148217,147.538667 L37.2099738,147.538667 L37.2099738,145.597333 L38.9499768,145.597333 C39.9118419,145.597333 40.279296,145.949333 40.279296,146.557333 C40.279296,147.165333 39.8469971,147.538667 39.0148217,147.538667 Z M48.1903659,148.893333 L48.1903659,147.432 L44.5482476,147.432 L44.5482476,141.106667 L43.0135865,141.106667 L43.0135865,148.893333 L48.1903659,148.893333 Z M53.1834182,149 C55.44218,149 57.2362205,147.208 57.2362205,145 C57.2362205,142.792 55.4313725,141 53.1834182,141 C50.9462714,141 49.152231,142.792 49.152231,145 C49.152231,147.208 50.9462714,149 53.1834182,149 Z M53.1834182,147.517333 C51.7676393,147.517333 50.6868921,146.376 50.6868921,145 C50.6868921,143.613333 51.7676393,142.472 53.1834182,142.472 C54.6100046,142.472 55.7015594,143.613333 55.7015594,145 C55.7015594,146.376 54.6208121,147.517333 53.1834182,147.517333 Z M62.2616952,149 C63.9152385,149 65.2121352,148.104 65.8821985,146.802667 L64.4880346,146.066667 C64.0989656,146.909333 63.331635,147.506667 62.2508878,147.506667 C60.8134939,147.506667 59.7651691,146.376 59.7651691,145 C59.7651691,143.592 60.8243014,142.472 62.2725027,142.472 C63.2559827,142.472 64.0016983,142.973333 64.4231897,143.773333 L65.7633164,142.941333 C65.0608306,141.778667 63.7747414,141 62.2616952,141 C59.970511,141 58.2197005,142.728 58.2197005,145 C58.2197005,147.208 59.8840513,149 62.2616952,149 Z M68.4219546,148.893333 L68.4219546,146.557333 L69.6756214,145.042667 L71.5993516,148.893333 L73.2853173,148.893333 L70.7887911,144.008 L73.1988575,141.106667 L71.3832021,141.106667 L68.4219546,144.722667 L68.4219546,141.106667 L66.8872935,141.106667 L66.8872935,148.893333 L68.4219546,148.893333 Z M79.4347692,148.893333 L79.4347692,147.464 L75.6521538,147.464 L75.6521538,145.693333 L79.4347692,145.693333 L79.4347692,144.274667 L75.6521538,144.274667 L75.6521538,142.525333 L79.4347692,142.525333 L79.4347692,141.106667 L74.1283001,141.106667 L74.1283001,148.893333 L79.4347692,148.893333 Z M82.2555195,148.893333 L82.2555195,146.44 L84.027945,146.44 L85.2924193,148.893333 L87,148.893333 L85.4437239,146.045333 C86.3191292,145.608 86.8270804,144.722667 86.8270804,143.741333 C86.8270804,142.258667 85.7463332,141.106667 83.9306778,141.106667 L80.7316659,141.106667 L80.7316659,148.893333 L82.2555195,148.893333 Z M83.8117956,145.064 L82.2555195,145.064 L82.2555195,142.493333 L83.8117956,142.493333 C84.7844681,142.493333 85.2816119,142.984 85.2816119,143.752 C85.2816119,144.445333 84.8168905,145.064 83.8117956,145.064 Z" id="ADBLOCKER" fill="#FFFFFF" fill-rule="nonzero"></path>
            <path d="M68.2954498,193 L70.8636292,183.727282 L70.9545382,183.727282 L73.5227175,193 L74.9772616,193 L78.1590768,181.363647 L76.7272599,181.363647 L74.2954441,190.840911 L74.1818078,190.840911 L71.7045375,181.363647 L70.1136299,181.363647 L67.6363595,190.840911 L67.5227233,190.840911 L65.0909074,181.363647 L63.6590906,181.363647 L66.8409057,193 L68.2954498,193 Z M83.386359,193.181818 C85.1590846,193.181818 86.4545379,192.295455 86.8636284,190.977275 L85.5681751,190.613639 C85.2272663,191.522729 84.4374943,191.977274 83.386359,191.977274 C81.8124968,191.977274 80.7272706,190.960229 80.6647707,189.090913 L86.9999919,189.090913 L86.9999919,188.522732 C86.9999919,185.272735 85.0681756,184.159099 83.2499955,184.159099 C80.8863614,184.159099 79.318181,186.022734 79.318181,188.70455 C79.318181,191.386365 80.8636341,193.181818 83.386359,193.181818 Z M85.6363568,187.931823 L80.6647707,187.931823 C80.7556797,186.57387 81.715906,185.363644 83.2499955,185.363644 C84.7045395,185.363644 85.6363568,186.454552 85.6363568,187.931823 Z M96.8409048,193.181818 C98.5227214,193.181818 99.0909026,192.136364 99.3863569,191.659092 L99.5454477,191.659092 L99.5454477,193 L100.840901,193 L100.840901,181.363647 L99.4999932,181.363647 L99.4999932,185.659098 L99.3863569,185.659098 C99.0909026,185.204553 98.5681759,184.159099 96.863632,184.159099 C94.6590887,184.159099 93.1363629,185.909098 93.1363629,188.659095 C93.1363629,191.43182 94.6590887,193.181818 96.8409048,193.181818 Z M97.0227228,191.977274 C95.3409062,191.977274 94.4772707,190.500002 94.4772707,188.636368 C94.4772707,186.79546 95.318179,185.363644 97.0227228,185.363644 C98.6590849,185.363644 99.5227204,186.681824 99.5227204,188.636368 C99.5227204,190.613639 98.6363576,191.977274 97.0227228,191.977274 Z M103.977271,182.840919 C104.499998,182.840919 104.931815,182.431828 104.931815,181.931829 C104.931815,181.431829 104.499998,181.022739 103.977271,181.022739 C103.454544,181.022739 103.022726,181.431829 103.022726,181.931829 C103.022726,182.431828 103.454544,182.840919 103.977271,182.840919 Z M104.636361,193 L104.636361,184.272736 L103.295453,184.272736 L103.295453,193 L104.636361,193 Z M110.022723,193.181818 C112.05113,193.181818 113.431811,192.073865 113.431811,190.568184 C113.431811,189.352276 112.670448,188.585231 111.113631,188.20455 L109.818178,187.886369 C108.784088,187.630687 108.318179,187.284096 108.318179,186.613642 C108.318179,185.863643 109.113633,185.318189 110.181814,185.318189 C111.352267,185.318189 111.835222,185.965916 112.068176,186.568188 L113.27272,186.227279 C112.852266,184.988644 111.909085,184.159099 110.181814,184.159099 C108.340907,184.159099 106.977272,185.204553 106.977272,186.681824 C106.977272,187.886369 107.69318,188.693186 109.295451,189.068186 L110.749995,189.409094 C111.630676,189.61364 112.045449,190.034094 112.045449,190.636366 C112.045449,191.386365 111.249995,192.000001 109.999996,192.000001 C108.903406,192.000001 108.215907,191.52841 107.977271,190.590911 L106.704545,190.909093 C107.017044,192.392046 108.238634,193.181818 110.022723,193.181818 Z M118.409087,193.113636 C118.909086,193.113636 119.227272,193.022727 119.409086,192.954545 L119.136359,191.750001 C119.022723,191.772728 118.840905,191.818183 118.54545,191.818183 C117.954542,191.818183 117.386361,191.636365 117.386361,190.500002 L117.386361,185.409098 L119.249995,185.409098 L119.249995,184.272736 L117.386361,184.272736 L117.386361,182.181828 L116.045453,182.181828 L116.045453,184.272736 L114.727272,184.272736 L114.727272,185.409098 L116.045453,185.409098 L116.045453,190.863638 C116.045453,192.386364 117.272724,193.113636 118.409087,193.113636 Z M122.704543,193 L122.704543,187.477278 C122.704543,186.301143 123.63636,185.431825 124.909086,185.431825 C125.244313,185.431825 125.494313,185.494325 125.681813,185.590916 L126.136358,184.454554 C125.863635,184.261372 125.505677,184.136372 125.022723,184.136372 C123.965905,184.136372 123.062497,184.727281 122.749998,185.590916 L122.659089,185.590916 L122.659089,184.272736 L121.363635,184.272736 L121.363635,193 L122.704543,193 Z M128.181816,182.840919 C128.704543,182.840919 129.136361,182.431828 129.136361,181.931829 C129.136361,181.431829 128.704543,181.022739 128.181816,181.022739 C127.65909,181.022739 127.227272,181.431829 127.227272,181.931829 C127.227272,182.431828 127.65909,182.840919 128.181816,182.840919 Z M128.840907,193 L128.840907,184.272736 L127.499999,184.272736 L127.499999,193 L128.840907,193 Z M135.295453,193.181818 C137.477266,193.181818 138.999991,191.43182 138.999991,188.659095 C138.999991,185.909098 137.477266,184.159099 135.272722,184.159099 C133.568178,184.159099 133.045452,185.204553 132.749997,185.659098 L132.636361,185.659098 L132.636361,181.363647 L131.295453,181.363647 L131.295453,193 L132.590907,193 L132.590907,191.659092 L132.749997,191.659092 C133.045452,192.136364 133.613633,193.181818 135.295453,193.181818 Z M135.113634,191.977274 C133.499997,191.977274 132.613634,190.613639 132.613634,188.636368 C132.613634,186.681824 133.477269,185.363644 135.113634,185.363644 C136.818175,185.363644 137.659084,186.79546 137.659084,188.636368 C137.659084,190.500002 136.795448,191.977274 135.113634,191.977274 Z M143.863633,193.113636 C145.181813,193.113636 146.045453,192.409091 146.454539,191.522729 L146.545453,191.522729 L146.545453,193 L147.886356,193 L147.886356,184.272736 L146.545453,184.272736 L146.545453,189.431822 C146.545453,191.068184 145.295449,191.818183 144.29545,191.818183 C143.181815,191.818183 142.386361,191.000002 142.386361,189.727276 L142.386361,184.272736 L141.045453,184.272736 L141.045453,189.818185 C141.045453,192.045455 142.22727,193.113636 143.863633,193.113636 Z M153.295451,193.113636 C153.79545,193.113636 154.113636,193.022727 154.29545,192.954545 L154.022723,191.750001 C153.909086,191.772728 153.727268,191.818183 153.431814,191.818183 C152.840906,191.818183 152.272724,191.636365 152.272724,190.500002 L152.272724,185.409098 L154.136359,185.409098 L154.136359,184.272736 L152.272724,184.272736 L152.272724,182.181828 L150.931816,182.181828 L150.931816,184.272736 L149.613636,184.272736 L149.613636,185.409098 L150.931816,185.409098 L150.931816,190.863638 C150.931816,192.386364 152.159088,193.113636 153.295451,193.113636 Z M159.909086,193.181818 C161.681812,193.181818 162.977265,192.295455 163.386356,190.977275 L162.090902,190.613639 C161.749994,191.522729 160.960222,191.977274 159.909086,191.977274 C158.335224,191.977274 157.249998,190.960229 157.187498,189.090913 L163.522719,189.090913 L163.522719,188.522732 C163.522719,185.272735 161.590903,184.159099 159.772723,184.159099 C157.409089,184.159099 155.840908,186.022734 155.840908,188.70455 C155.840908,191.386365 157.386361,193.181818 159.909086,193.181818 Z M162.159084,187.931823 L157.187498,187.931823 C157.278407,186.57387 158.238633,185.363644 159.772723,185.363644 C161.227267,185.363644 162.159084,186.454552 162.159084,187.931823 Z M172.63636,193.204545 C174.15909,193.204545 174.95454,192.386364 175.227267,191.818183 L175.295448,191.818183 L175.295448,193 L176.636356,193 L176.636356,187.250005 C176.636356,184.477281 174.522722,184.159099 173.409087,184.159099 C172.090906,184.159099 170.590907,184.613644 169.90909,186.204552 L171.181816,186.659099 C171.47727,186.022734 172.176133,185.340916 173.454541,185.340916 C174.698858,185.340916 175.295448,186.005688 175.295448,187.136369 C175.295448,187.784096 174.636358,187.750005 173.045451,187.95455 C171.426134,188.164777 169.65909,188.522732 169.65909,190.52273 C169.65909,192.227273 170.977271,193.204545 172.63636,193.204545 Z M172.840905,192.000001 C171.772724,192.000001 170.999998,191.522729 170.999998,190.590911 C170.999998,189.568185 171.931815,189.250004 172.977269,189.113641 C173.54545,189.045458 175.068176,188.886368 175.295448,188.613641 L175.295448,189.840912 C175.295448,190.93182 174.431813,192.000001 172.840905,192.000001 Z M182.045451,193.113636 C182.54545,193.113636 182.863636,193.022727 183.04545,192.954545 L182.772723,191.750001 C182.659086,191.772728 182.477268,191.818183 182.181814,191.818183 C181.590906,191.818183 181.022724,191.636365 181.022724,190.500002 L181.022724,185.409098 L182.886359,185.409098 L182.886359,184.272736 L181.022724,184.272736 L181.022724,182.181828 L179.681816,182.181828 L179.681816,184.272736 L178.363636,184.272736 L178.363636,185.409098 L179.681816,185.409098 L179.681816,190.863638 C179.681816,192.386364 180.909088,193.113636 182.045451,193.113636 Z M190.840907,193 L190.840907,181.363647 L189.499999,181.363647 L189.499999,193 L190.840907,193 Z M196.954541,193.181818 C198.727266,193.181818 200.02272,192.295455 200.43181,190.977275 L199.136357,190.613639 C198.795448,191.522729 198.005676,191.977274 196.954541,191.977274 C195.380679,191.977274 194.295452,190.960229 194.232952,189.090913 L200.568174,189.090913 L200.568174,188.522732 C200.568174,185.272735 198.636357,184.159099 196.818177,184.159099 C194.454543,184.159099 192.886363,186.022734 192.886363,188.70455 C192.886363,191.386365 194.431816,193.181818 196.954541,193.181818 Z M199.204539,187.931823 L194.232952,187.931823 C194.323861,186.57387 195.284088,185.363644 196.818177,185.363644 C198.272721,185.363644 199.204539,186.454552 199.204539,187.931823 Z M205.181815,193.204545 C206.704545,193.204545 207.499994,192.386364 207.772721,191.818183 L207.840903,191.818183 L207.840903,193 L209.181811,193 L209.181811,187.250005 C209.181811,184.477281 207.068176,184.159099 205.954541,184.159099 C204.636361,184.159099 203.136362,184.613644 202.454544,186.204552 L203.72727,186.659099 C204.022725,186.022734 204.721588,185.340916 205.999996,185.340916 C207.244313,185.340916 207.840903,186.005688 207.840903,187.136369 C207.840903,187.784096 207.181813,187.750005 205.590905,187.95455 C203.971588,188.164777 202.204545,188.522732 202.204545,190.52273 C202.204545,192.227273 203.522725,193.204545 205.181815,193.204545 Z M205.38636,192.000001 C204.318179,192.000001 203.545452,191.522729 203.545452,190.590911 C203.545452,189.568185 204.47727,189.250004 205.522723,189.113641 C206.090905,189.045458 207.61363,188.886368 207.840903,188.613641 L207.840903,189.840912 C207.840903,190.93182 206.977267,192.000001 205.38636,192.000001 Z M214.568178,193.181818 C216.596585,193.181818 217.977266,192.073865 217.977266,190.568184 C217.977266,189.352276 217.215903,188.585231 215.659086,188.20455 L214.363633,187.886369 C213.329543,187.630687 212.863634,187.284096 212.863634,186.613642 C212.863634,185.863643 213.659088,185.318189 214.727269,185.318189 C215.897722,185.318189 216.380676,185.965916 216.61363,186.568188 L217.818175,186.227279 C217.397721,184.988644 216.45454,184.159099 214.727269,184.159099 C212.886361,184.159099 211.522726,185.204553 211.522726,186.681824 C211.522726,187.886369 212.238635,188.693186 213.840906,189.068186 L215.29545,189.409094 C216.176131,189.61364 216.590903,190.034094 216.590903,190.636366 C216.590903,191.386365 215.795449,192.000001 214.545451,192.000001 C213.448861,192.000001 212.761361,191.52841 212.522725,190.590911 L211.249999,190.909093 C211.562499,192.392046 212.784089,193.181818 214.568178,193.181818 Z M222.954541,193.113636 C223.454541,193.113636 223.772727,193.022727 223.954541,192.954545 L223.681814,191.750001 C223.568177,191.772728 223.386359,191.818183 223.090905,191.818183 C222.499996,191.818183 221.931815,191.636365 221.931815,190.500002 L221.931815,185.409098 L223.79545,185.409098 L223.79545,184.272736 L221.931815,184.272736 L221.931815,182.181828 L220.590907,182.181828 L220.590907,184.272736 L219.272727,184.272736 L219.272727,185.409098 L220.590907,185.409098 L220.590907,190.863638 C220.590907,192.386364 221.818179,193.113636 222.954541,193.113636 Z M74.8806735,217 L74.8806735,214.954547 L76.323854,214.954547 L76.323854,212.982958 L74.8806735,212.982958 L74.8806735,205.363647 L71.801131,205.363647 L66.9431811,213.017049 L66.9431811,214.954547 L72.528403,214.954547 L72.528403,217 L74.8806735,217 Z M72.5738575,212.982958 L69.4204515,212.982958 L69.4204515,212.892049 L72.4829485,208.045463 L72.5738575,208.045463 L72.5738575,212.982958 Z M82.5284038,217.255682 C85.4545374,217.255682 87.2215812,215.028411 87.2272765,211.193187 C87.2329448,207.386373 85.4431738,205.204557 82.5284038,205.204557 C79.6079521,205.204557 77.8352265,207.380691 77.8294906,211.193187 C77.8181811,215.017047 79.5965885,217.25 82.5284038,217.255682 Z M82.5284038,215.215911 C81.1931778,215.215911 80.3295423,213.875003 80.3351962,211.193187 C80.3409059,208.551144 81.1988597,207.2216 82.5284038,207.2216 C83.8522662,207.2216 84.7159296,208.551144 84.7159296,211.193187 C84.7215836,213.875003 83.857948,215.215911 82.5284038,215.215911 Z M91.9318145,210.732961 C93.585222,210.732961 94.5056756,209.568189 94.5000206,208.159099 L94.5000206,207.545464 C94.5056756,206.136374 93.6079492,204.960239 91.9318145,204.960239 C90.306816,204.960239 89.3806805,206.136374 89.3749987,207.545464 L89.3749987,208.159099 C89.3806805,209.556825 90.2727251,210.732961 91.9318145,210.732961 Z M91.4147695,217 L99.4147619,205.363647 L97.9318164,205.363647 L89.9318164,217 L91.4147695,217 Z M91.9318145,209.278416 C91.2613606,209.278416 91.0454517,208.715917 91.0397699,208.159099 L91.0397699,207.545464 C91.0454517,207.005691 91.2556787,206.414783 91.9318145,206.414783 C92.6477229,206.414783 92.8409045,206.988646 92.8352227,207.545464 L92.8352227,208.159099 C92.8409045,208.715917 92.6249956,209.278416 91.9318145,209.278416 Z M97.9090815,217.403409 C99.5568072,217.403409 100.477261,216.21591 100.471606,214.818184 L100.471606,214.204548 C100.477261,212.795459 99.5795344,211.619323 97.9090815,211.619323 C96.2670376,211.619323 95.3522657,212.806822 95.3465839,214.204548 L95.3465839,214.818184 C95.3522657,216.21591 96.2443104,217.403409 97.9090815,217.403409 Z M97.9090815,215.937501 C97.2159003,215.937501 97.0056733,215.357956 96.9999914,214.818184 L96.9999914,214.204548 C97.0056733,213.64773 97.227264,213.073867 97.9090815,213.073867 C98.6249899,213.073867 98.8124897,213.64773 98.8068079,214.204548 L98.8068079,214.818184 C98.8124897,215.375002 98.6022626,215.937501 97.9090815,215.937501 Z M108.880679,217 L108.880679,211.761369 C108.880679,210.79546 109.494314,210.153416 110.301132,210.153416 C111.096586,210.153416 111.630676,210.69887 111.630676,211.556823 L111.630676,217 L113.977265,217 L113.977265,211.67046 C113.977265,210.767051 114.49431,210.153416 115.374991,210.153416 C116.147717,210.153416 116.727262,210.63637 116.727262,211.60796 L116.727262,217 L119.142032,217 L119.142032,211.130687 C119.142032,209.238644 118.017034,208.159099 116.392035,208.159099 C115.113627,208.159099 114.11931,208.812508 113.761356,209.812507 L113.670447,209.812507 C113.392038,208.801144 112.499993,208.159099 111.301131,208.159099 C110.124996,208.159099 109.232951,208.784099 108.869315,209.812507 L108.767042,209.812507 L108.767042,208.272736 L106.460226,208.272736 L106.460226,217 L108.880679,217 Z M124.994314,217.170454 C127.642038,217.170454 129.289764,215.357956 129.289764,212.670459 C129.289764,209.965916 127.642038,208.159099 124.994314,208.159099 C122.346589,208.159099 120.698863,209.965916 120.698863,212.670459 C120.698863,215.357956 122.346589,217.170454 124.994314,217.170454 Z M125.005677,215.295456 C123.784087,215.295456 123.159088,214.176139 123.159088,212.653413 C123.159088,211.130687 123.784087,210.005688 125.005677,210.005688 C126.20454,210.005688 126.829539,211.130687 126.829539,212.653413 C126.829539,214.176139 126.20454,215.295456 125.005677,215.295456 Z M133.289769,217 L133.289769,212.062505 C133.295451,210.994324 134.068178,210.26137 135.04545,210.26137 C135.374995,210.26137 135.64204,210.352279 135.869317,210.465915 L136.596585,208.465917 C136.278403,208.272736 135.869317,208.147736 135.403404,208.147736 C134.42045,208.147736 133.624996,208.715917 133.306815,209.795461 L133.215906,209.795461 L133.215906,208.272736 L130.869317,208.272736 L130.869317,217 L133.289769,217 Z M141.704541,217.170454 C143.86363,217.170454 145.318174,216.119319 145.659082,214.500002 L143.420448,214.352275 C143.17613,215.017047 142.551131,215.363638 141.744313,215.363638 C140.534087,215.363638 139.767043,214.562502 139.767043,213.261367 L139.767043,213.255685 L145.710219,213.255685 L145.710219,212.590913 C145.710219,209.625007 143.914766,208.159099 141.60795,208.159099 C139.039771,208.159099 137.374999,209.982961 137.374999,212.67614 C137.374999,215.443183 139.017043,217.170454 141.704541,217.170454 Z M143.431812,211.755687 L139.767043,211.755687 C139.818179,210.76137 140.57386,209.965916 141.647723,209.965916 C142.698858,209.965916 143.42613,210.715915 143.431812,211.755687 Z M153.392043,217 L153.392043,211.54546 C153.392043,210.267052 154.32386,209.363644 155.369314,209.363644 C156.386358,209.363644 157.096585,210.028416 157.096585,211.022733 L157.096585,217 L158.46022,217 L158.46022,211.318187 C158.46022,210.193188 159.164765,209.363644 160.392036,209.363644 C161.346581,209.363644 162.164762,209.869325 162.164762,211.159099 L162.164762,217 L163.50567,217 L163.50567,211.159099 C163.50567,209.107962 162.403398,208.159099 160.846581,208.159099 C159.596583,208.159099 158.681811,208.732962 158.232947,209.636371 L158.142038,209.636371 C157.710221,208.704553 156.948858,208.159099 155.801132,208.159099 C154.664769,208.159099 153.823861,208.704553 153.460225,209.636371 L153.346589,209.636371 L153.346589,208.272736 L152.051135,208.272736 L152.051135,217 L153.392043,217 Z M169.505677,217.181818 C171.869311,217.181818 173.460219,215.386365 173.460219,212.681822 C173.460219,209.954552 171.869311,208.159099 169.505677,208.159099 C167.142043,208.159099 165.551136,209.954552 165.551136,212.681822 C165.551136,215.386365 167.142043,217.181818 169.505677,217.181818 Z M169.505677,215.977274 C167.710224,215.977274 166.892043,214.431821 166.892043,212.681822 C166.892043,210.931824 167.710224,209.363644 169.505677,209.363644 C171.30113,209.363644 172.119311,210.931824 172.119311,212.681822 C172.119311,214.431821 171.30113,215.977274 169.505677,215.977274 Z M176.846588,217 L176.846588,211.750005 C176.846588,210.227279 177.789769,209.363644 179.073859,209.363644 C180.318176,209.363644 181.073857,210.176143 181.073857,211.54546 L181.073857,217 L182.414765,217 L182.414765,211.454551 C182.414765,209.22728 181.227266,208.159099 179.460222,208.159099 C178.142042,208.159099 177.323861,208.750008 176.91477,209.636371 L176.801134,209.636371 L176.801134,208.272736 L175.505681,208.272736 L175.505681,217 L176.846588,217 Z M188.528404,217.181818 C190.30113,217.181818 191.596583,216.295455 192.005674,214.977275 L190.710221,214.613639 C190.369312,215.522729 189.57954,215.977274 188.528404,215.977274 C186.954542,215.977274 185.869316,214.960229 185.806816,213.090913 L192.142037,213.090913 L192.142037,212.522732 C192.142037,209.272735 190.210221,208.159099 188.392041,208.159099 C186.028407,208.159099 184.460226,210.022734 184.460226,212.70455 C184.460226,215.386365 186.00568,217.181818 188.528404,217.181818 Z M190.778402,211.931823 L185.806816,211.931823 C185.897725,210.57387 186.857951,209.363644 188.392041,209.363644 C189.846585,209.363644 190.778402,210.454552 190.778402,211.931823 Z M195.005681,220.38636 C196.232951,220.38636 197.07386,219.749997 197.573859,218.40909 L201.323856,208.272736 L199.869312,208.272736 L197.460223,215.227274 L197.369314,215.227274 L194.960225,208.272736 L193.505681,208.272736 L196.755678,217.068182 L196.437497,217.863636 C195.937497,219.159089 195.346589,219.295452 194.369317,219.045453 L194.028408,220.22727 C194.164772,220.295451 194.551135,220.38636 195.005681,220.38636 Z M210.551132,217.113636 C211.051132,217.113636 211.369318,217.022727 211.551131,216.954545 L211.278404,215.750001 C211.164768,215.772728 210.98295,215.818183 210.687496,215.818183 C210.096587,215.818183 209.528406,215.636365 209.528406,214.500002 L209.528406,209.409098 L211.392041,209.409098 L211.392041,208.272736 L209.528406,208.272736 L209.528406,206.181828 L208.187498,206.181828 L208.187498,208.272736 L206.869318,208.272736 L206.869318,209.409098 L208.187498,209.409098 L208.187498,214.863638 C208.187498,216.386364 209.41477,217.113636 210.551132,217.113636 Z M217.051132,217.181818 C219.414766,217.181818 221.005673,215.386365 221.005673,212.681822 C221.005673,209.954552 219.414766,208.159099 217.051132,208.159099 C214.687498,208.159099 213.09659,209.954552 213.09659,212.681822 C213.09659,215.386365 214.687498,217.181818 217.051132,217.181818 Z M217.051132,215.977274 C215.255679,215.977274 214.437498,214.431821 214.437498,212.681822 C214.437498,210.931824 215.255679,209.363644 217.051132,209.363644 C218.846585,209.363644 219.664766,210.931824 219.664766,212.681822 C219.664766,214.431821 218.846585,215.977274 217.051132,215.977274 Z M83.4431779,241.181818 C85.471585,241.181818 86.8522655,240.073865 86.8522655,238.568184 C86.8522655,237.352276 86.0909026,236.585231 84.5340859,236.20455 L83.2386326,235.886369 C82.2045427,235.630687 81.738634,235.284096 81.738634,234.613642 C81.738634,233.863643 82.5340878,233.318189 83.6022686,233.318189 C84.772722,233.318189 85.2556761,233.965916 85.4886304,234.568188 L86.6931748,234.227279 C86.2727206,232.988644 85.3295397,232.159099 83.6022686,232.159099 C81.7613613,232.159099 80.3977262,233.204553 80.3977262,234.681824 C80.3977262,235.886369 81.1136346,236.693186 82.7159058,237.068186 L84.1704499,237.409094 C85.0511309,237.61364 85.4659032,238.034094 85.4659032,238.636366 C85.4659032,239.386365 84.6704494,240.000001 83.4204506,240.000001 C82.3238607,240.000001 81.6363614,239.52841 81.3977253,238.590911 L80.1249992,238.909093 C80.4374989,240.392046 81.6590886,241.181818 83.4431779,241.181818 Z M89.5568164,230.840919 C90.0795431,230.840919 90.5113609,230.431828 90.5113609,229.931829 C90.5113609,229.431829 90.0795431,229.022739 89.5568164,229.022739 C89.0340896,229.022739 88.6022718,229.431829 88.6022718,229.931829 C88.6022718,230.431828 89.0340896,230.840919 89.5568164,230.840919 Z M90.2159066,241 L90.2159066,232.272736 L88.8749988,232.272736 L88.8749988,241 L90.2159066,241 Z M95.624996,241.113636 C96.1249955,241.113636 96.4431813,241.022727 96.6249951,240.954545 L96.352268,239.750001 C96.2386318,239.772728 96.0568138,239.818183 95.7613595,239.818183 C95.170451,239.818183 94.6022697,239.636365 94.6022697,238.500002 L94.6022697,233.409098 L96.4659043,233.409098 L96.4659043,232.272736 L94.6022697,232.272736 L94.6022697,230.181828 L93.2613619,230.181828 L93.2613619,232.272736 L91.9431813,232.272736 L91.9431813,233.409098 L93.2613619,233.409098 L93.2613619,238.863638 C93.2613619,240.386364 94.4886335,241.113636 95.624996,241.113636 Z M102.238632,241.181818 C104.011357,241.181818 105.306811,240.295455 105.715901,238.977275 L104.420448,238.613639 C104.079539,239.522729 103.289767,239.977274 102.238632,239.977274 C100.66477,239.977274 99.5795433,238.960229 99.5170434,237.090913 L105.852265,237.090913 L105.852265,236.522732 C105.852265,233.272735 103.920448,232.159099 102.102268,232.159099 C99.7386341,232.159099 98.1704538,234.022734 98.1704538,236.70455 C98.1704538,239.386365 99.7159068,241.181818 102.238632,241.181818 Z M104.48863,235.931823 L99.5170434,235.931823 C99.6079524,234.57387 100.568179,233.363644 102.102268,233.363644 C103.556812,233.363644 104.48863,234.454552 104.48863,235.931823 Z M110.829541,241.181818 C112.857949,241.181818 114.238629,240.073865 114.238629,238.568184 C114.238629,237.352276 113.477266,236.585231 111.92045,236.20455 L110.624996,235.886369 C109.590906,235.630687 109.124998,235.284096 109.124998,234.613642 C109.124998,233.863643 109.920451,233.318189 110.988632,233.318189 C112.159086,233.318189 112.64204,233.965916 112.874994,234.568188 L114.079538,234.227279 C113.659084,232.988644 112.715903,232.159099 110.988632,232.159099 C109.147725,232.159099 107.78409,233.204553 107.78409,234.681824 C107.78409,235.886369 108.499998,236.693186 110.102269,237.068186 L111.556814,237.409094 C112.437495,237.61364 112.852267,238.034094 112.852267,238.636366 C112.852267,239.386365 112.056813,240.000001 110.806814,240.000001 C109.710224,240.000001 109.022725,239.52841 108.784089,238.590911 L107.511363,238.909093 C107.823863,240.392046 109.045452,241.181818 110.829541,241.181818 Z M123.715905,241.113636 C124.215905,241.113636 124.53409,241.022727 124.715904,240.954545 L124.443177,239.750001 C124.329541,239.772728 124.147723,239.818183 123.852269,239.818183 C123.26136,239.818183 122.693179,239.636365 122.693179,238.500002 L122.693179,233.409098 L124.556813,233.409098 L124.556813,232.272736 L122.693179,232.272736 L122.693179,230.181828 L121.352271,230.181828 L121.352271,232.272736 L120.03409,232.272736 L120.03409,233.409098 L121.352271,233.409098 L121.352271,238.863638 C121.352271,240.386364 122.579543,241.113636 123.715905,241.113636 Z M128.011361,241 L128.011361,235.750005 C128.011361,234.227279 128.982951,233.363647 130.306814,233.363647 C131.568176,233.363647 132.329539,234.159097 132.329539,235.54546 L132.329539,241 L133.670453,241 L133.670453,235.454551 C133.670453,233.210235 132.477266,232.159099 130.693177,232.159099 C129.318178,232.159099 128.534088,232.732962 128.124997,233.636371 L128.011361,233.636371 L128.011361,229.363647 L126.670453,229.363647 L126.670453,241 L128.011361,241 Z M138.693178,241.204545 C140.215908,241.204545 141.011358,240.386364 141.284085,239.818183 L141.352267,239.818183 L141.352267,241 L142.693174,241 L142.693174,235.250005 C142.693174,232.477281 140.57954,232.159099 139.465905,232.159099 C138.147724,232.159099 136.647726,232.613644 135.965908,234.204552 L137.238634,234.659099 C137.534088,234.022734 138.232951,233.340916 139.511359,233.340916 C140.755676,233.340916 141.352267,234.005688 141.352267,235.136369 C141.352267,235.784096 140.693176,235.750005 139.102269,235.95455 C137.482952,236.164777 135.715908,236.522732 135.715908,238.52273 C135.715908,240.227273 137.034089,241.204545 138.693178,241.204545 Z M138.897723,240.000001 C137.829543,240.000001 137.056816,239.522729 137.056816,238.590911 C137.056816,237.568185 137.988633,237.250004 139.034087,237.113641 C139.602268,237.045458 141.124994,236.886368 141.352267,236.613641 L141.352267,237.840912 C141.352267,238.93182 140.488631,240.000001 138.897723,240.000001 Z M146.488634,241 L146.488634,235.750005 C146.488634,234.227279 147.431815,233.363644 148.715905,233.363644 C149.960222,233.363644 150.715903,234.176143 150.715903,235.54546 L150.715903,241 L152.05681,241 L152.05681,235.454551 C152.05681,233.22728 150.869312,232.159099 149.102268,232.159099 C147.784087,232.159099 146.965906,232.750008 146.556816,233.636371 L146.443179,233.636371 L146.443179,232.272736 L145.147726,232.272736 L145.147726,241 L146.488634,241 Z M161.579542,241.204545 C163.102272,241.204545 163.897721,240.386364 164.170448,239.818183 L164.23863,239.818183 L164.23863,241 L165.579538,241 L165.579538,235.250005 C165.579538,232.477281 163.465904,232.159099 162.352268,232.159099 C161.034088,232.159099 159.534089,232.613644 158.852272,234.204552 L160.124998,234.659099 C160.420452,234.022734 161.119315,233.340916 162.397723,233.340916 C163.64204,233.340916 164.23863,234.005688 164.23863,235.136369 C164.23863,235.784096 163.57954,235.750005 161.988632,235.95455 C160.369316,236.164777 158.602272,236.522732 158.602272,238.52273 C158.602272,240.227273 159.920453,241.204545 161.579542,241.204545 Z M161.784087,240.000001 C160.715906,240.000001 159.94318,239.522729 159.94318,238.590911 C159.94318,237.568185 160.874997,237.250004 161.920451,237.113641 C162.488632,237.045458 164.011358,236.886368 164.23863,236.613641 L164.23863,237.840912 C164.23863,238.93182 163.374995,240.000001 161.784087,240.000001 Z M171.329541,241.181818 C173.011358,241.181818 173.579539,240.136364 173.874993,239.659092 L174.034084,239.659092 L174.034084,241 L175.329537,241 L175.329537,229.363647 L173.98863,229.363647 L173.98863,233.659098 L173.874993,233.659098 C173.579539,233.204553 173.056812,232.159099 171.352268,232.159099 C169.147725,232.159099 167.624999,233.909098 167.624999,236.659095 C167.624999,239.43182 169.147725,241.181818 171.329541,241.181818 Z M171.511359,239.977274 C169.829543,239.977274 168.965907,238.500002 168.965907,236.636368 C168.965907,234.79546 169.806815,233.363644 171.511359,233.363644 C173.147721,233.363644 174.011357,234.681824 174.011357,236.636368 C174.011357,238.613639 173.124994,239.977274 171.511359,239.977274 Z M180.715905,241.181818 C182.744312,241.181818 184.124993,240.073865 184.124993,238.568184 C184.124993,237.352276 183.36363,236.585231 181.806813,236.20455 L180.51136,235.886369 C179.47727,235.630687 179.011361,235.284096 179.011361,234.613642 C179.011361,233.863643 179.806815,233.318189 180.874996,233.318189 C182.045449,233.318189 182.528403,233.965916 182.761358,234.568188 L183.965902,234.227279 C183.545448,232.988644 182.602267,232.159099 180.874996,232.159099 C179.034089,232.159099 177.670453,233.204553 177.670453,234.681824 C177.670453,235.886369 178.386362,236.693186 179.988633,237.068186 L181.443177,237.409094 C182.323858,237.61364 182.73863,238.034094 182.73863,238.636366 C182.73863,239.386365 181.943177,240.000001 180.693178,240.000001 C179.596588,240.000001 178.909089,239.52841 178.670453,238.590911 L177.397726,238.909093 C177.710226,240.392046 178.931816,241.181818 180.715905,241.181818 Z M193.943178,241.181818 C195.624994,241.181818 196.193175,240.136364 196.48863,239.659092 L196.64772,239.659092 L196.64772,241 L197.943174,241 L197.943174,229.363647 L196.602266,229.363647 L196.602266,233.659098 L196.48863,233.659098 C196.193175,233.204553 195.670449,232.159099 193.965905,232.159099 C191.761361,232.159099 190.238636,233.909098 190.238636,236.659095 C190.238636,239.43182 191.761361,241.181818 193.943178,241.181818 Z M194.124996,239.977274 C192.443179,239.977274 191.579543,238.500002 191.579543,236.636368 C191.579543,234.79546 192.420452,233.363644 194.124996,233.363644 C195.761358,233.363644 196.624993,234.681824 196.624993,236.636368 C196.624993,238.613639 195.73863,239.977274 194.124996,239.977274 Z M203.943177,241.181818 C206.306811,241.181818 207.897719,239.386365 207.897719,236.681822 C207.897719,233.954552 206.306811,232.159099 203.943177,232.159099 C201.579543,232.159099 199.988636,233.954552 199.988636,236.681822 C199.988636,239.386365 201.579543,241.181818 203.943177,241.181818 Z M203.943177,239.977274 C202.147724,239.977274 201.329543,238.431821 201.329543,236.681822 C201.329543,234.931824 202.147724,233.363644 203.943177,233.363644 C205.73863,233.363644 206.556811,234.931824 206.556811,236.681822 C206.556811,238.431821 205.73863,239.977274 203.943177,239.977274 Z" id="Wedistributeatleast40%moremoneytositesthanadsdo" fill-opacity="0.8" fill="#FFFFFF" fill-rule="nonzero"></path>
        </g>
    </g>
</svg>