<?xml version="1.0" encoding="UTF-8"?>
<svg width="352px" height="352px" viewBox="0 0 352 352" version="1.1" xmlns="http://www.w3.org/2000/svg" xmlns:xlink="http://www.w3.org/1999/xlink">
    <!-- Generator: Sketch 63.1 (92452) - https://sketch.com -->
    <title>Group 39</title>
    <desc>Created with Sketch.</desc>
    <g id="Page-1" stroke="none" stroke-width="1" fill="none" fill-rule="evenodd">
        <g id="Desktop" transform="translate(-184.000000, -3142.000000)">
            <g id="Group-39" transform="translate(184.000000, 3142.000000)">
                <circle id="Oval" fill-opacity="0.12" fill="#FFFFFF" cx="176" cy="176" r="176"></circle>
                <g id="Group-38" transform="translate(34.000000, 75.000000)">
                    <g id="Group-37" transform="translate(93.000000, 16.000000)">
                        <g id="Group-18">
                            <circle id="Oval-Copy-3" fill="#FFFFFF" cx="32" cy="32" r="32"></circle>
                            <path d="M14.3749958,38.7272606 L14.3749958,37.5937389 C16.691755,37.509222 18.048998,36.3408992 18.0539696,34.5461566 C18.048998,32.8508457 16.7713004,31.9509886 15.0014157,31.5532617 L14.3749958,31.4041142 L14.3749958,28.943179 C15.249995,29.0177528 15.7769831,29.4701671 15.8515569,30.2009903 L17.9147652,30.2009903 C17.8849357,28.4559636 16.5028347,27.2279818 14.3749958,27.1384932 L14.3749958,26 L13.7386328,26 L13.7386328,27.1484364 C11.7052541,27.2826692 10.2585225,28.4758499 10.2684657,30.2159051 C10.2634941,31.7173241 11.3224419,32.5774085 13.0426107,32.9900502 L13.7386328,33.1640557 L13.7386328,35.77911 C12.799003,35.6796783 12.1477252,35.1725765 12.0830946,34.2578046 L10,34.2578046 C10.0497159,36.3508424 11.4765611,37.484364 13.7386328,37.5887674 L13.7386328,38.7272606 L14.3749958,38.7272606 Z M13.7386328,31.2450234 C13.0177528,31.0362168 12.4609352,30.7031205 12.4758499,30.0717291 C12.4758499,29.4950251 12.9232927,29.0575255 13.7386328,28.9531222 L13.7386328,31.2450234 Z M14.3749958,35.77911 L14.3749958,33.3231464 C15.3444551,33.5816689 15.8764149,33.904822 15.8813864,34.541185 C15.8764149,35.2173208 15.2947393,35.694593 14.3749958,35.77911 Z M23.428263,37.6782559 C25.9886299,37.6782559 27.5347932,35.7293941 27.5397765,32.3735735 C27.5447363,29.0426107 25.9786867,27.1335216 23.428263,27.1335216 C20.8728677,27.1335216 19.3217328,29.0376391 19.3167139,32.3735735 C19.306818,35.719451 20.8629245,37.6732843 23.428263,37.6782559 Z M23.428263,35.8934565 C22.2599402,35.8934565 21.5042591,34.7201621 21.5092063,32.3735735 C21.5142023,30.0617859 22.2649118,28.8984347 23.428263,28.8984347 C24.5866426,28.8984347 25.342348,30.0617859 25.342348,32.3735735 C25.3472952,34.7201621 24.5916141,35.8934565 23.428263,35.8934565 Z M30.3288338,37.5837958 C30.97514,37.5837958 31.526986,37.0518361 31.5369292,36.3906151 C31.526986,35.7443089 30.97514,35.2173208 30.3288338,35.2173208 C29.677556,35.2173208 29.1306815,35.7343657 29.1356531,36.3906151 C29.1306815,37.0518361 29.6725844,37.5837958 30.3288338,37.5837958 Z M37.2443141,37.6782559 C39.804681,37.6782559 41.3508443,35.7293941 41.3558277,32.3735735 C41.3607875,29.0426107 39.7947378,27.1335216 37.2443141,27.1335216 C34.6889188,27.1335216 33.1377839,29.0376391 33.132765,32.3735735 C33.1228692,35.719451 34.6789757,37.6732843 37.2443141,37.6782559 Z M37.2443141,35.8934565 C36.0759914,35.8934565 35.3203103,34.7201621 35.3252575,32.3735735 C35.3302534,30.0617859 36.080963,28.8984347 37.2443141,28.8984347 C38.4026937,28.8984347 39.1583992,30.0617859 39.1583992,32.3735735 C39.1633464,34.7201621 38.4076653,35.8934565 37.2443141,35.8934565 Z M47.0681776,37.4545345 L47.0681776,27.2727261 L44.9950261,27.2727261 C44.9701682,27.8941743 44.095169,28.9531222 42.7876419,28.9531222 L42.7876419,30.6633478 C43.9112204,30.6633478 44.6420435,30.2457346 44.8607933,29.9076667 L44.9552535,29.9076667 L44.9552535,37.4545345 L47.0681776,37.4545345 Z M53.6704503,37.4545345 L53.6704503,27.2727261 L51.5972989,27.2727261 C51.5724409,27.8941743 50.6974418,28.9531222 49.3899146,28.9531222 L49.3899146,30.6633478 C50.5134931,30.6633478 51.2443163,30.2457346 51.463066,29.9076667 L51.5575262,29.9076667 L51.5575262,37.4545345 L53.6704503,37.4545345 Z" id="$0.011" fill="#000000" fill-rule="nonzero"></path>
                        </g>
                        <text id="WITH-ADS" font-family="FirefoxSharpSans-Bold, Firefox Sharp Sans" font-size="12" font-weight="bold" line-spacing="34" fill="#FFFFFF">
                            <tspan x="2.066" y="76">WITH ADS</tspan>
                        </text>
                    </g>
                    <g id="Group-35" transform="translate(186.000000, 0.000000)">
                        <g id="Group-19" transform="translate(3.000000, 0.000000)">
                            <circle id="Oval-Copy-5" fill="#D64CF1" cx="40" cy="40" r="40"></circle>
                            <path d="M20.3749958,46.7272606 L20.3749958,45.5937389 C22.691755,45.509222 24.048998,44.3408992 24.0539696,42.5461566 C24.048998,40.8508457 22.7713004,39.9509886 21.0014157,39.5532617 L20.3749958,39.4041142 L20.3749958,36.943179 C21.249995,37.0177528 21.7769831,37.4701671 21.8515569,38.2009903 L23.9147652,38.2009903 C23.8849357,36.4559636 22.5028347,35.2279818 20.3749958,35.1384932 L20.3749958,34 L19.7386328,34 L19.7386328,35.1484364 C17.7052541,35.2826692 16.2585225,36.4758499 16.2684657,38.2159051 C16.2634941,39.7173241 17.3224419,40.5774085 19.0426107,40.9900502 L19.7386328,41.1640557 L19.7386328,43.77911 C18.799003,43.6796783 18.1477252,43.1725765 18.0830946,42.2578046 L16,42.2578046 C16.0497159,44.3508424 17.4765611,45.484364 19.7386328,45.5887674 L19.7386328,46.7272606 L20.3749958,46.7272606 Z M19.7386328,39.2450234 C19.0177528,39.0362168 18.4609352,38.7031205 18.4758499,38.0717291 C18.4758499,37.4950251 18.9232927,37.0575255 19.7386328,36.9531222 L19.7386328,39.2450234 Z M20.3749958,43.77911 L20.3749958,41.3231464 C21.3444551,41.5816689 21.8764149,41.904822 21.8813864,42.541185 C21.8764149,43.2173208 21.2947393,43.694593 20.3749958,43.77911 Z M29.428263,45.6782559 C31.9886299,45.6782559 33.5347932,43.7293941 33.5397765,40.3735735 C33.5447363,37.0426107 31.9786867,35.1335216 29.428263,35.1335216 C26.8728677,35.1335216 25.3217328,37.0376391 25.3167139,40.3735735 C25.306818,43.719451 26.8629245,45.6732843 29.428263,45.6782559 Z M29.428263,43.8934565 C28.2599402,43.8934565 27.5042591,42.7201621 27.5092063,40.3735735 C27.5142023,38.0617859 28.2649118,36.8984347 29.428263,36.8984347 C30.5866426,36.8984347 31.342348,38.0617859 31.342348,40.3735735 C31.3472952,42.7201621 30.5916141,43.8934565 29.428263,43.8934565 Z M36.3288338,45.5837958 C36.97514,45.5837958 37.526986,45.0518361 37.5369292,44.3906151 C37.526986,43.7443089 36.97514,43.2173208 36.3288338,43.2173208 C35.677556,43.2173208 35.1306815,43.7343657 35.1356531,44.3906151 C35.1306815,45.0518361 35.6725844,45.5837958 36.3288338,45.5837958 Z M43.2443141,45.6782559 C45.804681,45.6782559 47.3508443,43.7293941 47.3558277,40.3735735 C47.3607875,37.0426107 45.7947378,35.1335216 43.2443141,35.1335216 C40.6889188,35.1335216 39.1377839,37.0376391 39.132765,40.3735735 C39.1228692,43.719451 40.6789757,45.6732843 43.2443141,45.6782559 Z M43.2443141,43.8934565 C42.0759914,43.8934565 41.3203103,42.7201621 41.3252575,40.3735735 C41.3302534,38.0617859 42.080963,36.8984347 43.2443141,36.8984347 C44.4026937,36.8984347 45.1583992,38.0617859 45.1583992,40.3735735 C45.1633464,42.7201621 44.4076653,43.8934565 43.2443141,43.8934565 Z M53.0681776,45.4545345 L53.0681776,35.2727261 L50.9950261,35.2727261 C50.9701682,35.8941743 50.095169,36.9531222 48.7876419,36.9531222 L48.7876419,38.6633478 C49.9112204,38.6633478 50.6420435,38.2457346 50.8607933,37.9076667 L50.9552535,37.9076667 L50.9552535,45.4545345 L53.0681776,45.4545345 Z M59.3970131,45.5937885 C61.6640564,45.6036821 63.2102197,44.1171779 63.2052619,42.0440264 C63.2102197,40.1349373 61.8778346,38.757808 60.0731488,38.757808 C58.9545419,38.757808 57.9651962,39.2947393 57.5078103,40.1945964 L57.4382081,40.1945964 C57.4481513,38.181104 58.1441733,36.9481506 59.4715869,36.9481506 C60.2521259,36.9481506 60.8139151,37.3707354 60.9779775,38.1164733 L63.1008448,38.1164733 C62.8970097,36.4062477 61.5049656,35.1036921 59.4715869,35.1036921 C56.9559643,35.1036921 55.3401987,37.1420425 55.3302556,40.5923233 C55.3401987,44.3210129 57.3039753,45.5837958 59.3970131,45.5937885 Z M59.3870699,43.9033996 C58.3927527,43.9033996 57.6569579,43.1029743 57.6569579,42.108657 C57.6619295,41.1193114 58.412639,40.3139144 59.4019846,40.3139144 C60.3963019,40.3139144 61.1221535,41.0944535 61.1172073,42.1036855 C61.1221535,43.1228606 60.3813871,43.9033996 59.3870699,43.9033996 Z" id="$0.016" fill="#000000" fill-rule="nonzero"></path>
                        </g>
                        <text id="WITH-SCROLL" font-family="FirefoxSharpSans-Bold, Firefox Sharp Sans" font-size="12" font-weight="bold" line-spacing="34" fill="#FFFFFF">
                            <tspan x="0.452" y="92">WITH SCROLL</tspan>
                        </text>
                    </g>
                    <g id="Group-36" transform="translate(0.000000, 38.000000)">
                        <g id="Group-16" transform="translate(19.000000, 0.000000)">
                            <circle id="Oval-Copy-4" fill-opacity="0.5" fill="#FFFFFF" cx="21" cy="21" r="21"></circle>
                            <path d="M16.3749958,27.7272606 L16.3749958,26.5937389 C18.691755,26.509222 20.048998,25.3408992 20.0539696,23.5461566 C20.048998,21.8508457 18.7713004,20.9509886 17.0014157,20.5532617 L16.3749958,20.4041142 L16.3749958,17.943179 C17.249995,18.0177528 17.7769831,18.4701671 17.8515569,19.2009903 L19.9147652,19.2009903 C19.8849357,17.4559636 18.5028347,16.2279818 16.3749958,16.1384932 L16.3749958,15 L15.7386328,15 L15.7386328,16.1484364 C13.7052541,16.2826692 12.2585225,17.4758499 12.2684657,19.2159051 C12.2634941,20.7173241 13.3224419,21.5774085 15.0426107,21.9900502 L15.7386328,22.1640557 L15.7386328,24.77911 C14.799003,24.6796783 14.1477252,24.1725765 14.0830946,23.2578046 L12,23.2578046 C12.0497159,25.3508424 13.4765611,26.484364 15.7386328,26.5887674 L15.7386328,27.7272606 L16.3749958,27.7272606 Z M15.7386328,20.2450234 C15.0177528,20.0362168 14.4609352,19.7031205 14.4758499,19.0717291 C14.4758499,18.4950251 14.9232927,18.0575255 15.7386328,17.9531222 L15.7386328,20.2450234 Z M16.3749958,24.77911 L16.3749958,22.3231464 C17.3444551,22.5816689 17.8764149,22.904822 17.8813864,23.541185 C17.8764149,24.2173208 17.2947393,24.694593 16.3749958,24.77911 Z M25.428263,26.6782559 C27.9886299,26.6782559 29.5347932,24.7293941 29.5397765,21.3735735 C29.5447363,18.0426107 27.9786867,16.1335216 25.428263,16.1335216 C22.8728677,16.1335216 21.3217328,18.0376391 21.3167139,21.3735735 C21.306818,24.719451 22.8629245,26.6732843 25.428263,26.6782559 Z M25.428263,24.8934565 C24.2599402,24.8934565 23.5042591,23.7201621 23.5092063,21.3735735 C23.5142023,19.0617859 24.2649118,17.8984347 25.428263,17.8984347 C26.5866426,17.8984347 27.342348,19.0617859 27.342348,21.3735735 C27.3472952,23.7201621 26.5916141,24.8934565 25.428263,24.8934565 Z" id="$0" fill="#000000" fill-rule="nonzero"></path>
                        </g>
                        <text id="ad-blocker" font-family="FirefoxSharpSans-Bold, Firefox Sharp Sans" font-size="12" font-weight="bold" line-spacing="34" fill="#FFFFFF">
                            <tspan x="0.38" y="54">AD BLOCKER</tspan>
                        </text>
                    </g>
                </g>
                <text id="We-distribute-at-lea" font-family="InterUI-Regular, Inter UI" font-size="18" font-weight="normal" line-spacing="34" fill="#FFFFFF" fill-opacity="0.8">
                    <tspan x="85.7329545" y="222">We distribute at least</tspan>
                    <tspan x="88.9481534" y="256" font-family="InterUI-Bold, Inter UI" font-weight="bold">40% more</tspan>
                    <tspan x="179.114347" y="256"> money to</tspan>
                    <tspan x="117.079545" y="290">sites than ads</tspan>
                </text>
            </g>
        </g>
    </g>
</svg>