<svg xmlns="http://www.w3.org/2000/svg" width="212" height="72" viewBox="0 0 212 72">
    <g fill="#2D0023" fill-rule="nonzero">
        <path d="M45.123 50.772l4.016-7.476s3.706 3.656 8.174 3.656c3.46 0 4.52-1.946 4.52-3.402 0-6.254-15.23-2.262-15.23-14.692 0-6.496 4.27-11.736 12.476-11.736 5.91 0 11.087 2.93 11.087 2.93l-3.744 7.227s-2.588-2.417-5.972-2.417c-2.28 0-4.089 1.119-4.089 3.015 0 5.387 15.28 2.076 15.28 14.82 0 7.332-5.128 12.123-13.885 12.123-7.573 0-12.633-4.048-12.633-4.048zM75.813 53.782V18.161h9.254v27.82H97.72v7.801zM102.158 45.981v-7.049h4.846l-4.846-13.816V18.16h6.387l13.63 35.621h-9.914l-2.738-7.8zM126.047 53.782v-27.82H118.4V18.16h24.645v7.8h-7.649v27.821zM147.481 53.776V18.161h20.396v7.8h-11.142v6.016h11.142v7.8h-11.142v6.204h11.142v7.801z"/>
    </g>
</svg>
