<svg xmlns="http://www.w3.org/2000/svg" xmlns:xlink="http://www.w3.org/1999/xlink" width="212" height="72" viewBox="0 0 212 72">
    <defs>
        <path id="a" d="M0 0h212v72H0z"/>
    </defs>
    <g fill="none" fill-rule="evenodd">
        <mask id="b" fill="#fff">
            <use xlink:href="#a"/>
        </mask>
        <g mask="url(#b)">
            <path fill="#EB4C41" d="M163.597 65.477l-115.436.12-.08-41.436 57.879-18.12 57.637 18.281z"/>
            <g fill="#FFF">
                <path d="M67.374 38.054v-1.651c0-1.772-.725-2.336-1.571-2.054-1.29.403-1.732 1.289-1.732 2.86v10.71c0 1.57.403 2.215 1.732 1.813 1.168-.363 1.57-1.249 1.57-2.618v-2.537l3.223-1.007v2.417c0 2.98-1.571 5.879-4.793 6.885-3.384 1.047-4.954-.885-4.954-3.865V38.134c0-2.98 1.57-5.879 4.954-6.926 3.222-1.007 4.793 1.128 4.793 4.309v1.57l-3.222.967M76.96 28.027l3.222-1.007v15.906c0 1.57.564 2.134 1.732 1.772 1.168-.362 1.732-1.289 1.732-2.86V25.934l3.222-1.007v15.785c0 3.625-1.893 6.202-4.954 7.128-3.061.926-4.954-.443-4.954-4.067V28.027"/>
                <path fill-rule="nonzero" d="M96.494 31.41l1.128-.363c1.732-.524 2.377-1.49 2.377-3.987 0-2.496-.645-3.02-2.377-2.496l-1.128.362v6.483zm0 11.637l-3.222 1.007V22.953l4.511-1.41c3.625-1.127 5.438.04 5.438 4.51 0 3.383-1.168 5.115-2.256 6.041l2.74 8.698-3.304 1.007-2.295-8.014c-.403.202-1.088.403-1.652.604l.04 8.658zM113.008 39.302l1.33.403c1.731.523 2.336-.363 2.336-2.497 0-2.174-.725-3.463-2.659-4.067l-1.047-.322.04 6.483zm0-9.463l1.168.362c1.249.363 2.175-.241 2.175-2.013 0-1.933-.684-3.181-2.094-3.624l-1.249-.363v5.638zm-3.222-9.665l4.793 1.49c3.464 1.088 4.995 3.544 4.995 7.128 0 1.812-.685 3.503-2.216 3.705 1.652 1.329 2.618 3.1 2.618 5.798 0 3.463-1.37 5.678-5.034 4.51l-5.116-1.61-.04-21.02z"/>
                <path d="M126.099 46.39V25.288l8.62 2.698v3.14l-5.398-1.69v5.435l4.148 1.29v3.14l-4.148-1.289v6.202l5.76 1.812v3.14l-8.982-2.778"/>
                <path fill-rule="nonzero" d="M144.385 49.128l1.128.362c1.731.523 2.336 0 2.336-2.215v-9.221c0-2.215-.605-3.141-2.337-3.665l-1.127-.362v15.1zM141.163 30l4.793 1.49c3.302 1.047 5.115 3.624 5.115 7.973V47.8c0 4.308-1.772 5.839-5.115 4.792l-4.793-1.49V30z"/>
                <path fill-rule="nonzero" d="M105.96 6l-.886.282-54.98 17.154-2.094.645v41.637h115.88V24.081l-2.095-.645-54.94-17.154L105.96 6zm0 3.14l54.979 17.155V62.78H51.02V26.255L105.96 9.141z"/>
            </g>
        </g>
    </g>
</svg>
