<svg xmlns="http://www.w3.org/2000/svg" xmlns:xlink="http://www.w3.org/1999/xlink" width="212" height="72" viewBox="0 0 212 72">
    <defs>
        <path id="a" d="M0 0h212v72H0z"/>
        <path id="b" d="M0 181.925h232V.378H0z"/>
        <path id="d" d="M0 181.925h232V.378H0z"/>
        <path id="f" d="M0 181.925h232V.378H0z"/>
        <path id="h" d="M0 181.925h232V.378H0z"/>
        <path id="j" d="M0 181.925h232V.378H0z"/>
        <path id="l" d="M0 181.925h232V.378H0z"/>
        <path id="n" d="M0 181.925h232V.378H0z"/>
        <path id="p" d="M0 181.925h232V.378H0z"/>
    </defs>
    <g fill="none" fill-rule="evenodd">
        <g transform="translate(-10 -54)">
            <mask id="c" fill="#fff">
                <use xlink:href="#b"/>
            </mask>
            <path fill="#DC4028" d="M43.5 73.236v1.081c2.582 0 3.474.235 3.474 2.492v21.349c0 2.257-.892 2.492-3.474 2.492v1.082h21.267l.093-7.101h-.798c-.657 5.173-2.253 5.784-7.934 5.784h-3.896V88.612h3.99c3.756 0 3.944.611 4.32 3.527h.844v-8.37h-.845c-.375 2.915-.563 3.526-4.319 3.526h-3.99V76.856c0-2.069.563-2.539 4.366-2.539v-1.081H43.5z" mask="url(#c)" transform="matrix(1 0 0 -1 0 174.967)"/>
        </g>
        <g transform="translate(-10 -54)">
            <mask id="e" fill="#fff">
                <use xlink:href="#d"/>
            </mask>
            <path fill="#DC4028" fill-rule="nonzero" d="M72.184 90.822c-1.784-.752-3.099-1.787-3.099-3.997 0-1.975 1.268-3.338 3.099-3.338 1.126 0 2.253.611 3.192 1.645v6.866l-3.192-1.176zm-1.22 8.794c-2.16 0-3.991-1.458-5.118-4.091l-.939.376c1.22 3.62 4.272 6.3 8.31 6.3 4.413 0 7.135-2.773 7.135-7.24v-9.782c0-1.316.704-1.974 1.502-1.974.705 0 1.08.282 1.69.987l.564-.611c-.845-1.364-2.347-2.54-4.32-2.54-2.018 0-3.755 1.13-4.365 3.292-1.174-1.693-3.333-3.292-5.915-3.292-2.63 0-4.976 1.693-4.976 4.609 0 3.01 2.535 4.467 6.243 5.878l4.601 1.74v1.363c0 2.727-1.315 4.985-4.413 4.985z" mask="url(#e)" transform="matrix(1 0 0 -1 0 183.243)"/>
        </g>
        <g transform="translate(-10 -54)">
            <mask id="g" fill="#fff">
                <use xlink:href="#f"/>
            </mask>
            <path fill="#DC4028" d="M90.778 102.202h.376v-5.69c1.502 0 5.07.047 6.431.188l-.281-1.599h-6.15V82.264c0-2.257.986-3.903 3.098-3.903 1.409 0 2.347.659 3.333 2.022l.704-.564c-1.502-2.445-3.708-3.903-6.478-3.903-3.192 0-5.68 2.304-5.68 5.643l.14 13.59h-2.488v.658c2.63 1.599 5.399 4.232 6.995 6.395" mask="url(#g)" transform="matrix(1 0 0 -1 0 178.118)"/>
        </g>
        <g transform="translate(-10 -54)">
            <mask id="i" fill="#fff">
                <use xlink:href="#h"/>
            </mask>
            <path fill="#DC4028" d="M108.664 71.167h-10.14v.987c2.112 0 2.582.235 2.582 2.54v23.511c0 2.304-.564 2.54-3.052 2.54v.987h8.075V87.625c.939 1.928 3.333 4.232 6.384 4.232 4.273 0 6.244-3.104 6.244-6.866V74.693c0-2.304.47-2.539 2.63-2.539v-.987h-10.188v.987c2.113 0 2.582.235 2.582 2.54v9.498c0 3.386-1.408 4.984-3.85 4.984-1.643 0-3.004-1.034-3.802-2.586V74.693c0-2.304.47-2.539 2.535-2.539v-.987z" mask="url(#i)" transform="matrix(1 0 0 -1 0 172.898)"/>
        </g>
        <g transform="translate(-10 -54)">
            <mask id="k" fill="#fff">
                <use xlink:href="#j"/>
            </mask>
            <path fill="#DC4028" fill-rule="nonzero" d="M126.545 95.195h8.404c-.141 3.34-1.315 5.737-3.803 5.737-2.441 0-4.225-1.975-4.6-5.737m5.257-14.154c-5.54 0-10.093 4.233-10.093 10.299 0 6.207 4.694 10.862 9.577 10.862 5.398 0 7.98-4.28 7.98-8.182h-12.816v-.517c0-5.69 3.193-9.828 7.746-9.828 1.972 0 3.521.752 4.789 2.445l.61-.564c-1.83-2.963-4.788-4.515-7.793-4.515" mask="url(#k)" transform="matrix(1 0 0 -1 0 183.243)"/>
        </g>
        <g transform="translate(-10 -54)">
            <mask id="m" fill="#fff">
                <use xlink:href="#l"/>
            </mask>
            <path fill="#DC4028" d="M151.492 81.041h-11.079v.988c2.112 0 2.582.235 2.582 2.54v13.166c0 2.304-.47 2.539-2.582 2.539v.987h7.558v-4.42c2.066 3.104 3.474 4.89 5.352 4.89 1.362 0 2.77-1.08 3.427-2.069l-1.83-4.278h-.142c-.892 1.551-2.347 2.774-3.708 2.774-1.033 0-1.925-.8-3.099-2.304V84.568c0-2.304.657-2.54 3.521-2.54v-.987z" mask="url(#m)" transform="matrix(1 0 0 -1 0 182.773)"/>
        </g>
        <g transform="translate(-10 -54)">
            <mask id="o" fill="#fff">
                <use xlink:href="#n"/>
            </mask>
            <path fill="#DC4028" d="M156.197 100.744v.987h8.074V74.693c0-2.304.47-2.54 2.536-2.54v-.986h-10.14v.987c2.112 0 2.581.235 2.581 2.54v23.51c0 2.305-.563 2.54-3.051 2.54" mask="url(#o)" transform="matrix(1 0 0 -1 0 172.898)"/>
        </g>
        <g transform="translate(-10 -54)">
            <mask id="q" fill="#fff">
                <use xlink:href="#p"/>
            </mask>
            <path fill="#DC4028" d="M167.186 82.123v.611c3.569.47 6.808 3.386 9.718 9.029l-7.23 15.94c-.938 2.07-1.173 2.446-3.098 2.446v.987h10.563v-.987c-1.596 0-2.535-.094-2.535-1.035 0-.376.14-.8.423-1.458l4.366-10.533 4.178 10.392c.234.612.375 1.082.375 1.411 0 1.034-1.032 1.223-2.77 1.223v.987h7.324v-.987c-2.066 0-2.347-.283-3.333-2.634l-6.385-14.718c-2.535-5.878-4.93-10.063-6.197-11.285l-5.399.61z" mask="url(#q)" transform="matrix(1 0 0 -1 0 192.648)"/>
        </g>
    </g>
</svg>
