<svg xmlns="http://www.w3.org/2000/svg" xmlns:xlink="http://www.w3.org/1999/xlink" width="212" height="72" viewBox="0 0 212 72">
    <defs>
        <path id="a" d="M0 0h212v72H0z"/>
    </defs>
    <g fill="none" fill-rule="evenodd">
        <mask id="b" fill="#fff">
            <use xlink:href="#a"/>
        </mask>
        <g mask="url(#b)">
            <path fill="#F12330" fill-rule="nonzero" d="M44.014 24.027l-.035.202c-.632 3.587-1.906 5.544-3.982 6.434a3.993 3.993 0 0 1-1.584.327c-2.84 0-4.212-2.703-4.705-3.597-.466-.848-.898-1.839-1.355-2.888-1.19-2.73-3.023-6.025-4.94-6.025-.489 0-1.171.084-1.831.45-1.341.74-1.327 1.452-1.36 1.714-.288 2.338 1.745 4.56 4.543 7.197.322.305.666.618 1.032.95 1.637 1.488 3.39 3.174 4.578 5.215.72 1.234 1.213 2.491 1.292 3.74.09 1.447-.34 2.892-1.103 4.296-.494.91-1.058 1.635-1.742 2.422-1.913 2.198-2.61 4.093-1.855 5.814.398.906 1.3 1.657 2.158 1.802.374.062.725.093 1.046.093 2.5 0 3.669-1.657 4.225-6.283.23-1.92 1.18-3.913 2.057-5.495 1.186-2.138 2.9-3.105 5.09-3.272.163-.013.326-.02.484-.02 1.618 0 3.034.642 4.092 1.855.809.929 1.342 1.993 1.637 3.466.235 1.181.182 2.593.032 3.787-.046.36-.101.74-.159 1.143-.284 1.987-.71 5.313.245 6.496.104.128.381.472 1.347.527.128.007.252.011.374.011 1.372 0 1.949-.682 2.264-1.033.911-1.018 1.476-3.045 1.19-5.913-.05-.494-.18-1.22-.316-1.99-.318-1.781-.732-4.008-.68-6.09.074-2.939.853-4.778 2.71-5.893a4.04 4.04 0 0 1 2.02-.546c1.26 0 2.54.426 3.605 1.667.784.913 1.33 1.959 1.585 2.5.404.858.606 1.715.9 2.543.558 1.577 1.02 3.072 2.037 4.036.67.636 1.372.883 1.976.883.544 0 1.19-.316 1.683-.877.878-1 1.275-2.268 1.181-3.77-.127-1.997-.939-4.212-2.382-5.483-.699-.617-1.947-1.057-2.95-1.63-1.453-.834-2.656-1.531-3.743-2.824-1.42-1.685-1.8-3.876-1.13-6.189l.097-.33c.629-2.151.753-3.112.12-3.71-.283-.268-.928-.308-1.001-.308-.36 0-.838.185-1.218.628-.361.423-.721 1.061-1.102 1.738-.527.936-1.125 1.998-1.952 2.869-1.116 1.174-2.352 1.87-3.87 1.903-.036.002-.073.002-.109.002-2.471 0-3.903-1.726-4.473-2.347-.456-.497-1.05-1.337-1.507-2.072-.461-.746-1.003-1.576-1.529-2.176-1.56-1.783-2.471 1.114-2.985 4.05m-3.865-.642l.034-.2c.398-2.276.8-5.787 3.327-7.326.86-.524 1.746-.717 2.635-.717 2.992 0 4.915 2.995 6.132 4.863.678 1.041 1.233 2.328 2.13 2.328l.017-.002c.808-.017 1.4-.692 2.468-2.586a15.499 15.499 0 0 1 1.675-2.415c1.195-1.397 2.394-1.863 3.992-1.863 1.256 0 2.87.467 3.847 1.39 1.202 1.137 1.651 2.62 1.592 4.426-.044 1.308-.412 2.26-.737 3.368-.03.108-.061.215-.092.32-.344 1.19-.027 2.212.299 2.598.606.72 1.73 1.363 2.918 2.043 1.14.653 2.318.921 3.339 1.82 2.277 2.009 3.713 5.089 3.91 8.203.166 2.633-.404 4.798-2.028 6.649-1.306 1.488-2.932 2.273-4.702 2.273-1.702 0-3.268-.636-4.74-2.031-1.754-1.667-2.387-3.638-3.035-5.466-.27-.763-.504-1.483-.817-2.148-.457-.97-.78-1.852-1.48-1.852-.699 0-.746 1.566-.767 2.419-.042 1.65.391 3.631.674 5.222.16.89.297 1.657.362 2.316.692 6.924-2.552 11.51-7.407 11.51-.202 0-.409-.007-.617-.02-2.32-.136-3.67-1.196-4.375-2.069-2.121-2.625-1.508-6.772-1.076-9.793.055-.385.107-.747.148-1.072.194-1.541-.152-3.165-.806-3.915-.259-.297-.532-.417-.943-.417a1.9 1.9 0 0 0-.164.006c-1.597.123-2.23 1.818-3.204 5.605-.545 2.123-1.008 4.418-2.117 6.216-1.45 2.353-3.66 3.446-6.371 3.446-.547 0-1.13-.051-1.73-.151-1.144-.19-2.28-.733-3.283-1.566-.932-.774-1.695-1.769-2.148-2.803-.804-1.832-.82-4.167-.046-6.136.6-1.53 1.294-2.341 2.175-3.55.558-.766 1.286-1.642 1.647-2.307.715-1.316.878-2.465.074-3.848-.86-1.477-2.459-2.93-3.87-4.213-.38-.345-.737-.67-1.087-1.001-3.116-2.933-6.388-6.245-5.844-10.626.175-1.42.842-3.625 3.504-5.1 1.286-.713 2.547-.87 3.75-.87 2.15 0 4.045.908 5.63 3.1 1.167 1.614 2.06 3.59 2.796 5.355 1.107 2.656 3.057 8.64 4.41.588"/>
            <path fill="#231F1F" fill-rule="nonzero" d="M156.023 41.537c-.177-.39 0-.66.446-.66h1.512c.239 0 .415.15.505.332l4.18 9.172h.03l3.945-9.172a.6.6 0 0 1 .504-.331h1.335c.445 0 .653.3.445.69l-7.272 15.504c-.088.181-.295.361-.504.361h-1.097c-.445 0-.683-.33-.474-.75l1.962-3.844-5.517-11.302zm-20.574 9.476c1.484 0 2.76-.718 3.263-1.468v-2.223c-.354-.369-1.44-.92-2.744-.92-1.661 0-2.803.712-2.803 2.272 0 1.2 1.009 2.339 2.285 2.339zm.771-6.327c1.276 0 2.522.812 2.522.812.03-2.219-.862-3.239-2.552-3.239-1.632 0-2.401.45-2.935.661-.298.12-.475-.03-.565-.3l-.238-.75c-.118-.359.06-.539.328-.66.177-.088 1.274-.779 3.497-.779 3.026 0 4.392 1.56 4.392 5.068v6.653c0 .301-.267.57-.563.57h-.777c-.327 0-.415-.18-.505-.45l-.024-.808c-.623.63-1.838 1.348-3.678 1.348-2.076 0-3.855-1.74-3.855-4.137 0-2.278 1.898-3.988 4.953-3.988v-.001zm-17.926.966h-6.532c-.182 0-.204-.16-.206-.205.292-1.733 1.769-3.049 3.656-3.049 1.705 0 3.06 1.405 3.254 3.028.002.076-.015.226-.172.226zm-3.082-5.06c-3.542 0-5.738 2.87-5.738 6.214 0 3.403 2.196 6.213 5.738 6.213 2.02 0 3.6-.799 4.302-1.361.44-.325.322-.504.117-.77-.176-.235-.323-.443-.498-.68-.233-.325-.41-.178-.82.06-.672.415-1.667.887-2.897.887-1.991 0-3.656-1.712-3.895-3.6.008-.18.147-.245.147-.245h8.256a.542.542 0 0 0 .528-.504c.03-.206.059-.59.059-.798 0-3.106-2.226-5.414-5.298-5.414l-.001-.001zM94.05 50.534c-.146-.236-.263-.414-.702-.178 0 0-.661.73-1.811.73-1.152 0-1.316-1.4-1.293-1.499v-6.53c.01-.13.075-.367.39-.391h3.006a.56.56 0 0 0 .557-.562v-.652a.541.541 0 0 0-.557-.561h-2.954c-.362 0-.43-.257-.44-.397V37.4c0-.296-.235-.561-.527-.561h-.904c-.294 0-.586.265-.586.561v3.09s-.012.369-.359.4h-1.138a.541.541 0 0 0-.556.561v.652a.56.56 0 0 0 .556.561h1.163c.26.038.318.268.33.359v6.74c0 1.835 1.04 3.256 3.381 3.256 1.376 0 2.267-.74 2.677-1.007.322-.206.41-.384.206-.74l-.439-.739zm8.436-9.94c-1.726 0-2.78.83-3.227 1.282h-.001s-.25.246-.25-.126v-5.626a.58.58 0 0 0-.557-.562h-.909a.58.58 0 0 0-.555.562V52.16a.58.58 0 0 0 .555.561h.909a.58.58 0 0 0 .557-.561v-6.49c0-2.216 1.627-2.858 2.685-3.043.205-.032.42-.053.646-.053 1.64 0 3.079 1.095 3.079 3.343v6.242c0 .296.262.562.555.562h.937a.579.579 0 0 0 .556-.562V45.92c0-3.462-2.082-5.325-4.98-5.325zm46.38 10.42c-1.632 0-2.877-1.048-2.877-1.048v-6.176s1.098-1.47 3.025-1.47c2.373 0 3.738 2.07 3.738 4.408 0 2.398-1.602 4.287-3.886 4.287zm.356-10.581c-1.678 0-2.84.775-3.263 1.108v-.093a.586.586 0 0 0-.563-.569h-.92a.586.586 0 0 0-.564.57v15.416c0 .3.267.569.564.569h.92c.295 0 .562-.27.562-.569v-4.831s1.217.99 3.174.99c3.263 0 5.696-2.759 5.696-6.266 0-3.447-2.374-6.325-5.606-6.325zm-20.96 0c-1.9 0-2.983.943-3.382 1.375v-.36c0-.3-.267-.569-.563-.569h-.919a.586.586 0 0 0-.564.57v10.705c0 .3.266.569.564.569h.919c.296 0 .564-.27.564-.57V44.15s.978-1.679 3.233-1.679c.444 0 .89.12 1.156.24.296.12.563.12.713-.27l.355-1.019c.297-.84-1.187-.989-2.076-.989zM167.2 24.25h-6.532c-.182 0-.204-.16-.206-.205.292-1.733 1.768-3.05 3.656-3.05 1.705 0 3.06 1.406 3.255 3.03.001.075-.017.225-.174.225zm-3.082-5.06c-3.541 0-5.737 2.87-5.737 6.213 0 3.403 2.196 6.213 5.737 6.213 2.02 0 3.6-.799 4.303-1.361.438-.325.322-.504.117-.77-.177-.235-.322-.443-.498-.68-.233-.324-.41-.177-.819.06-.673.415-1.669.887-2.898.887-1.992 0-3.657-1.712-3.895-3.6.009-.18.147-.245.147-.245h8.256a.542.542 0 0 0 .527-.503c.03-.207.058-.592.058-.8 0-3.105-2.225-5.413-5.297-5.413zm27.051 9.94c-.147-.235-.263-.414-.702-.178 0 0-.662.731-1.811.731-1.151 0-1.317-1.401-1.293-1.5v-6.53c.01-.13.075-.367.39-.392h3.006a.559.559 0 0 0 .557-.56v-.652a.542.542 0 0 0-.557-.562h-2.954c-.363 0-.43-.256-.442-.396v-3.094c0-.295-.234-.561-.526-.561h-.904c-.294 0-.587.266-.587.561v3.09s-.01.37-.358.4h-1.138a.54.54 0 0 0-.555.562v.652c0 .295.233.56.555.56h1.164c.26.038.318.27.33.36v6.742c0 1.833 1.04 3.253 3.381 3.253 1.376 0 2.267-.74 2.677-1.007.322-.205.41-.384.206-.738l-.44-.74h.001zm-14.133-9.94c-1.725 0-2.78.83-3.227 1.282 0 0-.25.247-.25-.126v-.303a.58.58 0 0 0-.558-.561h-.907a.579.579 0 0 0-.557.56v10.716a.58.58 0 0 0 .557.562h.908a.58.58 0 0 0 .557-.562v-6.49c0-2.215 1.627-2.858 2.686-3.043.204-.032.419-.052.646-.052 1.64 0 3.078 1.094 3.078 3.343v6.242c0 .295.263.561.556.561h.936a.58.58 0 0 0 .557-.561v-6.242c0-3.462-2.081-5.325-4.98-5.325h-.002zM84.421 29.61c1.484 0 2.76-.718 3.263-1.468V25.92c-.354-.367-1.44-.92-2.744-.92-1.661 0-2.804.714-2.804 2.272 0 1.2 1.01 2.34 2.285 2.34zm.771-6.326c1.276 0 2.522.812 2.522.812.03-2.219-.862-3.24-2.554-3.24-1.63 0-2.399.452-2.933.662-.298.119-.475-.031-.564-.3l-.238-.75c-.118-.36.06-.54.327-.66.176-.09 1.274-.78 3.497-.78 3.026 0 4.392 1.56 4.392 5.068v6.653c0 .301-.267.57-.563.57H88.3c-.327 0-.415-.18-.504-.45l-.025-.808c-.623.63-1.838 1.348-3.678 1.348-2.075 0-3.854-1.74-3.854-4.138 0-2.277 1.897-3.988 4.952-3.988zm24.211 6.327c1.484 0 2.759-.72 3.264-1.469V25.92c-.356-.367-1.44-.92-2.746-.92-1.66 0-2.801.714-2.801 2.272 0 1.2 1.008 2.34 2.283 2.34zm.772-6.327c1.275 0 2.521.812 2.521.812.03-2.219-.862-3.24-2.552-3.24-1.632 0-2.402.452-2.935.662-.297.119-.475-.031-.565-.3l-.237-.75c-.119-.36.06-.54.326-.66.179-.09 1.275-.78 3.5-.78 3.025 0 4.39 1.56 4.39 5.068v6.653c0 .301-.266.57-.562.57h-.778c-.326 0-.414-.18-.504-.45l-.024-.808c-.623.63-1.84 1.348-3.678 1.348-2.076 0-3.856-1.74-3.856-4.138 0-2.277 1.899-3.988 4.954-3.988zm24.31 5.847c-.146-.236-.262-.415-.7-.179 0 0-.662.731-1.813.731-1.151 0-1.316-1.401-1.291-1.5v-6.53c.01-.13.074-.367.389-.392h3.006a.56.56 0 0 0 .558-.56v-.652a.541.541 0 0 0-.557-.562h-2.954c-.362 0-.43-.256-.441-.396v-3.094c0-.295-.234-.561-.527-.561h-.904c-.293 0-.586.266-.586.561v3.09s-.011.37-.357.4h-1.14a.541.541 0 0 0-.556.562v.652a.56.56 0 0 0 .557.56h1.163c.26.038.317.27.33.36v6.742c0 1.833 1.04 3.253 3.381 3.253 1.376 0 2.267-.74 2.677-1.007.322-.205.41-.384.206-.738l-.44-.74zm-36.924.48c-1.632 0-2.878-1.049-2.878-1.049v-6.175s1.098-1.47 3.025-1.47c2.373 0 3.738 2.07 3.738 4.408 0 2.397-1.602 4.286-3.885 4.286zm.355-10.582c-1.678 0-2.84.776-3.262 1.109v-.093c0-.3-.267-.569-.563-.569h-.92a.587.587 0 0 0-.565.57v15.416c0 .298.267.568.564.568h.92c.296 0 .563-.27.563-.569V30.63s1.216.99 3.173.99c3.263 0 5.695-2.759 5.695-6.266 0-3.447-2.373-6.325-5.605-6.325zm25.063 0c-1.9 0-2.984.944-3.382 1.376v-.36c0-.3-.267-.57-.563-.57h-.92a.586.586 0 0 0-.564.57V30.75c0 .3.267.57.565.57h.919c.295 0 .562-.27.562-.57v-8.004s.98-1.678 3.234-1.678c.445 0 .89.12 1.157.24.295.12.563.12.712-.27l.355-1.02c.297-.84-1.186-.99-2.076-.99v.001zm28.377.162c-1.8 0-3.283.94-4.149 2.397-.832-1.569-2.391-2.397-4.316-2.397-1.726 0-2.78.83-3.227 1.281 0 0-.251.247-.251-.126v-.303a.578.578 0 0 0-.557-.561h-.906a.578.578 0 0 0-.557.56v10.716c0 .296.263.562.557.562h.906a.578.578 0 0 0 .557-.562v-6.49c0-2.215 1.63-2.858 2.688-3.043.204-.032.417-.052.645-.052 1.64 0 3.077 1.094 3.077 3.343v6.242c0 .295.263.561.556.561h.943a.58.58 0 0 0 .556-.561v-6.49c0-2.215 1.628-2.858 2.686-3.043.205-.032.42-.052.646-.052 1.64 0 3.079 1.094 3.079 3.343v6.242c0 .295.262.561.555.561h.937a.578.578 0 0 0 .555-.561v-6.242c0-3.462-2.081-5.325-4.979-5.325z"/>
        </g>
    </g>
</svg>
