<svg xmlns="http://www.w3.org/2000/svg" width="212" height="72" viewBox="0 0 212 72">
    <g fill="#231F20" fill-rule="nonzero">
        <path d="M154.988 30.792h-10.431l2.013-8.459h-3.719l-2.014 8.46h-3.408l-.155.658h3.409l-4.494 18.73c-.257 1.044-.567 2.142-.567 3.35 0 1.484.93 2.802 2.995 2.802 3.718 0 5.577-5.218 5.784-5.822l-.516-.22c-.362.879-1.808 4.284-3.564 4.284-.723 0-1.032-.44-1.032-1.317 0-.55.102-1.1.258-1.704l4.802-20.103h6.817l-4.544 18.73c-.259.989-.569 2.197-.569 3.241 0 1.538.93 2.91 3.048 2.91 3.717 0 5.577-5.217 5.783-5.821l-.516-.22c-.362.824-1.859 4.284-3.512 4.284-.929 0-1.084-.549-1.084-1.373 0-.55.103-1.044.258-1.648l4.958-20.762zM130.147 54.575c-.93 0-1.136-.548-1.136-1.264 0-.548.103-1.152.258-1.756l3.305-13.622c.31-1.264.62-2.362.62-3.845 0-1.648-1.032-3.735-3.976-3.735-3.357 0-5.165 2.912-5.887 4.174l.878-3.734h-7.076l-.206.658h3.356l-5.887 24.388h3.719l4.028-16.534c.929-3.734 3.098-7.579 5.577-7.579 1.498 0 1.962 1.044 1.962 2.032 0 .88-.258 1.813-.516 2.91l-3.253 13.513c-.207.879-.568 2.416-.568 3.46 0 1.484.929 2.692 2.995 2.692 3.718 0 5.578-5.218 5.836-5.822l-.516-.22c-.518 1.098-1.912 4.284-3.513 4.284M108.974 51.554l5.009-20.762h-3.718l-.62 2.692c-.155-.55-.62-3.241-3.925-3.241-4.39 0-6.559 3.845-7.953 7.69-.826 2.307-2.53 8.074-2.633 11.974-.156 4.174 1.755 6.426 4.75 6.426 2.84 0 4.648-3.02 5.32-4.56-.052.22-.155 1.045-.155 1.65-.052 1.537.98 2.91 2.995 2.91 3.874 0 5.578-5.273 5.784-5.822l-.516-.22c-.362.879-1.756 4.284-3.564 4.284-.774 0-1.084-.549-1.033-1.483 0-.384.104-.933.259-1.538m-2.944-3.625c-1.188 4.01-3.047 7.086-5.267 7.086-1.55 0-2.273-.989-2.222-3.186.156-4.888 2.841-13.622 3.46-15.544 1.034-3.24 2.48-5.108 4.339-5.108 1.704 0 2.53 1.592 2.48 3.406-.105 2.69-1.292 8.074-2.79 13.346M89.452 54.575c-.774 0-1.032-.44-1.032-1.318 0-.55.052-1.044.206-1.702l9.605-39.328h-7.178l-.155.66h3.357L85.269 50.18c-.258 1.099-.568 2.253-.568 3.46 0 1.374.775 2.692 2.892 2.692 3.822 0 5.681-5.053 5.94-5.822l-.517-.22c-.362.934-1.911 4.284-3.564 4.284M154.833 21.455c-1.24 0-2.118 1.043-2.118 2.526 0 1.208.776 2.197 1.912 2.197 1.188 0 2.117-1.043 2.117-2.472 0-1.262-.775-2.251-1.911-2.251M167.02 30.243c-4.441 0-6.764 3.35-8.107 7.635-.878 2.747-2.272 7.195-2.272 12.138 0 2.527 1.085 6.317 5.784 6.317 4.906 0 7.023-6.536 7.333-7.305l-.671-.33c-.672 1.703-2.48 6.206-5.629 6.206-2.015 0-3.1-1.647-3.1-4.723 0-4.449 1.292-9.062 2.428-12.688 1.395-4.449 2.273-6.536 4.338-6.536 1.343 0 2.17.659 2.17 1.538 0 1.263-.775 1.867-.775 3.02 0 1.045.722 1.813 1.652 1.813 1.136 0 1.859-.989 1.859-2.582 0-1.647-.877-4.503-5.01-4.503M78.865 54.575c-.671 0-1.084-.44-1.084-1.318 0-.44.104-1.098.258-1.702l4.855-20.104h3.976l.155-.658h-3.976l2.065-8.46h-3.718l-2.066 8.46h-3.047l-.154.658h3.046l-4.492 18.73c-.26 1.044-.568 2.088-.568 3.46 0 1.319.774 2.692 2.89 2.692 3.926 0 5.63-5.108 5.94-5.822l-.516-.22c-.362.879-1.86 4.284-3.564 4.284M47.053 25.464h-1.24l2.944-12.248h.516c1.344 0 1.653.165 1.24 2.637h.31l.723-3.022h-6.92l-.723 3.022h.31c.774-2.088 1.084-2.637 2.48-2.637h.618l-2.944 12.248h-1.135l-.104.385h3.822l.103-.385zM49.842 25.849h1.29l1.344-5.492c.36-1.429 1.136-2.693 1.962-2.693.516 0 .672.385.672.66 0 .33-.104.769-.207 1.154l-1.033 4.228c-.052.166-.207.88-.207 1.264 0 .55.259 1.044.981 1.044 1.343 0 1.91-1.648 2.066-2.033l-.258-.11c-.155.385-.62 1.428-1.188 1.428-.206 0-.31-.11-.31-.44 0-.274.104-.822.156-1.043l1.032-4.12c.104-.439.207-.878.207-1.372 0-.604-.362-1.318-1.395-1.318-1.084 0-1.807 1.043-2.014 1.373l1.343-5.548h-2.169l-.104.385h.878l-3.046 12.633zM59.344 26.014c1.704 0 2.53-2.087 2.686-2.527l-.31-.164c-.31.768-.982 2.031-2.118 2.031-.671 0-1.032-.494-1.032-1.373 0-.604.102-1.208.206-1.703 1.6-.384 4.286-1.812 4.286-3.79 0-.878-.464-1.482-1.55-1.482-2.013 0-4.182 3.46-4.182 6.756 0 1.208.464 2.252 2.014 2.252m2.169-8.624c.465 0 .62.22.62.66 0 1.428-1.395 3.24-3.254 3.79.465-2.308 1.653-4.45 2.634-4.45"/>
        <g>
            <path d="M73.288 11.348L45.245 55.18h-2.272l-.155.66h7.024l.154-.66h-3.924l10.756-16.808h10.037L65.077 55.18H61.77l-.154.66h10.225l.155-.66h-2.892l4.648-43.832h-.465zm-6.347 26.31h-9.657l11.46-17.906h.103L66.94 37.658z"/>
        </g>
    </g>
</svg>
