<svg xmlns="http://www.w3.org/2000/svg" width="212" height="72" viewBox="0 0 212 72">
    <g fill="#3EA09D" fill-rule="nonzero">
        <path d="M35.946 32.602H13.969v-7.86h15.677c2.298 0 4.01.673 5.091 1.999 1.722 2.113 1.312 5.236 1.209 5.861M34.736 42.001c-.01.055-1.193 6.916-7.749 6.916H12.84c.005 0-.38-.02-.627-.319-.186-.224-.25-.548-.19-.963.147-1.033 1.244-9.507 1.823-13.987h8.162l-1.149 7.689h6.25l1.14-7.689h7.557l-1.07 8.353M155.326 40.484h-6.516l-.042.461c-.031.338-.1.97-.252 2.06-1 5.745-7.536 5.912-8.278 5.912h-.01l1.933-16.152h21.16c-.51 3.949-3.275 7.719-7.995 7.719M142.278 31.79l.87-7.272h14.195c1.91 0 3.49.726 4.57 2.1.963 1.228 1.495 2.939 1.495 4.818 0 .118-.004.236-.007.353h-21.123M58.36 31.773H40.022v-7.278H62.36c-.028 4.23-2.154 6.288-4 7.278M45.715 40.475v.975h8.793l.192.069c1.104.393 1.998.978 2.657 1.739 1.07 1.236 1.484 2.916 1.229 4.99-.064.385-.698.669-1.539.669l-13.773-.003c-.245-.031-2.11-.323-3.427-2.062-1.183-1.562-1.54-3.794-1.061-6.634.581-4.01 1.14-6.98 1.222-7.408h18.444l1.782.007a.475.475 0 0 1 .217.187c.161.243.187.65.077 1.176-.108.512-1.166 4.96-5.546 6.295h-9.267M173.994 31.667h-4.041c-1.514 0-2.476-.674-2.81-1.124-1.654-2.23-1.162-5.626-1.074-6.148h9.015l-1.09 7.272M171.415 48.86a8.724 8.724 0 0 1-1.024.057c-1.203 0-3.415-.226-4.721-1.736-.937-1.084-1.265-2.652-.976-4.662.983-6.83 1.339-9.4 1.4-9.856h3.874l-.035-.02h3.914l-2.432 16.218M177.639 31.763v-7.271h15.738c2.31 0 4.026.676 5.099 2.01 1.37 1.704 1.371 4.027 1.25 5.261H177.64M182.726 48.877h-7.414l2.311-16.139h7.438l-2.335 16.14M197.142 48.852c-.17.022-.561.065-1.086.065-1.178 0-3.35-.23-4.672-1.763-1.025-1.191-1.373-2.956-1.034-5.245.848-5.728 1.195-7.958 1.326-8.777l.057-.394h7.845l-2.436 16.114M134.786 32.157h-16.71v-.008c.28-7.391 7.595-7.746 7.906-7.758h14.258c-.034 5.193-3.141 7.08-5.454 7.766M137.534 40.967l-.004.09c-.722 7.48-7.712 7.86-9.107 7.86a6.53 6.53 0 0 1-.357-.008l-.032-.002H115.81c.037-5.15 3.48-7.012 5.942-7.684h8.963v-.975h-7.868l-.34-.148c-1.918-.833-4.226-2.72-4.421-6.962h15.441l.373.175c1.928.904 4.124 2.966 3.635 7.654M91.82 32.297v-7.33h15.777c2.333 0 4.067.677 5.153 2.014 1.432 1.763 1.366 4.22 1.249 5.316H91.82M112.72 42.065c-.044.266-1.202 6.852-7.799 6.852H90.684c.005 0-.387-.02-.636-.321-.186-.225-.248-.535-.188-.95.154-1.06 1.343-10.105 1.898-14.332h8.226l-1.228 8.093h6.286l1.218-8.093h7.598l-1.138 8.751M70.608 48.906h-7.636l1.111-7.199h7.439l-.914 7.199M65.46 32.072c.681-6.956 7.961-7.43 8.285-7.446h6.392c2.836 0 4.912.794 6.17 2.361 1.35 1.681 1.45 3.824 1.362 5.085H65.461"/>
        <path d="M87.538 33.1l-.006.026-.8 7.989c-.034.316-.93 7.802-7.814 7.802-.32 0-.653-.017-.99-.05l.956-7.16.063-.475.064-.476H64.23l1.173-7.61v-.04c0-.028.003-.055.003-.083h22.146l-.015.077"/>
    </g>
</svg>
