<svg xmlns="http://www.w3.org/2000/svg" width="212" height="72" viewBox="0 0 212 72">
    <path fill="#FF4D00" fill-rule="nonzero" d="M131.01 32.95c-.318 3.242-1.568 5.757-3.713 7.476-2.544 2.041-6.532 2.225-6.532 2.225-.567.027-1.368.05-1.778.05-.41-.002-.75.004-.75.004l-.582 6.028h-10.25l2.389-24.389.095-1.11s.476.003 1.043.003h9.718c.566 0 1.494.022 2.06.05 0 0 3.93.184 6.064 2.217 1.558 1.475 2.33 3.549 2.307 6.174-.004.41-.028.834-.07 1.271h-.002zM77.94 48.731l-12.359-.002a12.308 12.308 0 0 1-2.04-.21s-1.679-.346-2.578-1.355c-.805-.9-1.227-2.067-1.216-3.327l.002-.163c.014-.18.07-.797.127-1.37l1.868-19.072 10.242.003-1.438 14.69h8.454l-1.062 10.806zm-30.714.016l-.53-12.755-3.026 12.755-11.665-.002L43.674 23.25h8.748l6.681 25.499-11.875-.002zm-23.674-.07c-.416.002-1.494.049-2.061.049H16l1.072-10.806h5.553c.568 0 1.078-.468 1.132-1.04l1.35-13.65H35.33l-1.427 14.706a15.231 15.231 0 0 1-.377 2.048s-1.143 8.64-9.972 8.693zM196 23.245l-10.268 12.708 7.794 12.789-24.225-.004 2.483-25.494 24.216.001zm-40.603 25.49h-8.966l-4.395-7.164-.723 7.163h-10.227l2.494-25.495h8.99l4.38 7.182.31-3.155.39-4.025h10.224l-2.477 25.494zm-47.9-12.724c-.24 7.23-6.608 13.126-14.223 13.17-7.616.045-13.594-5.78-13.354-13.01.239-7.23 6.607-13.126 14.223-13.171 7.615-.044 13.593 5.78 13.354 13.01zm49.925 12.714l2.513-25.504h9.844l-2.512 25.507h-9.845v-.003z"/>
</svg>
