<svg xmlns="http://www.w3.org/2000/svg" width="212" height="72" viewBox="0 0 212 72">
    <g fill="none" fill-rule="nonzero" transform="translate(5 18)">
        <ellipse cx="18.491" cy="18.124" fill="#1EA3FF" rx="18.05" ry="17.814"/>
        <g fill="#1A1A1A">
            <path d="M44.528 20.855V8.193h5.724V19.18c0 2.173.251 4.283 3.144 4.283 2.893 0 3.145-2.11 3.145-4.283V8.193h5.723v12.6c0 4.904-3.145 7.573-8.868 7.573-5.849.062-8.868-2.67-8.868-7.51zM63.774 25.51l2.767-3.786c1.006 1.242 2.767 2.297 4.717 2.297 1.51 0 2.39-.621 2.39-1.8 0-1.366-1.258-1.8-3.46-2.421-2.892-.869-5.471-2.359-5.471-5.772 0-3.725 3.145-6.27 7.547-6.27 3.082 0 5.346.932 6.855 2.297l-2.578 3.786c-.818-.93-2.201-1.738-3.962-1.738-1.51 0-2.139.621-2.139 1.366 0 1.241 1.51 1.552 3.145 2.11 3.27.993 5.786 2.483 5.786 6.145 0 3.786-2.767 6.642-7.799 6.642-3.71.062-6.54-1.49-7.798-2.856zM87.044 8.193h6.29l7.484 19.8h-5.975l-.944-2.855h-7.547l-.943 2.855h-5.85c.064 0 7.485-19.8 7.485-19.8zm5.409 12.476l-1.572-4.78c-.315-.93-.567-2.11-.692-2.979H90c-.126.87-.377 2.049-.692 2.98l-1.572 4.779h4.717zM109.12 12.786h-4.97V8.193h15.661v4.593h-4.968v15.207h-5.724zM120.189 18.124c0-4.903 3.522-10.303 11.006-10.303s11.006 5.462 11.006 10.303c0 4.842-3.522 10.242-11.006 10.242-7.484.062-11.006-5.338-11.006-10.242zm16.163 0c0-3.538-2.327-5.4-5.157-5.4-2.767 0-5.094 1.862-5.094 5.4 0 3.538 2.327 5.338 5.094 5.338 2.767 0 5.157-1.8 5.157-5.338zM144.277 8.193h7.421c7.107 0 11.132 3.724 11.132 9.931 0 6.083-4.15 9.931-11.132 9.931h-7.421V8.193zm5.786 15.27h1.258c3.71 0 5.66-1.739 5.66-5.339 0-3.6-1.95-5.338-5.66-5.338h-1.258v10.676zM169.497 8.193h6.29l7.483 19.8h-5.974l-.944-2.855h-7.547l-.943 2.855h-5.85c.063 0 7.485-19.8 7.485-19.8zm5.409 12.476l-1.573-4.78c-.314-.93-.566-2.11-.691-2.979h-.19c-.125.87-.377 2.049-.691 2.98l-1.572 4.779h4.717zM186.038 20.98l-7.485-12.725h6.29l2.704 4.904c.566 1.055 1.384 2.607 1.572 3.662h.126c.189-1.055.944-2.607 1.573-3.662l2.704-4.904h6.1l-7.484 12.724v7.076h-6.037V20.98h-.063z"/>
        </g>
    </g>
</svg>
