<svg xmlns="http://www.w3.org/2000/svg" width="212" height="72" viewBox="0 0 212 72">
    <g fill="none" fill-rule="nonzero">
        <path fill="#008240" d="M10.756 45.463c-.343-.507 1.033-.794 1.283-1.366 1.252-2.415-.97-1.43-1.908-6.958C8.316 26.685 25.93 26.685 28.275 26.273c2.159-.382-.03-3.273 1.659-3.273.563 0 0 1.493.563 1.715.594.255.938-1.366 1.533-.857.813.699-.782 1.334-.344 1.78.313.317 1.064-.287 1.314.126.437.667-.751 1.112-1.815 1.303-3.879.667 4.442 17.889-9.072 20.27-3.566.668-5.224-2.508-7.884-.952-.657.382-1.126 1.843-1.533 1.24-.25-.382.407-.986 0-1.24-.28-.159-.688.54-.97.286-.219-.223.095-.572-.125-.858-.187-.285-.625-.032-.845-.35zm5.257-14.361c2.127-1.588 6.225-2.891 5.349-2.859-2.972.095-9.01 2.574-9.291 6.386-.095 1.207 1.814-1.938 3.942-3.527zm3.753 4.766c3.849-5.402 9.574-7.34 8.917-8.007-.782-.794-4.224.286-4.224.286-5.35 1.907-11.168 5.465-11.544 9.914-.125 1.302.25 3.75 1.877 4.765 1.126.7 3.066-4.29 4.974-6.958zm4.224 8.579c5.005-1.811 4.943-8.42 4.13-6.577-.813 1.81-1.346 3.272-3.097 4.288-1.377.795-2.347.89-4.037.859-1.408-.032-2.69-1.207-3.097.571-.438 1.97 4.255 1.526 6.1.859zm-4.036-3.622c1.44.254 6.037-.826 7.602-6.387 1.596-5.72.782-4.575-3.848.286-2.503 2.637-4.473 5.974-3.754 6.1z"/>
        <g fill="#000">
            <path d="M46.678 48.335c-4.17 0-4.94-3.204-4.94-6.382v-3.429l-2.25.085v-4.125l2.25.056V29.19l5.105-.53v5.91l3.32-.085v4.125l-3.32-.112v3.345c0 1.505.44 2.063 1.51 2.063.548 0 1.29-.112 1.618-.363l1.126 3.595c-.522.362-1.4 1.198-4.419 1.198zM57.984 35.376s2.085-1.338 5.35-1.338c2.471 0 3.706 2.23 3.706 4.71v9.31h-5.104v-6.3c0-2.285 0-3.846-1.84-3.846-.96 0-2.112.725-2.112.725v9.42h-5.132v-21.71l5.132-.419v9.448zM76.122 48.531c-4.61 0-7.272-3.12-7.272-7.832 0-4.207 3.485-6.94 7.876-6.94 3.87 0 6.888 2.704 6.888 7.024v1.115H73.597c0 1.617 1.867 2.37 3.238 2.37 1.62 0 2.498-.419 3.02-.865l2.47 2.731c-.632.558-2.607 2.397-6.203 2.397zm.632-11.037c-1.263 0-2.91.78-3.129 1.617h4.199c.466 0 1.042 0 1.042-.418 0-.976-.932-1.199-2.112-1.199zM104.306 48.726c-6.202 0-10.895-4.877-10.895-11.706 0-6.41 5.324-10.981 10.895-10.981 5.543 0 10.894 4.571 10.894 10.981 0 6.829-4.692 11.706-10.894 11.706zm0-7.47c2.003 0 3.841-1.755 3.841-4.236 0-2.006-1.838-3.706-3.841-3.706-2.031 0-3.87 1.7-3.87 3.706 0 2.481 1.84 4.237 3.87 4.237zM130.87 35.571V26.82l6.97-.474v22.185l-13.501-9.448v8.89h-6.998v-22.24zM140.75 47.974V26.82h7.025v21.154zM160.864 48.726c-6.202 0-10.895-4.877-10.895-11.706 0-6.41 5.323-10.981 10.895-10.981 5.543 0 10.895 4.571 10.895 10.981 0 6.829-4.693 11.706-10.895 11.706zm0-7.47c2.003 0 3.842-1.755 3.842-4.236 0-2.006-1.839-3.706-3.842-3.706-2.03 0-3.87 1.7-3.87 3.706 0 2.481 1.84 4.237 3.87 4.237zM187.428 35.571V26.82l6.97-.474v22.185l-13.502-9.448v8.89H173.9v-22.24zM197.28 28.492c0-1.198.932-2.146 2.112-2.146 1.18 0 2.113.948 2.113 2.146s-.933 2.146-2.113 2.146-2.113-.948-2.113-2.146zm3.979 0c0-1.059-.824-1.895-1.867-1.895-1.015 0-1.866.836-1.866 1.895 0 1.059.851 1.895 1.866 1.895 1.043 0 1.867-.836 1.867-1.895zm-.797 1.198h-.356l-.687-1.114h-.521v1.114h-.303v-2.396h1.043c.192 0 .412 0 .576.111.192.112.275.307.275.53 0 .473-.33.64-.741.64l.714 1.115zm-1.124-1.338c.328 0 .85.057.85-.445 0-.362-.33-.418-.604-.418h-.686v.863h.44z"/>
        </g>
    </g>
</svg>
