<svg xmlns="http://www.w3.org/2000/svg" width="212" height="72" viewBox="0 0 212 72">
    <g fill="none" fill-rule="nonzero">
        <path fill="#FFF" d="M16.252 37.344l11.489 11.233V37.344l-5.484-.302z"/>
        <path fill="#D3D2D2" d="M16.252 37.147h11.489l-5.595-5.873-5.894-5.552z"/>
        <path fill="#A8A5A6" d="M16.252 26.062l11.57 11.233.313-5.996-.313-5.237-4.936-.303z"/>
        <path fill="#7C7A7A" d="M27.597 37.147V26.001l4.895-.302 6.593.302z"/>
        <path fill="#231F20" d="M16.252 25.865h11.57l.313-5.208-.313-6.217z"/>
        <path fill="#504D4E" d="M27.597 25.865h11.488L27.597 14.44z"/>
        <path fill="#EE1E59" d="M27.68 14.583L16.11 25.828l11.57-11.245zm0 33.733L16.11 37.072l11.57 11.244z"/>
        <path fill="#F05" d="M16.252 37.147L27.74 48.572V37.147z"/>
        <path fill="#D30046" d="M16.252 37.147H27.74L16.252 25.722z"/>
        <path fill="#A70037" d="M16.252 25.865l11.489 11.426V25.864z"/>
        <path fill="#7B0028" d="M38.941 25.865H27.453V37.29z"/>
        <path fill="#28000B" d="M27.68 14.207zM16.11 25.633h11.57V14.208L16.11 25.633z"/>
        <path fill="#4F001A" d="M27.597 25.865h11.488L27.597 14.44z"/>
        <path fill="#000" d="M58.025 31.801c-.997.434-2.196.434-2.914.434h-2.753v-6.983h2.475c.837 0 2.075 0 3.111.437 1.037.434 1.876 1.269 1.876 3.015 0 1.747-.799 2.66-1.795 3.097m5.547-10.994c-1.597-1.31-3.634-2.142-9.098-2.142h-9.657V48.03h7.54v-9.203h2.954c4.59 0 6.582-.835 8.619-2.544 1.875-1.585 3.113-4.72 3.113-7.697 0-2.978-1.157-5.873-3.471-7.778M79.213 42.516c-2.872 0-5.306-2.341-5.306-5.52v-.038c0-3.212 2.434-5.555 5.306-5.555 2.875 0 5.309 2.343 5.309 5.555 0 3.217-2.434 5.558-5.309 5.558m0-17.224c-8.06 0-11.93 6.308-11.93 11.667v.038c0 5.398 3.87 11.71 11.93 11.71 8.062 0 11.932-6.312 11.932-11.71 0-5.397-3.87-11.705-11.932-11.705M93.3 18.665h6.625V48.03H93.3zM117.364 26.006l-4.23 12.777-4.51-12.777h-7.061l8.22 20.914-3.512 8.452h7.02l11.096-29.366zM139.99 41.086c-.958.952-2.234 1.508-3.87 1.508-2.754 0-5.307-2.143-5.307-5.635v-.04c0-3.214 2.512-5.474 5.346-5.474 1.756 0 3.113.634 3.992 1.705.918 1.03 1.395 2.497 1.395 4.127-.08 1.549-.638 2.856-1.555 3.809zm1.556-13.016c-1.276-1.905-3.712-2.778-6.185-2.778-5.746 0-11.173 4.326-11.173 11.866 0 7.061 5.148 11.587 11.173 11.587 3.471 0 5.388-1.866 6.145-3.135v1.31c0 3.807-2.872 5.356-5.387 5.356-.2 0-.956 0-1.757-.275-.758-.282-1.636-.836-2.114-1.908h-7.662c.441 3.134 3.353 7.738 11.055 7.738 5.466 0 9.496-2.42 11.211-5.196 1.078-1.867 1.318-3.97 1.318-7.263V26.007h-6.625v2.063zM162.176 42.516c-2.87 0-5.305-2.341-5.305-5.52v-.038c0-3.212 2.434-5.555 5.305-5.555 2.876 0 5.31 2.343 5.31 5.555 0 3.217-2.434 5.558-5.31 5.558m0-17.224c-8.059 0-11.928 6.308-11.928 11.667v.038c0 5.398 3.869 11.71 11.928 11.71 8.063 0 11.932-6.312 11.932-11.71 0-5.397-3.87-11.705-11.932-11.705M187.756 25.252c-3.951 0-5.346 2.023-6.104 3.094v-2.34h-6.185V48.03h6.625V36.046c0-2.26.519-4.6 3.789-4.6 2.956 0 3.474 2.14 3.474 4.558V48.03h6.623V34.26c0-2.976-.76-9.007-8.222-9.007"/>
    </g>
</svg>
