<svg xmlns="http://www.w3.org/2000/svg" width="212" height="72" viewBox="0 0 212 72">
    <g fill="#E32" fill-rule="nonzero">
        <path d="M18 51.24V21h13.54c5.77 0 8.738 3.675 8.738 7.699 0 3.757-2.37 6.343-5.234 6.939 3.276.492 5.832 3.634 5.832 7.39 0 4.579-3.009 8.212-8.82 8.212H18zm15.683-21.392c0-1.868-1.36-3.182-3.544-3.182H24.47v6.344h5.668c2.184 0 3.544-1.211 3.544-3.162zm.598 12.277c0-1.91-1.36-3.449-3.874-3.449H24.47v6.898h5.956c2.39 0 3.854-1.273 3.854-3.449zM42.648 42.474V29.335h5.812V42.29c0 2.608 1.587 4.496 4.678 4.496 3.05 0 4.658-1.888 4.658-4.496V29.335h5.79v13.119c0 5.502-3.317 9.361-10.427 9.361-7.11 0-10.51-3.9-10.51-9.34zM65.504 51.24v-4.31l9.912-12.565h-9.912v-5.03h17.785v4.127L73.191 46.21h10.283v5.03zM85.37 51.24v-4.31l9.913-12.565H85.37v-5.03h17.786v4.127L93.058 46.21h10.283v5.03zM105.505 51.24V21h21.063v5.666h-14.591v6.344h10.984v5.666h-10.984V51.24zM124.59 40.277c0-6.343 4.74-11.476 11.375-11.476 6.595 0 11.005 4.907 11.005 12.01v1.355h-16.342c.412 2.67 2.596 4.907 6.327 4.907 1.875 0 4.41-.78 5.832-2.135l2.597 3.818c-2.185 1.992-5.647 3.039-9.048 3.039-6.698 0-11.747-4.496-11.747-11.518zm11.375-6.754c-3.586 0-5.152 2.484-5.379 4.66h10.84c-.185-2.094-1.648-4.66-5.46-4.66zM148.537 40.277c0-6.343 4.74-11.476 11.376-11.476 6.595 0 11.005 4.907 11.005 12.01v1.355h-16.343c.412 2.67 2.597 4.907 6.327 4.907 1.876 0 4.41-.78 5.832-2.135l2.597 3.818c-2.184 1.992-5.647 3.039-9.047 3.039-6.698 0-11.747-4.496-11.747-11.518zm11.376-6.754c-3.586 0-5.152 2.484-5.379 4.66h10.84c-.185-2.094-1.648-4.66-5.461-4.66zM173.04 51.281V29.294h8.863c6.945 0 11.953 4.147 11.953 10.983 0 6.816-4.988 11.004-11.912 11.004h-8.903zm15.19-11.004c0-3.407-2.061-6.24-6.1-6.24h-3.587v12.502h3.586c3.854 0 6.1-2.997 6.1-6.262z"/>
    </g>
</svg>
