<svg xmlns="http://www.w3.org/2000/svg" width="212" height="72" viewBox="0 0 212 72">
    <g fill="none" fill-rule="nonzero">
        <path fill="#000" d="M28.156 44.526c.433-.33.653-.867.578-1.405V30.455a1.506 1.506 0 0 0-.578-1.451L27 28.152v-.369h8.185c4.833 0 6.243 1.773 6.243 4.33v.115c0 2.05-1.572 3.685-5.341 4.076 4.463.161 6.266 1.843 6.266 4.606v.138c0 3.27-2.405 4.699-6.937 4.699H27v-.323l1.156-.898zm4.625-8.452h1.942c1.873 0 2.566-.622 2.566-3.57v-.345c0-2.787-.6-3.455-2.566-3.455H32.78v7.37zm5.179 5.136v-.484c0-2.856-.832-3.73-3.26-3.73h-1.92v6.908c0 .645.232.921 1.272.921h.694c2.382 0 3.26-.69 3.26-3.615h-.046zm5.688-6.011c.07-.542-.16-1.08-.601-1.405l-.763-.599v-.345h5.156v8.982c0 1.059.416 1.612 1.572 1.612a4.315 4.315 0 0 0 1.688-.392v-7.577a1.506 1.506 0 0 0-.578-1.405l-1.156-.875v-.345h5.503v10.548a1.61 1.61 0 0 0 .601 1.404l.648.6v.345h-4.44l-.3-2.096A4.732 4.732 0 0 1 47 45.954c-2.128 0-3.353-1.474-3.353-3.823v-6.932zm19.654-1.428h-1.885c-.924 0-1.156.092-1.687.967l-2.671 4.03h-.347V32.85h10.313v1.842l-6.613 10.133h1.757c.925 0 1.156-.092 1.688-.967l2.774-4.26h.347v6.149H56.701v-1.843l6.6-10.133zm12 0h-1.884c-.925 0-1.156.092-1.688.967l-2.636 4.03h-.347V32.85h10.278v1.842l-6.613 10.133h1.757c.925 0 1.156-.092 1.688-.967l2.775-4.26h.393v6.149H68.701v-1.843l6.601-10.133zm5.966 10.755c.445-.322.68-.86.613-1.405V30.455c.07-.543-.16-1.08-.602-1.405l-1.098-.898v-.369h13.873v5.573h-.346l-2.763-3.592a2.049 2.049 0 0 0-2.058-1.06h-2.925v7.508h1.71c.44 0 .694-.092 1.157-.645l2.405-3.109h.346v8.36h-.346l-2.405-3.109c-.416-.553-.67-.645-1.156-.645h-1.711v6.057c-.03.51.28.979.763 1.152l2.243 1.151v.346H80.18v-.346l1.087-.898zm17.665 1.451c-3.33 0-5.688-2.58-5.688-6.472v-.069c0-3.892 2.821-6.817 5.78-6.817a4.184 4.184 0 0 1 3.38 1.155 4.148 4.148 0 0 1 1.245 3.336v1.405h-6.59c.232 3.524 1.85 4.952 3.931 4.952a5.357 5.357 0 0 0 2.567-.76h.347v1.013a6.474 6.474 0 0 1-4.96 2.257h-.012zm-1.965-8.36h3.399v-1.59c0-1.934-.37-2.532-1.41-2.532-1.272 0-1.99 1.151-1.99 3.684v.438zm13.11 8.36c-3.306 0-5.619-2.58-5.619-6.472v-.069c0-3.892 2.821-6.817 5.781-6.817a4.184 4.184 0 0 1 3.38 1.155 4.148 4.148 0 0 1 1.244 3.336v1.405h-6.59c.232 3.524 1.85 4.952 3.931 4.952a5.357 5.357 0 0 0 2.567-.76h.347v1.013a6.474 6.474 0 0 1-5.018 2.257h-.023zm-1.965-8.36h3.399v-1.59c0-1.934-.37-2.532-1.41-2.532-1.272 0-1.99 1.151-1.99 3.684v.438zm7.422 1.635c.023-4.307 2.798-6.633 6.266-6.633.814.02 1.62.175 2.382.461v-2.303c0-.668-.116-.83-.555-1.082l-1.827-1.083v-.345l5.78-1.267h.348v16.398a1.46 1.46 0 0 0 .647 1.358l.832.645v.346h-4.624l-.3-2.096a4.71 4.71 0 0 1-4.07 2.303c-2.867 0-4.833-2.441-4.833-6.61l-.046-.092zm6.775 4.192a4.06 4.06 0 0 0 1.85-.392v-5.55c0-2.994-.995-3.961-2.382-3.961s-2.45 1.059-2.45 4.214v.346c.022 4.007 1.317 5.343 3.005 5.343h-.023zm11.052-14.532l-.6-.553v-.346h5.595l7.722 12.299v-6.15a4.02 4.02 0 0 0-.74-2.372l-2.127-3.454v-.323h5.642v.346l-1.433 3.685a4.74 4.74 0 0 0-.417 2.118v11.585h-2.543l-8.67-13.888a12.965 12.965 0 0 0-2.429-2.947zm20.81 17.065c-3.33 0-5.688-2.58-5.688-6.472v-.069c0-3.892 2.821-6.817 5.78-6.817a4.184 4.184 0 0 1 3.38 1.155 4.148 4.148 0 0 1 1.245 3.336v1.405h-6.59c.232 3.524 1.85 4.952 3.931 4.952a5.357 5.357 0 0 0 2.567-.76h.347v1.013a6.474 6.474 0 0 1-4.972 2.257zm-1.965-8.36h3.399v-1.59c0-1.934-.37-2.532-1.41-2.532-1.272 0-1.99 1.151-1.99 3.684v.438zm6.428-4.238l-.185-.184v-.345h6.081v.345l-.486.46a1.149 1.149 0 0 0-.37 1.267l1.873 6.748 1.573-5.757-.833-2.74v-.346h3.839l2.543 8.935 1.04-3.57a2.88 2.88 0 0 0 0-1.657l-.994-3.34v-.345h4.578v.345l-.462.599a11.325 11.325 0 0 0-2.15 4.284l-2.22 7.669h-2.382l-2.497-8.291-2.243 8.29h-2.381l-2.775-9.626a4.797 4.797 0 0 0-1.572-2.74h.023zm18.105 7.163h.346l2.035 3.132c.717 1.151 1.249 1.428 2.15 1.428 1.157 0 1.897-.576 1.897-1.336a2.14 2.14 0 0 0-1.157-1.865l-2.705-1.774a4.316 4.316 0 0 1-2.196-3.639v-.069c0-2.072 1.757-3.8 4.74-3.8 1.27.01 2.534.164 3.768.461v4.606h-.346l-1.77-2.625c-.808-1.244-1.387-1.52-2.173-1.52-1.063 0-1.664.552-1.664 1.312s.254 1.152 1.156 1.659l2.543 1.52c2.012 1.151 2.636 2.44 2.636 3.846v.092c0 2.395-2.405 4.03-4.971 4.03a20.97 20.97 0 0 1-4.301-.507l.012-4.951z"/>
        <path fill="#F4392F" d="M135 46a2.95 2.95 0 0 1-2.145-.867A2.928 2.928 0 0 1 132 42.99 2.994 2.994 0 0 1 135 40a2.994 2.994 0 0 1 2.999 2.989 2.928 2.928 0 0 1-.854 2.144A2.95 2.95 0 0 1 135 46z"/>
    </g>
</svg>
