<svg xmlns="http://www.w3.org/2000/svg" width="212" height="72" viewBox="0 0 212 72">
    <g fill="#EB1737" fill-rule="evenodd">
        <path d="M19.426 21.248h9.73v26.67c0 3.393-2.854 8.975-6.398 11.508-1.311.938-2.86 1.98-4.758 2.511 0-.247.01-1.285.01-2.08.967-.966 1.416-3.776 1.416-5.988v-32.62M35.82 21.248h20.214v7.804H45.549v2.971h10.218v5.72H45.549v3.193h10.929v7.848H35.82V21.248M62.875 21.248h23.99c.019 1.203.053 5.858.053 5.858l-10.73 13.83h11.21v7.715h-25.2l.073-5.784 10.834-13.77h-10.23v-7.849M175.896 21.248h9.69l.04 19.557 12.128-.038v7.973h-21.858V21.248M131.576 36.966c1.823 0 3.27.866 3.27 1.841 0 2.646-1.452 2.714-4.531 2.714v-4.576c.463-.007.882.021 1.261.021zm.031-8.542c1.485 0 2.028 1.168 2.028 1.897-.053.974-.252 1.72-1.04 1.96-.393.259-1.655.162-2.28.141v-3.99c.366 0 1.001-.008 1.292-.008zm-11.041-7.176h9.458c1.95 0 3.33-.013 4.93.187 2.042.254 4.506 1.723 5.623 2.873.773.795 2.224 2.996 2 4.922-.169 1.435-.717 3.221-2.802 5.167 3.911 2.272 3.968 5.917 3.964 5.86 0 6.524-6.112 8.45-9.322 8.45-3.342 0-13.833.052-13.833.052l-.018-27.511zM93.619 21.248h20.213v7.804h-10.484v2.971h10.218v5.72h-10.218v3.193h10.929v7.848H93.619V21.248M148.93 21.248h20.213v7.804H158.66v2.971h10.218v5.72h-10.218v3.193h10.929v7.848h-20.659V21.248"/>
    </g>
</svg>
