<svg xmlns="http://www.w3.org/2000/svg" width="212" height="72" viewBox="0 0 212 72">
    <path fill="#000" fill-rule="nonzero" d="M20.68 25.868l-.374-.2c-.44.977-1.407 1.532-2.461 1.532-2.593 0-3.868-1.22-6.659-1.22-1.604 0-3.933 1.442-5.186 4.217l.374.178c.769-1.576 1.845-2.198 2.878-2.198 1.231 0 2.374.222 3.56.533-2.856 1.132-5.999 3.463-5.999 7.903 0 4.084 3.208 6.837 6.483 6.837 3.692 0 5.428-2.508 6.57-4.728l-.307-.178c-.55.866-1.187 1.665-2.461 2.265V29.154c1.648-.555 2.658-1.71 3.581-3.286zm-5.648 3.419c-.286.178-.593.4-1.165.843-.857.644-1.208.933-1.208 2.31v6.038c0 1.598-.11 1.62-.726 2.064-1.208-.821-2.285-2.398-2.285-4.995 0-2.908 1.186-5.394 3.714-6.682.593.178 1.208.333 1.67.422zm1.648 11.7c-.571.199-1.209.288-2 .288-.879 0-1.626-.134-2.373-.511.33-.2.879-.466 1.714-1.088.879-.666 1.209-.954 1.209-2.33v-6.039c0-1.31.066-1.62.285-1.931.374 0 .813 0 1.165-.111v11.721zm12.328-.445l-.198-.2c-.197.2-.505.533-.725.533-.396 0-.835-.6-.835-.6v-6.66l.989-1.02-.242-.245-.813.822-2.198-1.931h-.131l-2.132 2.286-.022-.022v-5.86c.505.443.66.443 1.318.443 1.034 0 2.11-1.31 2.835-2.575l-.263-.178c-.682 1-1.121 1-1.868 1-.374 0-1.033-.378-1.297-.733h-.153s-1.759 1.42-3.495 2.397v.178s.484.067.484.333V40.63c0 .155-.418.333-.418.333v.133l2.22 1.776h.132l1.736-1.776-.044-.178c-.725 0-1.143-.621-1.187-.732v-6.038l.835-.822c.593.378 1.275 1.088 1.275 1.088v6.238c0 .222-.286.333-.286.333v.133l2.088 1.754h.131l2.264-2.331zm7.076-5.417v-.177l-2.615-3.819h-.154l-4.241 3.197v.133s.461.178.461.334v5.239c0 .133-.417.244-.417.244v.133l3.12 2.464h.176l3.165-3.063-.308-.29-1.582 1.488c-.484-.31-1.715-1.376-1.715-1.376v-1.687l4.11-2.82zm-2.198.955l-1.912 1.332v-4.151h.045l1.867 2.819zm22.503-4.551c0-2.62-3.23-4.817-3.538-6.105h-.176s-2.241 1.643-3.626 2.664c-.857.644-1.253 1.043-1.253 2.42V43.96l-.065.022c-.264-.355-.418-.622-.967-1.043V28.576c0-1.354-.264-1.487-1.12-2.13-.22-.178-.836-.6-.836-.6h-.154c-.33.244-.879.422-1.362.422-.77 0-1.275-.022-1.956-1.043l-.264.177c.527 1.51 1.34 2.797 3.12 2.797v2.775h-.483c-1.187 0-2.11 1.443-2.11 2.62l.264.022c.198-.71.813-.955 1.495-.955.417 0 .659.022.835.111v1.865h-.418c-1.187 0-2.11 1.443-2.11 2.62l.264.022c.198-.71.813-.955 1.494-.955.374 0 .616.022.77.09v5.837c-2.044.156-3.011 2.31-3.011 3.464l.264.044c.263-.932.857-1.665 2.241-1.665 1.538 0 2.44 1.22 2.791 1.665h.22s2.11-1.687 4.24-2.908v-.156s-.526-.133-.526-.288V29.154c0-1.51.285-1.599.593-1.843.198.533.55 1.155.945 1.687v7.526c-.55.133-1.23.444-1.23 1.243 0 .666.505 1.154 1.252 1.488l.154-.112a1.76 1.76 0 0 1-.044-.31c0-1.132.263-1.754.989-2.331 1.626-1.31 3.318-2.664 3.318-4.973zm-2.154 1.954c0 1.332-.615 2.353-1.758 2.885-.044.023-.088.023-.132.045V29.62l.044-.044c.923 1.265 1.846 2.42 1.846 3.907zm11.625 7.059l-.198-.2c-.198.2-.505.533-.725.533-.395 0-.835-.6-.835-.6v-6.66l.99-1.02-.243-.245-.813.822-2.197-1.931h-.132l-2.132 2.286-.022-.022v-5.86c.506.443.66.443 1.319.443 1.033 0 2.11-1.31 2.835-2.575l-.264-.178c-.681 1-1.12 1-1.868 1-.374 0-1.033-.378-1.297-.733h-.153s-1.758 1.42-3.494 2.397v.178s.483.067.483.333V40.63c0 .155-.418.333-.418.333v.133l2.22 1.776h.132l1.736-1.776-.044-.178c-.725 0-1.143-.621-1.187-.732v-6.038l.835-.822c.594.378 1.275 1.088 1.275 1.088v6.238c0 .222-.286.333-.286.333v.133l2.088 1.754h.132l2.263-2.331zm3.802-12.254v-.156c-.835-.665-1.67-1.664-1.67-1.664h-.154c-.66.976-1.604 1.687-1.604 1.687v.155c.769.6 1.67 1.62 1.67 1.62h.154c.659-.887 1.604-1.642 1.604-1.642zm1.34 12.32l-.22-.221c-.197.177-.483.466-.659.466-.417 0-.879-.577-.879-.577v-6.86l.99-.999-.243-.266-.813.82-1.934-1.753h-.131l-2 2.087.242.222.351-.333c.506.333 1.099 1.021 1.099 1.021v6.416c0 .222-.396.333-.396.333v.133l2.286 1.776h.132l2.175-2.264zm4.725.045l-.22-.222c-.198.178-.418.355-.593.355-.308 0-.835-.532-.835-.532V26.8c0-.578.747-1.155.747-1.155l-.198-.244s-2.264 1.687-3.802 2.62l.132.288.66-.333.021.045V40.63c0 .222-.373.333-.373.333v.133l2.263 1.776h.132l2.066-2.22zm8.504.022l-.198-.222c-.197.178-.44.4-.637.4-.417 0-.967-.688-.967-.688V33.46l.945-.999-.242-.266-.703.644-1.736-1.598h-.132c-.417.555-1.252 1.176-1.604 1.176-.637 0-1.275-.377-1.494-1.176h-.198l-1.472 2.13v.09c.241.443.637 1.043 1.538 1.043.747 0 1.318-.932 1.736-1.354l.923.799v1.51c-2.417.177-4.351 1.553-4.351 4.062 0 1.754 1.077 2.93 2.461 3.352h.176l1.67-1.732h.044l1.89 1.732h.132l2.22-2.198zm-4.241-.066s-.264.288-.638.288c-.703 0-1.274-.977-1.274-2.42 0-1.442.505-2.33 1.912-2.597v4.729zm12.504-8.148l-.242-.266-.813.8c-1.143-1.244-5.428-5.906-6.505-7.438h-.088c-.22.245-.44.6-.44.888 0 .356.045.6.308.933-.835.066-1.67.732-1.67.732v.178c.835 0 1.121.333 1.56.8a108.21 108.21 0 0 1 2.594 2.863l-2.99 1.865v.155s.418.155.418.31v5.64c0 .155-.417.266-.417.266v.133l3.164 2.553h.132l4.505-3.063v-.134s-.505-.133-.505-.288v-5.905l.989-1.022zm-3.473 8.48l-.154.112-1.801-1.576v-6.372c0-.4.11-.6.395-.865.923 1.02 1.56 1.82 1.56 1.82v6.882zm10.724-5.816v-.177l-2.615-3.819h-.154l-4.24 3.197v.133s.46.178.46.334v5.239c0 .133-.417.244-.417.244v.133l3.12 2.464h.177l3.164-3.063-.308-.29-1.582 1.488c-.484-.31-1.714-1.376-1.714-1.376v-1.687l4.11-2.82zm-2.197.955l-1.912 1.332v-4.151h.044l1.868 2.819zm6.856 4.573l-.22-.222c-.198.178-.417.355-.593.355-.308 0-.835-.532-.835-.532V26.8c0-.578.747-1.155.747-1.155l-.198-.244s-2.263 1.687-3.801 2.62l.131.288.66-.333.022.045V40.63c0 .222-.374.333-.374.333v.133l2.263 1.776h.132l2.066-2.22zm8.878-7.992l-.242-.266-.813.821-2.198-1.975h-.131l-1.89 2.042c-.308-.844-2.088-2.065-2.088-2.065h-.132l-2.153 2.331.22.222c.197-.177.483-.533.703-.533.307 0 .835.578.835.578v6.57c-1.033.445-1.517 1.377-1.517 2.51l.22.044c.264-.822.77-.888 1.297-.933v3.93c0 .377-.484.776-.484.776l.154.222s1.582-1.132 3.604-2.486l-.154-.266-.681.333-.022-.022v-2.065l.022-.022c.396.11.989.466.989.466h.11l3.78-2.708v-.156s-.418-.133-.418-.288v-6.06l.989-1zm-3.428 8.547l-.022.022c-.813-.71-1.297-.821-2-1.02v-6.217l.681-.688c.528.31 1.34 1.088 1.34 1.088v6.815zm13.053-.666l-.198-.2c-.198.2-.505.533-.725.533-.395 0-.835-.6-.835-.6v-6.66l.99-1.02-.243-.245-.813.822-2.197-1.931h-.132l-2.132 2.286-.022-.022v-5.86c.506.443.66.443 1.319.443 1.032 0 2.11-1.31 2.835-2.575l-.264-.178c-.681 1-1.12 1-1.868 1-.374 0-1.033-.378-1.297-.733h-.154s-1.757 1.42-3.493 2.397v.178s.483.067.483.333V40.63c0 .155-.418.333-.418.333v.133l2.22 1.776h.132l1.736-1.776-.044-.178c-.725 0-1.143-.621-1.187-.732v-6.038l.835-.822c.594.378 1.275 1.088 1.275 1.088v6.238c0 .222-.286.333-.286.333v.133l2.088 1.754h.132l2.263-2.331zm3.802-12.254v-.156c-.835-.665-1.67-1.664-1.67-1.664h-.154c-.66.976-1.604 1.687-1.604 1.687v.155c.769.6 1.67 1.62 1.67 1.62h.153c.66-.887 1.605-1.642 1.605-1.642zm1.34 12.32l-.22-.221c-.197.177-.483.466-.659.466-.417 0-.879-.577-.879-.577v-6.86l.989-.999-.242-.266-.813.82-1.934-1.753h-.131l-2 2.087.242.222.351-.333c.506.333 1.099 1.021 1.099 1.021v6.416c0 .222-.396.333-.396.333v.133l2.286 1.776h.132l2.175-2.264zm8.504.067l-.197-.222c-.198.178-.44.4-.638.4-.417 0-.967-.688-.967-.688V33.46l.945-.999-.241-.266-.704.644-1.736-1.598h-.131c-.418.555-1.253 1.176-1.605 1.176-.637 0-1.274-.377-1.494-1.176h-.198l-1.472 2.13v.09c.242.443.637 1.043 1.538 1.043.747 0 1.319-.932 1.736-1.354l.923.799v1.51c-2.417.177-4.35 1.553-4.35 4.062 0 1.754 1.076 2.93 2.46 3.352h.176l1.67-1.732h.044l1.89 1.732h.132l2.22-2.198zm-4.24-.066s-.264.288-.638.288c-.703 0-1.275-.977-1.275-2.42 0-1.442.506-2.33 1.912-2.597v4.729zm18.524-14.94l-.198-.223s-2.066 1.466-3.604 2.442v.178s.506.111.506.288v13.83l-.396.267c-.264-.2-.681-.577-.681-1.265V28.599c0-1.354-.286-1.51-1.143-2.154-.22-.177-.835-.599-.835-.599h-.154c-.33.244-.857.466-1.34.466-.77 0-1.319-.066-1.956-1.088l-.242.178c.506 1.51 1.319 2.82 3.099 2.82v2.53h-.44c-1.187 0-2.131 1.443-2.131 2.62l.241.022c.198-.71.857-.955 1.539-.955.417 0 .637.022.79.089v1.887h-.373c-1.186 0-2.131 1.443-2.131 2.62l.241.022c.198-.71.857-.955 1.539-.955.351 0 .549.022.725.067v3.374c0 .155-.484.31-.484.31v.156c1.297.755 2.945 2.287 3.362 2.73l-.725.534c-1.142-.977-2.11-2.265-4-2.265-2.438 0-3.054 2.42-3.054 3.708l.264.022c.22-.977.527-1.732 1.978-1.732 1.406 0 2.769 1.554 3.142 1.976h.132s4.043-3.13 6.175-4.351v-.133s-.55-.134-.55-.311V26.645c0-.4.704-.977.704-.977zm10.306 14.984l-.198-.2c-.198.178-.44.422-.637.422-.396 0-.835-.6-.835-.6v-6.66l.989-.998-.242-.267-.813.822-2.198-1.931h-.131l-1.934 2.064c-.396-.866-2.132-2.064-2.132-2.064h-.132l-1.934 2.13.22.223c.198-.178.352-.311.528-.311.307 0 .79.555.79.555v6.749c0 .155-.439.332-.439.332v.134l2.33 1.82h.131l1.736-1.91-.131-.177a.577.577 0 0 1-.374.111c-.264 0-.813-.577-.813-.577v-6.26l.77-.8c.548.312 1.34 1.133 1.34 1.133v6.238c0 .222-.286.333-.286.333v.133l2.175 1.776h.132l2.088-2.22zm8.263-8.17l-.264-.288-.923.844-2.417-1.798h-.132l-4.55 2.996v.133s.484.156.484.311v5.44c0 .155-.439.266-.439.266v.133l2.769 2.353h.132l1.933-2.22h.044v5.283c0 .378-.483.777-.483.777l.176.222s1.582-1.132 3.604-2.486l-.154-.266-.681.333-.022-.022v-11.1l.923-.91zm-3.363 7.549l-.813.843c-.461-.288-1.186-1.043-1.186-1.043v-6.727l.088-.066c.549.333 1.911 1.487 1.911 1.487v5.506zm13.647.532l-.198-.222c-.198.178-.527.533-.703.533-.264 0-.989-.755-.989-.755v-6.615l.901-.933-.242-.266-.615.555-1.912-1.62h-.132l-1.867 1.975.153.2c.088-.067.242-.178.374-.178.154 0 .9.622.9.622v6.26l-.834.755c-.506-.288-1.253-1.11-1.253-1.11v-6.327c0-.222.286-.355.286-.355v-.155l-1.978-1.687h-.132l-1.934 2.13.198.223c.198-.178.264-.289.44-.289.175 0 .68.533.68.533v6.615l-.9.866.22.289.747-.689 2.175 1.954h.132l2.088-2.153h.044v.4l2.022 1.753h.132l2.197-2.309zm3.78-12.276v-.156c-.836-.665-1.67-1.664-1.67-1.664h-.154c-.66.976-1.605 1.687-1.605 1.687v.155c.77.6 1.67 1.62 1.67 1.62h.155c.659-.887 1.604-1.642 1.604-1.642zm1.34 12.32l-.22-.221c-.197.177-.483.466-.659.466-.417 0-.879-.577-.879-.577v-6.86l.99-.999-.243-.266-.813.82-1.934-1.753h-.131l-2 2.087.241.222.352-.333c.505.333 1.099 1.021 1.099 1.021v6.416c0 .222-.396.333-.396.333v.133l2.286 1.776h.131l2.176-2.264zm7.933-9.079l-.264-.133c-.351.555-.835.666-1.318.666-.813 0-1.473-.821-1.473-.821h-.197l-1.231 1.687-1.89-1.687h-.154l-1.933 2.13.22.2c.197-.177.307-.31.483-.31.263.088.835.666.835.666v6.66c0 .155-.352.332-.352.332v.134l2.352 1.82h.131l2.616-2.575-.264-.244c-.198.177-.791.888-.967.888-.242 0-1.077-.666-1.077-.666v-6.771l.066-.111h.044c.55.555 1.099.8 1.714.8 1.033 0 2.242-1.755 2.66-2.665zm5.362 3.596v-.177l-2.615-3.819h-.154l-4.241 3.197v.133s.461.178.461.334v5.239c0 .133-.417.244-.417.244v.133l3.12 2.464h.176l3.164-3.063-.307-.29-1.583 1.488c-.483-.31-1.714-1.376-1.714-1.376v-1.687l4.11-2.82zm-2.198.955l-1.912 1.332v-4.151h.044l1.868 2.819zm10.065-4.551l-.264-.133c-.351.555-.835.666-1.318.666-.813 0-1.473-.821-1.473-.821h-.198l-1.23 1.687-1.89-1.687h-.154l-1.934 2.13.22.2c.198-.177.308-.31.483-.31.264.088.836.666.836.666v6.66c0 .155-.352.332-.352.332v.134l2.351 1.82h.132l2.615-2.575-.263-.244c-.198.177-.792.888-.967.888-.242 0-1.077-.666-1.077-.666v-6.771l.066-.111h.044c.55.555 1.099.8 1.714.8 1.033 0 2.241-1.755 2.659-2.665z"/>
</svg>
