<svg xmlns="http://www.w3.org/2000/svg" xmlns:xlink="http://www.w3.org/1999/xlink" width="212" height="72" viewBox="0 0 212 72">
    <defs>
        <path id="a" d="M0 0h212v72H0z"/>
    </defs>
    <g fill="none" fill-rule="evenodd">
        <mask id="b" fill="#fff">
            <use xlink:href="#a"/>
        </mask>
        <g fill="#87B827" mask="url(#b)">
            <path d="M32.13 55.552H26V16.596l6.13.395v38.561"/>
            <path fill-rule="nonzero" d="M42.166 55.552h-6.13V27.768l6.13.346v27.438zM39.1 19.314a3.524 3.524 0 0 1 3.51 3.51 3.524 3.524 0 0 1-3.51 3.51 3.524 3.524 0 0 1-3.51-3.51 3.524 3.524 0 0 1 3.51-3.51z"/>
            <path d="M56.8 33.355v6.13H52.2v16.04h-6.13V25.05c0-4.647 3.856-8.85 8.404-8.85 1.533 0 2.769.446 3.066.644l-.248 5.883h-2.818c-1.236 0-2.274 1.038-2.274 2.323v8.306H56.8"/>
            <path fill-rule="nonzero" d="M65.409 38.694h4.598v-2.867c0-1.286-1.039-2.324-2.275-2.324a2.32 2.32 0 0 0-2.323 2.324v2.867zm-6.13-2.867c0-4.648 3.757-8.454 8.453-8.454 4.648 0 8.405 3.806 8.405 8.454v5.932a3.049 3.049 0 0 1-3.065 3.065h-7.663v2.67a2.32 2.32 0 0 0 2.323 2.324h5.884l.197 5.19-5.537.84c-5.339.89-8.997-3.707-8.997-8.354V35.827z"/>
            <path d="M81.379 55.552v-38.71h3.955V28.61c1.088-.346 2.818-.495 4.005-.495 4.202 0 7.465 3.807 7.465 8.108v19.33h-3.856v-19.33c0-2.126-1.73-3.807-3.857-3.807h-3.757v23.137H81.38"/>
            <path fill-rule="nonzero" d="M111.273 48.087v-6.674h-3.807a3.777 3.777 0 0 0-3.807 3.807v2.867c0 2.126 1.681 3.856 3.807 3.856s3.807-1.73 3.807-3.856zm0-12.508c0-2.224-1.038-4.004-3.856-3.707h.049c-1.582.05-3.609.247-5.29.346-.049-1.434-.099-1.978-.148-3.065 1.335-.495 3.263-.99 4.894-1.039 4.944-.098 8.207 3.906 8.207 8.207v11.766c0 4.252-3.411 7.762-7.663 7.762-4.251 0-7.761-3.51-7.761-7.762v-2.422c0-4.252 2.916-7.465 7.761-7.465 1.83 0 2.769.198 3.807.494v-3.115z"/>
            <path d="M126.205 28.114c4.252 0 7.761 3.46 7.761 7.762v.495c-1.532.049-2.768.049-3.905.098v-.593c0-2.076-1.73-3.806-3.856-3.806-2.076 0-3.758 1.73-3.758 3.806v12.36c0 2.175 1.682 3.806 3.758 3.806s3.807-1.582 3.856-3.658c1.928.148 3.757.247 3.905.247-.197 4.103-3.658 7.366-7.761 7.366-4.252 0-7.713-3.46-7.713-7.761v-12.36c0-4.301 3.461-7.762 7.713-7.762"/>
            <path fill-rule="nonzero" d="M149.549 55.552l-7.515-13.1c-.742-1.286-.742-1.434.149-2.967l6.624-10.975h4.5l-7.466 12.656 8.058 14.386h-4.35zm-8.504-38.61v38.61h-3.955v-38.61h3.955zM158.687 40.078h7.614v-4.153c0-2.125-1.73-3.855-3.807-3.855-2.126 0-3.807 1.73-3.807 3.855v4.153zm-3.955-4.153c0-4.3 3.461-7.81 7.762-7.81 4.251 0 7.712 3.51 7.712 7.81v6.081c0 1.138-.89 1.978-1.977 1.978h-9.542v4.202c0 2.126 1.681 3.856 3.807 3.856h4.993c.05 1.285.1 2.176.198 3.065l-4.746.742c-4.845.84-8.207-3.362-8.207-7.663v-12.26z"/>
            <path d="M177.63 55.552h-3.955v-19.28c0-4.302 3.362-8.306 8.306-8.207 1.68.05 2.719.445 3.856.989a222.18 222.18 0 0 1-.148 3.065l-4.301-.099c-2.077 0-3.758 2.225-3.758 4.252v19.28"/>
        </g>
    </g>
</svg>
