<svg xmlns="http://www.w3.org/2000/svg" xmlns:xlink="http://www.w3.org/1999/xlink" width="212" height="72" viewBox="0 0 212 72">
    <defs>
        <path id="a" d="M0 0h212v72H0z"/>
    </defs>
    <g fill="none" fill-rule="evenodd">
        <mask id="b" fill="#fff">
            <use xlink:href="#a"/>
        </mask>
        <g fill="#D61507" mask="url(#b)">
            <path d="M34.205 31.84V43.693c0 6.533 5.38 11.851 11.991 11.851h11.992v-8.053h-11.94c-2.153 0-3.895-1.722-3.895-3.85v-4.609h13.478V31.79H42.353v-6.686h15.886V17.05H34.205v14.79zM122.757 31.84V43.693c0 6.533 5.381 11.851 11.992 11.851h11.991v-8.053H134.75c-2.153 0-3.895-1.722-3.895-3.85v-4.609h13.478V31.79h-13.478v-6.686h15.886V17.05h-24.034v14.79h.051zM92.625 25.155h9.275v30.39h8.148v-30.39h9.276V17.1h-26.7z"/>
            <path fill-rule="nonzero" d="M62.544 28.953v26.591h8.148V43.945l10.403-2.583v14.182h8.148V17.101H74.535c-6.61 0-11.991 5.318-11.991 11.852zm18.55 5.166l-10.402 2.634v-7.75c0-2.126 1.742-3.848 3.894-3.848h6.56l-.051 8.964zM177.744 29.966c0-1.671-.308-3.343-.974-4.913a12.04 12.04 0 0 0-2.716-4.052 12.512 12.512 0 0 0-4.048-2.785 12.72 12.72 0 0 0-5.125-1.064h-13.785v38.342h8.097V42.73h5.586c.41 0 .82 0 1.23-.05l4.407 12.814h7.328l-5.227-15.297a12.567 12.567 0 0 0 5.227-10.23m-12.914 4.76h-5.586v-9.522h5.637l.308.05c2.51.203 4.458 2.28 4.458 4.711 0 2.634-2.152 4.761-4.817 4.761"/>
        </g>
    </g>
</svg>
