<svg xmlns="http://www.w3.org/2000/svg" width="212" height="72" viewBox="0 0 212 72">
    <path fill="#333" fill-rule="nonzero" d="M102.947 15.652h1.233l.145-.58H88.81l-.145.58h2.247c1.958 0 3.553 1.376 3.553 4.055 0 1.52-.653 3.476-1.74 5.865L82.647 47.803 80.182 18.91c-.217-2.244.943-3.258 3.48-3.258h1.45l.146-.58H63.361l-.217.58h1.377c1.74 0 2.393 1.086 2.538 3.114l3.915 37.365h9.208l15.442-32.659c2.392-4.851 4.857-7.82 7.322-7.82zm-1.812 40.624c-1.378 0-2.248-.435-2.248-2.752 0-2.896 1.088-8.617 2.248-13.83.145 2.389 1.812 4.778 4.277 4.778.58 0 1.088-.072 1.595-.144-2.32 9.92-3.19 11.948-5.872 11.948zm43.935-19.624c2.9 0 4.785-2.39 4.785-5.142 0-2.317-1.667-4.055-4.06-4.055-4.277 0-6.307 3.404-9.86 9.631-.725-3.91-2.538-8.98-7.032-8.98-5.075 0-10.948 7.242-16.313 11.732-2.465 2.1-5.148 3.403-7.323 3.403-2.247 0-3.552-2.244-3.552-6.227 1.595-6.517 2.392-8.183 4.857-8.183 1.668 0 2.393.941 2.393 2.897 0 2.1-.435 5.575-1.378 9.993 2.393-.724 6.018-3.766 9.063-7.024-1.595-3.838-5.075-6.445-10.005-6.445-9.207 0-17.327 8.255-17.327 17.524C89.318 52.148 93.885 57 100.99 57c11.745 0 16.675-10.138 16.675-17.234 0-1.014-.072-1.738-.145-2.68 1.813-1.955 4.133-3.838 6.018-3.838 2.175 0 3.915 5.431 5.582 13.614-1.523 1.666-3.045 4.852-3.77 5.431-.29-2.896-2.248-4.707-4.785-4.707-2.9 0-4.857 2.752-4.857 5.07 0 2.606 1.812 4.344 4.205 4.344 5.002 0 6.38-4.707 9.497-8.907.943 4.49 3.19 8.907 7.032 8.907 4.568 0 8.773-3.91 10.948-6.662l-.435-.652c-1.378 1.376-2.755 2.245-4.35 2.245-2.828 0-4.858-6.083-6.38-13.469.942-1.231 2.392-4.417 3.407-5.576.653 1.304 2.103 3.766 5.438 3.766z"/>
</svg>
